<svg xmlns="http://www.w3.org/2000/svg" viewBox="0 0 90.28 42"><defs><style>.cls-1{fill:#e11937;}</style></defs><title>kkРесурс 5</title><g id="Слой_2" data-name="Слой 2"><g id="Слой_1-2" data-name="Слой 1"><g id="layer1"><g id="g3458"><g id="Layer_1" data-name="Layer 1"><g id="g3438"><path id="path3432" class="cls-1" d="M22.44,8.1A12.92,12.92,0,0,0,9.18,21c0,7.8,6.36,12.9,13.32,12.9,4.62,0,9-2,12.72-5.34v9.66A28.23,28.23,0,0,1,21.84,42C10,42,0,32.34,0,21,0,9,10,0,21.9,0A32.76,32.76,0,0,1,35.28,3.12V12.6C30.9,9.72,26.46,8.1,22.44,8.1Z"/><path id="path3434" class="cls-1" d="M60.47,42c-11.94,0-22-9.3-22-21S48.47,0,61,0A36.32,36.32,0,0,1,74.69,2.82v9.42c-4-2.28-9-4.14-13.5-4.14A13.19,13.19,0,0,0,47.63,21c0,7.62,6.3,13.14,13.69,13.14a13.2,13.2,0,0,0,5-.84V25.74H59.58v-8H74.94V39A35.09,35.09,0,0,1,60.47,42Z"/><path id="path3436" class="cls-1" d="M81.64,41.16V.84h8.64V41.16Z"/></g></g></g></g></g></g></svg>