<?xml version="1.0" encoding="utf-8"?>
<!-- Generator: Adobe Illustrator 23.1.1, SVG Export Plug-In . SVG Version: 6.00 Build 0)  -->
<svg version="1.2" baseProfile="tiny" id="Слой_1"
	 xmlns="http://www.w3.org/2000/svg" xmlns:xlink="http://www.w3.org/1999/xlink" x="0px" y="0px" viewBox="0 0 480 439.9"
	 xml:space="preserve">
<g>
	<rect y="318.4" fill="#FFFFFF" width="480" height="77.8"/>
	<path fill="#9BC5B9" d="M0,355.5h480V5c0-2.8-2.2-5-5-5H5C2.2,0,0,2.2,0,5V355.5z"/>
	<path fill="#1A2F50" d="M5,439.9h470c2.8,0,5-2.2,5-5v-75.2H0v75.2C0,437.6,2.2,439.9,5,439.9z"/>
	<rect x="41.3" y="43.9" fill="#1A2F50" width="397.4" height="60.6"/>
	<path fill="#FFFFFF" d="M71.3,75.9h2.2c1.6,0,1.6,0.4,1.8,1.6h0.4c0-0.5-0.1-1.3-0.1-1.8c0-0.6,0-1.6,0.1-1.9h-0.4
		c-0.2,1.2-0.4,1.4-1.9,1.4h-2.1v-4.9h2.1c2,0,2.7,0.5,2.9,1.9l0.4-0.1l-0.1-2.4c-1.6,0-3.3,0-4.9,0c-1.3,0-2.7,0-3.9,0v0.4
		c1.4,0.1,1.7,0.1,1.7,1.5v7.7c0,1.7-0.1,1.9-1.7,1.9v0.4c0.9,0,1.8,0,2.6,0c0.8,0,1.7,0,2.6,0v-0.4c-1,0-1.7,0-1.7-1.2V75.9z"/>
	<path fill="#FFFFFF" d="M94.2,75.5c-0.3,0-0.7,0-1-0.1v-5.1c0.3-0.1,0.6-0.1,1.1-0.1c2.1,0,3,1.1,3,2.6
		C97.3,74.1,96.4,75.5,94.2,75.5 M101.9,81.3c-0.9,0-1.5-0.5-2.1-1.1c-0.8-0.8-1.7-2.2-3.3-4.5c1.4-0.4,2.6-1.5,2.6-2.9
		c0-1.2-0.8-3.1-4.2-3.1c-1.2,0-1.8,0-2.4,0c-0.9,0-1.8,0-2.8,0v0.4c1,0,1.7,0,1.7,1.2v8.7c0,1-0.7,1.2-1.7,1.2v0.4
		c0.9,0,1.8,0,2.6,0c0.8,0,1.6,0,2.5,0v-0.4c-1,0-1.7,0-1.7-1.2v-4h1.7c1.3,1.9,2.5,4,4.2,5.7c0.5,0,1,0,1.5,0c0.5,0,0.9,0,1.4,0
		V81.3z"/>
	<path fill="#FFFFFF" d="M121,81.5c-3.1,0-4.7-3.5-4.7-6.2c0-3.1,1.7-5.3,4.3-5.3c3.1,0,4.7,3.5,4.7,6.2
		C125.3,79.3,123.6,81.5,121,81.5 M120.8,69.5c-4,0-6.5,3.2-6.5,6.3c0,3.3,2.9,6.2,6.5,6.2c4,0,6.5-3.2,6.5-6.3
		C127.3,72.4,124.4,69.5,120.8,69.5"/>
	<path fill="#FFFFFF" d="M141.3,81.5c0.9,0.4,1.8,0.6,2.8,0.6c2.1,0,4.3-1.3,4.3-3.5c0-4-5.6-3.1-5.6-6.3c0-1.3,0.8-2.2,2.2-2.2
		c1.3,0,2.1,0.7,2.3,1.9h0.4l-0.3-2.2c-0.7-0.1-1.5-0.3-2.2-0.3c-2.2,0-3.9,1.2-3.9,3.4c0,4.1,5.4,3.1,5.4,6.3
		c0,1.4-1.1,2.3-2.5,2.3c-1.5,0-2.5-1.3-2.8-2.6H141L141.3,81.5z"/>
	<path fill="#FFFFFF" d="M172.8,69.3h-0.4c-0.1,0.3-0.5,0.5-1.2,0.5H163c-0.5,0-0.9,0-1.1-0.5h-0.4l-0.2,2.7h0.5
		c0.3-1.1,0.4-1.6,2-1.6h2.4v9.6c0,1.2-0.7,1.2-1.7,1.2v0.4c0.9,0,1.8,0,2.6,0c0.8,0,1.6,0,2.4,0v-0.4c-1,0-1.7,0-1.7-1.2v-9.6h2.8
		c1.5,0,1.4,0.6,1.5,1.6h0.5L172.8,69.3z"/>
	<path fill="#FFFFFF" d="M244.4,81.5c0.9,0.4,1.8,0.6,2.8,0.6c2.1,0,4.3-1.3,4.3-3.5c0-4-5.6-3.1-5.6-6.3c0-1.3,0.8-2.2,2.2-2.2
		c1.3,0,2.1,0.7,2.3,1.9h0.4l-0.3-2.2c-0.7-0.1-1.5-0.3-2.2-0.3c-2.2,0-3.9,1.2-3.9,3.4c0,4.1,5.4,3.1,5.4,6.3
		c0,1.4-1.1,2.3-2.5,2.3c-1.5,0-2.5-1.3-2.8-2.6h-0.4L244.4,81.5z"/>
	<path fill="#FFFFFF" d="M276.5,69.7c-0.6,0-1.2,0-1.8,0c-0.8,0-1.5,0-2.3,0v0.4c1.6,0.1,1.7,0,1.7,2.8v4.9c0,1.2-0.3,3.4-3.3,3.4
		c-2.8,0-3.5-2-3.5-4v-5.9c0-1.2,0.7-1.2,1.7-1.2v-0.4c-0.9,0-1.7,0-2.6,0c-0.8,0-1.7,0-2.5,0v0.4c1,0,1.7,0,1.7,1.2v6.3
		c0.1,2.9,1.9,4.3,4.8,4.3c3.2,0,4.7-1.8,4.7-4.1v-5c0-2.1,0-2.8,1.4-2.8V69.7z"/>
	<path fill="#FFFFFF" d="M298.8,79.1l-0.4-0.1c-0.6,1.7-1.3,2.2-3.4,2.2c-2.6,0-2.9-0.5-2.9-1.8v-8c0-1.2,0.7-1.2,1.7-1.2v-0.4
		c-0.9,0-1.7,0-2.6,0c-0.8,0-1.7,0-2.5,0v0.4c1,0,1.7,0,1.7,1.2v8.7c0,1-0.7,1.2-1.7,1.2v0.4c1.6,0,3.2,0,4.8,0c1.5,0,3.1,0,4.6,0
		L298.8,79.1z"/>
	<path fill="#FFFFFF" d="M321.3,79.1l-0.4-0.1c-0.6,1.7-1.3,2.2-3.4,2.2c-2.6,0-2.9-0.5-2.9-1.8v-8c0-1.2,0.7-1.2,1.7-1.2v-0.4
		c-0.9,0-1.7,0-2.6,0c-0.8,0-1.7,0-2.5,0v0.4c1,0,1.7,0,1.7,1.2v8.7c0,1-0.7,1.2-1.7,1.2v0.4c1.6,0,3.2,0,4.8,0c1.5,0,3.1,0,4.6,0
		L321.3,79.1z"/>
	<path fill="#FFFFFF" d="M335.1,80.1c0,1.2-0.7,1.2-1.7,1.2v0.4c0.9,0,1.8,0,2.6,0c0.8,0,1.6,0,2.5,0v-0.4c-1,0-1.7,0-1.7-1.2v-8.7
		c0-1.2,0.7-1.2,1.7-1.2v-0.4c-0.9,0-1.7,0-2.6,0c-0.8,0-1.7,0-2.5,0v0.4c1,0,1.7,0,1.7,1.2V80.1z"/>
	<path fill="#FFFFFF" d="M356.8,82h0.7l3.3-7.9c0-0.1,1.3-3.1,1.4-3.3c0.3-0.4,0.6-0.7,1.2-0.7v-0.4c-0.6,0-1.1,0-1.7,0
		c-0.7,0-1.4,0-2.1,0v0.4c0.7,0,1.4,0,1.4,0.8c0,0.6-0.4,1.4-0.6,2c-0.4,1.1-0.9,2.2-1.3,3.3l-1.4,3.4l-2.4-5.9
		c-0.2-0.5-1.2-2.6-1.2-3.2c0-0.3,0.2-0.4,0.5-0.4c0.3,0,0.5,0,0.8-0.1v-0.4c-0.8,0-1.5,0-2.3,0c-0.9,0-1.7,0-2.6,0v0.4
		c1.2,0,1.5,0.3,1.9,1.4c0.4,1.1,0.9,2.2,1.4,3.3L356.8,82z"/>
	<path fill="#FFFFFF" d="M377.1,76.6l1.8-5.1h0l1.9,5.1H377.1z M384.3,80.9c-0.3-0.4-0.8-1.8-1-2.5l-3.5-9.1h-0.3
		c-0.3,0.4-0.7,0.6-1.1,0.8c0,0.1,0,0.3,0,0.4c0,0.5-0.2,1.2-0.4,1.6l-2.3,6.2c-0.2,0.6-0.5,1.3-0.7,1.9c-0.5,1-0.7,1.1-1.8,1.2v0.4
		c0.7,0,1.5,0,2.2,0c0.7,0,1.4,0,2.1,0v-0.4h-0.4c-0.6,0-1.2,0-1.2-0.8c0-0.5,0.3-1.3,0.5-2.1l0.4-1.2h4.3l0.9,2.5
		c0.1,0.3,0.3,0.8,0.3,1c0,0.5-0.5,0.6-1,0.6h-0.3v0.4c0.9,0,1.8,0,2.7,0c0.7,0,1.4,0,2.1,0v-0.4C385.1,81.3,384.5,81.2,384.3,80.9"
		/>
	<path fill="#FFFFFF" d="M410.5,72c0-1.7,0.6-1.8,1.7-1.8v-0.4c-0.7,0-1.4,0-2.1,0c-0.8,0-1.7,0-2.5,0v0.4c1.8,0,2.2,0.5,2.2,2.1
		v6.9c-1.2-1.3-2.9-3-4.5-4.6c-2.1-2.2-3.8-3.7-4.5-4.8c-0.5,0-1,0-1.5,0c-0.6,0-1.1,0-1.7,0v0.4c1.6,0,2.2,0.5,2.2,2v6.9
		c0,2.2-0.8,2.2-1.9,2.2v0.4c0.8,0,1.6,0,2.4,0c0.8,0,1.6,0,2.4,0v-0.4c-2,0-2.2-0.5-2.2-2.9V72l9.5,9.9h0.4V72z"/>
	<path fill="#FFFFFF" d="M199.9,77.1c-0.1-0.3-0.1-0.6-0.1-1c0-2.2,1.5-4.9,3.5-4.9c0.5,0,1,0.4,1,0.7c0,0.1,0,0.2-0.1,0.3l-2.3,2.4
		C201.2,75.4,200.6,76.2,199.9,77.1 M217.5,70.8c-0.4,0-0.8,0.3-0.8,0.7c0,0.7,0.7,1,0.7,1.5c0,0.5-0.3,0.9-0.8,0.9
		c-1.5,0-2.1-3-4.7-3c-1.8,0-4.2,1.9-4.2,3.8c0,1.4,1,1.8,1.5,1.8c0.5,0,1.2-0.2,1.2-0.9c0-1.3-1.6-0.3-1.6-1.9
		c0-0.9,0.8-1.5,1.7-1.5c0.6,0,1.9,0.5,2.1,1c-0.1,2-0.5,4.1-1.8,5.6c-1.1,1.3-3.3,2.7-5.9,2.7c-1.2,0-2.7-0.5-3.5-1.4
		c-0.4-0.5-0.9-1.1-0.9-1.7c0-0.8,0.4-1.3,0.9-1.9l1.1-1.4l0.9-0.9l5-4.7c0.7-0.6,2.2-2.2,2.2-3.2c0-0.7-0.3-1.1-0.8-1.1
		c-0.5,0-1,0.3-1,0.9c0,0.2,0.2,0.8,0.2,1.1c0,1.1-2.1,2.7-2.7,3.5c-0.4-0.4-1-0.6-1.5-0.6c-3.2,0-6.3,4.1-6.3,7.1
		c0,3.7,2.6,6.1,6,6.1c4.4,0,6.5-2.6,7.6-4.5c0.9-1.7,1.1-3.4,1.2-5.1c0.5,0.6,1.3,1.3,2.1,1.3c1.5,0,3.2-1.4,3.2-3
		C218.5,71.4,218.2,70.8,217.5,70.8"/>
	<g>
		<rect x="41.4" y="148.2" fill="#FFFFFF" width="397.1" height="2"/>
	</g>
	<g>
		<rect x="41.4" y="309.1" fill="#FFFFFF" width="397.1" height="2"/>
	</g>
	<path fill="#1A2F50" d="M259.8,185c0,1.1-0.4,2-1.1,2.6c-0.7,0.7-1.8,1-3.1,1h-7.3v-12.7h6.1c0.8,0,1.5,0.1,2.1,0.2
		c0.6,0.2,1.1,0.4,1.4,0.6c0.4,0.3,0.6,0.6,0.8,0.9c0.2,0.4,0.3,0.8,0.3,1.2c0,0.5-0.1,0.9-0.3,1.3c-0.2,0.4-0.4,0.7-0.7,1
		c-0.3,0.3-0.5,0.4-0.8,0.5c0.9,0.3,1.5,0.8,2,1.3C259.6,183.5,259.8,184.2,259.8,185 M255.3,179.6c0-0.6-0.2-1-0.6-1.2
		c-0.4-0.2-1-0.3-1.9-0.3H252v3h0.8c0.9,0,1.5-0.1,1.9-0.3C255.1,180.6,255.3,180.2,255.3,179.6 M256,184.8c0-1.1-0.8-1.6-2.4-1.6
		H252v3.3h1.6C255.2,186.5,256,185.9,256,184.8"/>
	<polygon fill="#1A2F50" points="279.8,188.6 270.3,188.6 270.3,175.9 279.7,175.9 279.7,178.4 274.1,178.4 274.1,180.8 
		279.4,180.8 279.4,183.3 274.1,183.3 274.1,186 279.8,186 	"/>
	<path fill="#1A2F50" d="M299.3,184.9c0,0.8-0.2,1.5-0.6,2.1c-0.4,0.6-1,1-1.7,1.3c-0.7,0.3-1.6,0.5-2.5,0.5c-0.3,0-0.6,0-1-0.1
		c-0.4,0-0.9-0.1-1.5-0.3c-0.6-0.2-1.3-0.4-2-0.7v-3.1c0.6,0.4,1.3,0.7,1.9,1c0.6,0.3,1.3,0.4,2,0.4c0.7,0,1.1-0.1,1.3-0.3
		c0.2-0.2,0.3-0.4,0.3-0.6c0-0.3-0.2-0.6-0.5-0.9c-0.3-0.2-0.8-0.5-1.4-0.7c-0.7-0.3-1.3-0.6-1.8-1c-0.5-0.3-1-0.8-1.3-1.3
		c-0.3-0.5-0.5-1.1-0.5-1.8c0-0.7,0.2-1.3,0.5-1.9c0.3-0.6,0.9-1,1.5-1.3c0.7-0.3,1.5-0.5,2.5-0.5c0.7,0,1.4,0.1,2,0.2
		c0.6,0.1,1.1,0.3,1.5,0.5c0.4,0.2,0.7,0.3,0.8,0.4v3c-0.5-0.4-1.1-0.7-1.7-1s-1.3-0.4-2.1-0.4c-0.5,0-0.8,0.1-1,0.3
		c-0.2,0.2-0.3,0.4-0.3,0.7c0,0.3,0.1,0.5,0.3,0.7s0.6,0.4,1.1,0.7c1,0.5,1.8,0.9,2.3,1.2c0.6,0.4,1,0.8,1.4,1.3
		C299.1,183.6,299.3,184.2,299.3,184.9"/>
	<polygon fill="#1A2F50" points="322.1,179 317.4,179 317.4,188.6 313.6,188.6 313.6,179 308.9,179 308.9,175.9 322.1,175.9 	"/>
	<path fill="#1A2F50" d="M259.2,227.3c0,0.5-0.1,0.9-0.2,1.4c-0.2,0.5-0.4,0.9-0.8,1.3c-0.4,0.4-0.8,0.7-1.5,0.9
		c-0.6,0.2-1.3,0.4-2.2,0.4H252v4.8h-3.8v-12.7h6.3c0.8,0,1.6,0.1,2.2,0.4s1.1,0.6,1.5,1c0.4,0.4,0.6,0.8,0.8,1.3
		C259.1,226.4,259.2,226.8,259.2,227.3 M255.3,227.3c0-0.6-0.2-1-0.5-1.2c-0.4-0.2-1-0.3-1.9-0.3H252v3.1h0.8c0.6,0,1.1,0,1.5-0.1
		c0.3-0.1,0.6-0.2,0.7-0.4C255.2,228,255.3,227.7,255.3,227.3"/>
	<path fill="#1A2F50" d="M281.6,236h-4.1l-1-2.3c-0.4-0.8-0.7-1.4-1-1.8c-0.3-0.4-0.6-0.6-0.9-0.7c-0.3-0.1-0.6-0.2-1.1-0.2h-0.4v5
		h-3.8v-12.7h6.5c1.1,0,1.9,0.2,2.6,0.6c0.7,0.4,1.2,0.9,1.5,1.6c0.3,0.6,0.4,1.2,0.4,1.7c0,0.6-0.1,1.2-0.4,1.6
		c-0.2,0.4-0.5,0.8-0.8,1c-0.3,0.2-0.6,0.4-0.9,0.6c0.4,0.2,0.7,0.5,1,0.8c0.3,0.3,0.6,1,1.1,2L281.6,236z M276.4,227.3
		c0-0.6-0.2-1-0.6-1.2c-0.4-0.2-1-0.3-1.9-0.3h-0.8v3.1h0.8c0.9,0,1.6-0.1,1.9-0.3C276.3,228.3,276.4,227.9,276.4,227.3"/>
	<path fill="#1A2F50" d="M305.3,236h-3.9l-1-2.6h-5.5l-1.1,2.6h-3.9l5.6-12.7h4.2L305.3,236z M299.5,231.2l-1.9-4.6l-1.9,4.6H299.5z
		"/>
	<path fill="#1A2F50" d="M326.1,235.1c-0.5,0.3-1.1,0.5-1.6,0.7c-0.6,0.2-1.1,0.3-1.7,0.4c-0.6,0.1-1.1,0.1-1.7,0.1
		c-1.1,0-2.1-0.2-3-0.5c-0.9-0.3-1.6-0.8-2.3-1.4c-0.6-0.6-1.1-1.3-1.4-2.1s-0.5-1.7-0.5-2.6c0-1.1,0.2-2.1,0.6-2.9
		c0.4-0.8,0.9-1.5,1.6-2.1c0.7-0.5,1.5-0.9,2.3-1.2c0.9-0.3,1.8-0.4,2.8-0.4c1.4,0,3.1,0.3,4.9,1v3.4c-0.6-0.4-1.3-0.7-1.9-1
		c-0.6-0.3-1.3-0.4-2.2-0.4c-0.7,0-1.4,0.1-2.1,0.4c-0.6,0.3-1.2,0.7-1.6,1.3c-0.4,0.5-0.6,1.2-0.6,1.9c0,0.6,0.2,1.2,0.5,1.8
		c0.3,0.5,0.8,1,1.4,1.3c0.6,0.3,1.3,0.5,2.1,0.5c0.6,0,1.2-0.1,1.8-0.2c0.6-0.1,1-0.3,1.4-0.5c0.4-0.2,0.8-0.4,1.2-0.7V235.1z"/>
	<polygon fill="#1A2F50" points="348.9,226.4 344.2,226.4 344.2,236 340.4,236 340.4,226.4 335.7,226.4 335.7,223.3 348.9,223.3 	
		"/>
	<rect x="359.1" y="223.3" fill="#1A2F50" width="3.8" height="12.7"/>
	<path fill="#1A2F50" d="M385.5,235.1c-0.5,0.3-1.1,0.5-1.6,0.7c-0.6,0.2-1.1,0.3-1.7,0.4c-0.6,0.1-1.1,0.1-1.7,0.1
		c-1.1,0-2.1-0.2-3-0.5c-0.9-0.3-1.6-0.8-2.3-1.4c-0.6-0.6-1.1-1.3-1.4-2.1s-0.5-1.7-0.5-2.6c0-1.1,0.2-2.1,0.6-2.9
		c0.4-0.8,0.9-1.5,1.6-2.1c0.7-0.5,1.5-0.9,2.3-1.2c0.9-0.3,1.8-0.4,2.8-0.4c1.4,0,3.1,0.3,4.9,1v3.4c-0.6-0.4-1.3-0.7-1.9-1
		c-0.6-0.3-1.3-0.4-2.2-0.4c-0.7,0-1.4,0.1-2.1,0.4c-0.6,0.3-1.2,0.7-1.6,1.3c-0.4,0.5-0.6,1.2-0.6,1.9c0,0.6,0.2,1.2,0.5,1.8
		c0.3,0.5,0.8,1,1.4,1.3c0.6,0.3,1.3,0.5,2.1,0.5c0.6,0,1.2-0.1,1.8-0.2c0.6-0.1,1-0.3,1.4-0.5c0.4-0.2,0.8-0.4,1.2-0.7V235.1z"/>
	<polygon fill="#1A2F50" points="405.7,236 396.1,236 396.1,223.3 405.5,223.3 405.5,225.9 399.9,225.9 399.9,228.2 405.3,228.2 
		405.3,230.7 399.9,230.7 399.9,233.5 405.7,233.5 	"/>
	<path fill="#1A2F50" d="M425.1,232.3c0,0.8-0.2,1.5-0.6,2.1c-0.4,0.6-1,1-1.7,1.3c-0.7,0.3-1.6,0.5-2.5,0.5c-0.3,0-0.6,0-1-0.1
		c-0.4,0-0.9-0.1-1.5-0.3c-0.6-0.2-1.3-0.4-2-0.7v-3.1c0.6,0.4,1.3,0.7,1.9,1c0.6,0.3,1.3,0.4,2,0.4c0.7,0,1.1-0.1,1.3-0.3
		c0.2-0.2,0.3-0.4,0.3-0.6c0-0.3-0.2-0.6-0.5-0.9c-0.3-0.2-0.8-0.5-1.4-0.7c-0.7-0.3-1.3-0.6-1.8-1c-0.5-0.3-1-0.8-1.3-1.3
		c-0.3-0.5-0.5-1.1-0.5-1.8c0-0.7,0.2-1.3,0.5-1.9c0.3-0.6,0.9-1,1.5-1.3c0.7-0.3,1.5-0.5,2.5-0.5c0.7,0,1.4,0.1,2,0.2
		c0.6,0.1,1.1,0.3,1.5,0.5c0.4,0.2,0.7,0.3,0.8,0.4v3c-0.5-0.4-1.1-0.7-1.7-1c-0.6-0.3-1.3-0.4-2.1-0.4c-0.5,0-0.8,0.1-1,0.3
		c-0.2,0.2-0.3,0.4-0.3,0.7c0,0.3,0.1,0.5,0.3,0.7c0.2,0.2,0.6,0.4,1.1,0.7c1,0.5,1.8,0.9,2.3,1.2c0.6,0.4,1,0.8,1.4,1.3
		C425,231,425.1,231.6,425.1,232.3"/>
	<path fill="#1A2F50" d="M262.2,283.4h-3.9l-1-2.6h-5.5l-1.1,2.6h-3.9l5.6-12.7h4.2L262.2,283.4z M256.3,278.7l-1.9-4.6l-1.9,4.6
		H256.3z"/>
	<polygon fill="#1A2F50" points="291.4,270.7 285.9,283.6 283.6,283.6 280.3,276.1 276.9,283.6 274.7,283.6 269.3,270.7 
		273.3,270.7 275.9,277.8 279,270.7 281.7,270.7 284.7,277.8 287.4,270.7 	"/>
	<path fill="#1A2F50" d="M314,283.4h-3.9l-1-2.6h-5.5l-1.1,2.6h-3.9l5.6-12.7h4.2L314,283.4z M308.2,278.7l-1.9-4.6l-1.9,4.6H308.2z
		"/>
	<path fill="#1A2F50" d="M336,283.4h-4.1l-1-2.3c-0.4-0.8-0.7-1.4-1-1.8c-0.3-0.4-0.6-0.6-0.9-0.7c-0.3-0.1-0.6-0.2-1.1-0.2h-0.4v5
		h-3.8v-12.7h6.5c1.1,0,1.9,0.2,2.6,0.6c0.7,0.4,1.2,0.9,1.5,1.6c0.3,0.6,0.4,1.2,0.4,1.7c0,0.6-0.1,1.2-0.4,1.6
		c-0.2,0.4-0.5,0.8-0.8,1c-0.3,0.2-0.6,0.4-0.9,0.6c0.4,0.2,0.7,0.5,1,0.8c0.3,0.3,0.6,1,1.1,2L336,283.4z M330.8,274.7
		c0-0.6-0.2-1-0.6-1.2c-0.4-0.2-1-0.3-1.9-0.3h-0.8v3.1h0.8c0.9,0,1.6-0.1,1.9-0.3C330.6,275.7,330.8,275.3,330.8,274.7"/>
	<path fill="#1A2F50" d="M358.8,277.3c0,1.3-0.2,2.3-0.7,3.1c-0.5,0.8-1,1.4-1.7,1.9c-0.9,0.7-2.2,1.1-3.8,1.1h-0.2h-6.7v-12.7h5.3
		c0.8,0,1.5,0,2,0.1c0.6,0.1,1.1,0.2,1.5,0.3c0.5,0.1,0.8,0.3,1.2,0.5c0.3,0.2,0.6,0.4,0.9,0.6c0.4,0.4,0.8,0.8,1.1,1.3
		c0.3,0.5,0.6,1,0.8,1.7C358.7,275.9,358.8,276.6,358.8,277.3 M354.9,277.1c0-1-0.2-1.8-0.6-2.4c-0.4-0.6-0.9-1-1.4-1.2
		c-0.6-0.2-1.1-0.3-1.7-0.3h-1.6v7.5h1.6c1,0,1.9-0.2,2.6-0.7C354.5,279.6,354.9,278.6,354.9,277.1"/>
	<polygon fill="#FFFFFF" points="64.6,385.7 56.5,385.7 56.5,374.7 64.5,374.7 64.5,376.7 59.2,376.7 59.2,379 64.3,379 64.3,381 
		59.2,381 59.2,383.7 64.6,383.7 	"/>
	<path fill="#FFFFFF" d="M77.6,374.7v6.2c0,3.6-2.5,4.9-5.5,4.9c-3.2,0-5.5-1.5-5.5-4.9v-6.2h2.7v6.3c0,1.6,1.1,2.5,2.7,2.5
		c1.5,0,2.8-0.8,2.8-2.7v-6.1H77.6z"/>
	<path fill="#FFFFFF" d="M84.9,374.7c2.3,0,3.6,1.5,3.6,3.2c0,1.2-0.6,2.1-1.9,2.7c1.1,0.6,1.5,1.9,3,5.1h-3
		c-1.2-2.4-1.6-4.5-3.1-4.5h-0.8v4.5H80v-11H84.9z M82.7,379.2h1.5c0.8,0,1.5-0.3,1.5-1.3c0-0.8-0.5-1.2-1.6-1.2h-1.4V379.2z"/>
	<path fill="#FFFFFF" d="M96.4,385.8c-4,0-6.3-2.8-6.3-5.6c0-2.7,2.2-5.6,6.3-5.6c4.1,0,6.3,3,6.3,5.6
		C102.7,383,100.4,385.8,96.4,385.8 M96.4,376.8c-2.1,0-3.5,1.3-3.5,3.4s1.4,3.4,3.5,3.4c2.1,0,3.5-1.3,3.5-3.4
		S98.5,376.8,96.4,376.8"/>
	<path fill="#FFFFFF" d="M109.7,374.7c2.5,0,3.6,1.8,3.6,3.3c0,1.5-1.1,3.3-3.6,3.3h-2.2v4.4h-2.7v-11H109.7z M107.6,379.3h1.3
		c1.3,0,1.7-0.5,1.7-1.3c0-0.9-0.5-1.3-2-1.3h-1V379.3z"/>
	<polygon fill="#FFFFFF" points="123.4,385.7 115.3,385.7 115.3,374.7 123.3,374.7 123.3,376.7 118,376.7 118,379 123.1,379 
		123.1,381 118,381 118,383.7 123.4,383.7 	"/>
	<path fill="#FFFFFF" d="M136.8,385.7h-2.9l-0.9-2.2H128l-0.8,2.2h-2.9l4.4-11h3.2L136.8,385.7z M130.4,377.3l-1.6,4.3h3.4
		L130.4,377.3z"/>
	<polygon fill="#FFFFFF" points="149.2,385.7 146.9,385.7 140.8,378.6 140.8,385.7 138.1,385.7 138.1,374.7 140.6,374.7 
		146.5,381.4 146.5,374.7 149.2,374.7 	"/>
	<polygon fill="#FFFFFF" points="165.6,374.7 168,374.7 168,385.7 165.2,385.7 165.2,378.8 162.3,382.3 161.8,382.3 158.9,378.8 
		158.9,385.7 156.1,385.7 156.1,374.7 158.5,374.7 162.1,378.8 	"/>
	<path fill="#FFFFFF" d="M181.7,385.7h-2.9l-0.9-2.2h-4.9l-0.8,2.2h-2.9l4.4-11h3.2L181.7,385.7z M175.3,377.3l-1.6,4.3h3.4
		L175.3,377.3z"/>
	<polygon fill="#FFFFFF" points="194.1,385.7 191.8,385.7 185.7,378.6 185.7,385.7 183,385.7 183,374.7 185.5,374.7 191.4,381.4 
		191.4,374.7 194.1,374.7 	"/>
	<path fill="#FFFFFF" d="M207.5,374.7v6.2c0,3.6-2.5,4.9-5.5,4.9c-3.2,0-5.5-1.5-5.5-4.9v-6.2h2.7v6.3c0,1.6,1.1,2.5,2.7,2.5
		c1.5,0,2.8-0.8,2.8-2.7v-6.1H207.5z"/>
	<polygon fill="#FFFFFF" points="217.4,376.7 212.6,376.7 212.6,379.2 217.4,379.2 217.4,381.2 212.6,381.2 212.6,385.7 
		209.8,385.7 209.8,374.7 217.4,374.7 	"/>
	<path fill="#FFFFFF" d="M229.9,385.7h-2.9l-0.9-2.2h-4.9l-0.8,2.2h-2.9l4.4-11h3.2L229.9,385.7z M223.5,377.3l-1.6,4.3h3.4
		L223.5,377.3z"/>
	<path fill="#FFFFFF" d="M240.8,384.7c-1.5,0.8-2.7,1.1-4.3,1.1c-4.3,0-6.4-2.8-6.4-5.6c0-2.9,2.4-5.7,6.6-5.7c1.5,0,2.9,0.3,4,1
		v2.4c-1.2-0.7-2.4-1.1-3.8-1.1c-2.3,0-4,1.4-4,3.3c0,2,1.6,3.4,3.9,3.4c1.4,0,2.4-0.5,4-1.2V384.7z"/>
	<polygon fill="#FFFFFF" points="252.9,376.7 248.9,376.7 248.9,385.7 246.1,385.7 246.1,376.7 242.2,376.7 242.2,374.7 
		252.9,374.7 	"/>
	<path fill="#FFFFFF" d="M265.4,374.7v6.2c0,3.6-2.5,4.9-5.5,4.9c-3.2,0-5.5-1.5-5.5-4.9v-6.2h2.7v6.3c0,1.6,1.1,2.5,2.7,2.5
		c1.4,0,2.8-0.8,2.8-2.7v-6.1H265.4z"/>
	<path fill="#FFFFFF" d="M272.7,374.7c2.3,0,3.6,1.5,3.6,3.2c0,1.2-0.6,2.1-1.9,2.7c1.1,0.6,1.5,1.9,3,5.1h-3
		c-1.2-2.4-1.6-4.5-3.1-4.5h-0.8v4.5h-2.7v-11H272.7z M270.5,379.2h1.4c0.8,0,1.5-0.3,1.5-1.3c0-0.8-0.5-1.2-1.6-1.2h-1.4V379.2z"/>
	<rect x="278.8" y="374.7" fill="#FFFFFF" width="2.7" height="11"/>
	<polygon fill="#FFFFFF" points="295.2,385.7 292.9,385.7 286.8,378.6 286.8,385.7 284,385.7 284,374.7 286.6,374.7 292.4,381.4 
		292.4,374.7 295.2,374.7 	"/>
	<path fill="#FFFFFF" d="M308.1,377.9c-1.4-0.7-2.8-1-4.1-1c-3,0-4,1.8-4,3.5c0,1.9,1.5,3.2,3.8,3.2c0.7,0,1-0.1,1.8-0.4v-1.3H304
		v-2h4.3v4.5c-0.8,0.9-2.9,1.5-4.6,1.5c-3.8,0-6.6-2.3-6.6-5.6c0-3.4,2.7-5.7,6.6-5.7c1.6,0,3.2,0.4,4.3,0.9V377.9z"/>
	<path fill="#FFFFFF" d="M321,385.8c-4,0-6.3-2.8-6.3-5.6c0-2.7,2.2-5.6,6.3-5.6c4.1,0,6.3,3,6.3,5.6C327.3,383,325,385.8,321,385.8
		 M321,376.8c-2.1,0-3.5,1.3-3.5,3.4s1.4,3.4,3.5,3.4c2.1,0,3.5-1.3,3.5-3.4S323.1,376.8,321,376.8"/>
	<path fill="#FFFFFF" d="M334.3,374.7c2.5,0,3.6,1.8,3.6,3.3c0,1.5-1.1,3.3-3.6,3.3h-2.2v4.4h-2.7v-11H334.3z M332.1,379.3h1.3
		c1.3,0,1.7-0.5,1.7-1.3c0-0.9-0.5-1.3-2-1.3h-1V379.3z"/>
	<polygon fill="#FFFFFF" points="348,385.7 339.9,385.7 339.9,374.7 347.9,374.7 347.9,376.7 342.6,376.7 342.6,379 347.6,379 
		347.6,381 342.6,381 342.6,383.7 348,383.7 	"/>
	<path fill="#FFFFFF" d="M355,374.7c2.3,0,3.6,1.5,3.6,3.2c0,1.2-0.6,2.1-1.9,2.7c1.1,0.6,1.5,1.9,3,5.1h-3
		c-1.2-2.4-1.6-4.5-3.1-4.5h-0.8v4.5h-2.7v-11H355z M352.8,379.2h1.4c0.8,0,1.5-0.3,1.5-1.3c0-0.8-0.5-1.2-1.6-1.2h-1.4V379.2z"/>
	<path fill="#FFFFFF" d="M372.3,385.7h-2.9l-0.9-2.2h-4.9l-0.8,2.2h-2.9l4.4-11h3.2L372.3,385.7z M365.9,377.3l-1.6,4.3h3.4
		L365.9,377.3z"/>
	<polygon fill="#FFFFFF" points="381.5,376.7 377.6,376.7 377.6,385.7 374.8,385.7 374.8,376.7 370.8,376.7 370.8,374.7 
		381.5,374.7 	"/>
	<rect x="383.3" y="374.7" fill="#FFFFFF" width="2.7" height="11"/>
	<path fill="#FFFFFF" d="M394.4,385.8c-4,0-6.3-2.8-6.3-5.6c0-2.7,2.2-5.6,6.3-5.6c4.1,0,6.3,3,6.3,5.6
		C400.7,383,398.3,385.8,394.4,385.8 M394.4,376.8c-2.1,0-3.5,1.3-3.5,3.4s1.4,3.4,3.5,3.4c2.1,0,3.5-1.3,3.5-3.4
		S396.5,376.8,394.4,376.8"/>
	<polygon fill="#FFFFFF" points="413.8,385.7 411.5,385.7 405.4,378.6 405.4,385.7 402.7,385.7 402.7,374.7 405.2,374.7 411,381.4 
		411,374.7 413.8,374.7 	"/>
	<path fill="#FFFFFF" d="M423.6,377.6c-1.6-0.7-2.5-1-3.5-1c-1,0-1.6,0.4-1.6,0.9c0,1.7,5.6,1.2,5.6,5c0,2.1-1.8,3.3-4.2,3.3
		c-1.9,0-2.9-0.5-4-1.1v-2.4c1.6,1,2.5,1.4,3.8,1.4c1,0,1.6-0.4,1.6-1c0-1.8-5.6-1.1-5.6-5.1c0-1.9,1.6-3.2,4.2-3.2
		c1.2,0,2.3,0.3,3.7,0.9V377.6z"/>
	<polygon fill="#FFFFFF" points="22.4,394 24.8,394 24.8,405 22.1,405 22.1,398.2 19.1,401.6 18.7,401.6 15.7,398.2 15.7,405 
		13,405 13,394 15.4,394 18.9,398.1 	"/>
	<path fill="#FFFFFF" d="M38.5,405h-2.9l-0.9-2.2h-4.9L29,405h-2.9l4.4-11h3.2L38.5,405z M32.1,396.7l-1.6,4.3h3.4L32.1,396.7z"/>
	<polygon fill="#FFFFFF" points="50.9,405 48.6,405 42.6,398 42.6,405 39.8,405 39.8,394 42.3,394 48.2,400.7 48.2,394 50.9,394 	
		"/>
	<path fill="#FFFFFF" d="M64.7,405h-2.9l-0.9-2.2h-4.9l-0.8,2.2h-2.9l4.4-11h3.2L64.7,405z M58.3,396.7l-1.6,4.3h3.4L58.3,396.7z"/>
	<path fill="#FFFFFF" d="M75.8,397.2c-1.4-0.7-2.8-1-4.1-1c-3,0-4,1.8-4,3.5c0,1.9,1.5,3.2,3.8,3.2c0.7,0,1-0.1,1.8-0.4v-1.3h-1.6
		v-2H76v4.5c-0.8,0.9-2.9,1.5-4.6,1.5c-3.8,0-6.6-2.3-6.6-5.6c0-3.4,2.7-5.7,6.6-5.7c1.6,0,3.2,0.4,4.3,0.9V397.2z"/>
	<polygon fill="#FFFFFF" points="86.6,405 78.5,405 78.5,394 86.4,394 86.4,396 81.2,396 81.2,398.3 86.2,398.3 86.2,400.4 
		81.2,400.4 81.2,403 86.6,403 	"/>
	<polygon fill="#FFFFFF" points="98.1,394 100.5,394 100.5,405 97.7,405 97.7,398.2 94.8,401.6 94.4,401.6 91.4,398.2 91.4,405 
		88.7,405 88.7,394 91,394 94.6,398.1 	"/>
	<polygon fill="#FFFFFF" points="111,405 102.9,405 102.9,394 110.9,394 110.9,396 105.7,396 105.7,398.3 110.7,398.3 110.7,400.4 
		105.7,400.4 105.7,403 111,403 	"/>
	<polygon fill="#FFFFFF" points="124.3,405 122,405 115.9,398 115.9,405 113.1,405 113.1,394 115.7,394 121.5,400.7 121.5,394 
		124.3,394 	"/>
	<polygon fill="#FFFFFF" points="136.6,396 132.7,396 132.7,405 129.9,405 129.9,396 125.9,396 125.9,394 136.6,394 	"/>
	<path fill="#FFFFFF" d="M150.2,396.9c-1.6-0.7-2.5-1-3.5-1c-1,0-1.6,0.4-1.6,0.9c0,1.7,5.6,1.2,5.6,5c0,2.1-1.8,3.3-4.2,3.3
		c-1.9,0-2.9-0.5-4-1.1v-2.4c1.6,1,2.5,1.4,3.8,1.4c1,0,1.6-0.4,1.6-1c0-1.8-5.6-1.1-5.6-5.1c0-1.9,1.6-3.2,4.2-3.2
		c1.2,0,2.3,0.3,3.7,0.9V396.9z"/>
	<path fill="#FFFFFF" d="M158.3,405.2c-4,0-6.3-2.8-6.3-5.6c0-2.7,2.2-5.6,6.3-5.6s6.3,3,6.3,5.6
		C164.6,402.3,162.3,405.2,158.3,405.2 M158.3,396.2c-2.1,0-3.5,1.3-3.5,3.4c0,2,1.4,3.4,3.5,3.4c2.1,0,3.5-1.3,3.5-3.4
		C161.8,397.5,160.4,396.2,158.3,396.2"/>
	<polygon fill="#FFFFFF" points="174.2,396 169.3,396 169.3,398.5 174.2,398.5 174.2,400.5 169.3,400.5 169.3,405 166.6,405 
		166.6,394 174.2,394 	"/>
	<polygon fill="#FFFFFF" points="186.2,396 182.3,396 182.3,405 179.5,405 179.5,396 175.5,396 175.5,394 186.2,394 	"/>
	<polygon fill="#FFFFFF" points="192.7,405.2 191.5,405.2 186.7,394 189.6,394 192.2,400.1 195,394 197.2,394 200,400.1 202.6,394 
		205.5,394 200.7,405.2 199.5,405.2 196.1,398 	"/>
	<path fill="#FFFFFF" d="M216.7,405h-2.9l-0.9-2.2H208l-0.8,2.2h-2.9l4.4-11h3.2L216.7,405z M210.3,396.7l-1.6,4.3h3.4L210.3,396.7z
		"/>
	<path fill="#FFFFFF" d="M222.9,394c2.3,0,3.6,1.5,3.6,3.2c0,1.2-0.6,2.1-1.9,2.7c1.1,0.6,1.5,1.9,3,5.1h-3
		c-1.2-2.4-1.6-4.5-3.1-4.5h-0.8v4.5H218v-11H222.9z M220.7,398.5h1.5c0.8,0,1.5-0.3,1.5-1.3c0-0.8-0.5-1.2-1.6-1.2h-1.4V398.5z"/>
	<polygon fill="#FFFFFF" points="237,405 228.9,405 228.9,394 236.9,394 236.9,396 231.7,396 231.7,398.3 236.7,398.3 236.7,400.4 
		231.7,400.4 231.7,403 237,403 	"/>
	<polygon fill="#FFFFFF" points="251.2,396 246.3,396 246.3,398.5 251.2,398.5 251.2,400.5 246.3,400.5 246.3,405 243.6,405 
		243.6,394 251.2,394 	"/>
	<path fill="#FFFFFF" d="M259.1,405.2c-4,0-6.3-2.8-6.3-5.6c0-2.7,2.2-5.6,6.3-5.6c4.1,0,6.3,3,6.3,5.6
		C265.4,402.3,263.1,405.2,259.1,405.2 M259.1,396.2c-2.1,0-3.5,1.3-3.5,3.4c0,2,1.4,3.4,3.5,3.4c2.1,0,3.5-1.3,3.5-3.4
		C262.6,397.5,261.2,396.2,259.1,396.2"/>
	<path fill="#FFFFFF" d="M272.3,394c2.3,0,3.6,1.5,3.6,3.2c0,1.2-0.6,2.1-1.9,2.7c1.1,0.6,1.5,1.9,3,5.1h-3
		c-1.2-2.4-1.6-4.5-3.1-4.5h-0.8v4.5h-2.7v-11H272.3z M270.1,398.5h1.4c0.8,0,1.5-0.3,1.5-1.3c0-0.8-0.5-1.2-1.6-1.2h-1.4V398.5z"/>
	<polygon fill="#FFFFFF" points="290.4,396 285.5,396 285.5,398.5 290.4,398.5 290.4,400.5 285.5,400.5 285.5,405 282.8,405 
		282.8,394 290.4,394 	"/>
	<path fill="#FFFFFF" d="M298.3,405.2c-4,0-6.3-2.8-6.3-5.6c0-2.7,2.2-5.6,6.3-5.6c4.1,0,6.3,3,6.3,5.6
		C304.6,402.3,302.3,405.2,298.3,405.2 M298.3,396.2c-2.1,0-3.5,1.3-3.5,3.4c0,2,1.4,3.4,3.5,3.4c2.1,0,3.5-1.3,3.5-3.4
		C301.8,397.5,300.4,396.2,298.3,396.2"/>
	<path fill="#FFFFFF" d="M312.4,405.2c-4,0-6.3-2.8-6.3-5.6c0-2.7,2.2-5.6,6.3-5.6c4.1,0,6.3,3,6.3,5.6
		C318.7,402.3,316.4,405.2,312.4,405.2 M312.4,396.2c-2.1,0-3.5,1.3-3.5,3.4c0,2,1.4,3.4,3.5,3.4c2.1,0,3.5-1.3,3.5-3.4
		C315.9,397.5,314.5,396.2,312.4,396.2"/>
	<path fill="#FFFFFF" d="M325.5,394c4,0,6.1,2.5,6.1,5.5c0,3.2-2,5.5-6.4,5.5h-4.5v-11H325.5z M323.4,403h1.8c2.8,0,3.6-1.9,3.6-3.5
		c0-1.9-1-3.5-3.6-3.5h-1.8V403z"/>
	<path fill="#FFFFFF" d="M347.8,405h-2.9l-0.9-2.2H339l-0.8,2.2h-2.9l4.4-11h3.2L347.8,405z M341.4,396.7l-1.6,4.3h3.4L341.4,396.7z
		"/>
	<polygon fill="#FFFFFF" points="360.2,405 357.9,405 351.8,398 351.8,405 349.1,405 349.1,394 351.6,394 357.4,400.7 357.4,394 
		360.2,394 	"/>
	<path fill="#FFFFFF" d="M367.5,394c4,0,6.1,2.5,6.1,5.5c0,3.2-2,5.5-6.4,5.5h-4.5v-11H367.5z M365.4,403h1.8c2.8,0,3.6-1.9,3.6-3.5
		c0-1.9-1-3.5-3.6-3.5h-1.8V403z"/>
	<path fill="#FFFFFF" d="M384.8,394c2.6,0,3.6,1.5,3.6,2.8c0,0.9-0.6,1.7-1.5,2.2c1.6,0.4,2.3,1.5,2.3,2.8c0,1.3-0.7,3.2-3.9,3.2
		H380v-11H384.8z M382.8,398.4h1.4c1,0,1.4-0.6,1.4-1.2c0-0.6-0.4-1.2-1.4-1.2h-1.4V398.4z M382.8,403h1.5c1.5,0,2-0.4,2-1.4
		c0-0.8-0.7-1.2-1.7-1.2h-1.9V403z"/>
	<polygon fill="#FFFFFF" points="399.4,405 391.3,405 391.3,394 399.3,394 399.3,396 394.1,396 394.1,398.3 399.1,398.3 
		399.1,400.4 394.1,400.4 394.1,403 399.4,403 	"/>
	<polygon fill="#FFFFFF" points="406.8,405.2 405.6,405.2 400.3,394 403.3,394 406.2,400.3 408.9,394 411.9,394 	"/>
	<polygon fill="#FFFFFF" points="421.2,405 413.1,405 413.1,394 421.1,394 421.1,396 415.9,396 415.9,398.3 420.9,398.3 
		420.9,400.4 415.9,400.4 415.9,403 421.2,403 	"/>
	<path fill="#FFFFFF" d="M428.2,394c2.3,0,3.6,1.5,3.6,3.2c0,1.2-0.6,2.1-1.9,2.7c1.1,0.6,1.5,1.9,3,5.1h-3
		c-1.2-2.4-1.6-4.5-3.1-4.5h-0.8v4.5h-2.7v-11H428.2z M426.1,398.5h1.4c0.8,0,1.5-0.3,1.5-1.3c0-0.8-0.5-1.2-1.6-1.2h-1.4V398.5z"/>
	<path fill="#FFFFFF" d="M445.5,405h-2.9l-0.9-2.2h-4.9l-0.8,2.2H433l4.4-11h3.2L445.5,405z M439.1,396.7l-1.6,4.3h3.4L439.1,396.7z
		"/>
	<path fill="#FFFFFF" d="M456.6,397.2c-1.4-0.7-2.8-1-4.1-1c-3,0-4,1.8-4,3.5c0,1.9,1.5,3.2,3.8,3.2c0.7,0,1-0.1,1.8-0.4v-1.3h-1.6
		v-2h4.3v4.5c-0.8,0.9-2.9,1.5-4.6,1.5c-3.8,0-6.6-2.3-6.6-5.6c0-3.4,2.7-5.7,6.6-5.7c1.6,0,3.2,0.4,4.3,0.9V397.2z"/>
	<polygon fill="#FFFFFF" points="467.4,405 459.3,405 459.3,394 467.3,394 467.3,396 462,396 462,398.3 467,398.3 467,400.4 
		462,400.4 462,403 467.4,403 	"/>
	<path fill="#FFFFFF" d="M85.4,423.4c-1.5,0.8-2.7,1.1-4.3,1.1c-4.3,0-6.4-2.8-6.4-5.6c0-2.9,2.4-5.7,6.6-5.7c1.5,0,2.9,0.3,4,1v2.4
		c-1.2-0.7-2.4-1.1-3.8-1.1c-2.3,0-4,1.4-4,3.3c0,2,1.6,3.4,3.9,3.4c1.4,0,2.4-0.5,4-1.2V423.4z"/>
	<path fill="#FFFFFF" d="M98.5,413.4v6.2c0,3.6-2.5,4.9-5.5,4.9c-3.2,0-5.5-1.5-5.5-4.9v-6.2h2.7v6.3c0,1.6,1.1,2.5,2.7,2.5
		c1.5,0,2.8-0.8,2.8-2.7v-6.1H98.5z"/>
	<path fill="#FFFFFF" d="M108.2,416.2c-1.6-0.7-2.5-1-3.5-1c-1,0-1.6,0.4-1.6,0.9c0,1.7,5.6,1.2,5.6,5c0,2.1-1.8,3.3-4.2,3.3
		c-1.9,0-2.9-0.5-4-1.1v-2.4c1.6,1,2.5,1.4,3.8,1.4c1,0,1.6-0.4,1.6-1c0-1.8-5.6-1.1-5.6-5.1c0-1.9,1.6-3.2,4.2-3.2
		c1.2,0,2.3,0.3,3.7,0.9V416.2z"/>
	<polygon fill="#FFFFFF" points="120.5,415.4 116.5,415.4 116.5,424.3 113.8,424.3 113.8,415.4 109.8,415.4 109.8,413.4 
		120.5,413.4 	"/>
	<path fill="#FFFFFF" d="M127,424.5c-4,0-6.3-2.8-6.3-5.6c0-2.7,2.2-5.6,6.3-5.6c4.1,0,6.3,3,6.3,5.6
		C133.2,421.7,130.9,424.5,127,424.5 M127,415.5c-2.1,0-3.5,1.3-3.5,3.4c0,2,1.4,3.4,3.5,3.4c2.1,0,3.5-1.3,3.5-3.4
		C130.4,416.8,129,415.5,127,415.5"/>
	<polygon fill="#FFFFFF" points="144.6,413.4 147,413.4 147,424.3 144.3,424.3 144.3,417.5 141.3,420.9 140.9,420.9 137.9,417.5 
		137.9,424.3 135.2,424.3 135.2,413.4 137.6,413.4 141.1,417.4 	"/>
	<polygon fill="#FFFFFF" points="157.6,424.3 149.5,424.3 149.5,413.4 157.5,413.4 157.5,415.4 152.2,415.4 152.2,417.7 
		157.2,417.7 157.2,419.7 152.2,419.7 152.2,422.3 157.6,422.3 	"/>
	<path fill="#FFFFFF" d="M164.6,413.4c2.3,0,3.6,1.5,3.6,3.2c0,1.2-0.6,2.1-1.9,2.7c1.1,0.6,1.5,1.9,3,5.1h-3
		c-1.2-2.4-1.6-4.5-3.1-4.5h-0.8v4.5h-2.7v-11H164.6z M162.4,417.9h1.5c0.8,0,1.5-0.3,1.5-1.3c0-0.8-0.5-1.2-1.6-1.2h-1.4V417.9z"/>
	<polygon fill="#FFFFFF" points="177.9,424.5 176.7,424.5 171.4,413.4 174.4,413.4 177.3,419.6 180.1,413.4 183,413.4 	"/>
	<path fill="#FFFFFF" d="M194.3,424.3h-2.9l-0.9-2.2h-4.9l-0.8,2.2h-2.9l4.4-11h3.2L194.3,424.3z M187.8,416l-1.6,4.3h3.4L187.8,416
		z"/>
	<polygon fill="#FFFFFF" points="203.9,424.3 195.5,424.3 195.5,413.4 198.3,413.4 198.3,422.3 203.9,422.3 	"/>
	<path fill="#FFFFFF" d="M216.3,413.4v6.2c0,3.6-2.5,4.9-5.5,4.9c-3.2,0-5.5-1.5-5.5-4.9v-6.2h2.7v6.3c0,1.6,1.1,2.5,2.7,2.5
		c1.5,0,2.8-0.8,2.8-2.7v-6.1H216.3z"/>
	<polygon fill="#FFFFFF" points="226.8,424.3 218.7,424.3 218.7,413.4 226.7,413.4 226.7,415.4 221.4,415.4 221.4,417.7 
		226.5,417.7 226.5,419.7 221.4,419.7 221.4,422.3 226.8,422.3 	"/>
	<polygon fill="#FFFFFF" points="241.8,424.3 233.4,424.3 233.4,413.4 236.1,413.4 236.1,422.3 241.8,422.3 	"/>
	<polygon fill="#FFFFFF" points="251.4,424.3 243.3,424.3 243.3,413.4 251.3,413.4 251.3,415.4 246.1,415.4 246.1,417.7 
		251.1,417.7 251.1,419.7 246.1,419.7 246.1,422.3 251.4,422.3 	"/>
	<path fill="#FFFFFF" d="M264.8,424.3h-2.9l-0.9-2.2h-4.9l-0.8,2.2h-2.9l4.4-11h3.2L264.8,424.3z M258.4,416l-1.6,4.3h3.4L258.4,416
		z"/>
	<path fill="#FFFFFF" d="M270.9,413.4c4,0,6.1,2.5,6.1,5.5c0,3.2-2,5.5-6.4,5.5h-4.5v-11H270.9z M268.8,422.3h1.8
		c2.8,0,3.6-1.9,3.6-3.5c0-1.9-1-3.5-3.6-3.5h-1.8V422.3z"/>
	<polygon fill="#FFFFFF" points="287.1,424.3 279,424.3 279,413.4 287,413.4 287,415.4 281.8,415.4 281.8,417.7 286.8,417.7 
		286.8,419.7 281.8,419.7 281.8,422.3 287.1,422.3 	"/>
	<path fill="#FFFFFF" d="M294.1,413.4c2.3,0,3.6,1.5,3.6,3.2c0,1.2-0.6,2.1-1.9,2.7c1.1,0.6,1.5,1.9,3,5.1h-3
		c-1.2-2.4-1.6-4.5-3.1-4.5H292v4.5h-2.7v-11H294.1z M292,417.9h1.4c0.8,0,1.5-0.3,1.5-1.3c0-0.8-0.5-1.2-1.6-1.2H292V417.9z"/>
	<path fill="#FFFFFF" d="M307.5,416.2c-1.6-0.7-2.5-1-3.5-1c-1,0-1.6,0.4-1.6,0.9c0,1.7,5.6,1.2,5.6,5c0,2.1-1.8,3.3-4.2,3.3
		c-1.9,0-2.9-0.5-4-1.1v-2.4c1.6,1,2.5,1.4,3.8,1.4c1,0,1.6-0.4,1.6-1c0-1.8-5.6-1.1-5.6-5.1c0-1.9,1.6-3.2,4.2-3.2
		c1.2,0,2.3,0.3,3.7,0.9V416.2z"/>
	<polygon fill="#FFFFFF" points="320.8,424.3 318.1,424.3 318.1,419.9 312.6,419.9 312.6,424.3 309.9,424.3 309.9,413.4 
		312.6,413.4 312.6,417.8 318.1,417.8 318.1,413.4 320.8,413.4 	"/>
	<rect x="323.4" y="413.4" fill="#FFFFFF" width="2.7" height="11"/>
	<path fill="#FFFFFF" d="M333.6,413.4c2.5,0,3.6,1.8,3.6,3.3c0,1.5-1.1,3.3-3.6,3.3h-2.2v4.4h-2.7v-11H333.6z M331.5,417.9h1.3
		c1.3,0,1.7-0.5,1.7-1.3c0-0.9-0.5-1.3-2-1.3h-1V417.9z"/>
	<path fill="#FFFFFF" d="M353.4,424.3h-2.9l-0.9-2.2h-4.9l-0.8,2.2h-2.9l4.4-11h3.2L353.4,424.3z M346.9,416l-1.6,4.3h3.4L346.9,416
		z"/>
	<polygon fill="#FFFFFF" points="358.1,424.5 356.9,424.5 352.1,413.4 355,413.4 357.6,419.4 360.4,413.4 362.6,413.4 365.5,419.4 
		368,413.4 370.9,413.4 366.1,424.5 364.9,424.5 361.5,417.3 	"/>
	<path fill="#FFFFFF" d="M382.2,424.3h-2.9l-0.9-2.2h-4.9l-0.8,2.2h-2.9l4.4-11h3.2L382.2,424.3z M375.7,416l-1.6,4.3h3.4L375.7,416
		z"/>
	<path fill="#FFFFFF" d="M388.4,413.4c2.3,0,3.6,1.5,3.6,3.2c0,1.2-0.6,2.1-1.9,2.7c1.1,0.6,1.5,1.9,3,5.1h-3
		c-1.2-2.4-1.6-4.5-3.1-4.5h-0.8v4.5h-2.7v-11H388.4z M386.2,417.9h1.4c0.8,0,1.5-0.3,1.5-1.3c0-0.8-0.5-1.2-1.6-1.2h-1.4V417.9z"/>
	<path fill="#FFFFFF" d="M399.2,413.4c4,0,6.1,2.5,6.1,5.5c0,3.2-2,5.5-6.4,5.5h-4.5v-11H399.2z M397.1,422.3h1.8
		c2.8,0,3.6-1.9,3.6-3.5c0-1.9-1-3.5-3.6-3.5h-1.8V422.3z"/>
	<path fill="#FFFFFF" d="M67,244.9c9.9-6.7,20.5-14.7,20.5-21.7c0-3.5-2.3-5.9-5.7-5.9c-2,0-4.1,0.6-6.2,2.1l-2.8,1.9l-1-1.3l2.2-2
		c2.7-2.3,7-5,10.8-5c5.5,0,8.9,3,8.9,7.8c0,5.6-4.6,10-12,15.6l-5.6,4.1l0.1,0.2h18.8l1.6-2.9l1.7,0.5l-1.8,7.8
		c-4.7,0-9.9-0.1-14.9-0.1c-4.9,0-10.1,0.1-14.8,0.1V244.9z"/>
	<path fill="#FFFFFF" d="M127.3,212.9c6,0,11.5,3.8,11.5,12.8c0,9.7-5.2,21.4-17.9,21.4c-6,0-11.5-3.8-11.5-12.7
		C109.5,224.7,114.7,212.9,127.3,212.9 M121.6,244.1c7.4,0,13-8.4,13-18.5c0-7.2-3.5-9.8-7.8-9.8c-7.4,0-13,8.5-13,18.5
		C113.7,241.6,117.2,244.1,121.6,244.1"/>
	<path fill="#FFFFFF" d="M147.6,244.9c9.9-6.7,20.5-14.7,20.5-21.7c0-3.5-2.3-5.9-5.7-5.9c-2,0-4.1,0.6-6.2,2.1l-2.8,1.9l-1-1.3
		l2.2-2c2.7-2.3,7-5,10.8-5c5.5,0,8.9,3,8.9,7.8c0,5.6-4.6,10-12,15.6l-5.6,4.1l0.1,0.2h18.8l1.6-2.9l1.7,0.5l-1.8,7.8
		c-4.7,0-9.9-0.1-14.9-0.1c-4.9,0-10.1,0.1-14.8,0.1V244.9z"/>
	<path fill="#FFFFFF" d="M207.9,212.9c6,0,11.5,3.8,11.5,12.8c0,9.7-5.2,21.4-17.9,21.4c-6,0-11.5-3.8-11.5-12.7
		C190,224.7,195.3,212.9,207.9,212.9 M202.1,244.1c7.4,0,13-8.4,13-18.5c0-7.2-3.5-9.8-7.8-9.8c-7.4,0-13,8.5-13,18.5
		C194.3,241.6,197.8,244.1,202.1,244.1"/>
</g>
</svg>
