<svg xmlns="http://www.w3.org/2000/svg" xmlns:xlink="http://www.w3.org/1999/xlink" viewBox="0 0 146.08 89.59"><defs><style>.cls-1{fill:none;}.cls-2{clip-path:url(#clip-path);}.cls-3{clip-path:url(#clip-path-2);}.cls-4{fill:#12100b;}.cls-5{fill:#8c6e1d;}</style><clipPath id="clip-path" transform="translate(-1.01 -0.71)"><rect class="cls-1" width="148.34" height="133.06"/></clipPath><clipPath id="clip-path-2" transform="translate(-1.01 -0.71)"><polyline class="cls-1" points="0 0 0 133.06 148.34 133.06 148.34 0"/></clipPath></defs><title>kkРесурс 6</title><g id="Слой_2" data-name="Слой 2"><g id="Слой_1-2" data-name="Слой 1"><g class="cls-2"><g class="cls-3"><path class="cls-4" d="M28.24,52.4H25.12V34.16c0-1.44.09-3.2.26-5.27H25.3a15.94,15.94,0,0,1-.8,2.63L15.41,52.4H13.88L4.76,31.67A16,16,0,0,1,4,28.89H3.89C4,30,4,31.74,4,34.19V52.4H1V25.23H5.15l8.19,19a25.06,25.06,0,0,1,1.21,3.26h.13c.62-1.74,1.05-2.86,1.28-3.34l8.36-18.87h3.92V52.4" transform="translate(-1.01 -0.71)"/><path class="cls-4" d="M37.45,26.05a1.93,1.93,0,0,1-.59,1.44,2,2,0,0,1-1.42.58,1.95,1.95,0,0,1-2-2A2,2,0,0,1,34,24.63a2,2,0,0,1,2.85,0,2,2,0,0,1,.58,1.43M36.93,52.4h-3V33h3V52.4" transform="translate(-1.01 -0.71)"/><path class="cls-4" d="M55,51.51a9.75,9.75,0,0,1-5.23,1.37,9.06,9.06,0,0,1-4.67-1.22,8.37,8.37,0,0,1-3.23-3.46,10.79,10.79,0,0,1-1.16-5,11,11,0,0,1,2.71-7.74,9.39,9.39,0,0,1,7.21-2.91,9.48,9.48,0,0,1,4.41,1v3.18a7.73,7.73,0,0,0-4.54-1.51,6.06,6.06,0,0,0-4.81,2.15,8.24,8.24,0,0,0-1.85,5.56,7.76,7.76,0,0,0,1.76,5.36,6,6,0,0,0,4.71,2A7.59,7.59,0,0,0,55,48.56v2.95" transform="translate(-1.01 -0.71)"/><path class="cls-4" d="M68.59,36.15a3.76,3.76,0,0,0-2.33-.63A3.8,3.8,0,0,0,63,37.46a9.15,9.15,0,0,0-1.26,5V52.4H58.65V33h3.06v4h.07a6.89,6.89,0,0,1,1.95-3.18,4.5,4.5,0,0,1,3-1.16,5.05,5.05,0,0,1,1.82.26v3.23" transform="translate(-1.01 -0.71)"/><path class="cls-4" d="M87.77,42.63a10.55,10.55,0,0,1-2.58,7.43,8.89,8.89,0,0,1-6.91,2.82,8.71,8.71,0,0,1-6.74-2.74A10.24,10.24,0,0,1,69,42.93a10.78,10.78,0,0,1,2.58-7.61,9.25,9.25,0,0,1,7.13-2.79,8.42,8.42,0,0,1,6.64,2.7,10.73,10.73,0,0,1,2.4,7.4m-3.13.11a8.68,8.68,0,0,0-1.59-5.61,5.53,5.53,0,0,0-4.55-2,5.81,5.81,0,0,0-4.65,2,8.41,8.41,0,0,0-1.71,5.64,7.94,7.94,0,0,0,1.72,5.44,5.86,5.86,0,0,0,4.64,2,5.54,5.54,0,0,0,4.56-1.93,8.54,8.54,0,0,0,1.58-5.55" transform="translate(-1.01 -0.71)"/><path class="cls-4" d="M101.94,47.21A5,5,0,0,1,100,51.3,7.71,7.71,0,0,1,95,52.88a9.2,9.2,0,0,1-4.73-1.18V48.37a7.58,7.58,0,0,0,5,1.85q3.63,0,3.63-2.7a2.43,2.43,0,0,0-.71-1.8,13.28,13.28,0,0,0-3.22-1.86,9.52,9.52,0,0,1-3.57-2.36,5.12,5.12,0,0,1-1-3.35,5,5,0,0,1,1.9-4A7.14,7.14,0,0,1,97,32.53a9,9,0,0,1,4.07.91v3.12a7.05,7.05,0,0,0-4.32-1.38,3.65,3.65,0,0,0-2.42.76,2.39,2.39,0,0,0-.93,2,2.65,2.65,0,0,0,.71,2A10.52,10.52,0,0,0,97,41.51,10.56,10.56,0,0,1,100.85,44a4.83,4.83,0,0,1,1.09,3.24" transform="translate(-1.01 -0.71)"/><path class="cls-4" d="M122.76,42.63a10.55,10.55,0,0,1-2.58,7.43,8.89,8.89,0,0,1-6.91,2.82,8.71,8.71,0,0,1-6.74-2.74A10.24,10.24,0,0,1,104,42.93a10.78,10.78,0,0,1,2.58-7.61,9.25,9.25,0,0,1,7.13-2.79,8.42,8.42,0,0,1,6.64,2.7,10.73,10.73,0,0,1,2.4,7.4m-3.12.11a8.62,8.62,0,0,0-1.6-5.61,5.52,5.52,0,0,0-4.54-2,5.83,5.83,0,0,0-4.66,2,8.41,8.41,0,0,0-1.71,5.64,8,8,0,0,0,1.72,5.44,5.87,5.87,0,0,0,4.65,2,5.53,5.53,0,0,0,4.55-1.93,8.54,8.54,0,0,0,1.59-5.55" transform="translate(-1.01 -0.71)"/><path class="cls-4" d="M135.26,26.41a3.91,3.91,0,0,0-2-.52Q130,25.89,130,30v3h4.47v2.63H130V52.4h-3V35.63h-3.24V33H127V29.85a6.67,6.67,0,0,1,1.71-4.77,6.46,6.46,0,0,1,6.57-1.48v2.81" transform="translate(-1.01 -0.71)"/><path class="cls-4" d="M146.35,52.21a5.76,5.76,0,0,1-2.87.63q-5,0-5-5.72V35.63h-3.28V33h3.28V28.26l3.05-1V33h4.8v2.63h-4.8v11a4.49,4.49,0,0,0,.65,2.77,2.6,2.6,0,0,0,2.17.83,3.21,3.21,0,0,0,2-.63v2.65" transform="translate(-1.01 -0.71)"/><path class="cls-4" d="M48.73,70.76a8.17,8.17,0,0,1-2.67,6.36,10.06,10.06,0,0,1-7,2.42H35.53V89.83H32.41V62.65h7.33a9.54,9.54,0,0,1,6.63,2.13,7.68,7.68,0,0,1,2.36,6m-3.28.17q0-5.4-6.25-5.4H35.53V76.68h3.28a7.32,7.32,0,0,0,4.93-1.49,5.34,5.34,0,0,0,1.71-4.26" transform="translate(-1.01 -0.71)"/><path class="cls-4" d="M64.65,89.83H61.6v-3h-.08a6.36,6.36,0,0,1-5.86,3.51,6.26,6.26,0,0,1-4.41-1.53,5.3,5.3,0,0,1-1.65-4.1q0-5.42,6.29-6.33l5.71-.81q0-4.94-3.93-4.93A9.3,9.3,0,0,0,51.46,75V71.79a8.92,8.92,0,0,1,2.86-1.24,12.92,12.92,0,0,1,3.61-.6q6.72,0,6.72,7.26V89.83M61.6,80,57,80.67a6.73,6.73,0,0,0-3.31,1.15,3.26,3.26,0,0,0-1,2.61,2.92,2.92,0,0,0,1,2.34,3.9,3.9,0,0,0,2.62.88A4.88,4.88,0,0,0,60.12,86a5.88,5.88,0,0,0,1.48-4.08V80" transform="translate(-1.01 -0.71)"/><path class="cls-4" d="M79.38,73.57a3.72,3.72,0,0,0-2.32-.63,3.82,3.82,0,0,0-3.3,1.94,9.15,9.15,0,0,0-1.26,5.05v9.9h-3V70.42h3v4h.07a6.74,6.74,0,0,1,2-3.17,4.44,4.44,0,0,1,3-1.17,4.81,4.81,0,0,1,1.82.27v3.22" transform="translate(-1.01 -0.71)"/><path class="cls-4" d="M93.6,89.64a5.83,5.83,0,0,1-2.86.62c-3.33,0-5-1.9-5-5.72V73.06H82.47V70.42h3.28V65.68l3-1v5.74h4.8v2.64H88.8V84a4.6,4.6,0,0,0,.65,2.78,2.65,2.65,0,0,0,2.18.82,3.2,3.2,0,0,0,2-.63v2.66" transform="translate(-1.01 -0.71)"/><path class="cls-4" d="M113.68,89.83h-3.05V78.76q0-6.17-4.43-6.16a4.8,4.8,0,0,0-3.77,1.74,6.46,6.46,0,0,0-1.51,4.42V89.83h-3V70.42h3v3.22H101A6.83,6.83,0,0,1,107.24,70,5.72,5.72,0,0,1,112,72,9.33,9.33,0,0,1,113.68,78V89.83" transform="translate(-1.01 -0.71)"/><path class="cls-4" d="M133.64,80.9H120.19a7.31,7.31,0,0,0,1.7,5,5.89,5.89,0,0,0,4.52,1.74,9.25,9.25,0,0,0,5.89-2.12v2.89a10.74,10.74,0,0,1-6.62,1.88,7.89,7.89,0,0,1-6.36-2.68Q117,84.94,117,80.2a12,12,0,0,1,1.14-5.26,8.85,8.85,0,0,1,3.16-3.68A7.93,7.93,0,0,1,125.79,70a7.18,7.18,0,0,1,5.78,2.45,10.36,10.36,0,0,1,2.07,6.87V80.9m-3.12-2.63a6.49,6.49,0,0,0-1.28-4.18,4.29,4.29,0,0,0-3.49-1.49,4.84,4.84,0,0,0-3.62,1.56,7.24,7.24,0,0,0-1.9,4.11h10.29" transform="translate(-1.01 -0.71)"/><path class="cls-4" d="M147.09,73.57a3.72,3.72,0,0,0-2.32-.63,3.82,3.82,0,0,0-3.3,1.94,9.15,9.15,0,0,0-1.26,5.05v9.9h-3.05V70.42h3.05v4h.07a6.74,6.74,0,0,1,2-3.17,4.44,4.44,0,0,1,3-1.17,4.81,4.81,0,0,1,1.82.27v3.22" transform="translate(-1.01 -0.71)"/><path class="cls-5" d="M11.86,14.15a8.81,8.81,0,0,1-4.47,1.16,6.36,6.36,0,0,1-3.33-.86A5.77,5.77,0,0,1,1.8,12,7.8,7.8,0,0,1,1,8.46,7.2,7.2,0,0,1,3,3.3a6.59,6.59,0,0,1,5-2A8.35,8.35,0,0,1,11.59,2V3.74A6.9,6.9,0,0,0,7.75,2.69,4.87,4.87,0,0,0,3.3,5.43a6.35,6.35,0,0,0-.65,2.91A5.88,5.88,0,0,0,4,12.39a4.61,4.61,0,0,0,3.62,1.48,5.45,5.45,0,0,0,2.7-.64V9.43H7.37V8h4.49v6.16" transform="translate(-1.01 -0.71)"/><path class="cls-5" d="M23.88,10.19a5.3,5.3,0,0,1-1.29,3.72,4.48,4.48,0,0,1-3.46,1.4,4.34,4.34,0,0,1-3.37-1.37,5.1,5.1,0,0,1-1.26-3.6,5.41,5.41,0,0,1,1.29-3.81,4.63,4.63,0,0,1,3.57-1.39,4.22,4.22,0,0,1,3.32,1.35,5.37,5.37,0,0,1,1.2,3.7m-1.56.05a4.34,4.34,0,0,0-.8-2.8,2.78,2.78,0,0,0-2.28-1,2.91,2.91,0,0,0-2.32,1,4.22,4.22,0,0,0-.86,2.82A4,4,0,0,0,16.92,13a3,3,0,0,0,2.32,1,2.77,2.77,0,0,0,2.28-1,4.26,4.26,0,0,0,.8-2.78" transform="translate(-1.01 -0.71)"/><polyline class="cls-5" points="27.23 14.36 25.71 14.36 25.71 0 27.23 0 27.23 14.36"/><path class="cls-5" d="M39.86,15.08H38.34V13.43h0a3.79,3.79,0,0,1-6.15.56,5.46,5.46,0,0,1-1.07-3.53A5.93,5.93,0,0,1,32.27,6.6a3.87,3.87,0,0,1,3.18-1.46A3,3,0,0,1,38.3,6.71h0v-6h1.52V15.08m-1.52-4.39V9.26a2.71,2.71,0,0,0-.79-2,2.58,2.58,0,0,0-1.91-.8,2.64,2.64,0,0,0-2.19,1,4.57,4.57,0,0,0-.81,2.88A4.17,4.17,0,0,0,33.41,13a2.49,2.49,0,0,0,2.05,1,2.62,2.62,0,0,0,2.07-.93,3.48,3.48,0,0,0,.81-2.37" transform="translate(-1.01 -0.71)"/></g></g></g></g></svg>