<?xml version="1.0" encoding="utf-8"?>
<!-- Generator: Adobe Illustrator 23.0.0, SVG Export Plug-In . SVG Version: 6.00 Build 0)  -->
<svg version="1.2" baseProfile="tiny" id="Слой_1"
	 xmlns="http://www.w3.org/2000/svg" xmlns:xlink="http://www.w3.org/1999/xlink" x="0px" y="0px" viewBox="0 0 960 610"
	 xml:space="preserve">
<g>
	<g>
		<g>
			<path fill="none" stroke="#191932" stroke-width="2" stroke-miterlimit="10" d="M540.73,433.64c-26.47,0-47.93-21.46-47.93-47.93
				v-59.26c0-26.47,21.46-47.93,47.93-47.93c26.47,0,47.93,21.46,47.93,47.93v59.26C588.66,412.18,567.2,433.64,540.73,433.64z"/>
		</g>
		
			<line fill="none" stroke="#191932" stroke-width="2" stroke-linecap="round" stroke-linejoin="round" stroke-miterlimit="10" x1="540.73" y1="278.85" x2="540.73" y2="338.11"/>
		<g>
			<g>
				<path fill="none" stroke="#191932" stroke-width="2" stroke-miterlimit="10" d="M588.66,355.77h51.56l0,0
					c22.83-1.22,40.98-20.64,40.98-43.78c0-23.92-19.4-43.32-43.32-43.32c-2.71,0-7.93,0.09-7.93-0.23
					c0-14.79-11.98-26.77-26.77-26.77c-7.12,0-13.59,2.78-18.39,7.31c-9.15-28.06-35.53-48.34-66.65-48.34
					c-38.25,0-69.34,30.64-70.07,68.72c-1.48-0.15-2.98-0.23-4.5-0.23c-23.93,0-43.32,19.4-43.32,43.32
					c0,21.4,15.51,39.8,35.9,43.32l0,0h56.58"/>
			</g>
		</g>
		
			<line fill="none" stroke="#191932" stroke-width="2" stroke-linecap="round" stroke-linejoin="round" stroke-miterlimit="10" x1="492.74" y1="338.11" x2="588.61" y2="338.11"/>
	</g>
	<g>
		<polyline fill="none" stroke="#191932" stroke-width="2" stroke-miterlimit="10" points="438.2,356.08 438.2,377 260,377 260,233 
			438.2,233 438.2,269.46 		"/>
		<line fill="none" stroke="#191932" stroke-width="2" stroke-miterlimit="10" x1="438.2" y1="254.01" x2="260" y2="254.01"/>
		<circle fill="none" stroke="#191932" stroke-width="2" stroke-miterlimit="10" cx="428" cy="242.99" r="4.02"/>
		<circle fill="none" stroke="#191932" stroke-width="2" stroke-miterlimit="10" cx="401.43" cy="242.99" r="4.02"/>
		<circle fill="none" stroke="#191932" stroke-width="2" stroke-miterlimit="10" cx="415.02" cy="242.99" r="4.02"/>
	</g>
	<g>
		<polyline fill="none" stroke="#191932" stroke-width="2" stroke-miterlimit="10" points="644,269.1 644,233 822.2,233 822.2,377 
			644,377 644,355.77 		"/>
		<line fill="none" stroke="#191932" stroke-width="2" stroke-miterlimit="10" x1="822.2" y1="254.01" x2="644" y2="254.01"/>
		<circle fill="none" stroke="#191932" stroke-width="2" stroke-miterlimit="10" cx="812" cy="242.99" r="4.02"/>
		<circle fill="none" stroke="#191932" stroke-width="2" stroke-miterlimit="10" cx="785.43" cy="242.99" r="4.02"/>
		<circle fill="none" stroke="#191932" stroke-width="2" stroke-miterlimit="10" cx="799.02" cy="242.99" r="4.02"/>
	</g>
</g>
</svg>
