<?xml version="1.0" encoding="utf-8"?>
<!-- Generator: Adobe Illustrator 23.0.0, SVG Export Plug-In . SVG Version: 6.00 Build 0)  -->
<svg version="1.2" baseProfile="tiny" id="Слой_1"
	 xmlns="http://www.w3.org/2000/svg" xmlns:xlink="http://www.w3.org/1999/xlink" x="0px" y="0px" viewBox="0 0 960 610"
	 xml:space="preserve">
<line fill="none" stroke="#000000" stroke-width="2" stroke-miterlimit="10" x1="275.05" y1="305.09" x2="806" y2="305.09"/>
<line fill="none" stroke="#000000" stroke-width="2" stroke-miterlimit="10" x1="418.52" y1="305.09" x2="418.52" y2="339.09"/>
<circle fill="#FFFFFF" stroke="#000000" stroke-width="2" stroke-miterlimit="10" cx="338.33" cy="305.09" r="4"/>
<circle fill="none" stroke="#000000" stroke-width="2" stroke-miterlimit="10" cx="257.55" cy="305.59" r="17"/>
<circle fill="none" stroke="#000000" stroke-width="2" stroke-miterlimit="10" cx="257.55" cy="305.59" r="4"/>
<circle fill="none" stroke="#000000" stroke-width="2" stroke-miterlimit="10" cx="823" cy="305" r="17"/>
<circle fill="none" stroke="#000000" stroke-width="2" stroke-miterlimit="10" cx="823" cy="305" r="4"/>
<circle fill="#FFFFFF" stroke="#000000" stroke-width="2" stroke-miterlimit="10" cx="499.88" cy="305.09" r="4"/>
<circle fill="#FFFFFF" stroke="#000000" stroke-width="2" stroke-miterlimit="10" cx="580.66" cy="305.09" r="4"/>
<circle fill="#FFFFFF" stroke="#000000" stroke-width="2" stroke-miterlimit="10" cx="742.22" cy="305.09" r="4"/>
<circle fill="#FFFFFF" stroke="#000000" stroke-width="2" stroke-miterlimit="10" cx="419.1" cy="305.09" r="4"/>
<g>
	<path fill="none" stroke="#000000" stroke-width="2" stroke-linecap="round" stroke-linejoin="round" stroke-miterlimit="10" d="
		M379.02,419.59h79c2.76,0,5-2.24,5-5v-45.01c0-2.76-2.24-5-5-5h-33.06l-6.44-12.89l-6.44,12.89h-33.06c-2.76,0-5,2.24-5,5v45.01
		C374.02,417.35,376.26,419.59,379.02,419.59z"/>
	<g>
		
			<line fill="none" stroke="#000000" stroke-width="2" stroke-linecap="round" stroke-linejoin="round" stroke-miterlimit="10" x1="391.02" y1="381.59" x2="446.02" y2="381.59"/>
		
			<line fill="none" stroke="#000000" stroke-width="2" stroke-linecap="round" stroke-linejoin="round" stroke-miterlimit="10" x1="391.02" y1="391.59" x2="446.02" y2="391.59"/>
		
			<line fill="none" stroke="#000000" stroke-width="2" stroke-linecap="round" stroke-linejoin="round" stroke-miterlimit="10" x1="391.02" y1="402.59" x2="446.02" y2="402.59"/>
	</g>
</g>
<g>
	<line fill="none" stroke="#000000" stroke-width="2" stroke-miterlimit="10" x1="661.52" y1="304.59" x2="661.52" y2="270.59"/>
	<g>
		<path fill="none" stroke="#000000" stroke-width="2" stroke-linecap="round" stroke-linejoin="round" stroke-miterlimit="10" d="
			M701.02,190.09h-79c-2.76,0-5,2.24-5,5v45.01c0,2.76,2.24,5,5,5h33.06l6.44,12.89l6.44-12.89h33.06c2.76,0,5-2.24,5-5v-45.01
			C706.02,192.33,703.78,190.09,701.02,190.09z"/>
		<g>
			
				<line fill="none" stroke="#000000" stroke-width="2" stroke-linecap="round" stroke-linejoin="round" stroke-miterlimit="10" x1="689.02" y1="228.09" x2="634.02" y2="228.09"/>
			
				<line fill="none" stroke="#000000" stroke-width="2" stroke-linecap="round" stroke-linejoin="round" stroke-miterlimit="10" x1="689.02" y1="218.09" x2="634.02" y2="218.09"/>
			
				<line fill="none" stroke="#000000" stroke-width="2" stroke-linecap="round" stroke-linejoin="round" stroke-miterlimit="10" x1="689.02" y1="207.09" x2="634.02" y2="207.09"/>
		</g>
	</g>
</g>
<circle fill="#FFFFFF" stroke="#000000" stroke-width="2" stroke-miterlimit="10" cx="661.44" cy="305.09" r="4"/>
</svg>
