<?xml version="1.0" encoding="utf-8"?>
<!-- Generator: Adobe Illustrator 23.0.2, SVG Export Plug-In . SVG Version: 6.00 Build 0)  -->
<svg version="1.2" baseProfile="tiny" id="Слой_1"
	 xmlns="http://www.w3.org/2000/svg" xmlns:xlink="http://www.w3.org/1999/xlink" x="0px" y="0px" viewBox="0 0 960 754"
	 xml:space="preserve">
<line fill="none" stroke="#FFFFFF" stroke-width="2" stroke-linecap="round" stroke-linejoin="round" stroke-miterlimit="10" x1="727.34" y1="390.68" x2="683.44" y2="390.68"/>
<polygon fill="none" stroke="#FFFFFF" stroke-width="2" stroke-linecap="round" stroke-linejoin="round" stroke-miterlimit="10" points="
	546.57,371.77 546.57,350.31 531.19,350.31 531.19,371.77 526.44,371.77 538.88,387.15 551.32,371.77 "/>
<rect x="283.01" y="364.02" fill="none" stroke="#FFFFFF" stroke-width="2" stroke-linecap="round" stroke-linejoin="round" stroke-miterlimit="10" width="86.65" height="12.64"/>
<rect x="282.95" y="364.11" fill="#FFFFFF" width="75.37" height="12.44"/>
<line fill="none" stroke="#FFFFFF" stroke-width="2" stroke-miterlimit="10" x1="668.7" y1="325.9" x2="839.19" y2="325.9"/>
<g>
	<path fill="none" stroke="#FFFFFF" stroke-width="2" stroke-linecap="round" stroke-linejoin="round" stroke-miterlimit="10" d="
		M769.54,360.32c0,1.21-0.99,2.2-2.2,2.2h-20.49c-1.21,0-2.2-0.99-2.2-2.2v-20.49c0-1.21,0.99-2.2,2.2-2.2h20.49
		c1.21,0,2.2,0.99,2.2,2.2V360.32z"/>
	
		<polyline fill="none" stroke="#FFFFFF" stroke-width="2" stroke-linecap="round" stroke-linejoin="round" stroke-miterlimit="10" points="
		761.89,347.06 756.04,352.92 752.67,349.55 	"/>
</g>
<g>
	<path fill="none" stroke="#FFFFFF" stroke-width="2" stroke-linecap="round" stroke-linejoin="round" stroke-miterlimit="10" d="
		M769.54,400.56c0,1.21-0.99,2.2-2.2,2.2h-20.49c-1.21,0-2.2-0.99-2.2-2.2v-20.49c0-1.21,0.99-2.2,2.2-2.2h20.49
		c1.21,0,2.2,0.99,2.2,2.2V400.56z"/>
	
		<polyline fill="none" stroke="#FFFFFF" stroke-width="2" stroke-linecap="round" stroke-linejoin="round" stroke-miterlimit="10" points="
		761.89,387.31 756.04,393.16 752.67,389.8 	"/>
</g>
<polyline fill="none" stroke="#7FE2FD" stroke-width="2" stroke-linecap="round" stroke-linejoin="round" stroke-miterlimit="10" points="
	704.89,307.08 704.89,259.09 687.28,259.09 687.28,242.9 560.46,242.9 560.46,259.09 541.65,259.09 530.08,182.57 488.68,182.57 
	476.68,259.09 457.1,259.09 445.53,182.57 404.14,182.57 392.14,259.09 372.87,259.09 372.87,307.45 "/>
<g>
	
		<line fill="none" stroke="#7FE2FD" stroke-width="2" stroke-linecap="round" stroke-linejoin="round" stroke-miterlimit="10" x1="704.89" y1="443.19" x2="704.89" y2="434.22"/>
	
		<line fill="none" stroke="#7FE2FD" stroke-width="2" stroke-linecap="round" stroke-linejoin="round" stroke-miterlimit="10" x1="602.34" y1="458.42" x2="690.05" y2="458.42"/>
	
		<line fill="none" stroke="#7FE2FD" stroke-width="2" stroke-linecap="round" stroke-linejoin="round" stroke-miterlimit="10" x1="504.86" y1="458.42" x2="572.09" y2="458.42"/>
	
		<line fill="none" stroke="#7FE2FD" stroke-width="2" stroke-linecap="round" stroke-linejoin="round" stroke-miterlimit="10" x1="388.32" y1="458.42" x2="474.61" y2="458.42"/>
	
		<line fill="none" stroke="#7FE2FD" stroke-width="2" stroke-linecap="round" stroke-linejoin="round" stroke-miterlimit="10" x1="372.87" y1="434.22" x2="372.87" y2="441.73"/>
</g>
<g>
	
		<circle fill="none" stroke="#FFFFFF" stroke-width="2" stroke-linecap="round" stroke-linejoin="round" stroke-miterlimit="10" cx="275.12" cy="458.32" r="15.13"/>
	<path fill="none" stroke="#FFFFFF" stroke-width="2" stroke-linecap="round" stroke-linejoin="round" stroke-miterlimit="10" d="
		M299.59,508.32h-48.95V497.2c0-10.57,8.57-19.13,19.13-19.13h10.68c10.57,0,19.13,8.57,19.13,19.13V508.32z"/>
</g>
<g>
	
		<circle fill="none" stroke="#FFFFFF" stroke-width="2" stroke-linecap="round" stroke-linejoin="round" stroke-miterlimit="10" cx="373.23" cy="458.32" r="15.13"/>
	<path fill="none" stroke="#FFFFFF" stroke-width="2" stroke-linecap="round" stroke-linejoin="round" stroke-miterlimit="10" d="
		M397.7,508.32h-48.95V497.2c0-10.57,8.57-19.13,19.13-19.13h10.68c10.57,0,19.13,8.57,19.13,19.13V508.32z"/>
</g>
<g>
	
		<circle fill="none" stroke="#FFFFFF" stroke-width="2" stroke-linecap="round" stroke-linejoin="round" stroke-miterlimit="10" cx="705.18" cy="458.32" r="15.13"/>
	<path fill="none" stroke="#FFFFFF" stroke-width="2" stroke-linecap="round" stroke-linejoin="round" stroke-miterlimit="10" d="
		M729.65,508.32h-48.95V497.2c0-10.57,8.57-19.13,19.13-19.13h10.68c10.57,0,19.13,8.57,19.13,19.13V508.32z"/>
</g>
<g>
	
		<circle fill="none" stroke="#FFFFFF" stroke-width="2" stroke-linecap="round" stroke-linejoin="round" stroke-miterlimit="10" cx="489.73" cy="458.32" r="15.13"/>
	<path fill="none" stroke="#FFFFFF" stroke-width="2" stroke-linecap="round" stroke-linejoin="round" stroke-miterlimit="10" d="
		M514.21,508.32h-48.95V497.2c0-10.57,8.57-19.13,19.13-19.13h10.68c10.57,0,19.13,8.57,19.13,19.13V508.32z"/>
</g>
<g>
	
		<circle fill="none" stroke="#FFFFFF" stroke-width="2" stroke-linecap="round" stroke-linejoin="round" stroke-miterlimit="10" cx="587.21" cy="458.32" r="15.13"/>
	<path fill="none" stroke="#FFFFFF" stroke-width="2" stroke-linecap="round" stroke-linejoin="round" stroke-miterlimit="10" d="
		M611.68,508.32h-48.95V497.2c0-10.57,8.57-19.13,19.13-19.13h10.68c10.57,0,19.13,8.57,19.13,19.13V508.32z"/>
</g>
<g>
	
		<circle fill="none" stroke="#FFFFFF" stroke-width="2" stroke-linecap="round" stroke-linejoin="round" stroke-miterlimit="10" cx="802.74" cy="458.32" r="15.13"/>
	<path fill="none" stroke="#FFFFFF" stroke-width="2" stroke-linecap="round" stroke-linejoin="round" stroke-miterlimit="10" d="
		M827.21,508.32h-48.95V497.2c0-10.57,8.57-19.13,19.13-19.13h10.68c10.57,0,19.13,8.57,19.13,19.13V508.32z"/>
</g>
<path fill="none" stroke="#FFFFFF" stroke-width="2" stroke-linecap="round" stroke-linejoin="round" stroke-miterlimit="10" d="
	M839.19,307.41H668.7v105.37h23.65l10.22,20.44c0.81,1.62,3.12,1.62,3.93,0l10.22-20.44h73.68l10.22,20.44
	c0.81,1.62,3.12,1.62,3.93,0l10.22-20.44h24.42V307.41z"/>
<line fill="none" stroke="#FFFFFF" stroke-width="2" stroke-linecap="round" stroke-linejoin="round" stroke-miterlimit="10" x1="727.34" y1="350.07" x2="683.44" y2="350.07"/>
<line fill="none" stroke="#FFFFFF" stroke-width="2" stroke-linecap="round" stroke-linejoin="round" stroke-miterlimit="10" x1="727.34" y1="370.19" x2="683.44" y2="370.19"/>
<line fill="none" stroke="#FFFFFF" stroke-width="2" stroke-linecap="round" stroke-linejoin="round" stroke-miterlimit="10" x1="828.56" y1="390.68" x2="784.66" y2="390.68"/>
<line fill="none" stroke="#FFFFFF" stroke-width="2" stroke-linecap="round" stroke-linejoin="round" stroke-miterlimit="10" x1="828.56" y1="350.07" x2="784.66" y2="350.07"/>
<line fill="none" stroke="#FFFFFF" stroke-width="2" stroke-linecap="round" stroke-linejoin="round" stroke-miterlimit="10" x1="828.56" y1="370.19" x2="784.66" y2="370.19"/>
<g>
	
		<polyline fill="none" stroke="#7FE2FD" stroke-width="2" stroke-linecap="round" stroke-linejoin="round" stroke-miterlimit="10" points="
		705.88,531.49 705.88,547.63 372.95,547.63 372.95,529.49 	"/>
	
		<polyline fill="none" stroke="#7FE2FD" stroke-width="2" stroke-linecap="round" stroke-linejoin="round" stroke-miterlimit="10" points="
		802.47,530.75 802.47,572.51 274.91,572.51 274.91,529.75 	"/>
	
		<line fill="none" stroke="#7FE2FD" stroke-width="2" stroke-linecap="round" stroke-linejoin="round" stroke-miterlimit="10" x1="586.98" y1="530.49" x2="586.98" y2="572.51"/>
	
		<line fill="none" stroke="#7FE2FD" stroke-width="2" stroke-linecap="round" stroke-linejoin="round" stroke-miterlimit="10" x1="489.3" y1="529.49" x2="489.3" y2="572.51"/>
</g>
<g>
	<circle fill="none" stroke="#FFFFFF" stroke-width="2" stroke-miterlimit="10" cx="615.49" cy="316.29" r="3.11"/>
	<circle fill="none" stroke="#FFFFFF" stroke-width="2" stroke-miterlimit="10" cx="605.43" cy="316.29" r="3.11"/>
	<circle fill="none" stroke="#FFFFFF" stroke-width="2" stroke-miterlimit="10" cx="595.37" cy="316.29" r="3.11"/>
</g>
<g>
	<circle fill="none" stroke="#FFFFFF" stroke-width="2" stroke-miterlimit="10" cx="830.49" cy="316.29" r="3.11"/>
	<circle fill="none" stroke="#FFFFFF" stroke-width="2" stroke-miterlimit="10" cx="820.43" cy="316.29" r="3.11"/>
	<circle fill="none" stroke="#FFFFFF" stroke-width="2" stroke-miterlimit="10" cx="810.37" cy="316.29" r="3.11"/>
</g>
<line fill="none" stroke="#FFFFFF" stroke-width="2" stroke-miterlimit="10" x1="453.58" y1="324.44" x2="624.07" y2="324.44"/>
<path fill="none" stroke="#FFFFFF" stroke-width="2" stroke-linecap="round" stroke-linejoin="round" stroke-miterlimit="10" d="
	M624.07,307.41H453.58v105.37h23.65l10.22,20.44c0.81,1.62,3.12,1.62,3.93,0l10.22-20.44h73.68l10.22,20.44
	c0.81,1.62,3.12,1.62,3.93,0l10.22-20.44h24.42V307.41z"/>
<g>
	<circle fill="none" stroke="#FFFFFF" stroke-width="2" stroke-miterlimit="10" cx="401.1" cy="316.29" r="3.11"/>
	<circle fill="none" stroke="#FFFFFF" stroke-width="2" stroke-miterlimit="10" cx="391.04" cy="316.29" r="3.11"/>
	<circle fill="none" stroke="#FFFFFF" stroke-width="2" stroke-miterlimit="10" cx="380.98" cy="316.29" r="3.11"/>
</g>
<line fill="none" stroke="#FFFFFF" stroke-width="2" stroke-miterlimit="10" x1="239.19" y1="324.44" x2="409.68" y2="324.44"/>
<path fill="none" stroke="#FFFFFF" stroke-width="2" stroke-linecap="round" stroke-linejoin="round" stroke-miterlimit="10" d="
	M409.68,307.41H239.19v105.37h23.65l10.22,20.44c0.81,1.62,3.12,1.62,3.93,0l10.22-20.44h73.68l10.22,20.44
	c0.81,1.62,3.12,1.62,3.93,0l10.22-20.44h24.42V307.41z"/>
<polygon fill="none" stroke="#7FE2FD" stroke-width="2" stroke-linecap="round" stroke-linejoin="round" stroke-miterlimit="10" points="
	275.15,519.83 270.39,529.34 279.91,529.34 "/>
<polygon fill="none" stroke="#7FE2FD" stroke-width="2" stroke-linecap="round" stroke-linejoin="round" stroke-miterlimit="10" points="
	373.2,519.83 368.44,529.34 377.95,529.34 "/>
<polygon fill="none" stroke="#7FE2FD" stroke-width="2" stroke-linecap="round" stroke-linejoin="round" stroke-miterlimit="10" points="
	489.54,519.83 484.78,529.34 494.3,529.34 "/>
<polygon fill="none" stroke="#7FE2FD" stroke-width="2" stroke-linecap="round" stroke-linejoin="round" stroke-miterlimit="10" points="
	586.86,520.56 582.1,530.07 591.61,530.07 "/>
<polygon fill="none" stroke="#7FE2FD" stroke-width="2" stroke-linecap="round" stroke-linejoin="round" stroke-miterlimit="10" points="
	706.12,521.29 701.37,530.8 710.88,530.8 "/>
<polygon fill="none" stroke="#7FE2FD" stroke-width="2" stroke-linecap="round" stroke-linejoin="round" stroke-miterlimit="10" points="
	802.71,520.56 797.95,530.07 807.47,530.07 "/>
<g>
	<ellipse fill="#FFFFFF" cx="705.18" cy="458.5" rx="14.49" ry="14.5"/>
	<path fill="#00002B" d="M705.99,451.29c-1.26-0.14-2.47,0.05-3.55,0.5c-0.25,0.1-0.36,0.4-0.23,0.63c0.24,0.43,0.35,0.95,0.25,1.5
		c-0.16,0.91-0.9,1.66-1.82,1.81c-0.55,0.09-1.08-0.02-1.51-0.27c-0.23-0.13-0.53-0.03-0.63,0.22c-0.46,1.08-0.66,2.3-0.53,3.58
		c0.34,3.31,2.98,6.02,6.28,6.43c4.73,0.59,8.7-3.39,8.12-8.12C711.97,454.29,709.28,451.65,705.99,451.29z"/>
</g>
</svg>
