<?xml version="1.0" encoding="utf-8"?>
<!-- Generator: Adobe Illustrator 23.0.2, SVG Export Plug-In . SVG Version: 6.00 Build 0)  -->
<svg version="1.2" baseProfile="tiny" id="Слой_1"
	 xmlns="http://www.w3.org/2000/svg" xmlns:xlink="http://www.w3.org/1999/xlink" x="0px" y="0px" viewBox="0 0 960 610"
	 xml:space="preserve">
<g>
	
		<circle fill="none" stroke="#191928" stroke-width="2" stroke-linecap="round" stroke-linejoin="round" stroke-miterlimit="10" cx="259.34" cy="180.53" r="11.66"/>
	<path fill="none" stroke="#191928" stroke-width="2" stroke-linecap="round" stroke-linejoin="round" stroke-miterlimit="10" d="
		M278.2,219.06h-37.72v-4.45c0-10.42,8.44-18.86,18.86-18.86h0c10.42,0,18.86,8.44,18.86,18.86V219.06z"/>
</g>
<g>
	
		<circle fill="none" stroke="#191928" stroke-width="2" stroke-linecap="round" stroke-linejoin="round" stroke-miterlimit="10" cx="630.73" cy="180.53" r="11.66"/>
	<path fill="none" stroke="#191928" stroke-width="2" stroke-linecap="round" stroke-linejoin="round" stroke-miterlimit="10" d="
		M649.59,219.06h-37.72v-4.45c0-10.42,8.44-18.86,18.86-18.86h0c10.42,0,18.86,8.44,18.86,18.86V219.06z"/>
</g>
<path fill="none" stroke="#191928" stroke-width="2" stroke-linecap="round" stroke-linejoin="round" stroke-miterlimit="10" d="
	M719.12,300.18c0-17.27-14.2-31.22-31.56-30.8c-16.31,0.39-29.63,13.67-30.05,29.99c-0.38,14.87,9.77,27.43,23.53,30.76l6.04,19.56
	c0.37,1.21,2.08,1.21,2.45,0l6.04-19.56C709.08,326.85,719.12,314.69,719.12,300.18z"/>
<path fill="none" stroke="#191928" stroke-width="2" stroke-linecap="round" stroke-linejoin="round" stroke-miterlimit="10" d="
	M688.86,284.67c-2.29-0.08-4.48,0.34-6.45,1.16c-0.53,0.22-0.74,0.84-0.46,1.34c0.5,0.89,0.73,1.95,0.56,3.08
	c-0.31,2.07-1.97,3.73-4.05,4.03c-1.14,0.16-2.21-0.07-3.1-0.59c-0.49-0.29-1.12-0.08-1.34,0.44c-0.85,1.99-1.29,4.19-1.22,6.51
	c0.23,8.03,6.7,14.64,14.73,15.03c9.18,0.45,16.72-7.09,16.27-16.27C703.41,291.41,696.86,284.95,688.86,284.67z"/>
<path fill="none" stroke="#191928" stroke-width="2" stroke-linecap="round" stroke-linejoin="round" stroke-miterlimit="10" d="
	M475.94,300.18c0-17.27-14.2-31.22-31.56-30.8c-16.31,0.39-29.63,13.67-30.05,29.99c-0.38,14.87,9.77,27.43,23.53,30.76l6.04,19.56
	c0.37,1.21,2.08,1.21,2.45,0l6.04-19.56C465.9,326.85,475.94,314.69,475.94,300.18z"/>
<path fill="none" stroke="#191928" stroke-width="2" stroke-linecap="round" stroke-linejoin="round" stroke-miterlimit="10" d="
	M445.68,284.67c-2.29-0.08-4.48,0.34-6.45,1.16c-0.53,0.22-0.74,0.84-0.46,1.34c0.5,0.89,0.73,1.95,0.56,3.08
	c-0.31,2.07-1.97,3.73-4.05,4.03c-1.14,0.16-2.21-0.07-3.1-0.59c-0.49-0.29-1.12-0.08-1.34,0.44c-0.85,1.99-1.29,4.19-1.22,6.51
	c0.23,8.03,6.7,14.64,14.73,15.03c9.18,0.45,16.72-7.09,16.27-16.27C460.23,291.41,453.67,284.95,445.68,284.67z"/>
<path fill="none" stroke="#191928" stroke-width="2" stroke-linecap="round" stroke-linejoin="round" stroke-miterlimit="10" d="
	M347.96,300.18c0-17.27-14.2-31.22-31.56-30.8c-16.31,0.39-29.63,13.67-30.05,29.99c-0.38,14.87,9.77,27.43,23.53,30.76l6.04,19.56
	c0.37,1.21,2.08,1.21,2.45,0l6.04-19.56C337.92,326.85,347.96,314.69,347.96,300.18z"/>
<path fill="none" stroke="#191928" stroke-width="2" stroke-linecap="round" stroke-linejoin="round" stroke-miterlimit="10" d="
	M317.7,284.67c-2.29-0.08-4.48,0.34-6.45,1.16c-0.53,0.22-0.74,0.84-0.46,1.34c0.5,0.89,0.73,1.95,0.56,3.08
	c-0.31,2.07-1.97,3.73-4.05,4.03c-1.14,0.16-2.21-0.07-3.1-0.59c-0.49-0.29-1.12-0.08-1.34,0.44c-0.85,1.99-1.29,4.19-1.22,6.51
	c0.23,8.03,6.7,14.64,14.73,15.03c9.18,0.45,16.72-7.09,16.27-16.27C332.25,291.41,325.69,284.95,317.7,284.67z"/>
<path fill="none" stroke="#191928" stroke-width="2" stroke-linecap="round" stroke-linejoin="round" stroke-miterlimit="10" d="
	M603.92,300.18c0-17.27-14.2-31.22-31.56-30.8c-16.31,0.39-29.63,13.67-30.05,29.99c-0.38,14.87,9.77,27.43,23.53,30.76l6.04,19.56
	c0.37,1.21,2.08,1.21,2.45,0l6.04-19.56C593.88,326.85,603.92,314.69,603.92,300.18z"/>
<path fill="none" stroke="#191928" stroke-width="2" stroke-linecap="round" stroke-linejoin="round" stroke-miterlimit="10" d="
	M573.66,284.67c-2.29-0.08-4.48,0.34-6.45,1.16c-0.53,0.22-0.74,0.84-0.46,1.34c0.5,0.89,0.73,1.95,0.56,3.08
	c-0.31,2.07-1.97,3.73-4.05,4.03c-1.14,0.16-2.21-0.07-3.1-0.59c-0.49-0.29-1.12-0.08-1.34,0.44c-0.85,1.99-1.29,4.19-1.22,6.51
	c0.23,8.03,6.7,14.64,14.73,15.03c9.18,0.45,16.72-7.09,16.27-16.27C588.21,291.41,581.65,284.95,573.66,284.67z"/>
<path fill="none" stroke="#191928" stroke-width="2" stroke-linecap="round" stroke-linejoin="round" stroke-miterlimit="10" d="
	M232.75,300.18c0-17.27-14.2-31.22-31.56-30.8c-16.31,0.39-29.63,13.67-30.05,29.99c-0.38,14.87,9.77,27.43,23.53,30.76l6.04,19.56
	c0.37,1.21,2.08,1.21,2.45,0l6.04-19.56C222.72,326.85,232.75,314.69,232.75,300.18z"/>
<path fill="none" stroke="#191928" stroke-width="2" stroke-linecap="round" stroke-linejoin="round" stroke-miterlimit="10" d="
	M202.49,284.67c-2.29-0.08-4.48,0.34-6.45,1.16c-0.53,0.22-0.74,0.84-0.46,1.34c0.5,0.89,0.73,1.95,0.56,3.08
	c-0.31,2.07-1.97,3.73-4.05,4.03c-1.14,0.16-2.21-0.07-3.1-0.59c-0.49-0.29-1.12-0.08-1.34,0.44c-0.85,1.99-1.29,4.19-1.22,6.51
	c0.23,8.03,6.7,14.64,14.73,15.03c9.18,0.45,16.72-7.09,16.27-16.27C217.05,291.41,210.49,284.95,202.49,284.67z"/>
<g>
	
		<polygon fill="none" stroke="#191928" stroke-width="2" stroke-linecap="round" stroke-linejoin="round" stroke-miterlimit="10" points="
		451.97,417.61 451.97,398.03 437.94,398.03 437.94,417.61 433.61,417.61 444.96,431.65 456.31,417.61 	"/>
	<g>
		<g>
			
				<circle fill="none" stroke="#191928" stroke-width="2" stroke-linecap="round" stroke-linejoin="round" stroke-miterlimit="10" cx="514.81" cy="367.09" r="2.84"/>
			
				<circle fill="none" stroke="#191928" stroke-width="2" stroke-linecap="round" stroke-linejoin="round" stroke-miterlimit="10" cx="505.63" cy="367.09" r="2.84"/>
			
				<circle fill="none" stroke="#191928" stroke-width="2" stroke-linecap="round" stroke-linejoin="round" stroke-miterlimit="10" cx="496.45" cy="367.09" r="2.84"/>
		</g>
		
			<line fill="none" stroke="#191928" stroke-width="2" stroke-linecap="round" stroke-linejoin="round" stroke-miterlimit="10" x1="367.98" y1="374.52" x2="521.66" y2="374.52"/>
		
			<rect x="367.45" y="358.61" fill="none" stroke="#191928" stroke-width="2" stroke-linecap="round" stroke-linejoin="round" stroke-miterlimit="10" width="155.13" height="96.73"/>
	</g>
</g>
<polyline fill="none" stroke="#191928" stroke-width="2" stroke-linecap="round" stroke-linejoin="round" stroke-miterlimit="10" points="
	573.17,269.37 573.17,253.14 559.6,253.14 559.6,240.66 461.85,240.66 461.85,253.14 447.36,253.14 438.44,194.17 406.53,194.17 
	397.28,253.14 382.19,253.14 373.27,194.17 341.37,194.17 332.12,253.14 317.27,253.14 317.27,269.03 "/>
<polyline fill="none" stroke="#191928" stroke-width="2" stroke-linecap="round" stroke-linejoin="round" stroke-miterlimit="10" points="
	522.57,406.78 573.17,406.78 573.17,350.58 "/>
<polyline fill="none" stroke="#191928" stroke-width="2" stroke-linecap="round" stroke-linejoin="round" stroke-miterlimit="10" points="
	317.27,350.58 317.27,406.78 367.45,406.78 "/>
<g>
	<g>
		<g>
			
				<line fill="none" stroke="#191928" stroke-width="2" stroke-linecap="round" stroke-linejoin="round" x1="233.31" y1="300.21" x2="235.81" y2="300.21"/>
			
				<line fill="none" stroke="#191928" stroke-width="2" stroke-linecap="round" stroke-linejoin="round" stroke-dasharray="5.2236,5.2236" x1="241.03" y1="300.21" x2="280.21" y2="300.21"/>
			
				<line fill="none" stroke="#191928" stroke-width="2" stroke-linecap="round" stroke-linejoin="round" x1="282.82" y1="300.21" x2="285.32" y2="300.21"/>
		</g>
		<g>
			
				<line fill="none" stroke="#191928" stroke-width="2" stroke-linecap="round" stroke-linejoin="round" x1="348.29" y1="300.21" x2="350.79" y2="300.21"/>
			
				<line fill="none" stroke="#191928" stroke-width="2" stroke-linecap="round" stroke-linejoin="round" stroke-dasharray="4.6693,4.6693" x1="355.45" y1="300.21" x2="409.15" y2="300.21"/>
			
				<line fill="none" stroke="#191928" stroke-width="2" stroke-linecap="round" stroke-linejoin="round" x1="411.49" y1="300.21" x2="413.99" y2="300.21"/>
		</g>
		<g>
			
				<line fill="none" stroke="#191928" stroke-width="2" stroke-linecap="round" stroke-linejoin="round" x1="476.95" y1="300.21" x2="479.45" y2="300.21"/>
			
				<line fill="none" stroke="#191928" stroke-width="2" stroke-linecap="round" stroke-linejoin="round" stroke-dasharray="5.4353,5.4353" x1="484.88" y1="300.21" x2="536.52" y2="300.21"/>
			
				<line fill="none" stroke="#191928" stroke-width="2" stroke-linecap="round" stroke-linejoin="round" x1="539.24" y1="300.21" x2="541.74" y2="300.21"/>
		</g>
		<g>
			
				<line fill="none" stroke="#191928" stroke-width="2" stroke-linecap="round" stroke-linejoin="round" x1="604.7" y1="300.21" x2="607.2" y2="300.21"/>
			
				<line fill="none" stroke="#191928" stroke-width="2" stroke-linecap="round" stroke-linejoin="round" stroke-dasharray="5.2236,5.2236" x1="612.42" y1="300.21" x2="651.6" y2="300.21"/>
			
				<line fill="none" stroke="#191928" stroke-width="2" stroke-linecap="round" stroke-linejoin="round" x1="654.21" y1="300.21" x2="656.71" y2="300.21"/>
		</g>
		<g>
			
				<line fill="none" stroke="#191928" stroke-width="2" stroke-linecap="round" stroke-linejoin="round" x1="259.77" y1="237.25" x2="259.77" y2="239.75"/>
			
				<line fill="none" stroke="#191928" stroke-width="2" stroke-linecap="round" stroke-linejoin="round" stroke-dasharray="4.964,4.964" x1="259.77" y1="244.71" x2="259.77" y2="401.08"/>
			
				<line fill="none" stroke="#191928" stroke-width="2" stroke-linecap="round" stroke-linejoin="round" x1="259.77" y1="403.56" x2="259.77" y2="406.06"/>
		</g>
		<g>
			
				<line fill="none" stroke="#191928" stroke-width="2" stroke-linecap="round" stroke-linejoin="round" x1="631.16" y1="237.25" x2="631.16" y2="239.75"/>
			
				<line fill="none" stroke="#191928" stroke-width="2" stroke-linecap="round" stroke-linejoin="round" stroke-dasharray="4.964,4.964" x1="631.16" y1="244.71" x2="631.16" y2="401.08"/>
			
				<line fill="none" stroke="#191928" stroke-width="2" stroke-linecap="round" stroke-linejoin="round" x1="631.16" y1="403.56" x2="631.16" y2="406.06"/>
		</g>
	</g>
	<g>
		
			<line fill="none" stroke="#191928" stroke-width="2" stroke-linecap="round" stroke-linejoin="round" x1="285.32" y1="431.67" x2="287.82" y2="431.67"/>
		
			<line fill="none" stroke="#191928" stroke-width="2" stroke-linecap="round" stroke-linejoin="round" stroke-dasharray="5.0809,5.0809" x1="292.9" y1="431.67" x2="361.5" y2="431.67"/>
		
			<line fill="none" stroke="#191928" stroke-width="2" stroke-linecap="round" stroke-linejoin="round" x1="364.04" y1="431.67" x2="366.54" y2="431.67"/>
	</g>
	<g>
		
			<line fill="none" stroke="#191928" stroke-width="2" stroke-linecap="round" stroke-linejoin="round" x1="522.57" y1="431.67" x2="525.07" y2="431.67"/>
		
			<line fill="none" stroke="#191928" stroke-width="2" stroke-linecap="round" stroke-linejoin="round" stroke-dasharray="5.2025,5.2025" x1="530.28" y1="431.67" x2="600.51" y2="431.67"/>
		
			<line fill="none" stroke="#191928" stroke-width="2" stroke-linecap="round" stroke-linejoin="round" x1="603.11" y1="431.67" x2="605.61" y2="431.67"/>
	</g>
</g>
<g>
	<g>
		<path fill="none" stroke="#191928" stroke-width="2" stroke-linecap="round" stroke-linejoin="round" stroke-miterlimit="10" d="
			M234.67,431.78c0,11.07,7.17,20.47,17.12,23.8c2.5,0.84,5.18,1.29,7.97,1.29c13.86,0,25.09-11.23,25.09-25.09
			c0-13.86-11.23-25.09-25.09-25.09c-2.46,0-4.83,0.35-7.07,1.01C242.28,410.75,234.67,420.37,234.67,431.78z"/>
	</g>
	<path fill="none" stroke="#191928" stroke-width="2" stroke-linecap="round" stroke-linejoin="round" stroke-miterlimit="10" d="
		M277.9,449.12c-4.56-4.73-10.97-7.67-18.06-7.67c-7.13,0-13.57,2.98-18.14,7.75"/>
	<path fill="none" stroke="#191928" stroke-width="2" stroke-linecap="round" stroke-linejoin="round" stroke-miterlimit="10" d="
		M269.37,422.18c-0.11-5.17-4.34-9.33-9.54-9.33c-5.2,0-9.42,4.16-9.54,9.33h-0.01v0.13c0,0.03,0,0.05,0,0.08h0v6.08h0
		c0,5.27,4.27,9.55,9.55,9.55c5.27,0,9.55-4.27,9.55-9.55v-6.29H269.37z"/>
</g>
<g>
	<g>
		<path fill="none" stroke="#191928" stroke-width="2" stroke-linecap="round" stroke-linejoin="round" stroke-miterlimit="10" d="
			M606.06,431.78c0,11.07,7.17,20.47,17.12,23.8c2.5,0.84,5.18,1.29,7.97,1.29c13.86,0,25.09-11.23,25.09-25.09
			c0-13.86-11.23-25.09-25.09-25.09c-2.46,0-4.83,0.35-7.07,1.01C613.67,410.75,606.06,420.37,606.06,431.78z"/>
	</g>
	<path fill="none" stroke="#191928" stroke-width="2" stroke-linecap="round" stroke-linejoin="round" stroke-miterlimit="10" d="
		M649.29,449.12c-4.56-4.73-10.97-7.67-18.06-7.67c-7.13,0-13.57,2.98-18.14,7.75"/>
	<path fill="none" stroke="#191928" stroke-width="2" stroke-linecap="round" stroke-linejoin="round" stroke-miterlimit="10" d="
		M640.76,422.18c-0.11-5.17-4.34-9.33-9.54-9.33c-5.2,0-9.42,4.16-9.54,9.33h-0.01v0.13c0,0.03,0,0.05,0,0.08h0v6.08h0
		c0,5.27,4.27,9.55,9.55,9.55c5.27,0,9.55-4.27,9.55-9.55v-6.29H640.76z"/>
</g>
</svg>
