<?xml version="1.0" encoding="utf-8"?>
<!-- Generator: Adobe Illustrator 23.0.2, SVG Export Plug-In . SVG Version: 6.00 Build 0)  -->
<svg version="1.2" baseProfile="tiny" id="Слой_1"
	 xmlns="http://www.w3.org/2000/svg" xmlns:xlink="http://www.w3.org/1999/xlink" x="0px" y="0px" viewBox="0 0 960 610"
	 xml:space="preserve">
<g>
	<g>
		<g>
			<path fill="none" stroke="#191928" stroke-width="2" stroke-linecap="round" stroke-linejoin="round" stroke-miterlimit="10" d="
				M583.35,355.24c0-24.44-20.1-44.18-44.67-43.59c-23.09,0.55-41.93,19.35-42.53,42.44c-0.54,21.04,13.83,38.81,33.3,43.53
				l8.55,27.68c0.53,1.71,2.94,1.71,3.47,0l8.55-27.68C569.14,392.99,583.35,375.78,583.35,355.24z"/>
			<path fill="none" stroke="#191928" stroke-width="2" stroke-linecap="round" stroke-linejoin="round" stroke-miterlimit="10" d="
				M571.39,385.6c-7.93-8.22-19.06-13.33-31.39-13.33c-12.39,0-23.58,5.17-31.52,13.47"/>
			<path fill="none" stroke="#191928" stroke-width="2" stroke-linecap="round" stroke-linejoin="round" stroke-miterlimit="10" d="
				M556.57,338.79c-0.2-8.99-7.53-16.22-16.57-16.22c-9.04,0-16.37,7.23-16.57,16.22h-0.01v0.23c0,0.05-0.01,0.09-0.01,0.14h0.01
				v10.56h-0.01c0,9.16,7.43,16.59,16.59,16.59c9.16,0,16.59-7.43,16.59-16.59v-10.93H556.57z"/>
		</g>
		
			<polyline fill="none" stroke="#191928" stroke-width="2" stroke-linecap="round" stroke-linejoin="round" stroke-miterlimit="10" points="
			580.63,369.87 651.15,369.87 651.15,235.49 639.27,235.49 639.27,224.57 553.78,224.57 553.78,235.49 541.1,235.49 533.3,183.9 
			505.39,183.9 497.3,235.49 484.1,235.49 476.3,183.9 448.4,183.9 440.3,235.49 427.32,235.49 427.32,369.87 498.85,369.87 		"/>
	</g>
	<g>
		<path fill="none" stroke="#191928" stroke-width="2" stroke-linecap="round" stroke-linejoin="round" stroke-miterlimit="10" d="
			M671.32,333.02c0-15.1,12.42-27.3,27.61-26.94c14.27,0.34,25.92,11.96,26.28,26.23c0.34,13.01-8.55,23.99-20.58,26.9l-5.29,17.11
			c-0.33,1.06-1.82,1.06-2.15,0l-5.29-17.11C680.1,356.35,671.32,345.71,671.32,333.02z"/>
		<path fill="none" stroke="#191928" stroke-width="2" stroke-linecap="round" stroke-linejoin="round" stroke-miterlimit="10" d="
			M678.71,351.78c4.9-5.08,11.78-8.24,19.4-8.24c7.66,0,14.57,3.2,19.48,8.33"/>
		<path fill="none" stroke="#191928" stroke-width="2" stroke-linecap="round" stroke-linejoin="round" stroke-miterlimit="10" d="
			M687.87,322.85c0.12-5.56,4.66-10.02,10.24-10.02c5.59,0,10.12,4.47,10.24,10.02h0.01v0.14c0,0.03,0,0.06,0,0.09h0v6.53h0
			c0,5.66-4.59,10.25-10.25,10.25c-5.66,0-10.25-4.59-10.25-10.25v-6.76H687.87z"/>
	</g>
	
		<polyline fill="none" stroke="#191928" stroke-width="2" stroke-linecap="round" stroke-linejoin="round" stroke-miterlimit="10" points="
		651.15,252.26 689.59,252.26 689.59,259.01 697.43,259.01 702.25,227.13 719.5,227.13 724.5,259.01 732.65,259.01 737.48,227.13 
		754.72,227.13 759.72,259.01 767.75,259.01 767.75,342.06 723.54,342.06 	"/>
	
		<line fill="none" stroke="#191928" stroke-width="2" stroke-linecap="round" stroke-linejoin="round" stroke-miterlimit="10" x1="673" y1="342.06" x2="651.15" y2="342.06"/>
	<g>
		<g>
			<path fill="none" stroke="#191928" stroke-width="2" stroke-linecap="round" stroke-linejoin="round" stroke-miterlimit="10" d="
				M779.63,323.3c0-9.33,7.68-16.87,17.06-16.65c8.82,0.21,16.02,7.39,16.24,16.21c0.21,8.04-5.28,14.83-12.72,16.63l-3.27,10.57
				c-0.2,0.65-1.12,0.65-1.33,0l-3.27-10.57C785.06,337.72,779.63,331.14,779.63,323.3z"/>
			<path fill="none" stroke="#191928" stroke-width="2" stroke-linecap="round" stroke-linejoin="round" stroke-miterlimit="10" d="
				M784.2,334.89c3.03-3.14,7.28-5.09,11.99-5.09c4.73,0,9.01,1.97,12.04,5.15"/>
			<path fill="none" stroke="#191928" stroke-width="2" stroke-linecap="round" stroke-linejoin="round" stroke-miterlimit="10" d="
				M789.86,317.01c0.08-3.43,2.88-6.2,6.33-6.2c3.45,0,6.25,2.76,6.33,6.2h0v0.09c0,0.02,0,0.04,0,0.05h0v4.03h0
				c0,3.5-2.84,6.34-6.34,6.34c-3.5,0-6.34-2.84-6.34-6.34L789.86,317.01L789.86,317.01z"/>
		</g>
		
			<polyline fill="none" stroke="#191928" stroke-width="2" stroke-linecap="round" stroke-linejoin="round" stroke-miterlimit="10" points="
			767.75,273.38 790.93,273.38 790.93,277.55 795.77,277.55 798.75,257.85 809.41,257.85 812.5,277.55 817.54,277.55 820.52,257.85 
			831.18,257.85 834.27,277.55 839.23,277.55 839.23,328.88 811.91,328.88 		"/>
		
			<line fill="none" stroke="#191928" stroke-width="2" stroke-linecap="round" stroke-linejoin="round" stroke-miterlimit="10" x1="780.67" y1="328.88" x2="767.75" y2="328.88"/>
	</g>
	<g>
		<g>
			<path fill="none" stroke="#191928" stroke-width="2" stroke-linecap="round" stroke-linejoin="round" stroke-miterlimit="10" d="
				M407.14,334.06c0-15.1-12.42-27.3-27.61-26.94c-14.27,0.34-25.92,11.96-26.28,26.23c-0.34,13.01,8.55,23.99,20.58,26.9
				l5.29,17.11c0.33,1.06,1.82,1.06,2.15,0l5.29-17.11C398.37,357.39,407.14,346.75,407.14,334.06z"/>
			<path fill="none" stroke="#191928" stroke-width="2" stroke-linecap="round" stroke-linejoin="round" stroke-miterlimit="10" d="
				M399.75,352.82c-4.9-5.08-11.78-8.24-19.4-8.24c-7.66,0-14.57,3.2-19.48,8.33"/>
			<path fill="none" stroke="#191928" stroke-width="2" stroke-linecap="round" stroke-linejoin="round" stroke-miterlimit="10" d="
				M390.6,323.89c-0.12-5.56-4.66-10.02-10.24-10.02c-5.59,0-10.12,4.47-10.24,10.02h-0.01v0.14c0,0.03,0,0.06,0,0.09h0v6.53h0
				c0,5.66,4.59,10.25,10.25,10.25c5.66,0,10.25-4.59,10.25-10.25v-6.76H390.6z"/>
		</g>
		
			<polyline fill="none" stroke="#191928" stroke-width="2" stroke-linecap="round" stroke-linejoin="round" stroke-miterlimit="10" points="
			427.32,253.3 388.87,253.3 388.87,260.05 381.03,260.05 376.21,228.17 358.97,228.17 353.97,260.05 345.81,260.05 340.99,228.17 
			323.74,228.17 318.74,260.05 310.72,260.05 310.72,343.1 354.92,343.1 		"/>
		
			<line fill="none" stroke="#191928" stroke-width="2" stroke-linecap="round" stroke-linejoin="round" stroke-miterlimit="10" x1="405.47" y1="343.1" x2="427.32" y2="343.1"/>
	</g>
	<g>
		<g>
			<path fill="none" stroke="#191928" stroke-width="2" stroke-linecap="round" stroke-linejoin="round" stroke-miterlimit="10" d="
				M298.83,321.22c0-9.33-7.68-16.87-17.06-16.65c-8.82,0.21-16.02,7.39-16.24,16.21c-0.21,8.04,5.28,14.83,12.72,16.63l3.27,10.57
				c0.2,0.65,1.12,0.65,1.33,0l3.27-10.57C293.41,335.63,298.83,329.06,298.83,321.22z"/>
			<path fill="none" stroke="#191928" stroke-width="2" stroke-linecap="round" stroke-linejoin="round" stroke-miterlimit="10" d="
				M294.26,332.81c-3.03-3.14-7.28-5.09-11.99-5.09c-4.73,0-9.01,1.97-12.04,5.15"/>
			<path fill="none" stroke="#191928" stroke-width="2" stroke-linecap="round" stroke-linejoin="round" stroke-miterlimit="10" d="
				M288.6,314.93c-0.08-3.43-2.88-6.2-6.33-6.2c-3.45,0-6.25,2.76-6.33,6.2h0v0.09c0,0.02,0,0.04,0,0.05h0v4.03h0
				c0,3.5,2.84,6.34,6.34,6.34c3.5,0,6.34-2.84,6.34-6.34L288.6,314.93L288.6,314.93z"/>
		</g>
		
			<polyline fill="none" stroke="#191928" stroke-width="2" stroke-linecap="round" stroke-linejoin="round" stroke-miterlimit="10" points="
			310.72,271.3 287.54,271.3 287.54,275.47 282.69,275.47 279.71,255.77 269.05,255.77 265.96,275.47 260.92,275.47 257.94,255.77 
			247.28,255.77 244.19,275.47 239.23,275.47 239.23,326.8 266.55,326.8 		"/>
		
			<line fill="none" stroke="#191928" stroke-width="2" stroke-linecap="round" stroke-linejoin="round" stroke-miterlimit="10" x1="297.79" y1="326.8" x2="310.72" y2="326.8"/>
	</g>
</g>
</svg>
