<?xml version="1.0" encoding="utf-8"?>
<!-- Generator: Adobe Illustrator 23.0.2, SVG Export Plug-In . SVG Version: 6.00 Build 0)  -->
<svg version="1.2" baseProfile="tiny" id="Слой_1"
	 xmlns="http://www.w3.org/2000/svg" xmlns:xlink="http://www.w3.org/1999/xlink" x="0px" y="0px" viewBox="0 0 960 754"
	 xml:space="preserve">
<polyline fill="none" stroke="#FFFFFF" stroke-width="2" stroke-linecap="round" stroke-linejoin="round" stroke-miterlimit="10" points="
	545.08,359.08 637.58,359.08 637.58,293.98 631.83,293.98 631.83,288.7 590.42,288.7 590.42,293.98 584.28,293.98 580.5,269 
	566.98,269 563.06,293.98 556.67,293.98 552.89,269 539.37,269 535.45,293.98 529.16,293.98 529.16,326.37 "/>
<polygon fill="none" stroke="#FFFFFF" stroke-width="2" stroke-linecap="round" stroke-linejoin="round" stroke-miterlimit="10" points="
	761.33,293.98 761.33,288.7 719.91,288.7 719.91,293.98 713.77,293.98 709.99,269 696.47,269 692.55,293.98 686.16,293.98 
	682.38,269 668.86,269 664.94,293.98 658.65,293.98 658.65,359.08 767.08,359.08 767.08,293.98 "/>
<polyline fill="none" stroke="#FFFFFF" stroke-width="2" stroke-linecap="round" stroke-linejoin="round" stroke-miterlimit="10" points="
	767.08,452.74 767.08,405.33 761.33,405.33 761.33,400.05 719.91,400.05 719.91,405.33 713.77,405.33 709.99,380.35 696.47,380.35 
	692.55,405.33 686.16,405.33 682.38,380.35 668.86,380.35 664.94,405.33 658.65,405.33 658.65,452.74 "/>
<polyline fill="none" stroke="#FFFFFF" stroke-width="2" stroke-linecap="round" stroke-linejoin="round" stroke-miterlimit="10" points="
	658.65,460.87 658.65,470.43 767.08,470.43 767.08,460.87 "/>
<polyline fill="none" stroke="#FFFFFF" stroke-width="2" stroke-linecap="round" stroke-linejoin="round" stroke-miterlimit="10" points="
	637.58,452.74 637.58,405.33 631.83,405.33 631.83,400.05 590.42,400.05 590.42,405.33 584.28,405.33 580.5,380.35 566.98,380.35 
	563.06,405.33 556.67,405.33 552.89,380.35 545.08,380.35 "/>
<polyline fill="none" stroke="#FFFFFF" stroke-width="2" stroke-linecap="round" stroke-linejoin="round" stroke-miterlimit="10" points="
	529.16,460.87 529.16,470.43 637.58,470.43 637.58,460.87 "/>
<line fill="none" stroke="#FFFFFF" stroke-width="2" stroke-linecap="round" stroke-linejoin="round" stroke-miterlimit="10" x1="529.16" y1="416.45" x2="529.16" y2="452.74"/>
<line fill="none" stroke="#FFFFFF" stroke-width="2" stroke-linecap="round" stroke-linejoin="round" stroke-miterlimit="10" x1="317.4" y1="457.12" x2="363" y2="457.12"/>
<line fill="none" stroke="#FFFFFF" stroke-width="2" stroke-linecap="round" stroke-linejoin="round" stroke-miterlimit="10" x1="371.4" y1="457.12" x2="417" y2="457.12"/>
<line fill="none" stroke="#FFFFFF" stroke-width="2" stroke-linecap="round" stroke-linejoin="round" stroke-miterlimit="10" x1="534.4" y1="457.12" x2="579" y2="457.12"/>
<line fill="none" stroke="#FFFFFF" stroke-width="2" stroke-linecap="round" stroke-linejoin="round" stroke-miterlimit="10" x1="588.4" y1="457.12" x2="633" y2="457.12"/>
<line fill="none" stroke="#FFFFFF" stroke-width="2" stroke-linecap="round" stroke-linejoin="round" stroke-miterlimit="10" x1="663.4" y1="457.12" x2="708" y2="457.12"/>
<line fill="none" stroke="#FFFFFF" stroke-width="2" stroke-linecap="round" stroke-linejoin="round" stroke-miterlimit="10" x1="717.4" y1="457.12" x2="762" y2="457.12"/>
<line fill="none" stroke="#FFFFFF" stroke-width="2" stroke-linecap="round" stroke-linejoin="round" stroke-miterlimit="10" x1="642.4" y1="457.12" x2="654" y2="457.12"/>
<circle fill="none" stroke="#FFFFFF" stroke-width="2" stroke-linecap="round" stroke-linejoin="round" stroke-miterlimit="10" cx="529.46" cy="456.8" r="4.07"/>
<circle fill="none" stroke="#FFFFFF" stroke-width="2" stroke-linecap="round" stroke-linejoin="round" stroke-miterlimit="10" cx="637.69" cy="456.8" r="4.07"/>
<circle fill="none" stroke="#FFFFFF" stroke-width="2" stroke-linecap="round" stroke-linejoin="round" stroke-miterlimit="10" cx="583.57" cy="457.43" r="4.07"/>
<circle fill="none" stroke="#FFFFFF" stroke-width="2" stroke-linecap="round" stroke-linejoin="round" stroke-miterlimit="10" cx="658.95" cy="456.8" r="4.07"/>
<circle fill="none" stroke="#FFFFFF" stroke-width="2" stroke-linecap="round" stroke-linejoin="round" stroke-miterlimit="10" cx="713.07" cy="457.43" r="4.07"/>
<circle fill="none" stroke="#FFFFFF" stroke-width="2" stroke-linecap="round" stroke-linejoin="round" stroke-miterlimit="10" cx="767.18" cy="456.8" r="4.07"/>
<circle fill="none" stroke="#FFFFFF" stroke-width="2" stroke-linecap="round" stroke-linejoin="round" stroke-miterlimit="10" cx="421.24" cy="456.8" r="4.07"/>
<polyline fill="none" stroke="#FFFFFF" stroke-width="2" stroke-linecap="round" stroke-linejoin="round" stroke-miterlimit="10" points="
	421.13,326.37 421.13,293.98 415.38,293.98 415.38,288.7 373.97,288.7 373.97,293.98 367.83,293.98 364.05,269 350.53,269 
	346.61,293.98 340.22,293.98 336.44,269 322.92,269 319,293.98 312.71,293.98 312.71,359.08 400.61,359.08 "/>
<line fill="none" stroke="#FFFFFF" stroke-width="2" stroke-linecap="round" stroke-linejoin="round" stroke-miterlimit="10" x1="421.13" y1="452.74" x2="421.13" y2="416.45"/>
<polyline fill="none" stroke="#FFFFFF" stroke-width="2" stroke-linecap="round" stroke-linejoin="round" stroke-miterlimit="10" points="
	312.71,460.87 312.71,470.43 421.13,470.43 421.13,460.87 "/>
<polyline fill="none" stroke="#FFFFFF" stroke-width="2" stroke-linecap="round" stroke-linejoin="round" stroke-miterlimit="10" points="
	400.61,400.05 373.97,400.05 373.97,405.33 367.83,405.33 364.05,380.35 350.53,380.35 346.61,405.33 340.22,405.33 336.44,380.35 
	322.92,380.35 319,405.33 312.71,405.33 312.71,452.74 "/>
<g>
	<g>
		
			<line fill="none" stroke="#00E47A" stroke-width="2" stroke-linecap="round" stroke-linejoin="round" x1="555.43" y1="491.52" x2="551.43" y2="491.52"/>
		
			<line fill="none" stroke="#00E47A" stroke-width="2" stroke-linecap="round" stroke-linejoin="round" stroke-dasharray="7.9109,7.9109" x1="543.52" y1="491.52" x2="515.83" y2="491.52"/>
		<polyline fill="none" stroke="#00E47A" stroke-width="2" stroke-linecap="round" stroke-linejoin="round" points="511.88,491.52 
			507.88,491.52 507.88,487.52 		"/>
		
			<line fill="none" stroke="#00E47A" stroke-width="2" stroke-linecap="round" stroke-linejoin="round" stroke-dasharray="7.4521,7.4521" x1="507.88" y1="480.07" x2="507.88" y2="424.18"/>
		
			<line fill="none" stroke="#00E47A" stroke-width="2" stroke-linecap="round" stroke-linejoin="round" x1="507.88" y1="420.45" x2="507.88" y2="416.45"/>
	</g>
	<g>
		
			<line fill="none" stroke="#00E47A" stroke-width="2" stroke-linecap="round" stroke-linejoin="round" x1="684.93" y1="491.52" x2="680.93" y2="491.52"/>
		
			<line fill="none" stroke="#00E47A" stroke-width="2" stroke-linecap="round" stroke-linejoin="round" stroke-dasharray="7.3131,7.3131" x1="673.61" y1="491.52" x2="618.77" y2="491.52"/>
		
			<line fill="none" stroke="#00E47A" stroke-width="2" stroke-linecap="round" stroke-linejoin="round" x1="615.11" y1="491.52" x2="611.11" y2="491.52"/>
	</g>
	<g>
		
			<line fill="none" stroke="#00E47A" stroke-width="2" stroke-linecap="round" stroke-linejoin="round" x1="290.8" y1="397.19" x2="290.8" y2="401.19"/>
		
			<line fill="none" stroke="#00E47A" stroke-width="2" stroke-linecap="round" stroke-linejoin="round" stroke-dasharray="7.8484,7.8484" x1="290.8" y1="409.04" x2="290.8" y2="483.6"/>
		<polyline fill="none" stroke="#00E47A" stroke-width="2" stroke-linecap="round" stroke-linejoin="round" points="290.8,487.52 
			290.8,491.52 294.8,491.52 		"/>
		
			<line fill="none" stroke="#00E47A" stroke-width="2" stroke-linecap="round" stroke-linejoin="round" stroke-dasharray="7.9109,7.9109" x1="302.72" y1="491.52" x2="330.4" y2="491.52"/>
		
			<line fill="none" stroke="#00E47A" stroke-width="2" stroke-linecap="round" stroke-linejoin="round" x1="334.36" y1="491.52" x2="338.36" y2="491.52"/>
	</g>
	<g>
		
			<polygon fill="none" stroke="#00E47A" stroke-width="2" stroke-linecap="round" stroke-linejoin="round" stroke-miterlimit="10" points="
			776.46,364.76 776.46,397.19 799.71,397.19 799.71,364.76 806.89,364.76 788.09,341.51 769.29,364.76 		"/>
		
			<polygon fill="none" stroke="#00E47A" stroke-width="2" stroke-linecap="round" stroke-linejoin="round" stroke-miterlimit="10" points="
			814,350.99 814,396.56 837.24,396.56 837.24,350.99 844.42,350.99 825.62,327.75 806.82,350.99 		"/>
		
			<polygon fill="none" stroke="#00E47A" stroke-width="2" stroke-linecap="round" stroke-linejoin="round" stroke-miterlimit="10" points="
			241.6,350.99 241.6,396.56 264.84,396.56 264.84,350.99 272.02,350.99 253.22,327.75 234.42,350.99 		"/>
		
			<polygon fill="none" stroke="#00E47A" stroke-width="2" stroke-linecap="round" stroke-linejoin="round" stroke-miterlimit="10" points="
			279.13,364.76 279.13,397.19 302.38,397.19 302.38,364.76 309.55,364.76 290.75,341.51 271.95,364.76 		"/>
		<g>
			
				<line fill="none" stroke="#00E47A" stroke-width="2" stroke-linecap="round" stroke-linejoin="round" x1="788.14" y1="397.19" x2="788.14" y2="401.19"/>
			
				<line fill="none" stroke="#00E47A" stroke-width="2" stroke-linecap="round" stroke-linejoin="round" stroke-dasharray="7.8484,7.8484" x1="788.14" y1="409.04" x2="788.14" y2="483.6"/>
			<polyline fill="none" stroke="#00E47A" stroke-width="2" stroke-linecap="round" stroke-linejoin="round" points="788.14,487.52 
				788.14,491.52 784.14,491.52 			"/>
			
				<line fill="none" stroke="#00E47A" stroke-width="2" stroke-linecap="round" stroke-linejoin="round" stroke-dasharray="7.9066,7.9066" x1="776.23" y1="491.52" x2="748.56" y2="491.52"/>
			
				<line fill="none" stroke="#00E47A" stroke-width="2" stroke-linecap="round" stroke-linejoin="round" x1="744.6" y1="491.52" x2="740.6" y2="491.52"/>
		</g>
		<g>
			
				<line fill="none" stroke="#00E47A" stroke-width="2" stroke-linecap="round" stroke-linejoin="round" x1="507.88" y1="326.37" x2="507.88" y2="322.37"/>
			
				<line fill="none" stroke="#00E47A" stroke-width="2" stroke-linecap="round" stroke-linejoin="round" stroke-dasharray="7.8691,7.8691" x1="507.88" y1="314.5" x2="507.88" y2="255.48"/>
			<polyline fill="none" stroke="#00E47A" stroke-width="2" stroke-linecap="round" stroke-linejoin="round" points="507.88,251.55 
				507.88,247.55 511.88,247.55 			"/>
			
				<line fill="none" stroke="#00E47A" stroke-width="2" stroke-linecap="round" stroke-linejoin="round" stroke-dasharray="7.7788,7.7788" x1="519.66" y1="247.55" x2="780.25" y2="247.55"/>
			<polyline fill="none" stroke="#00E47A" stroke-width="2" stroke-linecap="round" stroke-linejoin="round" points="784.14,247.55 
				788.14,247.55 788.14,251.55 			"/>
			
				<line fill="none" stroke="#00E47A" stroke-width="2" stroke-linecap="round" stroke-linejoin="round" stroke-dasharray="7.815,7.815" x1="788.14" y1="259.36" x2="788.14" y2="333.61"/>
			
				<line fill="none" stroke="#00E47A" stroke-width="2" stroke-linecap="round" stroke-linejoin="round" x1="788.14" y1="337.51" x2="788.14" y2="341.51"/>
		</g>
		<g>
			
				<line fill="none" stroke="#00E47A" stroke-width="2" stroke-linecap="round" stroke-linejoin="round" x1="394.04" y1="491.52" x2="398.04" y2="491.52"/>
			
				<line fill="none" stroke="#00E47A" stroke-width="2" stroke-linecap="round" stroke-linejoin="round" stroke-dasharray="8.0317,8.0317" x1="406.07" y1="491.52" x2="434.18" y2="491.52"/>
			<polyline fill="none" stroke="#00E47A" stroke-width="2" stroke-linecap="round" stroke-linejoin="round" points="438.19,491.52 
				442.19,491.52 442.19,487.52 			"/>
			
				<line fill="none" stroke="#00E47A" stroke-width="2" stroke-linecap="round" stroke-linejoin="round" stroke-dasharray="7.4521,7.4521" x1="442.19" y1="480.07" x2="442.19" y2="424.18"/>
			
				<line fill="none" stroke="#00E47A" stroke-width="2" stroke-linecap="round" stroke-linejoin="round" x1="442.19" y1="420.45" x2="442.19" y2="416.45"/>
		</g>
		<g>
			
				<line fill="none" stroke="#00E47A" stroke-width="2" stroke-linecap="round" stroke-linejoin="round" x1="442.19" y1="326.37" x2="442.19" y2="322.37"/>
			
				<line fill="none" stroke="#00E47A" stroke-width="2" stroke-linecap="round" stroke-linejoin="round" stroke-dasharray="7.8691,7.8691" x1="442.19" y1="314.5" x2="442.19" y2="255.48"/>
			<polyline fill="none" stroke="#00E47A" stroke-width="2" stroke-linecap="round" stroke-linejoin="round" points="442.19,251.55 
				442.19,247.55 438.19,247.55 			"/>
			
				<line fill="none" stroke="#00E47A" stroke-width="2" stroke-linecap="round" stroke-linejoin="round" stroke-dasharray="8.4346,8.4346" x1="429.76" y1="247.55" x2="299.02" y2="247.55"/>
			<polyline fill="none" stroke="#00E47A" stroke-width="2" stroke-linecap="round" stroke-linejoin="round" points="294.8,247.55 
				290.8,247.55 290.8,251.55 			"/>
			
				<line fill="none" stroke="#00E47A" stroke-width="2" stroke-linecap="round" stroke-linejoin="round" stroke-dasharray="7.815,7.815" x1="290.8" y1="259.36" x2="290.8" y2="333.61"/>
			
				<line fill="none" stroke="#00E47A" stroke-width="2" stroke-linecap="round" stroke-linejoin="round" x1="290.8" y1="337.51" x2="290.8" y2="341.51"/>
		</g>
	</g>
</g>
<circle fill="none" stroke="#FFFFFF" stroke-width="2" stroke-linecap="round" stroke-linejoin="round" stroke-miterlimit="10" cx="313.01" cy="456.8" r="4.07"/>
<circle fill="none" stroke="#FFFFFF" stroke-width="2" stroke-linecap="round" stroke-linejoin="round" stroke-miterlimit="10" cx="367.12" cy="456.8" r="4.07"/>
<g>
	<ellipse fill="#FFFFFF" cx="474.85" cy="378.74" rx="13.51" ry="13.52"/>
	<path fill="#00002B" d="M475.6,372.03c-1.18-0.13-2.3,0.05-3.31,0.46c-0.23,0.09-0.33,0.37-0.21,0.59c0.23,0.4,0.33,0.89,0.24,1.4
		c-0.15,0.85-0.84,1.55-1.7,1.69c-0.52,0.09-1.01-0.01-1.41-0.25c-0.22-0.12-0.49-0.02-0.59,0.21c-0.43,1.01-0.61,2.14-0.49,3.33
		c0.32,3.09,2.78,5.61,5.86,5.99c4.41,0.55,8.11-3.16,7.57-7.57C481.17,374.81,478.67,372.36,475.6,372.03z"/>
</g>
<g>
	<g>
		
			<circle fill="none" stroke="#FFFFFF" stroke-width="2" stroke-linecap="round" stroke-linejoin="round" stroke-miterlimit="10" cx="537.85" cy="334.27" r="2.65"/>
		
			<circle fill="none" stroke="#FFFFFF" stroke-width="2" stroke-linecap="round" stroke-linejoin="round" stroke-miterlimit="10" cx="529.3" cy="334.27" r="2.65"/>
		
			<circle fill="none" stroke="#FFFFFF" stroke-width="2" stroke-linecap="round" stroke-linejoin="round" stroke-miterlimit="10" cx="520.75" cy="334.27" r="2.65"/>
	</g>
	
		<line fill="none" stroke="#FFFFFF" stroke-width="2" stroke-linecap="round" stroke-linejoin="round" stroke-miterlimit="10" x1="401.1" y1="341.19" x2="544.23" y2="341.19"/>
	
		<rect x="400.61" y="326.37" fill="none" stroke="#FFFFFF" stroke-width="2" stroke-linecap="round" stroke-linejoin="round" stroke-miterlimit="10" width="144.47" height="90.08"/>
</g>
<line fill="none" stroke="#FFFFFF" stroke-width="2" stroke-linecap="round" stroke-linejoin="round" stroke-miterlimit="10" x1="425.4" y1="457.12" x2="525" y2="457.12"/>
<line fill="none" stroke="#FFFFFF" stroke-width="2" stroke-linecap="round" stroke-linejoin="round" stroke-miterlimit="10" x1="771.4" y1="457.12" x2="824" y2="457.12"/>
<path fill="none" stroke="#FFFFFF" stroke-width="2" stroke-linecap="round" stroke-linejoin="round" stroke-miterlimit="10" d="
	M341.49,520.04h49.42c1.73,0,3.13-1.4,3.13-3.13v-28.16c0-1.73-1.4-3.13-3.13-3.13h-20.68l-4.03-8.06l-4.03,8.06h-20.68
	c-1.73,0-3.13,1.4-3.13,3.13v28.16C338.36,518.64,339.76,520.04,341.49,520.04z"/>
<path fill="none" stroke="#FFFFFF" stroke-width="2" stroke-linecap="round" stroke-linejoin="round" stroke-miterlimit="10" d="
	M558.56,520.04h49.42c1.73,0,3.13-1.4,3.13-3.13v-28.16c0-1.73-1.4-3.13-3.13-3.13H587.3l-4.03-8.06l-4.03,8.06h-20.68
	c-1.73,0-3.13,1.4-3.13,3.13v28.16C555.43,518.64,556.83,520.04,558.56,520.04z"/>
<path fill="none" stroke="#FFFFFF" stroke-width="2" stroke-linecap="round" stroke-linejoin="round" stroke-miterlimit="10" d="
	M688.05,520.04h49.42c1.73,0,3.13-1.4,3.13-3.13v-28.16c0-1.73-1.4-3.13-3.13-3.13H716.8l-4.03-8.06l-4.03,8.06h-20.68
	c-1.73,0-3.13,1.4-3.13,3.13v28.16C684.93,518.64,686.33,520.04,688.05,520.04z"/>
<line fill="none" stroke="#FFFFFF" stroke-width="2" stroke-linecap="round" stroke-linejoin="round" stroke-miterlimit="10" x1="256.4" y1="457.12" x2="309" y2="457.12"/>
</svg>
