<?xml version="1.0" encoding="utf-8"?>
<!-- Generator: Adobe Illustrator 23.0.2, SVG Export Plug-In . SVG Version: 6.00 Build 0)  -->
<svg version="1.2" baseProfile="tiny" id="Слой_1"
	 xmlns="http://www.w3.org/2000/svg" xmlns:xlink="http://www.w3.org/1999/xlink" x="0px" y="0px" viewBox="0 0 960 610"
	 xml:space="preserve">
<circle fill="none" stroke="#191928" stroke-width="2" stroke-linecap="round" stroke-linejoin="round" stroke-miterlimit="10" cx="419.54" cy="374.9" r="6.52"/>
<circle fill="none" stroke="#191928" stroke-width="2" stroke-linecap="round" stroke-linejoin="round" stroke-miterlimit="10" cx="320.23" cy="374.9" r="6.52"/>
<circle fill="none" stroke="#191928" stroke-width="2" stroke-linecap="round" stroke-linejoin="round" stroke-miterlimit="10" cx="516.99" cy="375.52" r="6.52"/>
<g>
	
		<line fill="none" stroke="#191928" stroke-width="2" stroke-linecap="round" stroke-linejoin="round" stroke-miterlimit="10" x1="180.85" y1="341.62" x2="135.22" y2="341.62"/>
	<line fill="none" stroke="#191928" stroke-width="2" stroke-miterlimit="10" x1="119.91" y1="274.3" x2="297.09" y2="274.3"/>
	<g>
		<path fill="none" stroke="#191928" stroke-width="2" stroke-linecap="round" stroke-linejoin="round" stroke-miterlimit="10" d="
			M224.7,310.06c0,1.25-1.03,2.28-2.28,2.28h-21.29c-1.25,0-2.28-1.03-2.28-2.28v-21.29c0-1.25,1.03-2.28,2.28-2.28h21.29
			c1.25,0,2.28,1.03,2.28,2.28V310.06z"/>
		
			<polyline fill="none" stroke="#191928" stroke-width="2" stroke-linecap="round" stroke-linejoin="round" stroke-miterlimit="10" points="
			216.76,296.29 210.67,302.37 207.18,298.88 		"/>
	</g>
	<g>
		<path fill="none" stroke="#191928" stroke-width="2" stroke-linecap="round" stroke-linejoin="round" stroke-miterlimit="10" d="
			M224.7,351.89c0,1.25-1.03,2.28-2.28,2.28h-21.29c-1.25,0-2.28-1.03-2.28-2.28V330.6c0-1.25,1.03-2.28,2.28-2.28h21.29
			c1.25,0,2.28,1.03,2.28,2.28V351.89z"/>
		
			<polyline fill="none" stroke="#191928" stroke-width="2" stroke-linecap="round" stroke-linejoin="round" stroke-miterlimit="10" points="
			216.76,338.11 210.67,344.2 207.18,340.7 		"/>
	</g>
	
		<line fill="none" stroke="#191928" stroke-width="2" stroke-linecap="round" stroke-linejoin="round" stroke-miterlimit="10" x1="180.85" y1="299.42" x2="135.22" y2="299.42"/>
	
		<line fill="none" stroke="#191928" stroke-width="2" stroke-linecap="round" stroke-linejoin="round" stroke-miterlimit="10" x1="180.85" y1="320.33" x2="135.22" y2="320.33"/>
	
		<line fill="none" stroke="#191928" stroke-width="2" stroke-linecap="round" stroke-linejoin="round" stroke-miterlimit="10" x1="286.05" y1="341.62" x2="240.42" y2="341.62"/>
	
		<line fill="none" stroke="#191928" stroke-width="2" stroke-linecap="round" stroke-linejoin="round" stroke-miterlimit="10" x1="286.05" y1="299.42" x2="240.42" y2="299.42"/>
	
		<line fill="none" stroke="#191928" stroke-width="2" stroke-linecap="round" stroke-linejoin="round" stroke-miterlimit="10" x1="286.05" y1="320.33" x2="240.42" y2="320.33"/>
</g>
<g>
	
		<circle fill="none" stroke="#191928" stroke-width="2" stroke-linecap="round" stroke-linejoin="round" stroke-miterlimit="10" cx="287.92" cy="265.73" r="3.25"/>
	
		<circle fill="none" stroke="#191928" stroke-width="2" stroke-linecap="round" stroke-linejoin="round" stroke-miterlimit="10" cx="277.44" cy="265.73" r="3.25"/>
	
		<circle fill="none" stroke="#191928" stroke-width="2" stroke-linecap="round" stroke-linejoin="round" stroke-miterlimit="10" cx="266.95" cy="265.73" r="3.25"/>
</g>
<rect x="119.6" y="256.04" fill="none" stroke="#191928" stroke-width="2" stroke-linecap="round" stroke-linejoin="round" stroke-miterlimit="10" width="177.19" height="110.48"/>
<g>
	
		<polyline fill="none" stroke="#191928" stroke-width="2" stroke-linecap="round" stroke-linejoin="round" stroke-miterlimit="10" points="
		275.85,256.04 275.85,220.82 365.23,220.82 365.23,276.06 296.79,276.06 	"/>
	
		<polyline fill="none" stroke="#191928" stroke-width="2" stroke-linecap="round" stroke-linejoin="round" stroke-miterlimit="10" points="
		296.79,284.13 365.23,284.13 365.23,339.37 296.79,339.37 	"/>
	
		<polyline fill="none" stroke="#191928" stroke-width="2" stroke-linecap="round" stroke-linejoin="round" stroke-miterlimit="10" points="
		296.79,347.44 365.23,347.44 365.23,402.68 275.85,402.68 275.85,366.53 	"/>
	
		<rect x="374.23" y="220.82" fill="none" stroke="#191928" stroke-width="2" stroke-linecap="round" stroke-linejoin="round" stroke-miterlimit="10" width="89.38" height="55.24"/>
	
		<rect x="374.23" y="284.13" fill="none" stroke="#191928" stroke-width="2" stroke-linecap="round" stroke-linejoin="round" stroke-miterlimit="10" width="89.38" height="55.24"/>
	
		<rect x="374.23" y="347.44" fill="none" stroke="#191928" stroke-width="2" stroke-linecap="round" stroke-linejoin="round" stroke-miterlimit="10" width="89.38" height="55.24"/>
	
		<polyline fill="none" stroke="#191928" stroke-width="2" stroke-linecap="round" stroke-linejoin="round" stroke-miterlimit="10" points="
		540.88,276.06 472.61,276.06 472.61,220.82 561.99,220.82 561.99,256.51 	"/>
	
		<polyline fill="none" stroke="#191928" stroke-width="2" stroke-linecap="round" stroke-linejoin="round" stroke-miterlimit="10" points="
		540.88,339.37 472.61,339.37 472.61,284.13 540.88,284.13 	"/>
	
		<polyline fill="none" stroke="#191928" stroke-width="2" stroke-linecap="round" stroke-linejoin="round" stroke-miterlimit="10" points="
		561.99,366.99 561.99,402.68 472.61,402.68 472.61,347.44 540.88,347.44 	"/>
</g>
<g>
	<g>
		<g>
			
				<circle fill="none" stroke="#191928" stroke-width="2" stroke-linecap="round" stroke-linejoin="round" stroke-miterlimit="10" cx="710.73" cy="266.19" r="3.25"/>
			
				<circle fill="none" stroke="#191928" stroke-width="2" stroke-linecap="round" stroke-linejoin="round" stroke-miterlimit="10" cx="700.25" cy="266.19" r="3.25"/>
			
				<circle fill="none" stroke="#191928" stroke-width="2" stroke-linecap="round" stroke-linejoin="round" stroke-miterlimit="10" cx="689.77" cy="266.19" r="3.25"/>
		</g>
		
			<line fill="none" stroke="#191928" stroke-width="2" stroke-linecap="round" stroke-linejoin="round" stroke-miterlimit="10" x1="541.49" y1="274.68" x2="718.56" y2="274.68"/>
		
			<rect x="540.88" y="256.51" fill="none" stroke="#191928" stroke-width="2" stroke-linecap="round" stroke-linejoin="round" stroke-miterlimit="10" width="178.72" height="110.48"/>
	</g>
	
		<polyline fill="none" stroke="#191928" stroke-width="2" stroke-linecap="round" stroke-linejoin="round" stroke-miterlimit="10" points="
		681.82,299.3 685.48,298.97 685.09,302.06 	"/>
	
		<line fill="none" stroke="#191928" stroke-width="2" stroke-linecap="round" stroke-linejoin="round" stroke-miterlimit="10" x1="685.48" y1="309.47" x2="685.48" y2="366.68"/>
	
		<line fill="none" stroke="#191928" stroke-width="2" stroke-linecap="round" stroke-linejoin="round" stroke-miterlimit="10" x1="575.36" y1="339.12" x2="575.36" y2="366.68"/>
	
		<line fill="none" stroke="#191928" stroke-width="2" stroke-linecap="round" stroke-linejoin="round" stroke-miterlimit="10" x1="588.97" y1="324.29" x2="588.97" y2="366.68"/>
	
		<line fill="none" stroke="#191928" stroke-width="2" stroke-linecap="round" stroke-linejoin="round" stroke-miterlimit="10" x1="602.76" y1="309.76" x2="602.76" y2="366.98"/>
	
		<line fill="none" stroke="#191928" stroke-width="2" stroke-linecap="round" stroke-linejoin="round" stroke-miterlimit="10" x1="630.33" y1="339.41" x2="630.33" y2="366.98"/>
	
		<line fill="none" stroke="#191928" stroke-width="2" stroke-linecap="round" stroke-linejoin="round" stroke-miterlimit="10" x1="644.24" y1="324.29" x2="644.24" y2="366.68"/>
	
		<line fill="none" stroke="#191928" stroke-width="2" stroke-linecap="round" stroke-linejoin="round" stroke-miterlimit="10" x1="658.09" y1="339.12" x2="658.09" y2="366.68"/>
	
		<line fill="none" stroke="#191928" stroke-width="2" stroke-linecap="round" stroke-linejoin="round" stroke-miterlimit="10" x1="671.7" y1="324.29" x2="671.7" y2="366.68"/>
	
		<line fill="none" stroke="#191928" stroke-width="2" stroke-linecap="round" stroke-linejoin="round" stroke-miterlimit="10" x1="616.54" y1="324.59" x2="616.54" y2="366.98"/>
	
		<polyline fill="none" stroke="#191928" stroke-width="2" stroke-linecap="round" stroke-linejoin="round" stroke-miterlimit="10" points="
		575,319.42 602.74,299.47 630.49,319.42 644.6,309.2 657.74,319.42 685.48,298.98 	"/>
</g>
<circle fill="none" stroke="#191928" stroke-width="2" stroke-linecap="round" stroke-linejoin="round" stroke-miterlimit="10" cx="320.23" cy="248.29" r="6.52"/>
<circle fill="none" stroke="#191928" stroke-width="2" stroke-linecap="round" stroke-linejoin="round" stroke-miterlimit="10" cx="418.92" cy="248.29" r="6.52"/>
<circle fill="none" stroke="#191928" stroke-width="2" stroke-linecap="round" stroke-linejoin="round" stroke-miterlimit="10" cx="418.92" cy="311.59" r="6.52"/>
<circle fill="none" stroke="#191928" stroke-width="2" stroke-linecap="round" stroke-linejoin="round" stroke-miterlimit="10" cx="320.23" cy="311.59" r="6.52"/>
<circle fill="none" stroke="#191928" stroke-width="2" stroke-linecap="round" stroke-linejoin="round" stroke-miterlimit="10" cx="516.99" cy="311.59" r="6.52"/>
<circle fill="none" stroke="#191928" stroke-width="2" stroke-linecap="round" stroke-linejoin="round" stroke-miterlimit="10" cx="517.61" cy="248.29" r="6.52"/>
<polyline fill="none" stroke="#191928" stroke-width="2" stroke-linecap="round" stroke-linejoin="round" stroke-miterlimit="10" points="
	320.54,247.98 419.23,247.98 419.23,311.91 510.47,311.28 "/>
<polyline fill="none" stroke="#191928" stroke-width="2" stroke-linecap="round" stroke-linejoin="round" stroke-miterlimit="10" points="
	320.54,311.28 320.54,375.21 419.23,375.21 517.3,375.21 517.3,318.11 "/>
<circle fill="none" stroke="#191928" stroke-width="2" stroke-linecap="round" stroke-linejoin="round" stroke-miterlimit="10" cx="516.99" cy="311.59" r="2.48"/>
<line fill="none" stroke="#191928" stroke-width="2" stroke-linecap="round" stroke-linejoin="round" stroke-miterlimit="10" x1="523.5" y1="311.28" x2="540.88" y2="311.28"/>
</svg>
