<?xml version="1.0" encoding="utf-8"?>
<!-- Generator: Adobe Illustrator 23.0.2, SVG Export Plug-In . SVG Version: 6.00 Build 0)  -->
<svg version="1.2" baseProfile="tiny" id="Слой_1"
	 xmlns="http://www.w3.org/2000/svg" xmlns:xlink="http://www.w3.org/1999/xlink" x="0px" y="0px" viewBox="0 0 960 610"
	 xml:space="preserve">
<g>
	
		<polyline fill="none" stroke="#191928" stroke-width="2" stroke-linecap="round" stroke-linejoin="round" stroke-miterlimit="10" points="
		695.46,253.49 695.46,215.28 678.89,215.28 678.89,200.05 559.61,200.05 559.61,215.28 541.92,215.28 531.03,143.31 492.1,143.31 
		480.81,215.28 462.4,215.28 451.51,143.31 412.58,143.31 401.29,215.28 383.18,215.28 383.18,253.49 	"/>
	
		<line fill="none" stroke="#191928" stroke-width="2" stroke-linecap="round" stroke-linejoin="round" stroke-miterlimit="10" x1="695.46" y1="326.46" x2="695.46" y2="303.05"/>
	
		<polyline fill="none" stroke="#191928" stroke-width="2" stroke-linecap="round" stroke-linejoin="round" stroke-miterlimit="10" points="
		643.13,402.77 695.46,402.77 695.46,376.03 	"/>
	
		<polyline fill="none" stroke="#191928" stroke-width="2" stroke-linecap="round" stroke-linejoin="round" stroke-miterlimit="10" points="
		383.18,376.03 383.18,402.77 435.07,402.77 	"/>
	
		<line fill="none" stroke="#191928" stroke-width="2" stroke-linecap="round" stroke-linejoin="round" stroke-miterlimit="10" x1="383.18" y1="303.05" x2="383.18" y2="326.46"/>
	<g>
		
			<circle fill="none" stroke="#1A1928" stroke-width="2" stroke-linecap="round" stroke-linejoin="round" stroke-miterlimit="10" cx="332" cy="293.25" r="18.62"/>
		<path fill="none" stroke="#1A1928" stroke-width="2" stroke-linecap="round" stroke-linejoin="round" stroke-miterlimit="10" d="
			M362.13,354.8h-60.26v-24.47c0-7.06,5.72-12.78,12.78-12.78h34.71c7.06,0,12.78,5.72,12.78,12.78V354.8z"/>
	</g>
	<g>
		
			<circle fill="none" stroke="#1A1928" stroke-width="2" stroke-linecap="round" stroke-linejoin="round" stroke-miterlimit="10" cx="748.22" cy="293.25" r="18.62"/>
		<path fill="none" stroke="#1A1928" stroke-width="2" stroke-linecap="round" stroke-linejoin="round" stroke-miterlimit="10" d="
			M778.35,354.8h-60.26v-24.47c0-7.06,5.72-12.78,12.78-12.78h34.71c7.06,0,12.78,5.72,12.78,12.78V354.8z"/>
	</g>
	<g>
		
			<polyline fill="none" stroke="#1A1928" stroke-width="2" stroke-linecap="round" stroke-linejoin="round" stroke-miterlimit="10" points="
			759.82,278.69 759.82,253.49 840,253.49 840,303.05 764.05,303.05 		"/>
		
			<polyline fill="none" stroke="#1A1928" stroke-width="2" stroke-linecap="round" stroke-linejoin="round" stroke-miterlimit="10" points="
			787.97,276.77 796.98,285.78 812.3,270.46 		"/>
	</g>
	<g>
		
			<polyline fill="none" stroke="#1A1928" stroke-width="2" stroke-linecap="round" stroke-linejoin="round" stroke-miterlimit="10" points="
			732.39,303.05 655.86,303.05 655.86,253.49 736.04,253.49 736.04,279.17 		"/>
		
			<polyline fill="none" stroke="#1A1928" stroke-width="2" stroke-linecap="round" stroke-linejoin="round" stroke-miterlimit="10" points="
			684.01,276.77 693.02,285.78 708.33,270.46 		"/>
	</g>
	<g>
		
			<rect x="551.89" y="253.49" fill="none" stroke="#1A1928" stroke-width="2" stroke-linecap="round" stroke-linejoin="round" stroke-miterlimit="10" width="80.18" height="49.57"/>
		
			<polyline fill="none" stroke="#1A1928" stroke-width="2" stroke-linecap="round" stroke-linejoin="round" stroke-miterlimit="10" points="
			580.05,276.77 589.05,285.78 604.37,270.46 		"/>
	</g>
	<g>
		
			<rect x="447.93" y="253.49" fill="none" stroke="#1A1928" stroke-width="2" stroke-linecap="round" stroke-linejoin="round" stroke-miterlimit="10" width="80.18" height="49.57"/>
		
			<polyline fill="none" stroke="#1A1928" stroke-width="2" stroke-linecap="round" stroke-linejoin="round" stroke-miterlimit="10" points="
			476.08,276.77 485.09,285.78 500.41,270.46 		"/>
	</g>
	<g>
		
			<polyline fill="none" stroke="#1A1928" stroke-width="2" stroke-linecap="round" stroke-linejoin="round" stroke-miterlimit="10" points="
			343.96,278.98 343.96,253.49 424.14,253.49 424.14,303.05 347.83,303.05 		"/>
		
			<polyline fill="none" stroke="#1A1928" stroke-width="2" stroke-linecap="round" stroke-linejoin="round" stroke-miterlimit="10" points="
			372.12,276.77 381.13,285.78 396.44,270.46 		"/>
	</g>
	
		<polyline fill="none" stroke="#1A1928" stroke-width="2" stroke-linecap="round" stroke-linejoin="round" stroke-miterlimit="10" points="
		316.17,303.05 240,303.05 240,253.49 320.18,253.49 320.18,278.86 	"/>
	
		<polyline fill="none" stroke="#1A1928" stroke-width="2" stroke-linecap="round" stroke-linejoin="round" stroke-miterlimit="10" points="
		268.15,276.77 277.16,285.78 292.48,270.46 	"/>
	<g>
		
			<polyline fill="none" stroke="#1A1928" stroke-width="2" stroke-linecap="round" stroke-linejoin="round" stroke-miterlimit="10" points="
			778.05,326.46 840,326.46 840,376.03 759.82,376.03 759.82,354.8 		"/>
		
			<polyline fill="none" stroke="#1A1928" stroke-width="2" stroke-linecap="round" stroke-linejoin="round" stroke-miterlimit="10" points="
			787.97,349.74 796.98,358.75 812.3,343.43 		"/>
	</g>
	<g>
		
			<polyline fill="none" stroke="#1A1928" stroke-width="2" stroke-linecap="round" stroke-linejoin="round" stroke-miterlimit="10" points="
			736.04,354.8 736.04,376.03 655.86,376.03 655.86,326.46 718.08,326.46 		"/>
		
			<polyline fill="none" stroke="#1A1928" stroke-width="2" stroke-linecap="round" stroke-linejoin="round" stroke-miterlimit="10" points="
			684.01,349.74 693.02,358.75 708.33,343.43 		"/>
	</g>
	
		<polyline fill="none" stroke="#1A1928" stroke-width="2" stroke-linecap="round" stroke-linejoin="round" stroke-miterlimit="10" points="
		551.89,337.46 551.89,326.46 632.07,326.46 632.07,337.46 	"/>
	
		<polyline fill="none" stroke="#1A1928" stroke-width="2" stroke-linecap="round" stroke-linejoin="round" stroke-miterlimit="10" points="
		447.93,337.46 447.93,326.46 528.11,326.46 528.11,337.46 	"/>
	<g>
		
			<polyline fill="none" stroke="#1A1928" stroke-width="2" stroke-linecap="round" stroke-linejoin="round" stroke-miterlimit="10" points="
			361.83,326.46 424.14,326.46 424.14,376.03 343.96,376.03 343.96,354.8 		"/>
		
			<polyline fill="none" stroke="#1A1928" stroke-width="2" stroke-linecap="round" stroke-linejoin="round" stroke-miterlimit="10" points="
			372.12,349.74 381.13,358.75 396.44,343.43 		"/>
	</g>
	<g>
		
			<polyline fill="none" stroke="#1A1928" stroke-width="2" stroke-linecap="round" stroke-linejoin="round" stroke-miterlimit="10" points="
			320.18,354.8 320.18,376.03 240,376.03 240,326.46 302.17,326.46 		"/>
		
			<polyline fill="none" stroke="#1A1928" stroke-width="2" stroke-linecap="round" stroke-linejoin="round" stroke-miterlimit="10" points="
			268.15,349.74 277.16,358.75 292.48,343.43 		"/>
	</g>
	<g>
		<g>
			<g>
				
					<circle fill="none" stroke="#191928" stroke-width="2" stroke-linecap="round" stroke-linejoin="round" stroke-miterlimit="10" cx="632.71" cy="348.83" r="3.81"/>
				
					<circle fill="none" stroke="#191928" stroke-width="2" stroke-linecap="round" stroke-linejoin="round" stroke-miterlimit="10" cx="620.4" cy="348.83" r="3.81"/>
				
					<circle fill="none" stroke="#191928" stroke-width="2" stroke-linecap="round" stroke-linejoin="round" stroke-miterlimit="10" cx="608.09" cy="348.83" r="3.81"/>
			</g>
			
				<line fill="none" stroke="#191928" stroke-width="2" stroke-linecap="round" stroke-linejoin="round" stroke-miterlimit="10" x1="435.78" y1="358.8" x2="641.9" y2="358.8"/>
			
				<polygon fill="none" stroke="#191928" stroke-width="2" stroke-linecap="round" stroke-linejoin="round" stroke-miterlimit="10" points="
				643.13,467.19 435.07,467.19 435.07,402.77 435.07,337.46 643.13,337.46 643.13,402.77 			"/>
		</g>
		<g>
			<g>
				
					<line fill="none" stroke="#191928" stroke-width="2" stroke-linecap="round" stroke-linejoin="round" stroke-miterlimit="10" x1="484.27" y1="386.23" x2="484.27" y2="435.79"/>
				<circle fill="#FAFAFA" stroke="#191928" stroke-width="2" stroke-miterlimit="10" cx="484.27" cy="406.1" r="3.62"/>
			</g>
			<g>
				
					<line fill="none" stroke="#191928" stroke-width="2" stroke-linecap="round" stroke-linejoin="round" stroke-miterlimit="10" x1="506.21" y1="386.23" x2="506.21" y2="435.79"/>
				<circle fill="#FAFAFA" stroke="#191928" stroke-width="2" stroke-miterlimit="10" cx="506.68" cy="421.55" r="3.62"/>
			</g>
			<g>
				
					<line fill="none" stroke="#191928" stroke-width="2" stroke-linecap="round" stroke-linejoin="round" stroke-miterlimit="10" x1="549.27" y1="386.23" x2="549.27" y2="435.79"/>
				<circle fill="#FAFAFA" stroke="#191928" stroke-width="2" stroke-miterlimit="10" cx="549.56" cy="421.55" r="3.62"/>
			</g>
			<g>
				
					<line fill="none" stroke="#191928" stroke-width="2" stroke-linecap="round" stroke-linejoin="round" stroke-miterlimit="10" x1="592.52" y1="386.23" x2="592.52" y2="435.79"/>
				<circle fill="#FAFAFA" stroke="#191928" stroke-width="2" stroke-miterlimit="10" cx="592.8" cy="421.55" r="3.62"/>
			</g>
			<g>
				
					<line fill="none" stroke="#191928" stroke-width="2" stroke-linecap="round" stroke-linejoin="round" stroke-miterlimit="10" x1="570.9" y1="386.23" x2="570.9" y2="435.79"/>
				<circle fill="#FAFAFA" stroke="#191928" stroke-width="2" stroke-miterlimit="10" cx="570.71" cy="406.1" r="3.62"/>
			</g>
			<g>
				
					<line fill="none" stroke="#191928" stroke-width="2" stroke-linecap="round" stroke-linejoin="round" stroke-miterlimit="10" x1="527.92" y1="386.23" x2="527.92" y2="435.79"/>
				<circle fill="#FAFAFA" stroke="#191928" stroke-width="2" stroke-miterlimit="10" cx="527.84" cy="398.72" r="3.62"/>
			</g>
		</g>
	</g>
	<g>
		
			<line fill="none" stroke="#191928" stroke-width="2" stroke-linecap="round" stroke-linejoin="round" x1="643.6" y1="434.75" x2="647.6" y2="434.75"/>
		
			<line fill="none" stroke="#191928" stroke-width="2" stroke-linecap="round" stroke-linejoin="round" stroke-dasharray="7.7345,7.7345" x1="655.34" y1="434.75" x2="790.69" y2="434.75"/>
		<polyline fill="none" stroke="#191928" stroke-width="2" stroke-linecap="round" stroke-linejoin="round" points="794.56,434.75 
			798.56,434.75 798.56,430.75 		"/>
		
			<line fill="none" stroke="#191928" stroke-width="2" stroke-linecap="round" stroke-linejoin="round" stroke-dasharray="7.2227,7.2227" x1="798.56" y1="423.53" x2="798.56" y2="383.81"/>
		
			<line fill="none" stroke="#191928" stroke-width="2" stroke-linecap="round" stroke-linejoin="round" x1="798.56" y1="380.2" x2="798.56" y2="376.2"/>
	</g>
	<g>
		
			<line fill="none" stroke="#191928" stroke-width="2" stroke-linecap="round" stroke-linejoin="round" x1="279.64" y1="376.2" x2="279.64" y2="380.2"/>
		
			<line fill="none" stroke="#191928" stroke-width="2" stroke-linecap="round" stroke-linejoin="round" stroke-dasharray="7.2227,7.2227" x1="279.64" y1="387.42" x2="279.64" y2="427.14"/>
		<polyline fill="none" stroke="#191928" stroke-width="2" stroke-linecap="round" stroke-linejoin="round" points="279.64,430.75 
			279.64,434.75 283.64,434.75 		"/>
		
			<line fill="none" stroke="#191928" stroke-width="2" stroke-linecap="round" stroke-linejoin="round" stroke-dasharray="7.7345,7.7345" x1="291.37" y1="434.75" x2="426.73" y2="434.75"/>
		
			<line fill="none" stroke="#191928" stroke-width="2" stroke-linecap="round" stroke-linejoin="round" x1="430.59" y1="434.75" x2="434.59" y2="434.75"/>
	</g>
</g>
</svg>
