<?xml version="1.0" encoding="utf-8"?>
<!-- Generator: Adobe Illustrator 23.0.2, SVG Export Plug-In . SVG Version: 6.00 Build 0)  -->
<svg version="1.2" baseProfile="tiny" id="Слой_1"
	 xmlns="http://www.w3.org/2000/svg" xmlns:xlink="http://www.w3.org/1999/xlink" x="0px" y="0px" viewBox="0 0 960 754"
	 xml:space="preserve">
<g>
	
		<circle fill="none" stroke="#FFFFFF" stroke-width="2" stroke-linecap="round" stroke-linejoin="round" stroke-miterlimit="10" cx="538.76" cy="546.21" r="10.12"/>
	<path fill="none" stroke="#FFFFFF" stroke-width="2" stroke-linecap="round" stroke-linejoin="round" stroke-miterlimit="10" d="
		M555.12,579.65h-32.74v-3.86c0-9.04,7.33-16.37,16.37-16.37h0c9.04,0,16.37,7.33,16.37,16.37V579.65z"/>
</g>
<g>
	
		<circle fill="none" stroke="#FFFFFF" stroke-width="2" stroke-linecap="round" stroke-linejoin="round" stroke-miterlimit="10" cx="668.94" cy="546.21" r="10.12"/>
	<path fill="none" stroke="#FFFFFF" stroke-width="2" stroke-linecap="round" stroke-linejoin="round" stroke-miterlimit="10" d="
		M685.31,579.65h-32.74v-3.86c0-9.04,7.33-16.37,16.37-16.37l0,0c9.04,0,16.37,7.33,16.37,16.37V579.65z"/>
</g>
<g>
	
		<circle fill="none" stroke="#FFFFFF" stroke-width="2" stroke-linecap="round" stroke-linejoin="round" stroke-miterlimit="10" cx="409.55" cy="546.21" r="10.12"/>
	<path fill="none" stroke="#FFFFFF" stroke-width="2" stroke-linecap="round" stroke-linejoin="round" stroke-miterlimit="10" d="
		M425.92,579.65h-32.74v-3.86c0-9.04,7.33-16.37,16.37-16.37h0c9.04,0,16.37,7.33,16.37,16.37V579.65z"/>
</g>
<g>
	<g>
		<path fill="none" stroke="#FFFFFF" stroke-width="2" stroke-linecap="round" stroke-linejoin="round" stroke-miterlimit="10" d="
			M439.03,466.19c0,15.55,10.07,28.75,24.05,33.42c3.52,1.18,7.28,1.81,11.19,1.81c19.46,0,35.24-15.78,35.24-35.24
			c0-19.46-15.78-35.24-35.24-35.24c-3.45,0-6.78,0.5-9.93,1.42C449.71,436.66,439.03,450.18,439.03,466.19z"/>
	</g>
	<path fill="none" stroke="#FFFFFF" stroke-width="2" stroke-linecap="round" stroke-linejoin="round" stroke-miterlimit="10" d="
		M499.73,490.54c-6.41-6.64-15.4-10.78-25.36-10.78c-10.02,0-19.05,4.18-25.47,10.89"/>
	<path fill="none" stroke="#FFFFFF" stroke-width="2" stroke-linecap="round" stroke-linejoin="round" stroke-miterlimit="10" d="
		M487.76,452.72c-0.16-7.26-6.09-13.11-13.39-13.11c-7.3,0-13.23,5.84-13.39,13.11h-0.01v0.18c0,0.04-0.01,0.08-0.01,0.11h0.01v8.54
		h-0.01c0,7.4,6,13.41,13.41,13.41c7.4,0,13.41-6,13.41-13.41v-8.83H487.76z"/>
</g>
<g>
	<g>
		<path fill="none" stroke="#FFFFFF" stroke-width="2" stroke-linecap="round" stroke-linejoin="round" stroke-miterlimit="10" d="
			M568.03,466.19c0,15.55,10.07,28.75,24.05,33.42c3.52,1.18,7.28,1.81,11.19,1.81c19.46,0,35.24-15.78,35.24-35.24
			c0-19.46-15.78-35.24-35.24-35.24c-3.45,0-6.78,0.5-9.93,1.42C578.71,436.66,568.03,450.18,568.03,466.19z"/>
	</g>
	<path fill="none" stroke="#FFFFFF" stroke-width="2" stroke-linecap="round" stroke-linejoin="round" stroke-miterlimit="10" d="
		M628.73,490.54c-6.41-6.64-15.4-10.78-25.36-10.78c-10.02,0-19.05,4.18-25.47,10.89"/>
	<path fill="none" stroke="#FFFFFF" stroke-width="2" stroke-linecap="round" stroke-linejoin="round" stroke-miterlimit="10" d="
		M616.76,452.72c-0.16-7.26-6.09-13.11-13.39-13.11c-7.3,0-13.23,5.84-13.39,13.11h-0.01v0.18c0,0.04-0.01,0.08-0.01,0.11h0.01v8.54
		h-0.01c0,7.4,6,13.41,13.41,13.41c7.4,0,13.41-6,13.41-13.41v-8.83H616.76z"/>
</g>
<line fill="none" stroke="#FFFFFF" stroke-width="2" stroke-linecap="round" stroke-linejoin="round" stroke-miterlimit="10" x1="669.17" y1="472.93" x2="669.17" y2="456.29"/>
<line fill="none" stroke="#FFFFFF" stroke-width="2" stroke-linecap="round" stroke-linejoin="round" stroke-miterlimit="10" x1="409.29" y1="456.29" x2="409.29" y2="472.93"/>
<g>
	<g>
		
			<polyline fill="none" stroke="#FFE57B" stroke-width="2" stroke-linecap="round" stroke-linejoin="round" stroke-miterlimit="10" points="
			669.17,385.81 669.17,352.89 655.38,352.89 655.38,340.22 556.12,340.22 556.12,352.89 541.4,352.89 532.34,293 499.94,293 
			490.54,352.89 475.22,352.89 466.16,293 433.76,293 424.37,352.89 409.29,352.89 409.29,385.81 		"/>
		
			<line fill="none" stroke="#FFE57B" stroke-width="2" stroke-linecap="round" stroke-linejoin="round" stroke-miterlimit="10" x1="595.5" y1="531.92" x2="611.55" y2="531.92"/>
		
			<line fill="none" stroke="#FFE57B" stroke-width="2" stroke-linecap="round" stroke-linejoin="round" stroke-miterlimit="10" x1="465.8" y1="531.92" x2="482.47" y2="531.92"/>
	</g>
	<g>
		<g>
			
				<ellipse fill="none" stroke="#FFE57B" stroke-width="2" stroke-linecap="round" stroke-linejoin="round" stroke-miterlimit="10" cx="371.38" cy="427.99" rx="2.06" ry="2.07"/>
			
				<ellipse fill="none" stroke="#FFE57B" stroke-width="2" stroke-linecap="round" stroke-linejoin="round" stroke-miterlimit="10" cx="364.74" cy="427.99" rx="2.06" ry="2.07"/>
			
				<ellipse fill="none" stroke="#FFE57B" stroke-width="2" stroke-linecap="round" stroke-linejoin="round" stroke-miterlimit="10" cx="358.1" cy="427.99" rx="2.06" ry="2.07"/>
		</g>
		
			<line fill="none" stroke="#FFE57B" stroke-width="2" stroke-linecap="round" stroke-linejoin="round" stroke-miterlimit="10" x1="236" y1="434.41" x2="376.34" y2="434.41"/>
		
			<rect x="235.97" y="421.91" fill="none" stroke="#FFE57B" stroke-width="2" stroke-linecap="round" stroke-linejoin="round" stroke-miterlimit="10" width="140.93" height="87.12"/>
		
			<polyline fill="none" stroke="#FFE57B" stroke-width="2" stroke-linecap="round" stroke-linejoin="round" stroke-miterlimit="10" points="
			347.11,455.65 349.99,455.39 349.68,457.83 		"/>
		
			<line fill="none" stroke="#FFE57B" stroke-width="2" stroke-linecap="round" stroke-linejoin="round" stroke-miterlimit="10" x1="349.99" y1="463.67" x2="349.99" y2="508.78"/>
		
			<line fill="none" stroke="#FFE57B" stroke-width="2" stroke-linecap="round" stroke-linejoin="round" stroke-miterlimit="10" x1="263.16" y1="487.05" x2="263.16" y2="508.78"/>
		
			<line fill="none" stroke="#FFE57B" stroke-width="2" stroke-linecap="round" stroke-linejoin="round" stroke-miterlimit="10" x1="273.89" y1="475.36" x2="273.89" y2="508.78"/>
		
			<line fill="none" stroke="#FFE57B" stroke-width="2" stroke-linecap="round" stroke-linejoin="round" stroke-miterlimit="10" x1="284.76" y1="463.9" x2="284.76" y2="509.02"/>
		
			<line fill="none" stroke="#FFE57B" stroke-width="2" stroke-linecap="round" stroke-linejoin="round" stroke-miterlimit="10" x1="306.5" y1="487.28" x2="306.5" y2="509.02"/>
		
			<line fill="none" stroke="#FFE57B" stroke-width="2" stroke-linecap="round" stroke-linejoin="round" stroke-miterlimit="10" x1="317.47" y1="475.36" x2="317.47" y2="508.78"/>
		
			<line fill="none" stroke="#FFE57B" stroke-width="2" stroke-linecap="round" stroke-linejoin="round" stroke-miterlimit="10" x1="328.39" y1="487.05" x2="328.39" y2="508.78"/>
		
			<line fill="none" stroke="#FFE57B" stroke-width="2" stroke-linecap="round" stroke-linejoin="round" stroke-miterlimit="10" x1="339.12" y1="475.36" x2="339.12" y2="508.78"/>
		
			<line fill="none" stroke="#FFE57B" stroke-width="2" stroke-linecap="round" stroke-linejoin="round" stroke-miterlimit="10" x1="295.63" y1="475.59" x2="295.63" y2="509.02"/>
		
			<polyline fill="none" stroke="#FFE57B" stroke-width="2" stroke-linecap="round" stroke-linejoin="round" stroke-miterlimit="10" points="
			262.88,471.52 284.75,455.78 306.63,471.52 317.76,463.46 328.12,471.52 349.99,455.4 		"/>
	</g>
	<g>
		<g>
			
				<ellipse fill="none" stroke="#FFE57B" stroke-width="2" stroke-linecap="round" stroke-linejoin="round" stroke-miterlimit="10" cx="836.38" cy="427.99" rx="2.06" ry="2.07"/>
			
				<ellipse fill="none" stroke="#FFE57B" stroke-width="2" stroke-linecap="round" stroke-linejoin="round" stroke-miterlimit="10" cx="829.74" cy="427.99" rx="2.06" ry="2.07"/>
			
				<ellipse fill="none" stroke="#FFE57B" stroke-width="2" stroke-linecap="round" stroke-linejoin="round" stroke-miterlimit="10" cx="823.1" cy="427.99" rx="2.06" ry="2.07"/>
		</g>
		
			<line fill="none" stroke="#FFE57B" stroke-width="2" stroke-linecap="round" stroke-linejoin="round" stroke-miterlimit="10" x1="701" y1="434.41" x2="841.34" y2="434.41"/>
		
			<rect x="700.97" y="421.91" fill="none" stroke="#FFE57B" stroke-width="2" stroke-linecap="round" stroke-linejoin="round" stroke-miterlimit="10" width="140.93" height="87.12"/>
		
			<polyline fill="none" stroke="#FFE57B" stroke-width="2" stroke-linecap="round" stroke-linejoin="round" stroke-miterlimit="10" points="
			812.11,455.65 814.99,455.39 814.68,457.83 		"/>
		
			<line fill="none" stroke="#FFE57B" stroke-width="2" stroke-linecap="round" stroke-linejoin="round" stroke-miterlimit="10" x1="814.99" y1="463.67" x2="814.99" y2="508.78"/>
		
			<line fill="none" stroke="#FFE57B" stroke-width="2" stroke-linecap="round" stroke-linejoin="round" stroke-miterlimit="10" x1="728.16" y1="487.05" x2="728.16" y2="508.78"/>
		
			<line fill="none" stroke="#FFE57B" stroke-width="2" stroke-linecap="round" stroke-linejoin="round" stroke-miterlimit="10" x1="738.89" y1="475.36" x2="738.89" y2="508.78"/>
		
			<line fill="none" stroke="#FFE57B" stroke-width="2" stroke-linecap="round" stroke-linejoin="round" stroke-miterlimit="10" x1="749.76" y1="463.9" x2="749.76" y2="509.02"/>
		
			<line fill="none" stroke="#FFE57B" stroke-width="2" stroke-linecap="round" stroke-linejoin="round" stroke-miterlimit="10" x1="771.5" y1="487.28" x2="771.5" y2="509.02"/>
		
			<line fill="none" stroke="#FFE57B" stroke-width="2" stroke-linecap="round" stroke-linejoin="round" stroke-miterlimit="10" x1="782.47" y1="475.36" x2="782.47" y2="508.78"/>
		
			<line fill="none" stroke="#FFE57B" stroke-width="2" stroke-linecap="round" stroke-linejoin="round" stroke-miterlimit="10" x1="793.39" y1="487.05" x2="793.39" y2="508.78"/>
		
			<line fill="none" stroke="#FFE57B" stroke-width="2" stroke-linecap="round" stroke-linejoin="round" stroke-miterlimit="10" x1="804.12" y1="475.36" x2="804.12" y2="508.78"/>
		
			<line fill="none" stroke="#FFE57B" stroke-width="2" stroke-linecap="round" stroke-linejoin="round" stroke-miterlimit="10" x1="760.63" y1="475.59" x2="760.63" y2="509.02"/>
		
			<polyline fill="none" stroke="#FFE57B" stroke-width="2" stroke-linecap="round" stroke-linejoin="round" stroke-miterlimit="10" points="
			727.88,471.52 749.75,455.78 771.63,471.52 782.76,463.46 793.12,471.52 814.99,455.4 		"/>
	</g>
	<g>
		<g>
			
				<line fill="none" stroke="#FFE57B" stroke-width="2" stroke-linecap="round" stroke-linejoin="round" x1="393.18" y1="571.79" x2="389.18" y2="571.79"/>
			
				<line fill="none" stroke="#FFE57B" stroke-width="2" stroke-linecap="round" stroke-linejoin="round" stroke-dasharray="8.6866,8.6866" x1="380.49" y1="571.79" x2="315.34" y2="571.79"/>
			<polyline fill="none" stroke="#FFE57B" stroke-width="2" stroke-linecap="round" stroke-linejoin="round" points="311,571.79 
				307,571.79 307,567.79 			"/>
			
				<line fill="none" stroke="#FFE57B" stroke-width="2" stroke-linecap="round" stroke-linejoin="round" stroke-dasharray="7.8065,7.8065" x1="307" y1="559.99" x2="307" y2="517.05"/>
			
				<line fill="none" stroke="#FFE57B" stroke-width="2" stroke-linecap="round" stroke-linejoin="round" x1="307" y1="513.15" x2="307" y2="509.15"/>
		</g>
		<g>
			
				<line fill="none" stroke="#FFE57B" stroke-width="2" stroke-linecap="round" stroke-linejoin="round" x1="522" y1="571.79" x2="518" y2="571.79"/>
			
				<line fill="none" stroke="#FFE57B" stroke-width="2" stroke-linecap="round" stroke-linejoin="round" stroke-dasharray="8.0074,8.0074" x1="509.99" y1="571.79" x2="433.92" y2="571.79"/>
			
				<line fill="none" stroke="#FFE57B" stroke-width="2" stroke-linecap="round" stroke-linejoin="round" x1="429.92" y1="571.79" x2="425.92" y2="571.79"/>
		</g>
		<g>
			
				<line fill="none" stroke="#FFE57B" stroke-width="2" stroke-linecap="round" stroke-linejoin="round" x1="652.57" y1="571.79" x2="648.57" y2="571.79"/>
			
				<line fill="none" stroke="#FFE57B" stroke-width="2" stroke-linecap="round" stroke-linejoin="round" stroke-dasharray="8.1428,8.1428" x1="640.43" y1="571.79" x2="563.07" y2="571.79"/>
			
				<line fill="none" stroke="#FFE57B" stroke-width="2" stroke-linecap="round" stroke-linejoin="round" x1="559" y1="571.79" x2="555" y2="571.79"/>
		</g>
		<g>
			
				<line fill="none" stroke="#FFE57B" stroke-width="2" stroke-linecap="round" stroke-linejoin="round" x1="772" y1="509.15" x2="772" y2="513.15"/>
			
				<line fill="none" stroke="#FFE57B" stroke-width="2" stroke-linecap="round" stroke-linejoin="round" stroke-dasharray="7.8065,7.8065" x1="772" y1="520.95" x2="772" y2="563.89"/>
			<polyline fill="none" stroke="#FFE57B" stroke-width="2" stroke-linecap="round" stroke-linejoin="round" points="772,567.79 
				772,571.79 768,571.79 			"/>
			
				<line fill="none" stroke="#FFE57B" stroke-width="2" stroke-linecap="round" stroke-linejoin="round" stroke-dasharray="8.8011,8.8011" x1="759.2" y1="571.79" x2="693.19" y2="571.79"/>
			
				<line fill="none" stroke="#FFE57B" stroke-width="2" stroke-linecap="round" stroke-linejoin="round" x1="688.79" y1="571.79" x2="684.79" y2="571.79"/>
		</g>
	</g>
	<g>
		<g>
			<g>
				
					<path fill="none" stroke="#FFE57B" stroke-width="2" stroke-linecap="round" stroke-linejoin="round" stroke-miterlimit="10" d="
					M420.9,215.51c-1.89,0-5.51,0.06-5.51-0.16c0-10.28-8.33-18.61-18.61-18.61c-4.95,0-9.45,1.93-12.78,5.09
					c-6.36-19.51-24.7-33.6-46.33-33.6c-26.59,0-48.2,21.3-48.71,47.77c-1.03-0.11-2.07-0.16-3.13-0.16
					c-16.63,0-30.11,13.48-30.11,30.12c0,14.87,10.78,27.67,24.96,30.12l0,0h141.86l0,0c15.87-0.85,28.49-14.35,28.49-30.44
					C451.01,229,437.53,215.51,420.9,215.51z"/>
			</g>
		</g>
		
			<circle fill="none" stroke="#FFE57B" stroke-width="2" stroke-linecap="round" stroke-linejoin="round" stroke-miterlimit="10" cx="392.13" cy="302.94" r="0.5"/>
		
			<circle fill="none" stroke="#FFE57B" stroke-width="2" stroke-linecap="round" stroke-linejoin="round" stroke-miterlimit="10" cx="386.94" cy="302.94" r="0.5"/>
		
			<circle fill="none" stroke="#FFE57B" stroke-width="2" stroke-linecap="round" stroke-linejoin="round" stroke-miterlimit="10" cx="381.75" cy="302.94" r="0.5"/>
		
			<line fill="none" stroke="#FFE57B" stroke-width="2" stroke-linecap="round" stroke-linejoin="round" stroke-miterlimit="10" x1="309.37" y1="307.15" x2="397.35" y2="307.15"/>
		
			<rect x="309.37" y="298.36" fill="none" stroke="#FFE57B" stroke-width="2" stroke-linecap="round" stroke-linejoin="round" stroke-miterlimit="10" width="87.98" height="54.38"/>
		<g>
			
				<line fill="none" stroke="#FFE57B" stroke-width="2" stroke-linecap="round" stroke-linejoin="round" stroke-miterlimit="10" x1="353.36" y1="288.05" x2="353.36" y2="246.86"/>
			
				<line fill="none" stroke="#FFE57B" stroke-width="2" stroke-linecap="round" stroke-linejoin="round" stroke-miterlimit="10" x1="373.95" y1="288.05" x2="373.95" y2="262.59"/>
			
				<line fill="none" stroke="#FFE57B" stroke-width="2" stroke-linecap="round" stroke-linejoin="round" stroke-miterlimit="10" x1="332.76" y1="288.05" x2="332.76" y2="262.59"/>
		</g>
	</g>
	<g>
		<g>
			<g>
				
					<path fill="none" stroke="#FFE57B" stroke-width="2" stroke-linecap="round" stroke-linejoin="round" stroke-miterlimit="10" d="
					M791.88,215.51c-1.89,0-5.51,0.06-5.51-0.16c0-10.28-8.33-18.61-18.61-18.61c-4.95,0-9.45,1.93-12.78,5.09
					c-6.36-19.51-24.7-33.6-46.33-33.6c-26.59,0-48.2,21.3-48.71,47.77c-1.03-0.11-2.07-0.16-3.13-0.16
					c-16.63,0-30.11,13.48-30.11,30.12c0,14.87,10.78,27.67,24.96,30.12l0,0H793.5l0,0c15.87-0.85,28.49-14.35,28.49-30.44
					C821.99,229,808.51,215.51,791.88,215.51z"/>
			</g>
		</g>
		
			<circle fill="none" stroke="#FFE57B" stroke-width="2" stroke-linecap="round" stroke-linejoin="round" stroke-miterlimit="10" cx="763.11" cy="302.94" r="0.5"/>
		
			<circle fill="none" stroke="#FFE57B" stroke-width="2" stroke-linecap="round" stroke-linejoin="round" stroke-miterlimit="10" cx="757.92" cy="302.94" r="0.5"/>
		
			<circle fill="none" stroke="#FFE57B" stroke-width="2" stroke-linecap="round" stroke-linejoin="round" stroke-miterlimit="10" cx="752.73" cy="302.94" r="0.5"/>
		
			<line fill="none" stroke="#FFE57B" stroke-width="2" stroke-linecap="round" stroke-linejoin="round" stroke-miterlimit="10" x1="680.35" y1="307.15" x2="768.33" y2="307.15"/>
		
			<rect x="680.35" y="298.36" fill="none" stroke="#FFE57B" stroke-width="2" stroke-linecap="round" stroke-linejoin="round" stroke-miterlimit="10" width="87.98" height="54.38"/>
		<g>
			
				<line fill="none" stroke="#FFE57B" stroke-width="2" stroke-linecap="round" stroke-linejoin="round" stroke-miterlimit="10" x1="724.34" y1="288.05" x2="724.34" y2="246.86"/>
			
				<line fill="none" stroke="#FFE57B" stroke-width="2" stroke-linecap="round" stroke-linejoin="round" stroke-miterlimit="10" x1="744.93" y1="288.05" x2="744.93" y2="262.59"/>
			
				<line fill="none" stroke="#FFE57B" stroke-width="2" stroke-linecap="round" stroke-linejoin="round" stroke-miterlimit="10" x1="703.74" y1="288.05" x2="703.74" y2="262.59"/>
		</g>
	</g>
</g>
<polyline fill="none" stroke="#FFFFFF" stroke-width="2" stroke-linecap="round" stroke-linejoin="round" stroke-miterlimit="10" points="
	399.43,543.41 352.78,543.41 352.78,509.15 "/>
<g>
	
		<line fill="none" stroke="#FFFFFF" stroke-width="2" stroke-linecap="round" stroke-linejoin="round" stroke-miterlimit="10" x1="377.16" y1="484.52" x2="444" y2="484.52"/>
	
		<line fill="none" stroke="#FFFFFF" stroke-width="2" stroke-linecap="round" stroke-linejoin="round" stroke-miterlimit="10" x1="503.86" y1="484.52" x2="573.75" y2="484.52"/>
</g>
<polyline fill="none" stroke="#FFFFFF" stroke-width="2" stroke-linecap="round" stroke-linejoin="round" stroke-miterlimit="10" points="
	529.04,543.41 482.47,543.41 482.47,499.74 "/>
<polyline fill="none" stroke="#FFFFFF" stroke-width="2" stroke-linecap="round" stroke-linejoin="round" stroke-miterlimit="10" points="
	725.2,509.15 725.2,543.41 678.65,543.41 "/>
<g>
	<g>
		
			<polygon fill="none" stroke="#FFFFFF" stroke-width="2" stroke-linecap="round" stroke-linejoin="round" stroke-miterlimit="10" points="
			673.76,428.8 673.76,414.54 663.53,414.54 663.53,428.8 660.37,428.8 668.64,439.03 676.91,428.8 		"/>
		<g>
			<g>
				
					<circle fill="none" stroke="#FFFFFF" stroke-width="2" stroke-linecap="round" stroke-linejoin="round" stroke-miterlimit="10" cx="719.54" cy="391.99" r="2.07"/>
				
					<circle fill="none" stroke="#FFFFFF" stroke-width="2" stroke-linecap="round" stroke-linejoin="round" stroke-miterlimit="10" cx="712.85" cy="391.99" r="2.07"/>
				
					<circle fill="none" stroke="#FFFFFF" stroke-width="2" stroke-linecap="round" stroke-linejoin="round" stroke-miterlimit="10" cx="706.16" cy="391.99" r="2.07"/>
			</g>
			
				<line fill="none" stroke="#FFFFFF" stroke-width="2" stroke-linecap="round" stroke-linejoin="round" stroke-miterlimit="10" x1="612.55" y1="397.41" x2="724.53" y2="397.41"/>
			
				<line fill="none" stroke="#FFFFFF" stroke-width="2" stroke-linecap="round" stroke-linejoin="round" stroke-miterlimit="10" x1="700.97" y1="456.29" x2="637.43" y2="456.29"/>
			
				<polyline fill="none" stroke="#FFFFFF" stroke-width="2" stroke-linecap="round" stroke-linejoin="round" stroke-miterlimit="10" points="
				612.17,431.36 612.17,385.81 725.2,385.81 725.2,421.91 			"/>
		</g>
	</g>
	
		<polygon fill="none" stroke="#FFFFFF" stroke-width="2" stroke-linecap="round" stroke-linejoin="round" stroke-miterlimit="10" points="
		414.36,515.92 414.36,501.65 404.14,501.65 404.14,515.92 400.98,515.92 409.25,526.14 417.52,515.92 	"/>
	
		<line fill="none" stroke="#FFFFFF" stroke-width="2" stroke-linecap="round" stroke-linejoin="round" stroke-miterlimit="10" x1="376.9" y1="472.93" x2="439.75" y2="472.93"/>
	
		<polyline fill="none" stroke="#FFFFFF" stroke-width="2" stroke-linecap="round" stroke-linejoin="round" stroke-miterlimit="10" points="
		465.8,499.74 465.8,543.41 419.67,543.41 	"/>
	<g>
		
			<polygon fill="none" stroke="#FFFFFF" stroke-width="2" stroke-linecap="round" stroke-linejoin="round" stroke-miterlimit="10" points="
			544.06,428.8 544.06,414.54 533.83,414.54 533.83,428.8 530.68,428.8 538.95,439.03 547.22,428.8 		"/>
		<g>
			<g>
				
					<circle fill="none" stroke="#FFFFFF" stroke-width="2" stroke-linecap="round" stroke-linejoin="round" stroke-miterlimit="10" cx="589.84" cy="391.99" r="2.07"/>
				
					<circle fill="none" stroke="#FFFFFF" stroke-width="2" stroke-linecap="round" stroke-linejoin="round" stroke-miterlimit="10" cx="583.15" cy="391.99" r="2.07"/>
				
					<circle fill="none" stroke="#FFFFFF" stroke-width="2" stroke-linecap="round" stroke-linejoin="round" stroke-miterlimit="10" cx="576.47" cy="391.99" r="2.07"/>
			</g>
			
				<line fill="none" stroke="#FFFFFF" stroke-width="2" stroke-linecap="round" stroke-linejoin="round" stroke-miterlimit="10" x1="482.86" y1="397.41" x2="594.83" y2="397.41"/>
			
				<line fill="none" stroke="#FFFFFF" stroke-width="2" stroke-linecap="round" stroke-linejoin="round" stroke-miterlimit="10" x1="569.4" y1="456.29" x2="508.22" y2="456.29"/>
			
				<polyline fill="none" stroke="#FFFFFF" stroke-width="2" stroke-linecap="round" stroke-linejoin="round" stroke-miterlimit="10" points="
				482.47,431.24 482.47,385.81 595.5,385.81 595.5,431.16 			"/>
		</g>
	</g>
	
		<polygon fill="none" stroke="#FFFFFF" stroke-width="2" stroke-linecap="round" stroke-linejoin="round" stroke-miterlimit="10" points="
		544.06,515.92 544.06,501.65 533.83,501.65 533.83,515.92 530.68,515.92 538.95,526.14 547.22,515.92 	"/>
	
		<polyline fill="none" stroke="#FFFFFF" stroke-width="2" stroke-linecap="round" stroke-linejoin="round" stroke-miterlimit="10" points="
		595.5,501.69 595.5,543.41 548.87,543.41 	"/>
	
		<line fill="none" stroke="#FFFFFF" stroke-width="2" stroke-linecap="round" stroke-linejoin="round" stroke-miterlimit="10" x1="508.65" y1="472.93" x2="568.96" y2="472.93"/>
	
		<polygon fill="none" stroke="#FFFFFF" stroke-width="2" stroke-linecap="round" stroke-linejoin="round" stroke-miterlimit="10" points="
		673.76,515.92 673.76,501.65 663.53,501.65 663.53,515.92 660.37,515.92 668.64,526.14 676.91,515.92 	"/>
	
		<line fill="none" stroke="#FFFFFF" stroke-width="2" stroke-linecap="round" stroke-linejoin="round" stroke-miterlimit="10" x1="633.06" y1="484.52" x2="701" y2="484.52"/>
	
		<polyline fill="none" stroke="#FFFFFF" stroke-width="2" stroke-linecap="round" stroke-linejoin="round" stroke-miterlimit="10" points="
		659.23,543.41 612.17,543.41 612.17,500.37 	"/>
	
		<line fill="none" stroke="#FFFFFF" stroke-width="2" stroke-linecap="round" stroke-linejoin="round" stroke-miterlimit="10" x1="637.86" y1="472.93" x2="700.97" y2="472.93"/>
	<g>
		
			<polygon fill="none" stroke="#FFFFFF" stroke-width="2" stroke-linecap="round" stroke-linejoin="round" stroke-miterlimit="10" points="
			414.36,428.8 414.36,414.54 404.14,414.54 404.14,428.8 400.98,428.8 409.25,439.03 417.52,428.8 		"/>
		<g>
			<g>
				
					<circle fill="none" stroke="#FFFFFF" stroke-width="2" stroke-linecap="round" stroke-linejoin="round" stroke-miterlimit="10" cx="460.14" cy="391.99" r="2.07"/>
				
					<circle fill="none" stroke="#FFFFFF" stroke-width="2" stroke-linecap="round" stroke-linejoin="round" stroke-miterlimit="10" cx="453.46" cy="391.99" r="2.07"/>
				
					<circle fill="none" stroke="#FFFFFF" stroke-width="2" stroke-linecap="round" stroke-linejoin="round" stroke-miterlimit="10" cx="446.77" cy="391.99" r="2.07"/>
			</g>
			
				<line fill="none" stroke="#FFFFFF" stroke-width="2" stroke-linecap="round" stroke-linejoin="round" stroke-miterlimit="10" x1="353.16" y1="397.41" x2="465.14" y2="397.41"/>
			
				<polyline fill="none" stroke="#FFFFFF" stroke-width="2" stroke-linecap="round" stroke-linejoin="round" stroke-miterlimit="10" points="
				352.78,421.91 352.78,385.81 465.8,385.81 465.8,431.27 			"/>
			
				<line fill="none" stroke="#FFFFFF" stroke-width="2" stroke-linecap="round" stroke-linejoin="round" stroke-miterlimit="10" x1="440.19" y1="456.29" x2="376.9" y2="456.29"/>
		</g>
	</g>
</g>
</svg>
