<?xml version="1.0" encoding="utf-8"?>
<!-- Generator: Adobe Illustrator 23.0.0, SVG Export Plug-In . SVG Version: 6.00 Build 0)  -->
<svg version="1.2" baseProfile="tiny" id="Слой_1"
	 xmlns="http://www.w3.org/2000/svg" xmlns:xlink="http://www.w3.org/1999/xlink" x="0px" y="0px" viewBox="0 0 960 610"
	 xml:space="preserve">
<g>
	<g>
		<path fill="none" stroke="#191932" stroke-width="2" stroke-linecap="round" stroke-linejoin="round" stroke-miterlimit="10" d="
			M549.91,263.58c-3.29-8.57-9.82-15.55-18.09-19.45c0.22-0.24,0.42-0.5,0.55-0.82c1.46-3.46,2.21-7.15,2.21-10.94
			c0-14.7-11.35-26.78-25.75-27.99c-3.86-12.2-13.9-21.26-26.52-23.72c-2.86-0.56-5.74-0.72-8.59-0.56
			c-5.14-7.4-13.67-11.97-22.74-11.97c-15.29,0-27.73,12.44-27.73,27.73v16.47v23.36"/>
		<path fill="none" stroke="#191932" stroke-width="2" stroke-linecap="round" stroke-linejoin="round" stroke-miterlimit="10" d="
			M423.25,374.19v32.38c0,19.5,15.87,35.36,35.37,35.36c13.02,0,24.95-7.12,31.14-18.59c0.01-0.01,0.01-0.02,0.02-0.03
			c0.72-1.34,1.32-2.73,1.86-4.13c15.82-0.74,28.63-13.2,29.86-29c8.34-1.46,15.65-6.25,20.34-13.4c5.25-7.98,6.49-17.75,3.4-26.81
			c-0.07-0.2-0.22-0.46-0.36-0.68c1.31-1.55,2.48-3.21,3.49-4.95"/>
		<path fill="none" stroke="#191932" stroke-width="2" stroke-linecap="round" stroke-linejoin="round" stroke-miterlimit="10" d="
			M289.99,344c1.06,1.86,2.29,3.63,3.68,5.29c-0.15,0.21-0.28,0.44-0.37,0.68c-3.08,9.06-1.84,18.83,3.4,26.81
			c4.69,7.14,12,11.93,20.34,13.4c1.18,15.74,14.01,28.26,29.87,29c0.54,1.41,1.14,2.8,1.86,4.13c0,0,0,0,0,0
			c6.19,11.48,18.13,18.62,31.16,18.62c19.5,0,35.37-15.86,35.37-35.36v-33.09"/>
		<path fill="none" stroke="#191932" stroke-width="2" stroke-linecap="round" stroke-linejoin="round" stroke-miterlimit="10" d="
			M415.31,236.58v-17.05v-7.2v-16.47c0-15.29-12.43-27.73-27.72-27.73c-9.07,0-17.6,4.57-22.74,11.97c-2.85-0.16-5.73,0-8.59,0.56
			c-12.63,2.46-22.66,11.52-26.52,23.72c-14.4,1.2-25.75,13.28-25.75,27.99c0,3.8,0.74,7.48,2.21,10.94
			c0.13,0.32,0.33,0.58,0.55,0.82c-8.36,3.95-14.95,11.04-18.2,19.75"/>
	</g>
	<g>
		<g>
			<g>
				
					<path fill="none" stroke="#191932" stroke-width="2" stroke-linecap="round" stroke-linejoin="round" stroke-miterlimit="10" d="
					M390.76,368.73c0,2.66-2.09,4.75-4.75,4.75h-30.42c-2.66,0-4.75-2.09-4.75-4.75V241.34c0-2.66,2.09-4.75,4.75-4.75h30.42
					c2.66,0,4.75,2.09,4.75,4.75V368.73z"/>
			</g>
			
				<ellipse fill="none" stroke="#191932" stroke-width="2" stroke-linecap="round" stroke-linejoin="round" stroke-miterlimit="10" cx="370.51" cy="255.5" rx="6.18" ry="6.18"/>
			
				<line fill="none" stroke="#191932" stroke-width="2" stroke-linecap="round" stroke-linejoin="round" stroke-miterlimit="10" x1="360.63" y1="361.13" x2="380.59" y2="361.13"/>
			
				<line fill="none" stroke="#191932" stroke-width="2" stroke-linecap="round" stroke-linejoin="round" stroke-miterlimit="10" x1="360.63" y1="353.42" x2="380.59" y2="353.42"/>
		</g>
		<g>
			<g>
				
					<path fill="none" stroke="#191932" stroke-width="2" stroke-linecap="round" stroke-linejoin="round" stroke-miterlimit="10" d="
					M438.87,368.73c0,2.66-2.09,4.75-4.75,4.75h-10.86h-19.56c-2.66,0-4.75-2.09-4.75-4.75V241.34c0-2.66,2.09-4.75,4.75-4.75h19.56
					h10.86c2.66,0,4.75,2.09,4.75,4.75V368.73z"/>
			</g>
			
				<ellipse fill="none" stroke="#191932" stroke-width="2" stroke-linecap="round" stroke-linejoin="round" stroke-miterlimit="10" cx="418.62" cy="255.5" rx="6.18" ry="6.18"/>
			
				<line fill="none" stroke="#191932" stroke-width="2" stroke-linecap="round" stroke-linejoin="round" stroke-miterlimit="10" x1="408.83" y1="361.13" x2="428.79" y2="361.13"/>
			
				<line fill="none" stroke="#191932" stroke-width="2" stroke-linecap="round" stroke-linejoin="round" stroke-miterlimit="10" x1="408.83" y1="353.42" x2="428.79" y2="353.42"/>
		</g>
		<g>
			<g>
				
					<path fill="none" stroke="#191932" stroke-width="2" stroke-linecap="round" stroke-linejoin="round" stroke-miterlimit="10" d="
					M487.74,368.73c0,2.66-2.09,4.75-4.75,4.75h-30.42c-2.66,0-4.75-2.09-4.75-4.75V241.34c0-2.66,2.09-4.75,4.75-4.75h30.42
					c2.66,0,4.75,2.09,4.75,4.75V368.73z"/>
			</g>
			
				<ellipse fill="none" stroke="#191932" stroke-width="2" stroke-linecap="round" stroke-linejoin="round" stroke-miterlimit="10" cx="467.49" cy="255.5" rx="6.18" ry="6.18"/>
			
				<line fill="none" stroke="#191932" stroke-width="2" stroke-linecap="round" stroke-linejoin="round" stroke-miterlimit="10" x1="457.6" y1="361.13" x2="477.56" y2="361.13"/>
			
				<line fill="none" stroke="#191932" stroke-width="2" stroke-linecap="round" stroke-linejoin="round" stroke-miterlimit="10" x1="457.6" y1="353.42" x2="477.56" y2="353.42"/>
		</g>
	</g>
	<g>
		<g>
			
				<circle fill="none" stroke="#191932" stroke-width="2" stroke-linecap="round" stroke-linejoin="round" stroke-miterlimit="10" cx="174.89" cy="304.18" r="26.14"/>
		</g>
		<path fill="none" stroke="#191932" stroke-width="2" stroke-linecap="round" stroke-linejoin="round" stroke-miterlimit="10" d="
			M193.79,322.25c-4.76-4.93-11.43-7.99-18.82-7.99c-7.43,0-14.14,3.1-18.9,8.08"/>
		<path fill="none" stroke="#191932" stroke-width="2" stroke-linecap="round" stroke-linejoin="round" stroke-miterlimit="10" d="
			M184.9,294.19c-0.12-5.39-4.52-9.73-9.94-9.73c-5.42,0-9.82,4.34-9.94,9.73h-0.01v0.14c0,0.03,0,0.06,0,0.09h0v6.33h0
			c0,5.49,4.45,9.95,9.95,9.95c5.49,0,9.95-4.45,9.95-9.95v-6.55H184.9z"/>
	</g>
	<g>
		<g>
			
				<circle fill="none" stroke="#191932" stroke-width="2" stroke-linecap="round" stroke-linejoin="round" stroke-miterlimit="10" cx="662.61" cy="304.18" r="26.14"/>
		</g>
		<path fill="none" stroke="#191932" stroke-width="2" stroke-linecap="round" stroke-linejoin="round" stroke-miterlimit="10" d="
			M681.5,322.25c-4.76-4.93-11.43-7.99-18.82-7.99c-7.43,0-14.14,3.1-18.9,8.08"/>
		<path fill="none" stroke="#191932" stroke-width="2" stroke-linecap="round" stroke-linejoin="round" stroke-miterlimit="10" d="
			M672.62,294.19c-0.12-5.39-4.52-9.73-9.94-9.73c-5.42,0-9.82,4.34-9.94,9.73h-0.01v0.14c0,0.03,0,0.06,0,0.09h0v6.33h0
			c0,5.49,4.45,9.95,9.95,9.95c5.49,0,9.95-4.45,9.95-9.95v-6.55H672.62z"/>
	</g>
	<g>
		<g>
			
				<circle fill="none" stroke="#191932" stroke-width="2" stroke-linecap="round" stroke-linejoin="round" stroke-miterlimit="10" cx="275.67" cy="304.18" r="42.31"/>
		</g>
		<path fill="none" stroke="#191932" stroke-width="2" stroke-linecap="round" stroke-linejoin="round" stroke-miterlimit="10" d="
			M306.24,333.42c-7.69-7.98-18.49-12.94-30.45-12.94c-12.02,0-22.88,5.02-30.58,13.07"/>
		<path fill="none" stroke="#191932" stroke-width="2" stroke-linecap="round" stroke-linejoin="round" stroke-miterlimit="10" d="
			M291.87,288.01c-0.19-8.72-7.31-15.74-16.08-15.74c-8.77,0-15.88,7.02-16.08,15.74h-0.01v0.22c0,0.05-0.01,0.09-0.01,0.14h0.01
			v10.25h-0.01c0,8.89,7.21,16.09,16.1,16.09c8.89,0,16.09-7.21,16.09-16.09v-10.61H291.87z"/>
	</g>
	<g>
		<g>
			<path fill="none" stroke="#191932" stroke-width="2" stroke-linecap="round" stroke-linejoin="round" stroke-miterlimit="10" d="
				M519.52,304.18c0,18.67,12.09,34.51,28.87,40.13c4.22,1.41,8.74,2.18,13.44,2.18c23.37,0,42.31-18.94,42.31-42.31
				s-18.94-42.31-42.31-42.31c-4.14,0-8.14,0.59-11.92,1.7C532.35,268.73,519.52,284.96,519.52,304.18z"/>
		</g>
		<path fill="none" stroke="#191932" stroke-width="2" stroke-linecap="round" stroke-linejoin="round" stroke-miterlimit="10" d="
			M592.4,333.42c-7.69-7.98-18.49-12.94-30.45-12.94c-12.02,0-22.88,5.02-30.58,13.07"/>
		<path fill="none" stroke="#191932" stroke-width="2" stroke-linecap="round" stroke-linejoin="round" stroke-miterlimit="10" d="
			M578.03,288.01c-0.19-8.72-7.31-15.74-16.08-15.74c-8.77,0-15.88,7.02-16.08,15.74h-0.01v0.22c0,0.05-0.01,0.09-0.01,0.14h0.01
			v10.25h-0.01c0,8.89,7.21,16.09,16.1,16.09c8.89,0,16.09-7.21,16.09-16.09v-10.61H578.03z"/>
	</g>
</g>
</svg>
