<?xml version="1.0" encoding="utf-8"?>
<!-- Generator: Adobe Illustrator 23.0.0, SVG Export Plug-In . SVG Version: 6.00 Build 0)  -->
<svg version="1.2" baseProfile="tiny" id="Слой_1"
	 xmlns="http://www.w3.org/2000/svg" xmlns:xlink="http://www.w3.org/1999/xlink" x="0px" y="0px" viewBox="0 0 962 610"
	 xml:space="preserve">
<g>
	
		<polyline fill="none" stroke="#191932" stroke-width="2" stroke-linecap="round" stroke-linejoin="round" stroke-miterlimit="10" points="
		709.17,370.79 709.17,223.8 691.21,223.8 691.21,207.29 561.88,207.29 561.88,223.8 542.69,223.8 530.89,145.77 488.68,145.77 
		476.44,223.8 456.48,223.8 444.67,145.77 402.46,145.77 390.22,223.8 370.58,223.8 370.58,370.79 	"/>
	
		<polyline fill="none" stroke="#191932" stroke-width="2" stroke-linecap="round" stroke-linejoin="round" stroke-miterlimit="10" points="
		370.58,414.61 370.58,427.09 709.17,427.09 709.17,414.61 	"/>
	
		<line fill="none" stroke="#000000" stroke-width="2" stroke-linecap="round" stroke-linejoin="round" stroke-miterlimit="10" x1="427.95" y1="348.35" x2="427.95" y2="359.23"/>
	
		<line fill="none" stroke="#000000" stroke-width="2" stroke-linecap="round" stroke-linejoin="round" stroke-miterlimit="10" x1="455.8" y1="318.02" x2="455.8" y2="359.23"/>
	
		<line fill="none" stroke="#000000" stroke-width="2" stroke-linecap="round" stroke-linejoin="round" stroke-miterlimit="10" x1="484.02" y1="288.29" x2="484.02" y2="359.84"/>
	
		<line fill="none" stroke="#000000" stroke-width="2" stroke-linecap="round" stroke-linejoin="round" stroke-miterlimit="10" x1="540.44" y1="348.96" x2="540.44" y2="359.84"/>
	
		<line fill="none" stroke="#000000" stroke-width="2" stroke-linecap="round" stroke-linejoin="round" stroke-miterlimit="10" x1="568.89" y1="318.02" x2="568.89" y2="359.23"/>
	
		<line fill="none" stroke="#000000" stroke-width="2" stroke-linecap="round" stroke-linejoin="round" stroke-miterlimit="10" x1="597.23" y1="348.35" x2="597.23" y2="359.23"/>
	
		<line fill="none" stroke="#000000" stroke-width="2" stroke-linecap="round" stroke-linejoin="round" stroke-miterlimit="10" x1="625.07" y1="318.02" x2="625.07" y2="359.23"/>
	
		<line fill="none" stroke="#000000" stroke-width="2" stroke-linecap="round" stroke-linejoin="round" stroke-miterlimit="10" x1="512.23" y1="318.62" x2="512.23" y2="359.84"/>
	
		<line fill="none" stroke="#000000" stroke-width="2" stroke-linecap="round" stroke-linejoin="round" stroke-miterlimit="10" x1="653.29" y1="287.68" x2="653.29" y2="359.23"/>
	
		<polyline fill="none" stroke="#000000" stroke-width="2" stroke-linecap="round" stroke-linejoin="round" stroke-miterlimit="10" points="
		645.8,266.88 653.27,266.21 652.47,272.54 	"/>
	
		<line fill="none" stroke="#191932" stroke-width="2" stroke-linecap="round" stroke-linejoin="round" stroke-miterlimit="10" x1="300.76" y1="414.61" x2="780.76" y2="414.61"/>
	
		<rect x="579.59" y="380.75" fill="none" stroke="#191932" stroke-width="2" stroke-linecap="round" stroke-linejoin="round" stroke-miterlimit="10" width="33.86" height="33.86"/>
	
		<rect x="523.33" y="380.75" fill="none" stroke="#191932" stroke-width="2" stroke-linecap="round" stroke-linejoin="round" stroke-miterlimit="10" width="33.86" height="33.86"/>
	
		<rect x="692.12" y="380.75" fill="none" stroke="#191932" stroke-width="2" stroke-linecap="round" stroke-linejoin="round" stroke-miterlimit="10" width="33.86" height="33.86"/>
	
		<rect x="635.86" y="380.75" fill="none" stroke="#191932" stroke-width="2" stroke-linecap="round" stroke-linejoin="round" stroke-miterlimit="10" width="33.86" height="33.86"/>
	
		<rect x="354.53" y="380.75" fill="none" stroke="#191932" stroke-width="2" stroke-linecap="round" stroke-linejoin="round" stroke-miterlimit="10" width="33.86" height="33.86"/>
	
		<rect x="467.06" y="380.75" fill="none" stroke="#191932" stroke-width="2" stroke-linecap="round" stroke-linejoin="round" stroke-miterlimit="10" width="33.86" height="33.86"/>
	
		<rect x="410.8" y="380.75" fill="none" stroke="#191932" stroke-width="2" stroke-linecap="round" stroke-linejoin="round" stroke-miterlimit="10" width="33.86" height="33.86"/>
	
		<polyline fill="none" stroke="#000000" stroke-width="2" stroke-linecap="round" stroke-linejoin="round" stroke-miterlimit="10" points="
		427.23,308.06 483.99,267.23 540.76,308.06 569.64,287.14 596.52,308.06 653.29,266.23 	"/>
</g>
<rect y="1" fill="none" width="962" height="608"/>
</svg>
