<?xml version="1.0" encoding="utf-8"?>
<!-- Generator: Adobe Illustrator 23.0.0, SVG Export Plug-In . SVG Version: 6.00 Build 0)  -->
<svg version="1.2" baseProfile="tiny" id="Слой_1"
	 xmlns="http://www.w3.org/2000/svg" xmlns:xlink="http://www.w3.org/1999/xlink" x="0px" y="0px" viewBox="0 0 960 610"
	 xml:space="preserve">
<g>
	
		<polygon fill="none" stroke="#191932" stroke-width="2" stroke-linecap="round" stroke-linejoin="round" stroke-miterlimit="10" points="
		691.26,241.64 691.26,225.06 561.39,225.06 561.39,241.64 542.13,241.64 530.28,163.29 487.89,163.29 475.6,241.64 455.55,241.64 
		443.7,163.29 401.31,163.29 389.02,241.64 369.3,241.64 369.3,445.77 709.3,445.77 709.3,241.64 	"/>
	
		<polyline fill="none" stroke="#191932" stroke-width="2" stroke-linecap="round" stroke-linejoin="round" stroke-miterlimit="10" points="
		326.5,344.14 403.5,344.14 403.5,276.14 539.5,276.14 539.5,310.14 437.5,310.14 437.5,344.14 505.5,344.14 505.5,378.14 
		607.5,378.14 607.5,344.14 573.5,344.14 573.5,276.14 641.5,276.14 675.5,276.14 675.5,310.14 675.5,344.14 755.5,344.14 	"/>
	
		<line fill="none" stroke="#191932" stroke-width="2" stroke-linecap="round" stroke-linejoin="round" stroke-miterlimit="10" x1="326.5" y1="412.89" x2="755.5" y2="412.89"/>
	
		<circle fill="#FFFFFF" stroke="#191932" stroke-width="2" stroke-linecap="round" stroke-linejoin="round" stroke-miterlimit="10" cx="404" cy="343.64" r="6.5"/>
	
		<circle fill="#FFFFFF" stroke="#191932" stroke-width="2" stroke-linecap="round" stroke-linejoin="round" stroke-miterlimit="10" cx="404" cy="275.64" r="6.5"/>
	
		<circle fill="#FFFFFF" stroke="#191932" stroke-width="2" stroke-linecap="round" stroke-linejoin="round" stroke-miterlimit="10" cx="539" cy="276.64" r="6.5"/>
	
		<circle fill="#FFFFFF" stroke="#191932" stroke-width="2" stroke-linecap="round" stroke-linejoin="round" stroke-miterlimit="10" cx="539" cy="310.64" r="6.5"/>
	
		<circle fill="#FFFFFF" stroke="#191932" stroke-width="2" stroke-linecap="round" stroke-linejoin="round" stroke-miterlimit="10" cx="437" cy="310.64" r="6.5"/>
	
		<circle fill="#FFFFFF" stroke="#191932" stroke-width="2" stroke-linecap="round" stroke-linejoin="round" stroke-miterlimit="10" cx="438" cy="343.64" r="6.5"/>
	
		<circle fill="#FFFFFF" stroke="#191932" stroke-width="2" stroke-linecap="round" stroke-linejoin="round" stroke-miterlimit="10" cx="505" cy="344.64" r="6.5"/>
	
		<circle fill="#FFFFFF" stroke="#191932" stroke-width="2" stroke-linecap="round" stroke-linejoin="round" stroke-miterlimit="10" cx="506" cy="378.64" r="6.5"/>
	
		<circle fill="#FFFFFF" stroke="#191932" stroke-width="2" stroke-linecap="round" stroke-linejoin="round" stroke-miterlimit="10" cx="607" cy="378.64" r="6.5"/>
	
		<circle fill="#FFFFFF" stroke="#191932" stroke-width="2" stroke-linecap="round" stroke-linejoin="round" stroke-miterlimit="10" cx="607" cy="343.64" r="6.5"/>
	
		<circle fill="#FFFFFF" stroke="#191932" stroke-width="2" stroke-linecap="round" stroke-linejoin="round" stroke-miterlimit="10" cx="573" cy="344.64" r="6.5"/>
	
		<circle fill="#FFFFFF" stroke="#191932" stroke-width="2" stroke-linecap="round" stroke-linejoin="round" stroke-miterlimit="10" cx="573" cy="276.64" r="6.5"/>
	
		<circle fill="#FFFFFF" stroke="#191932" stroke-width="2" stroke-linecap="round" stroke-linejoin="round" stroke-miterlimit="10" cx="675" cy="275.64" r="6.5"/>
	
		<circle fill="#FFFFFF" stroke="#191932" stroke-width="2" stroke-linecap="round" stroke-linejoin="round" stroke-miterlimit="10" cx="676" cy="343.64" r="6.5"/>
	
		<rect x="305.5" y="333.14" fill="none" stroke="#191932" stroke-width="2" stroke-linecap="round" stroke-linejoin="round" stroke-miterlimit="10" width="21" height="21"/>
	
		<rect x="305.5" y="402.14" fill="none" stroke="#191932" stroke-width="2" stroke-linecap="round" stroke-linejoin="round" stroke-miterlimit="10" width="21" height="21"/>
	
		<rect x="755.5" y="401.14" fill="none" stroke="#191932" stroke-width="2" stroke-linecap="round" stroke-linejoin="round" stroke-miterlimit="10" width="21" height="21"/>
	
		<rect x="755.5" y="334.14" fill="none" stroke="#191932" stroke-width="2" stroke-linecap="round" stroke-linejoin="round" stroke-miterlimit="10" width="21" height="21"/>
	
		<circle fill="#FFFFFF" stroke="#191932" stroke-width="2" stroke-linecap="round" stroke-linejoin="round" stroke-miterlimit="10" cx="403.5" cy="412.89" r="6.5"/>
	
		<circle fill="#FFFFFF" stroke="#191932" stroke-width="2" stroke-linecap="round" stroke-linejoin="round" stroke-miterlimit="10" cx="437" cy="412.89" r="6.5"/>
	
		<circle fill="#FFFFFF" stroke="#191932" stroke-width="2" stroke-linecap="round" stroke-linejoin="round" stroke-miterlimit="10" cx="505" cy="412.89" r="6.5"/>
	
		<circle fill="#FFFFFF" stroke="#191932" stroke-width="2" stroke-linecap="round" stroke-linejoin="round" stroke-miterlimit="10" cx="539" cy="412.89" r="6.5"/>
	
		<circle fill="#FFFFFF" stroke="#191932" stroke-width="2" stroke-linecap="round" stroke-linejoin="round" stroke-miterlimit="10" cx="573" cy="412.89" r="6.5"/>
	
		<circle fill="#FFFFFF" stroke="#191932" stroke-width="2" stroke-linecap="round" stroke-linejoin="round" stroke-miterlimit="10" cx="607" cy="412.89" r="6.5"/>
	
		<circle fill="#FFFFFF" stroke="#191932" stroke-width="2" stroke-linecap="round" stroke-linejoin="round" stroke-miterlimit="10" cx="675" cy="412.89" r="6.5"/>
</g>
</svg>
