<?xml version="1.0" encoding="utf-8"?>
<!-- Generator: Adobe Illustrator 23.0.0, SVG Export Plug-In . SVG Version: 6.00 Build 0)  -->
<svg version="1.2" baseProfile="tiny" id="Слой_1"
	 xmlns="http://www.w3.org/2000/svg" xmlns:xlink="http://www.w3.org/1999/xlink" x="0px" y="0px" viewBox="0 0 960 610"
	 xml:space="preserve">
<g>
	
		<polygon fill="none" stroke="#191932" stroke-width="2" stroke-linecap="round" stroke-linejoin="round" stroke-miterlimit="10" points="
		617.52,283.58 617.52,275.31 552.7,275.31 552.7,283.58 543.08,283.58 537.17,244.47 516.01,244.47 509.88,283.58 499.87,283.58 
		493.95,244.47 472.79,244.47 466.66,283.58 456.81,283.58 456.81,388.47 626.53,388.47 626.53,283.58 	"/>
	
		<polygon fill="none" stroke="#191932" stroke-width="2" stroke-linecap="round" stroke-linejoin="round" stroke-miterlimit="10" points="
		821.54,282.57 821.54,274.3 756.71,274.3 756.71,282.57 747.1,282.57 741.18,243.46 720.02,243.46 713.89,282.57 703.88,282.57 
		697.97,243.46 676.81,243.46 670.67,282.57 660.83,282.57 660.83,387.46 830.54,387.46 830.54,282.57 	"/>
	
		<polygon fill="none" stroke="#191932" stroke-width="2" stroke-linecap="round" stroke-linejoin="round" stroke-miterlimit="10" points="
		413.54,283.57 413.54,275.3 348.71,275.3 348.71,283.57 339.1,283.57 333.18,244.46 312.02,244.46 305.89,283.57 295.88,283.57 
		289.97,244.46 268.81,244.46 262.67,283.57 252.83,283.57 252.83,388.46 422.54,388.46 422.54,283.57 	"/>
	
		<polyline fill="none" stroke="#191932" stroke-width="2" stroke-linecap="round" stroke-linejoin="round" stroke-miterlimit="10" points="
		730.17,387.47 730.17,420.97 353.17,420.97 353.17,388.47 	"/>
	
		<polyline fill="none" stroke="#191932" stroke-width="2" stroke-linecap="round" stroke-linejoin="round" stroke-miterlimit="10" points="
		353.17,274.3 353.17,187.97 730.17,187.97 730.17,242.46 	"/>
	
		<line fill="none" stroke="#191932" stroke-width="2" stroke-linecap="round" stroke-linejoin="round" stroke-miterlimit="10" x1="353" y1="210" x2="730" y2="210"/>
	
		<circle fill="none" stroke="#191932" stroke-width="2" stroke-linecap="round" stroke-linejoin="round" stroke-miterlimit="10" cx="686" cy="199" r="4"/>
	
		<circle fill="none" stroke="#191932" stroke-width="2" stroke-linecap="round" stroke-linejoin="round" stroke-miterlimit="10" cx="702" cy="199" r="4"/>
	
		<circle fill="none" stroke="#191932" stroke-width="2" stroke-linecap="round" stroke-linejoin="round" stroke-miterlimit="10" cx="718" cy="199" r="4"/>
</g>
</svg>
