<?xml version="1.0" encoding="utf-8"?>
<!-- Generator: Adobe Illustrator 23.0.0, SVG Export Plug-In . SVG Version: 6.00 Build 0)  -->
<svg version="1.2" baseProfile="tiny" id="Слой_1"
	 xmlns="http://www.w3.org/2000/svg" xmlns:xlink="http://www.w3.org/1999/xlink" x="0px" y="0px" viewBox="0 0 29 29"
	 xml:space="preserve">
<g>
	<circle fill="none" stroke="#00002B" stroke-width="2" stroke-miterlimit="10" cx="14.5" cy="14.5" r="13"/>
	<path fill="#00002B" d="M15.22,8.04C14.09,7.92,13,8.09,12.04,8.48c-0.22,0.09-0.32,0.36-0.2,0.57c0.22,0.39,0.31,0.85,0.23,1.34
		c-0.14,0.82-0.81,1.49-1.63,1.63c-0.5,0.08-0.97-0.01-1.36-0.24c-0.21-0.12-0.47-0.02-0.57,0.2c-0.41,0.97-0.59,2.06-0.47,3.21
		c0.31,2.97,2.67,5.4,5.63,5.76c4.24,0.53,7.8-3.04,7.28-7.28C20.58,10.72,18.17,8.36,15.22,8.04z"/>
</g>
</svg>
