<?xml version="1.0" encoding="utf-8"?>
<!-- Generator: Adobe Illustrator 23.1.1, SVG Export Plug-In . SVG Version: 6.00 Build 0)  -->
<svg version="1.1" id="Laag_1" xmlns="http://www.w3.org/2000/svg" xmlns:xlink="http://www.w3.org/1999/xlink" x="0px" y="0px"
	 viewBox="0 0 286.6 91.7" style="enable-background:new 0 0 286.6 91.7;" xml:space="preserve">
<style type="text/css">
	.st0{fill:#433302;}
	.st1{fill:#FDC600;}
	.st2{fill:#634E42;}
</style>
<g>
	<g>
		<path class="st0" d="M124.5,18.4l0.8,5c3.3-5.3,7.8-6.1,12.2-6.1c4.5,0,8.8,1.8,11.1,4.1l-4.8,9.3c-2.2-1.8-4.2-2.8-7.7-2.8
			c-5.6,0-10.8,3-10.8,10.9v22.8h-10.7V18.4L124.5,18.4L124.5,18.4z"/>
		<path class="st0" d="M162.5,6.2c0,8.3-12.6,8.3-12.6,0C149.9-2.1,162.5-2.1,162.5,6.2z M150.8,24.9v36.6h10.7V18.2L150.8,24.9z"/>
		<path class="st0" d="M197.6,29.9C194.5,27,191,26,186.9,26c-5.1,0-7.9,1.6-7.9,4.3c0,2.8,2.5,4.4,8,4.7
			c8.1,0.5,18.5,2.4,18.5,13.8c0,7.6-6.2,14.2-18.5,14.2c-6.8,0-13.6-1.1-20-7.7l5.2-7.6c3.1,3.4,10.1,6,14.9,6c4,0.1,7.8-2,7.8-5.2
			c0-3-2.5-4.2-8.6-4.5c-8.1-0.6-17.9-3.6-17.9-13.4c0-10,10.3-13.5,18.2-13.5c6.7,0,11.8,1.3,16.8,5.7L197.6,29.9z"/>
		<path class="st0" d="M225.6,6.2v12.2h11.9v9.2h-12v18.6c0,4.1,2.3,6.1,5.6,6.1c1.7,0,3.6-0.5,5.2-1.3l3,9.1
			c-3.1,1.2-5.6,1.8-8.8,1.8c-9.4,0.4-15.5-5-15.5-15.8V27.7h-8v-9.2h8v-5.8L225.6,6.2z"/>
		<path class="st1" d="M286.6,40c0,12.4-8.5,22.5-22.5,22.5c-14,0-22.4-10.1-22.4-22.5c0-12.3,8.6-22.5,22.3-22.5
			C277.8,17.5,286.6,27.7,286.6,40z M252.4,40c0,6.6,3.9,12.7,11.7,12.7c7.8,0,11.7-6.1,11.7-12.7c0-6.5-4.5-12.8-11.7-12.8
			C256.4,27.2,252.4,33.5,252.4,40z"/>
	</g>
	<polygon class="st2" points="31,43 30.9,43.1 30.9,43 30.9,43 	"/>
	<g>
		<polygon class="st2" points="147.1,29.2 147.1,29.2 147.1,29.2 147.1,29.2 		"/>
	</g>
	<path class="st0" d="M109.5,40.7c0-0.6,0.1-1.3,0.1-1.9c0-0.1,0-0.2,0-0.3c0-0.6,0-1.1-0.1-1.6c0-0.3-0.1-0.6-0.1-0.9
		c0-0.3-0.1-0.5-0.1-0.8c-0.5-3.5-1.9-6.8-3.9-9.5c-1.9-2.7-4.5-4.8-7.6-6.3c-0.7-0.3-1.4-0.6-2.2-0.9c-2.5-1.1-5.2-1.4-7.9-1.4
		c0,0-0.1,0-0.1,0s-0.1,0-0.1,0c-7.1,0-12.8,2.8-16.6,7.2c-0.1,0.1-0.1,0.2-0.2,0.2c-0.3,0.4-0.6,0.7-0.8,1.1
		c-0.2,0.2-0.4,0.5-0.5,0.8c-0.1,0.2-0.3,0.5-0.4,0.7c-0.2,0.4-0.5,0.8-0.7,1.2c-0.1,0.1-0.1,0.3-0.2,0.4c-0.2,0.5-0.5,1-0.7,1.5
		c0,0.1-0.1,0.2-0.1,0.4c-0.2,0.5-0.4,1.1-0.5,1.6c0,0.2-0.1,0.4-0.1,0.6c-0.1,0.5-0.2,1-0.3,1.5c-0.1,0.5-0.1,0.9-0.2,1.4
		c0,0.3-0.1,0.5-0.1,0.8c-0.1,0.8-0.1,1.5-0.1,2.4c0,0,0,0,0,0c0,0.1,0,0.1,0,0.2c0,0.5,0,1,0.1,1.4c0.6,11.7,7.8,19,19.3,20
		c0.6,0.1,1.3,0.1,1.9,0.1c0.2,0,0.4,0,0.6,0c0,0,0,0,0,0c5.3,0,10.9,2.7,10.9,8.7s-4.8,9.3-10.9,9.3c-6,0-11.1-3.6-11.3-9l-9.6,5.9
		c2.7,8.1,10.8,13.1,20.9,13.1c12.5,0,21.6-7.4,21.6-19.2c0-5.1-1.5-9.9-7.4-13.4c-0.5-0.3-1-0.6-1.5-0.8c5.3-2.4,7.8-7.3,8.7-11.8
		c0.1-0.4,0.1-0.7,0.2-1.1c0-0.1,0-0.1,0-0.2C109.4,41.5,109.4,41.1,109.5,40.7z M87.8,50.9c-6.2,0-11.3-4.5-11.3-12
		c0-7.5,5.1-12.2,11.3-12.2c6.1,0,11.2,4.7,11.2,12.2S93.9,50.9,87.8,50.9z"/>
</g>
<g>
	<path d="M125,79.3l2.3,6.9l2.2-6.9h1.1l2.2,6.9l2.3-6.9h1.5l-2.9,8.4h-1.6l-1.1-3.1l-0.9-3.1l-0.9,3.1l-1.1,3.1h-1.6l-3-8.4H125z"
		/>
	<path d="M145.7,86.4c-0.9,1-2.3,1.5-3.6,1.5c-2.6,0-4.4-1.7-4.4-4.4c0-2.5,1.8-4.4,4.4-4.4c2.6,0,4.5,1.6,4.2,4.9H139
		c0.1,1.5,1.4,2.5,3,2.5c1,0,2.1-0.4,2.7-1L145.7,86.4L145.7,86.4L145.7,86.4z M144.9,82.9c-0.1-1.6-1.2-2.5-2.8-2.5
		c-1.5,0-2.7,0.9-3,2.5L144.9,82.9L144.9,82.9z"/>
	<path d="M154,87.7h-1.4V75.8h1.4V87.7z"/>
	<path d="M160.4,79.2c2.6,0,4.4,1.8,4.4,4.4c0,2.5-1.8,4.3-4.4,4.3c-2.5,0-4.4-1.8-4.4-4.3C156.1,81,157.9,79.2,160.4,79.2z
		 M160.5,80.4c-1.7,0-3,1.3-3,3.1c0,1.8,1.2,3,3,3c1.7,0,3-1.3,3-3C163.4,81.7,162.1,80.4,160.5,80.4z"/>
	<path d="M167.1,79.3l1.4,3.3l1.4,3.6l1.4-3.6l1.4-3.3h1.5l-3.5,8.4h-1.5l-3.5-8.4L167.1,79.3L167.1,79.3z"/>
	<path d="M183.1,86.4c-0.9,1-2.3,1.5-3.6,1.5c-2.6,0-4.4-1.7-4.4-4.4c0-2.5,1.8-4.4,4.4-4.4c2.6,0,4.5,1.6,4.2,4.9h-7.1
		c0.1,1.5,1.4,2.5,3,2.5c1,0,2.1-0.4,2.7-1L183.1,86.4L183.1,86.4L183.1,86.4z M182.3,82.9c-0.1-1.6-1.2-2.5-2.8-2.5
		c-1.5,0-2.7,0.9-3,2.5L182.3,82.9L182.3,82.9z"/>
	<path d="M189.9,79.4h1.3l0.1,1.6c0.7-1.1,1.9-1.8,3.2-1.8c2.4,0,4.2,1.8,4.2,4.3c0,2.6-1.8,4.4-4.3,4.4c-1.2,0-2.5-0.5-3.2-1.7v5.5
		h-1.4L189.9,79.4L189.9,79.4z M197.3,83.6c0-1.9-1.2-3-3-3c-1.8,0-2.9,1.3-2.9,3s1.2,3,2.9,3C196,86.6,197.3,85.5,197.3,83.6z"/>
	<path d="M204.5,79.2c2.6,0,4.4,1.8,4.4,4.4c0,2.5-1.8,4.3-4.4,4.3c-2.5,0-4.4-1.8-4.4-4.3C200.2,81,202.1,79.2,204.5,79.2z
		 M204.6,80.4c-1.7,0-3,1.3-3,3.1c0,1.8,1.2,3,3,3c1.7,0,3-1.3,3-3C207.5,81.7,206.2,80.4,204.6,80.4z"/>
	<path d="M213.1,79.4h2.6v1.2h-2.6V85c0,1,0.3,1.6,1.3,1.6c0.4,0,0.8-0.1,1.2-0.3l0.4,1.2c-0.6,0.2-1.1,0.4-1.6,0.4
		c-1.8,0-2.6-1-2.6-2.9v-4.4H210v-1.2h1.7v-2.3l1.4-0.1L213.1,79.4L213.1,79.4z"/>
	<path d="M224.4,87.8l0-1.5c-0.7,1.2-1.9,1.7-3.1,1.7c-2.4,0-4.3-1.7-4.3-4.4c0-2.7,1.9-4.4,4.3-4.3c1.3,0,2.5,0.6,3.1,1.7l0-1.5
		h1.4v8.4L224.4,87.8L224.4,87.8z M221.3,80.5c-1.7,0-3,1.2-3,3.1s1.3,3.1,3,3.1C225.4,86.7,225.4,80.5,221.3,80.5L221.3,80.5z"/>
	<path d="M230.7,79.4h2.6v1.2h-2.6V85c0,1,0.3,1.6,1.3,1.6c0.4,0,0.8-0.1,1.2-0.3l0.4,1.2c-0.6,0.2-1.1,0.4-1.6,0.4
		c-1.8,0-2.6-1-2.6-2.9v-4.4h-1.7v-1.2h1.7v-2.3l1.4-0.1L230.7,79.4L230.7,79.4z"/>
	<path d="M238.9,79.2c2.6,0,4.4,1.8,4.4,4.4c0,2.5-1.8,4.3-4.4,4.3c-2.5,0-4.4-1.8-4.4-4.3C234.5,81,236.4,79.2,238.9,79.2z
		 M238.9,80.4c-1.7,0-3,1.3-3,3.1c0,1.8,1.2,3,3,3c1.7,0,3-1.3,3-3C241.9,81.7,240.6,80.4,238.9,80.4z"/>
	<path d="M252.8,86.4c-0.8,1-2.3,1.5-3.6,1.5c-2.6,0-4.4-1.7-4.4-4.4c0-2.5,1.8-4.4,4.4-4.4c2.6,0,4.5,1.6,4.2,4.9h-7.1
		c0.1,1.5,1.4,2.5,3,2.5c1,0,2.1-0.4,2.7-1L252.8,86.4L252.8,86.4L252.8,86.4z M251.9,82.9c-0.1-1.6-1.2-2.5-2.8-2.5
		c-1.5,0-2.7,0.9-3,2.5L251.9,82.9L251.9,82.9z"/>
	<path d="M260.6,81.2c-0.7-0.7-1.5-0.8-2.4-0.8c-1.2,0-2.1,0.4-2.1,1.2c0,0.9,1,1.1,2.1,1.2c1.5,0.2,3.6,0.5,3.5,2.6
		c0,1.7-1.6,2.5-3.5,2.5c-1.4,0-2.8-0.4-3.8-1.6l0.8-1c0.8,0.9,2,1.3,3,1.3c0.9,0,2.1-0.3,2.1-1.3c0-0.9-1-1.2-2.3-1.3
		c-1.6-0.2-3.3-0.6-3.3-2.4c0-1.8,1.8-2.5,3.4-2.5c1.3,0,2.3,0.3,3.2,1.1L260.6,81.2L260.6,81.2z"/>
</g>
<path class="st0" d="M39.9,0.5H27.4L0,61.5h12.5L17.7,50h10L45,39.3l5.8,13.4l4,8.9h12.5L39.9,0.5z M22.3,39.3l11.3-26l11.3,26H22.3
	z"/>
</svg>
