<?xml version="1.0" encoding="utf-8"?>
<!-- Generator: Adobe Illustrator 23.0.1, SVG Export Plug-In . SVG Version: 6.00 Build 0)  -->
<svg version="1.1" id="Laag_1" xmlns="http://www.w3.org/2000/svg" xmlns:xlink="http://www.w3.org/1999/xlink" x="0px" y="0px"
	 viewBox="0 0 582 245" style="enable-background:new 0 0 582 245;" xml:space="preserve">
<style type="text/css">
	.st0{fill:#FAAB54;}
	.st1{fill:#008457;}
	.st2{fill:#FFFFFF;}
</style>
<path class="st0" d="M581.06,85.5c-34.57,40.07-200.84,218.07-434.16,139.61c23.79,5.13,54.9,11.28,96.28,8.64
	c52.74-3.36,105.33-18.54,156.33-45.08c87.58-45.55,140.94-112.29,147.05-119.73L581.06,85.5"/>
<path class="st1" d="M414.01,12.51C202.88-41.94,54.48,97.84,14.71,141c-5.23,5.67-8.57,9.69-9.94,11.34
	c-2.08,2.38-4.06,4.72-4.45,5.48c0,0,44.13,19.23,50.92,22.3C321.68,314.54,522.5,76.28,533.35,63.04c0.31-0.32,0.57-0.6,0.85-0.92
	C483.5,34.61,440.03,19.83,414.01,12.51"/>
<path class="st2" d="M377.02,98.14c5.11-4.08,10.99-6.13,17.67-6.13c14.52,0,19.55,7.74,15.14,23.2
	c-2.14,7.56-5.78,13.36-10.87,17.44c-5.06,4.06-10.95,6.11-17.65,6.11c-14.55,0-19.6-7.84-15.1-23.55
	C368.3,107.93,371.91,102.22,377.02,98.14z M347.63,142.25c5.84,6.79,15.78,10.16,29.79,10.16c13.74,0,25.47-3.32,35.31-10.05
	c9.8-6.71,16.36-15.76,19.61-27.13c3.26-11.4,1.97-20.39-3.92-26.96c-5.86-6.59-15.83-9.87-29.82-9.87
	c-13.34,0-25.02,3.41-35.11,10.27c-10.1,6.85-16.69,15.68-19.8,26.56C340.48,126.46,341.77,135.48,347.63,142.25"/>
<path class="st2" d="M236.95,78.39c-10.03,0-18.78,2.61-26.33,7.82l1.92-6.72h-21.66l-20.48,71.58h3.83
	c15.73-0.58,19.71-7.3,21.9-14.2l7.58-26.49c1.46-5.07,4.62-9.36,9.5-12.87c4.89-3.5,9.85-5.26,14.85-5.26
	c4.61,0,8.78,0.66,13.93,3.39c0,0,2.1-2.95,5.93-7.09c3.8-4.15,7.07-6.79,7.07-6.79C249.69,79.25,244.32,78.39,236.95,78.39"/>
<path class="st2" d="M154.61,151.11l11.13-38.91c3.43-12.85,2.67-21.67-2.25-26.39c-5.14-4.93-14.75-7.42-28.84-7.42
	c-10.25,0-19.48,1.41-27.7,4.24l0.94,12.97c6.09-2.23,13.22-3.35,21.31-3.35c13.75,0,19.42,4.16,17.03,12.53
	c-3.26-0.61-6.17-0.89-8.7-0.89c-14.77,0-26.82,2.33-36.18,6.99c-9.33,4.67-15.2,11.13-17.57,19.39
	c-2.01,7.08-0.72,12.52,3.87,16.38c4.58,3.84,11.87,5.75,21.81,5.75c5.31,0,10.59-0.78,15.92-2.38c5.21-1.54,9.16-3.54,11.84-5.98
	c0.04-0.04,0.08-0.1,0.12-0.15c0,0.02,0,0.02,0,0.02c0.01,0,0,0.01,0.02,0.02C138.28,148.15,142.5,151.22,154.61,151.11z
	 M141.02,124.04c-2.88,10.12-10.79,15.17-23.72,15.17c-9.6,0-13.48-3.19-11.65-9.62c2.48-8.64,12.21-12.95,29.23-12.95
	c1.84,0,4.53,0.21,8.08,0.68L141.02,124.04"/>
<path class="st2" d="M348.95,50.38c-16.95-0.42-22.33,5.2-25,11.69l-5.62,19.66c-5.09-2.23-11.14-3.33-18.15-3.33
	c-12.71,0-24.31,3.55-34.78,10.64c-10.48,7.07-17.36,16.26-20.57,27.53c-3.24,11.31-2.06,20.1,3.49,26.41
	c5.41,6.14,14.29,9.24,26.61,9.41l-0.06,0.03c0.16,0,0.32-0.01,0.49-0.01c0.18,0,0.36,0.01,0.57,0.01c0.31,0,0.63-0.05,0.94-0.08
	c4.64-0.17,9.26-0.89,13.92-2.31c5.23-1.54,9.16-3.54,11.83-5.98c0.05-0.04,0.09-0.1,0.13-0.15c0.01,0.02,0.01,0.02,0.01,0.02
	s0,0.01,0.01,0.02c0.9,4.21,5.13,7.28,17.24,7.17l0.04-0.11l0.11,0.08L348.95,50.38z M279.44,98.57c5.79-4.06,12.96-6.09,21.51-6.09
	c4.97,0,9.33,1.42,13.08,4.25l-7.51,26.22l-0.1,0.35c-2.88,10.09-10.81,15.91-23.74,15.91c-8.75,0-18.2-7.51-15.96-20.02
	c0.23-1.02,0.48-2.06,0.79-3.12C269.68,108.47,273.63,102.65,279.44,98.57"/>
</svg>
