<?xml version="1.0" encoding="utf-8"?>
<!-- Generator: Adobe Illustrator 23.1.1, SVG Export Plug-In . SVG Version: 6.00 Build 0)  -->
<svg version="1.2" baseProfile="tiny" id="Слой_1"
	 xmlns="http://www.w3.org/2000/svg" xmlns:xlink="http://www.w3.org/1999/xlink" x="0px" y="0px" viewBox="0 0 2279.4 795.5"
	 xml:space="preserve">
<path fill-rule="evenodd" d="M2238.9,235c-18.5-0.6-33-16.1-32.4-34.6c0.6-17.6,14.7-31.8,32.4-32.4c18.4,0.1,33.3,15,33.4,33.5
	C2272.3,220,2257.4,235,2238.9,235C2238.9,235,2238.9,235,2238.9,235z M2238.9,242c22.3,0.1,40.5-17.9,40.6-40.2c0-0.1,0-0.2,0-0.3
	c0-22.3-18.1-40.5-40.4-40.5c-0.1,0-0.1,0-0.2,0c-22.3-0.1-40.5,18-40.6,40.3c0,0.1,0,0.1,0,0.2c-0.1,22.3,17.9,40.5,40.2,40.5
	C2238.6,242,2238.7,242,2238.9,242z M2236.5,204.2c2.6,0.3,5,0,6.9,1.9c2.1,2.3,2.1,6.1,2.6,10.2c0.4,2.9,1.1,5.9,1.6,8.5h9.5
	c-1.6-4.3-2.1-9.2-2.8-13.7c-0.8-5.3-1.4-8.1-8-9.5v-0.2c6.3-1.2,9.7-5.6,9.7-11.2c0-10.8-9.2-13.1-18-13.1h-15.3v47.7h7.5v-20.6
	L2236.5,204.2L2236.5,204.2L2236.5,204.2z M2230.2,196.7v-12.2h8.9c6,0,7.5,1.9,7.5,5.4c0,3.8-1.6,6.6-8.7,6.8H2230.2L2230.2,196.7z
	"/>
<path fill-rule="evenodd" fill="#CA6B2A" d="M1071.3,262C1000,115.3,1059.2,59,1076.6,4V3.8V4l0.6-3.5C477.1,11.3,0,185.1,0,397.8
	c0,203.6,437.9,371.6,1002.3,394.8C1089.3,667.1,1158.5,441.6,1071.3,262z"/>
<path fill-rule="evenodd" d="M2272.9,397.8C2272.9,178,1764.1,0,1136.4,0c-19.8,0-39.5,0.2-59.2,0.5l-0.6,3.5V3.8V4
	c-17.4,55.1-76.7,111.4-5.3,258c87.2,179.6,18,405.2-69,530.7c44,1.8,88.7,2.9,134.1,2.9C1764.1,795.5,2272.9,617.5,2272.9,397.8z"
	/>
<path fill-rule="evenodd" fill="#FFFFFF" d="M252.7,454.6v-86.5h44.7v-21.6l-44.7-0.1l0.1-45.5c18.1-0.9,51,1.9,67.9,6.4l-9.5-26.7
	H184.5v174.1L252.7,454.6L252.7,454.6z M1223.7,454.6v-86.5h44.8v-21.6l-44.8-0.1l0.1-45.5c18.1-0.9,51.2,1.9,67.8,6.4l-9.4-26.7
	h-126.6v174.1L1223.7,454.6L1223.7,454.6z M687.3,280.3c19.5,1.6,39.9,7.5,50.3,26.9c5.8,13.9,3.1,40.4-5.9,52.2
	c-10.4,12.7-25.3,15.8-40.1,18.1c16.2,5.9,33.8,16.3,44.6,31.6c11.3,14.4,15.4,31.1,28.6,44.7c-30.3,2.3-69.2,8.1-86.9-21.8
	l-39.6-65.4c12.2-2.7,27.6-3.7,33.7-18.1c3.4-11.3,4.1-32.8-3.6-40.9c-8.6-8.6-22-8.6-33.8-8.2c-0.2,46.5-0.2,107-0.2,155.2h-67.7
	V280.5L687.3,280.3L687.3,280.3z M1438.8,280.3c19.8,1.6,40,7.5,50.5,26.9c5.9,13.9,3.2,40.4-6,52.2c-10.3,12.7-25.3,15.8-40.2,18.1
	c16.3,5.9,34,16.3,44.8,31.6c11.2,14.4,15.4,31.1,28.4,44.7c-30.2,2.3-69.1,8.1-86.7-21.8l-39.6-65.4c12.2-2.7,27.6-3.7,33.8-18.1
	c3.4-11.3,4-32.8-3.7-40.9c-8.6-8.6-22.1-8.6-33.7-8.2c-0.1,46.5-0.1,107-0.1,155.2h-67.9V280.5L1438.8,280.3L1438.8,280.3z
	 M1041.3,280.1h-65.1L921,346.5l-51-66.4h-78.2v174.6h26.6l0.2-108l75.9,110.2l78.3-109.5v107.2h68.5L1041.3,280.1L1041.3,280.1z
	 M540.5,454.9l-75.5-0.3l-15.2-33.5c-29.1,0-57.3,0-87.2,0.2l-14.8,33.5l-31.7-0.1L391.2,281h79.1L540.5,454.9L540.5,454.9z
	 M406.1,313l-31.9,85.5c21.7,0.2,42.3,0.2,65.9,0.2C428.9,374.5,417.3,336.1,406.1,313z M1603.6,454.7h-65.9V281.4h65.9V454.7
	L1603.6,454.7z M1777.9,304c-12.2-1.3-26.5-4-39.6-1.3c0.1,45.4,0.1,105.9,0.1,151.9h-67.7V302.7c-13-3.6-28-0.5-40.6,1.3
	c0.9-6.9,1.8-14.8,3.2-22.5h141.1L1777.9,304z M1871,368.1h44.7v-21.8l-44.7,0l0.1-45.5c18.1-0.9,46.2,1.8,62.9,6.4l-9.4-26.8
	h-121.8v174.4h121.8l9.4-26.7c-16.6,4.6-44.7,7.2-62.9,6.4L1871,368.1L1871,368.1z M1785.8,581.6l1.9-7.2
	c-339.9-61-1072.7-34.1-1292.7-6.7c-1.6,8.4-4.6,20.5-8.8,34.3C856,541.9,1578.1,546.6,1785.8,581.6L1785.8,581.6z M2087,293.1
	l10.8,35.2c-18.5-7.8-37.5-20.8-59.2-23.3c-5.9-0.6-12.1,1.9-14.4,8.4c-4,8.4,3.5,12.9,8.5,16.5c26.3,18.8,72.4,21.9,73.7,67.2
	c-1.9,21.5-15.3,42.3-33.4,52.2c-35.3,19.5-76.9,2.5-113-3.5l4-31.3c22.2,10.9,47.5,23.3,73.7,15.4c4.6-2.6,7.3-8.1,7.7-13.4
	c-3.5-12-15.7-12-23.5-18.9c-24.9-13-61-34-59.7-70.9c0.9-19.9,16.7-35.2,32-43.3C2024.6,270.1,2058.4,283.5,2087,293.1L2087,293.1z
	"/>
</svg>
