<?xml version="1.0" encoding="utf-8"?>
<!-- Generator: Adobe Illustrator 23.1.1, SVG Export Plug-In . SVG Version: 6.00 Build 0)  -->
<svg version="1.2" baseProfile="tiny" id="Слой_1"
	 xmlns="http://www.w3.org/2000/svg" xmlns:xlink="http://www.w3.org/1999/xlink" x="0px" y="0px" viewBox="0 0 2097.5 2082.3"
	 xml:space="preserve">
<path fill-rule="evenodd" d="M2087.5,599c-4.3,142.5-65.6,378.4-229,453.1c-68.5,32.6-135.9,54.9-215.5,55.1H502.3
	c-136.3-0.1-221.1,97-264.7,206.3c-10.9,28.8-21.2,59.5-15.2,89.2v670l-212.8,0V9.6l2078.3,0L2087.5,599z"/>
<path fill-rule="evenodd" fill="#FFFFFF" stroke="#000000" stroke-width="19.2212" stroke-miterlimit="33.89" d="M2087.5,599
	c-12.7,142-90,280.5-220.9,349.8c-64.1,37.8-135.7,53.6-215.5,55.1H510.3c-134.4-2.4-239.1,70.1-275.3,178.3
	c-9.2,27.7-9.1,48.6-12.7,89v801.6l-212.8,0V9.6h2078.3L2087.5,599z"/>
<path fill-rule="evenodd" fill="#FFFFFF" stroke="#CC2229" stroke-width="19.2212" stroke-miterlimit="33.89" d="M500.4,886.6
	c0,0-103.1-2.4-186.2,43.9c-146.5,81.4-173.8,181.7-173.8,181.7L140.3,463c0,0-5.1-157.3,103.7-247.5
	c109.1-91.4,226.1-81.6,226.1-81.6l1501.4-0.5l-0.5,373.5c0,0,11.3,148.9-66.3,251.8c-67.1,88.3-191,126.6-280.6,127.3
	C1534.3,886.7,500.4,886.6,500.4,886.6L500.4,886.6z"/>
<path fill-rule="evenodd" fill="#CC2229" d="M224.7,330.4c36.7-66.9,111.7-146.2,245.3-146.8l1445.7,0.9l0.2,321.1
	c0,0,7,86.8-38.2,178.7c-37.2,75.3-118.5,139-263.3,138.4c-324,0.9-1123.9,1.9-1123.9,1.9s-171.3-2.4-294.5,119.8l-1.5-494.7
	C194.4,449.8,190.7,397.9,224.7,330.4L224.7,330.4z"/>
<path fill-rule="evenodd" fill="#FFFFFF" d="M400,315.2l-87.5,387.6c0,0-3.8,10.5,8.3,13.2l95.3-0.8l0.9-4c0,0-11.1-1.1-7.1-18.7
	c3.4-14.8,34.6-156.8,34.6-156.8s2.3-16.5,20.8-16.5c20.2-1.1,91-0.4,91-0.4s23.6,2.5,29.3-28.8l8.1-35.1l-132.6,2.3l20.4-89.1
	l113.5,0.5c0,0,30.3,4.1,39-33.7l8.7-37.8l-250.5,2.1l-0.6,2.7C391.6,302,402.2,305.8,400,315.2L400,315.2z M1243.6,699.3
	c4-17.6,76.7-340.3,76.7-340.3s2.5-10.8-7-13l-74.2,1.5l-0.6,2.7c0,0,9.1,3.6,7.3,11.6l-13.9,60.7l-57.1,1.1c0,0-64.1,0.9-99.6,38.2
	c-30.9,35.5-38.9,57.8-51,104.7c-16.2,51.7-11.1,85.5-8.4,104.6c4.7,16.7,9.2,40.5,56,47c38.1,7.3,82.6-0.9,97.7-35.8l3.4,3.6
	l-4,17.6c0,0-2.5,10.8,7.3,11.6l73.9-0.1l0.9-4C1250.8,710.9,1241.4,708.7,1243.6,699.3L1243.6,699.3z M1132.6,656.7
	c-46,2.3-42-33.8-42.2-45.2c0.5-8.4,9.1-51.9,26.8-91.9c18-41.3,64.4-39.2,64.4-39.2l37-0.1l-34.3,155.5
	C1172.1,651.6,1162.5,656.5,1132.6,656.7L1132.6,656.7z M664.7,356.1l-8.1,35.1c0,0-1.1,11.1,7.3,11.6c8.4,0.5,52.4,0.6,52.4,0.6
	s11.4-0.2,13.3-8.3l7.7-33.7c0,0,3.1-13.5-7-12.9l-53.8-1C676.6,347.5,666.6,348,664.7,356.1z M645.5,439.8l-59.3,264.8
	c0,0-2.2,9.5,5.9,11.3l75.2,0.2l0.9-4.1c0,0-9.2-3.5-7.3-11.6C665,682.9,720,437,720,437s1.1-11.1-7-12.9l-75.5,1.1l-0.6,2.7
	C636.9,427.9,647.4,431.7,645.5,439.8L645.5,439.8z M1380,631.1l43.5-196c0,0,0.8-9.8-7.3-11.6l-73.9,0.1l-0.9,4
	c0,0,7.7,3.2,5.9,11.3c-3.7,16.2-49.1,220.3-49.1,220.3s-3.7,16.2,1.6,30.2c3.2,10.7,11.2,25.3,38.4,24.4l55.1,1.3
	c0,0,37.4,4.3,56.4-35.4l3.1,5l-3.7,16.2c0,0-0.8,9.8,8.6,11.9l73.9-0.1l0.6-2.7c0,0-10.5-3.8-8.3-13.3l59-263.4
	c0,0,2.5-10.8-7.2-11.6l-73.9,0.1l-0.9,4c0,0,9.5,2.2,7.3,11.6L1468,618.7c0,0-9,39.2-42.9,38.5l-27.2,0.8
	C1397.9,658,1372.4,657.8,1380,631.1L1380,631.1z M920.2,505.7l-43.6,195.9c0,0-2.2,9.5,7.3,11.6l73.8-0.1l0.9-4
	c0,0-9.4-2.2-8.3-13.3c3.7-16.2,49.9-217.2,49.9-217.2s3.7-16.2,0.1-31.2c-4.6-11-12.6-25.6-40.8-26.4l-54.1,0.4
	c0,0-37.3-4.3-56.4,35.4l-2.8-6.3l3.4-14.8c0,0,2.5-10.8-7-13l-74.2,1.5l-0.6,2.7c0,0,9.4,2.2,7.3,11.6l-59.4,264.8
	c0,0-2.2,9.4,7.3,11.6l74.2-1.4l0.6-2.7c0,0-9.5-2.2-7.3-11.6l39.8-179.8c0,0,9-39.1,44.6-39.5l27.2-0.9
	C902.2,478.8,926,480.1,920.2,505.7L920.2,505.7z M1687.6,652.1c33.3,3.4,39.5-23.6,39.5-23.6c2.5-23.6-17.4-29.5-29.2-33.7
	c-11.8-4.1-40.2-10.6-53.7-13.7c-13.5-3.1-23.4-9.6-23.4-9.6c-38.5-30.1-10.8-89.1-10.8-89.1c12.4-35.5,35.9-51.4,45.9-57.6
	c11.3-5.9,40.9-4.8,40.9-4.8l124.2-2.7c0,0,1.9-8.1-5.6,24.3c-8.6,37.8-39,33.7-39,33.7l-59.8,0.5c0,0-33.9-0.7-39.2,22.2
	c-4,23.3,24.7,28.4,24.7,28.4s57,11.7,70.6,20.5c13.6,8.8,30.2,16.9,32.1,45.7c0.9,27.2-7.7,89.2-59.7,111.3c0,0-22.7,6.1-43.9,5.6
	l-131,1.2c-12.1-2.8-8.3-13.3-8.3-13.3l13.9-60.7l3-0.8c0,0,0.1,5.7,3.9,8c0,0,10.3,10.9,64.3,10.5
	C1703.1,652.7,1687.6,652.1,1687.6,652.1L1687.6,652.1z"/>
</svg>
