<?xml version="1.0" encoding="utf-8"?>
<!-- Generator: Adobe Illustrator 23.0.1, SVG Export Plug-In . SVG Version: 6.00 Build 0)  -->
<svg version="1.1" id="Vignetlogo_zwart" xmlns="http://www.w3.org/2000/svg" xmlns:xlink="http://www.w3.org/1999/xlink" x="0px"
	 y="0px" viewBox="0 0 137.66 137.66" style="enable-background:new 0 0 137.66 137.66;" xml:space="preserve">
<style type="text/css">
	.st0{fill:#C3A572;}
	.st1{fill:#FFFFFF;}
</style>
<g>
	<path id="Background_1_" class="st0" d="M137.66,68.83c0,38.02-30.82,68.83-68.83,68.83C30.82,137.66,0,106.85,0,68.83
		C0,30.82,30.82,0,68.83,0C106.85,0,137.66,30.82,137.66,68.83z"/>
	<g id="Anno_1898">
		<g id="_x31_898_2_">
			<path class="st1" d="M78.82,103.01v-4.17c0-0.73,0.06-1.48,0.06-2.23c0-0.07-0.03-0.15-0.09-0.19c-0.06-0.04-0.13-0.07-0.2-0.04
				L77.3,96.7c-0.07,0.02-0.13,0.07-0.16,0.13c-0.03,0.07-0.03,0.15,0.01,0.21c0.18,0.32,0.19,0.75,0.18,1.21v4.76
				c0.01,0.5-0.02,1.05-0.21,1.32c-0.05,0.07-0.05,0.17-0.01,0.25c0.04,0.07,0.12,0.12,0.21,0.12h1.51c0.09,0,0.17-0.05,0.21-0.12
				c0.04-0.08,0.04-0.17-0.01-0.25C78.84,104.06,78.82,103.52,78.82,103.01"/>
			<path class="st1" d="M87.98,100.51c-0.24-0.21-0.48-0.36-0.65-0.48c-0.02-0.01-0.04-0.03-0.06-0.03c0.37-0.26,1.28-0.9,1.27-2.05
				c-0.01-1.14-1.14-1.58-2.09-1.58c-1.36,0-2.42,0.78-2.42,2.02c-0.01,0.01,0,0.01,0,0.02c0,0.66,0.37,1.15,0.71,1.48
				c0.17,0.16,0.34,0.29,0.45,0.39c0.01,0,0.01,0.01,0.02,0.02c-0.44,0.28-1.83,1.06-1.83,2.53c0.02,1.43,1.49,2.07,2.68,2.08
				c1.39-0.01,2.91-0.61,2.92-2.37C88.97,101.59,88.46,100.93,87.98,100.51z M86.36,97.21c0.45,0,0.69,0.42,0.7,0.96
				c0,0.48-0.19,0.93-0.57,1.33c-0.53-0.31-0.9-0.82-0.9-1.45C85.59,97.58,85.9,97.21,86.36,97.21z M86.18,103.99
				c-0.82-0.01-1.22-0.58-1.24-1.37c0-0.8,0.41-1.35,1.08-1.82c0.8,0.49,1.4,0.95,1.4,1.84C87.39,103.56,87.07,103.96,86.18,103.99z
				"/>
			<path class="st1" d="M95.51,96.37c-1.5,0.01-2.73,0.88-2.74,2.41c0,1.15,0.71,2.22,2.07,2.22c0.44,0.01,0.78-0.11,1.07-0.33
				c0.08-0.06,0.11-0.17,0.08-0.27c-0.03-0.1-0.13-0.16-0.23-0.16H95.7c-0.94-0.02-1.34-0.64-1.36-1.59
				c0.03-0.91,0.32-1.36,0.99-1.37c0.84,0,1.01,0.68,1.03,1.53c0,2.25-1.45,4.85-3.8,5.49c-0.1,0.03-0.18,0.12-0.18,0.23v0.09
				c0,0.1,0.07,0.2,0.17,0.23c0.09,0.02,0.22,0.06,0.37,0.06c3.11-0.03,4.99-3.42,5-6.08c0-0.7-0.2-1.32-0.62-1.77
				C96.89,96.61,96.27,96.37,95.51,96.37"/>
			<path class="st1" d="M105.52,100.52c-0.24-0.22-0.48-0.37-0.65-0.48c-0.02-0.01-0.04-0.03-0.05-0.03
				c0.37-0.26,1.28-0.9,1.27-2.05c-0.02-1.14-1.14-1.58-2.09-1.58c-1.36,0-2.43,0.78-2.43,2.02c0,0.01,0,0.01,0,0.01
				c0,0.67,0.37,1.16,0.71,1.48c0.17,0.16,0.34,0.29,0.45,0.39c0.01,0.01,0.01,0.01,0.02,0.02c-0.44,0.28-1.83,1.07-1.83,2.53
				c0.02,1.43,1.49,2.07,2.68,2.07c1.39,0,2.92-0.6,2.92-2.37C106.52,101.59,106,100.93,105.52,100.52z M103.9,97.21
				c0.45,0,0.69,0.42,0.7,0.96c0,0.48-0.19,0.94-0.57,1.33c-0.53-0.31-0.9-0.82-0.9-1.45C103.13,97.58,103.44,97.21,103.9,97.21z
				 M103.72,103.99c-0.82-0.01-1.22-0.58-1.24-1.37c0-0.8,0.41-1.35,1.08-1.82c0.79,0.49,1.4,0.95,1.4,1.84
				C104.92,103.55,104.62,103.96,103.72,103.99z"/>
		</g>
		<g id="Anno_2_">
			<path class="st1" d="M39.43,104.13l-0.24-0.44c-1.18-2.19-1.95-4.79-2.72-7.19c-0.03-0.1-0.12-0.16-0.23-0.16h-1.42
				c-0.13,0-0.24,0.1-0.24,0.23l-0.01,0.32c0.04,0.81-2.47,6.1-3.11,6.87l-0.26,0.34c-0.05,0.07-0.07,0.17-0.03,0.26
				c0.04,0.08,0.12,0.13,0.21,0.13h1.5c0.07,0,0.14-0.03,0.18-0.08c0.05-0.05,0.06-0.12,0.05-0.19c-0.02-0.15-0.03-0.27-0.03-0.42
				c-0.01-0.56,0.47-1.67,0.97-2.67h2.39l1.25,3.21c0.03,0.09,0.12,0.15,0.22,0.15h1.3c0.08,0,0.16-0.05,0.2-0.12
				C39.47,104.3,39.47,104.21,39.43,104.13z M34.47,100.17l0.9-2.2l0.72,2.2H34.47z"/>
			<path class="st1" d="M48.55,96.35h-1.25c-0.08,0-0.16,0.04-0.2,0.11c-0.04,0.07-0.05,0.16-0.01,0.23
				c0.15,0.28,0.26,0.63,0.26,1.43v3.9l-2.29-3.23c-0.36-0.52-1.13-1.8-1.4-2.16c-0.17-0.26-0.47-0.3-0.67-0.29h-1.22
				c-0.1,0-0.18,0.06-0.22,0.15c-0.04,0.08-0.02,0.19,0.05,0.26c0.27,0.25,0.32,0.84,0.31,1.43v2.56c0,1.06-0.01,2.51-0.4,3.42
				c-0.03,0.07-0.02,0.15,0.02,0.22c0.04,0.07,0.12,0.11,0.2,0.11h1.38c0.08,0,0.15-0.04,0.2-0.11c0.04-0.07,0.05-0.15,0.02-0.22
				c-0.32-0.74-0.34-1.76-0.34-2.66c0-0.11,0-0.22,0-0.33V98.5l4.17,5.94c0.04,0.06,0.12,0.1,0.19,0.1h0.85
				c0.07,0,0.13-0.03,0.17-0.07c0.05-0.05,0.07-0.11,0.07-0.18c-0.01-0.36-0.02-0.72-0.02-1.11v-4.81c0-0.6,0.07-1.18,0.33-1.68
				c0.04-0.07,0.04-0.16-0.01-0.23C48.71,96.39,48.63,96.35,48.55,96.35"/>
			<path class="st1" d="M58.2,96.34h-1.25c-0.08,0-0.16,0.04-0.2,0.12c-0.04,0.07-0.04,0.16,0,0.23c0.15,0.28,0.26,0.63,0.26,1.43
				v3.91l-2.3-3.23c-0.36-0.52-1.13-1.8-1.4-2.16c-0.17-0.26-0.47-0.3-0.67-0.29h-1.21c-0.1,0-0.19,0.06-0.22,0.15
				c-0.04,0.08-0.02,0.19,0.05,0.26c0.27,0.25,0.32,0.85,0.31,1.43v2.56c0,1.06-0.01,2.51-0.4,3.42c-0.03,0.07-0.02,0.15,0.02,0.22
				c0.04,0.07,0.12,0.11,0.2,0.11h1.38c0.08,0,0.16-0.04,0.2-0.11c0.04-0.07,0.05-0.15,0.02-0.22c-0.32-0.74-0.34-1.76-0.34-2.66
				c0-0.11,0-0.22,0-0.33v-2.66l4.17,5.93c0.04,0.06,0.12,0.1,0.19,0.1h0.86c0.06,0,0.12-0.03,0.17-0.08
				c0.04-0.05,0.07-0.11,0.07-0.17c-0.01-0.36-0.02-0.72-0.02-1.11v-4.81c0-0.6,0.07-1.18,0.33-1.68c0.04-0.07,0.03-0.16-0.01-0.23
				C58.37,96.39,58.29,96.34,58.2,96.34"/>
			<path class="st1" d="M67.71,97.37c-0.64-0.76-1.63-1.22-2.94-1.21c-2.64,0.01-4.06,2.06-4.06,4.42c0,1.11,0.28,2.13,0.92,2.89
				c0.63,0.76,1.62,1.22,2.93,1.22h0.02c2.64-0.01,4.05-2.05,4.06-4.42C68.63,99.15,68.35,98.12,67.71,97.37z M64.67,103.68
				c-0.88-0.01-1.39-0.45-1.75-1.12c-0.35-0.67-0.49-1.55-0.49-2.32c0.02-1.69,0.69-3.08,2.24-3.08c0.88,0.01,1.39,0.45,1.75,1.12
				c0.35,0.67,0.48,1.56,0.48,2.32C66.89,102.28,66.21,103.67,64.67,103.68z"/>
		</g>
	</g>
	<g id="Haacht_1_">
		<path class="st1" d="M18.35,83.21c0,0.56,0.55,0.92,0.55,0.92h-5.23c0,0,0.55-0.32,0.55-0.92V71.5c0-0.59-0.55-0.93-0.55-0.93
			h5.23c0,0-0.55,0.29-0.55,0.93v3.88h6.81V71.5c0-0.23-0.55-0.93-0.55-0.93h5.23c0,0-0.55,0.7-0.55,0.93v11.71
			c0,0.56,0.55,0.92,0.55,0.92h-5.23c0,0,0.55-0.35,0.55-0.92v-4.69h-6.81V83.21z"/>
		<path class="st1" d="M45.69,83.49c-0.12-0.31-0.83-1.95-0.89-2.09h-7.15c-0.04,0.14-0.79,1.82-0.9,2.09
			c-0.11,0.28,0.09,0.65,0.09,0.65h-4.31c0,0,0.33-0.12,0.62-0.68c0.29-0.56,1.24-2.86,1.88-4.27c0.64-1.41,1.21-2.68,1.71-3.82
			c0.51-1.14,0.92-2.09,1.25-2.83c0.33-0.75,0.39-0.91,0.49-1.28c0.11-0.37-0.09-0.67-0.09-0.67h5.82c0,0-0.17,0.35-0.09,0.67
			c0.08,0.32,0.11,0.34,0.32,0.82c0.22,0.48,0.5,1.09,0.85,1.82c0.35,0.73,0.73,1.54,1.16,2.42c0.42,0.89,0.84,1.77,1.26,2.66
			c0.42,0.88,0.82,1.71,1.19,2.51c0.37,0.79,0.67,1.45,0.89,1.99c0.17,0.41,0.62,0.68,0.62,0.68H45.6
			C45.6,84.14,45.8,83.8,45.69,83.49 M41.15,73.78l-2.53,5.39h5.12L41.15,73.78z"/>
		<path class="st1" d="M65.1,83.49c0-0.08-0.04-0.21-0.11-0.38c-0.07-0.17-0.15-0.36-0.25-0.57c-0.09-0.2-0.19-0.41-0.29-0.61
			c-0.1-0.2-0.19-0.38-0.25-0.52h-7.15c-0.04,0.14-0.11,0.32-0.2,0.52c-0.09,0.21-0.19,0.41-0.29,0.61c-0.1,0.21-0.19,0.4-0.28,0.57
			c-0.08,0.18-0.12,0.3-0.12,0.38c0,0.14,0.4,0.65,0.4,0.65h-4.63c0,0,0.58-0.57,0.62-0.68c0.62-1.44,1.24-2.86,1.88-4.27
			c0.64-1.41,1.21-2.68,1.71-3.82c0.5-1.14,0.92-2.09,1.25-2.83c0.33-0.75,0.5-1.18,0.5-1.28c0-0.19-0.4-0.67-0.4-0.67h6.44
			c0,0-0.4,0.49-0.4,0.67c0,0.06,0.11,0.34,0.32,0.82c0.21,0.48,0.5,1.09,0.85,1.82c0.35,0.73,0.74,1.54,1.16,2.42
			c0.42,0.89,0.84,1.77,1.26,2.66c0.42,0.88,0.82,1.71,1.19,2.51c0.37,0.79,0.67,1.45,0.89,1.99c0.04,0.11,0.62,0.68,0.62,0.68H64.7
			C64.7,84.14,65.1,83.63,65.1,83.49 M60.57,73.78l-2.53,5.39h5.12L60.57,73.78z"/>
		<path class="st1" d="M84.44,75.53c0,0-0.57-0.75-0.83-0.91c-0.26-0.17-0.58-0.31-0.99-0.45c-0.4-0.13-0.85-0.25-1.35-0.35
			c-0.5-0.11-1.01-0.16-1.52-0.16c-0.58,0-1.16,0.08-1.76,0.22c-0.6,0.14-1.13,0.37-1.6,0.66c-0.47,0.3-0.86,0.68-1.17,1.15
			c-0.31,0.46-0.46,1.03-0.46,1.69c0,0.64,0.15,1.2,0.46,1.67c0.31,0.47,0.7,0.86,1.17,1.16c0.47,0.3,1.01,0.52,1.6,0.67
			c0.59,0.14,1.18,0.22,1.76,0.22c0.62,0,1.2-0.08,1.74-0.23c0.54-0.15,1.03-0.33,1.45-0.55c0.42-0.21,0.75-0.43,0.99-0.64
			c0.23-0.21,0.8-1.07,0.8-1.07l2.67,3.88c0,0-1.04,0.12-1.4,0.3c-0.36,0.18-0.84,0.39-1.44,0.63c-0.6,0.23-1.3,0.43-2.11,0.59
			c-0.81,0.17-1.71,0.24-2.69,0.24c-1.13,0-2.24-0.11-3.31-0.34c-1.08-0.23-2.04-0.61-2.88-1.16c-0.84-0.54-1.52-1.26-2.04-2.14
			c-0.51-0.89-0.77-1.96-0.77-3.24c0-1.25,0.26-2.32,0.77-3.2c0.51-0.88,1.19-1.61,2.04-2.16c0.84-0.55,1.8-0.96,2.88-1.21
			c1.08-0.26,2.18-0.38,3.31-0.38c0.67,0,1.34,0.05,1.97,0.17c0.64,0.11,1.22,0.23,1.76,0.35c0.54,0.12,1,0.24,1.39,0.36
			c0.39,0.11,1.54,0.27,1.54,0.27L84.44,75.53z"/>
		<path class="st1" d="M94.75,83.21c0,0.22,0.55,0.92,0.55,0.92h-5.23c0,0,0.55-0.7,0.55-0.92V71.5c0-0.23-0.55-0.93-0.55-0.93h5.23
			c0,0-0.55,0.7-0.55,0.93v3.88h6.81V71.5c0-0.23-0.55-0.93-0.55-0.93h5.23c0,0-0.55,0.7-0.55,0.93v11.71
			c0,0.22,0.55,0.92,0.55,0.92h-5.23c0,0,0.55-0.7,0.55-0.92v-4.69h-6.81V83.21z"/>
		<path class="st1" d="M124,70.55v3.53c0,0-0.8-0.37-0.92-0.37h-4.41v9.5c0,0.23,0.4,0.93,0.4,0.93h-4.93c0,0,0.4-0.7,0.4-0.93v-9.5
			h-4.41c-0.12,0-0.93,0.37-0.93,0.37v-3.53c0,0,0.8,0.02,0.93,0.02h12.95C123.2,70.58,124,70.55,124,70.55"/>
	</g>
	<path id="Ketel_1_" class="st1" d="M64.04,21.53c0,0,5.62-3.28,9.47-5.69l0.02,11.81c0,0,0.41-0.01,1.07-0.01
		c0.76,0,0.88,0.73,0.27,1.56c-1,1.35-0.51,2.86,0.9,3.88c1.41,1.02,7.41,2.89,12.59,5.01c7.12,2.92,7.26,9.67,7.26,10.91
		c0,0,1.1,0.02,1.47,0.02c0.36,0,0.76,0.66-0.04,1.03c-0.8,0.37-1.13,1.03-0.95,1.59c0.11,0.34,0.74,1.93,0.74,2.75
		c0,1.42-0.38,3.45-0.38,4.03L41.22,58.4c0.08-0.66-0.81-3.39-0.4-4.75c0.24-0.82,0.73-1.61,0.77-1.96c0.1-0.79-0.29-1.23-1.02-1.75
		c-0.72-0.51-0.4-0.91-0.03-0.91c0.36,0,1.47-0.02,1.47-0.02c0-1.24,0.14-8.03,7.26-10.95c5.18-2.12,11.32-4.1,12.74-5.12
		c1.41-1.01,2-2.4,1-3.74c-0.61-0.82-0.83-1.53-0.07-1.53c0.66,0,1.09-0.01,1.09-0.01L64.04,21.53z M93.23,47.51
		c0.1,0.45,0.51,0.44,0.51-0.1c0-1.74,0.56-5.31-6.47-8.52c-4.79-2.18-11.69-4.08-13.14-4.97c-1.88-1.15-2.08-2.83-1.97-4.03
		c-0.01,0.02-1.31-0.02-1.31,0c-0.02,1.69,0.14,3.62,2.39,4.85c1.5,0.81,8.96,2.84,13.65,5.2c5.73,2.88,5.8,5.01,6.23,6.95
		L93.23,47.51z M71.91,19.55c-0.5,0.39-1.06,0.86-1.06,0.86v7.21h1.06V19.55 M59.85,36.48c-4.83,1.28-12.61,3.33-14.82,8.23
		c-0.24,0.53,0.06,1.13,1.53,1.13l6.77-0.32c1.56,0,1.47,0.01,1.32-0.55c-0.46-1.75,1.5-4.51,6.94-8.07
		C62.38,36.38,62.55,35.77,59.85,36.48 M87.84,48.52c0.02-0.23-1.32-0.53-2.99-0.65C72.02,47,59.14,47,46.31,47.88
		c-1.67,0.12-3.01,0.42-2.99,0.65c0.02,0.24,1.38,0.32,3.05,0.21c12.79-0.87,25.63-0.87,38.43,0
		C86.46,48.84,87.82,48.76,87.84,48.52 M94.02,50.83c-0.06-0.13-0.22-0.3-0.53-0.27c-0.32,0.04-0.27,0.33-0.04,0.69
		c0.66,1.06-0.22,2.56-0.32,2.75c-0.1,0.19,0.17,0.27,0.27,0.14C93.51,54.01,94.76,52.57,94.02,50.83"/>
</g>
</svg>
