<?xml version="1.0" encoding="utf-8"?>
<!-- Generator: Adobe Illustrator 23.1.1, SVG Export Plug-In . SVG Version: 6.00 Build 0)  -->
<svg version="1.2" baseProfile="tiny" id="Слой_1"
	 xmlns="http://www.w3.org/2000/svg" xmlns:xlink="http://www.w3.org/1999/xlink" x="0px" y="0px" viewBox="0 0 2132.3 808"
	 xml:space="preserve">
<path fill-rule="evenodd" fill="#32428B" d="M1635.2,523.2c-13.8,41.9,41.6,43.2,53.7,74.4c7.4,10,4,24.7,16.4,32.4
	c21,15.8,52.7,20.7,62.1,46.9c7,14.3,21.3,17.3,35.7,17.7c5.8-3.1,13.5-5.8,16.2-13.2c4.2-10.8,6.1-22.5-1.7-32.1
	c-9.3-3.4-17.1-10.4-27.9-10l1.9,1.9c4.3,5,3.5,13.5-3.4,15.9c-8.5-6.9-16.7-17.3-17.9-28.9c0.6-34.8-43.1-33.8-47.5-66.3
	c1.5-5.8,7.3-7.8,13.1-6.6c21.7,15.8,50.7,13.7,71.7,32.2c8.6,25.9,44.7,36.2,47.1,64.8c22.1,12.7,23.8,37,32.7,56.7
	c12.4,3.4,26.3,1,35.9-6.7c5.4,1.5,7.4,7.3,6.2,13.2c6.2,8.1,19.4,4.6,27.9,3c16.3,4.6,8.6,24.7,12.9,37.1c1.6,4.6,5.5,15.4-3,16.3
	l37.1-0.2l-3.1-3.1c-0.8-13.2,14.2-15.9,22.7-21.4c1.9-17.8-14.8-28.2-19.9-43.6c1.4-35.2-33.9-50.5-32.9-85.7
	c11.4-46.5-44-67.1-28-113.6l-3.1,0c7.2-27.9-13-55.3-20.1-82.7c9.9-33.7,10.1-79.8-6.7-110.2c-0.8-9.3,9.2-13.6,17.8-11.7
	c37.5,6,80.5,14.7,115.3,11.1c-4.7-1.1-7-5.8-8.2-10c2.7-5.4,8.5-11.6,16.2-9.8c20.1,0.3,36.7-13.3,54.9-13l-6.2-6.5
	c-0.8-17.4,22-9.8,28.9-17.9c-57.2,3.7-118.1-17.7-180.4-18.9c-41.8-7.2-73.7,42.9-111.8,10.5c-17-1.1-36.7,10.2-50.3-3.3l7.8-82.8
	c17.7-21,48,1.7,64.5-23.1c15.5-0.8,38.3-6.4,48.8,4.8c9.3,0.7,15-7,21.2-13.2c-6.2-2.7-14.3-0.7-21.3-1.5
	c-4.7-3.1-12-5.4-11.3-12.7c12.3-17.8,33.3,0.2,48.7-11.8c1.3-11-14.1-15.7-16.3-25.5V79c0.1,8.5-9.6,8.5-16.2,8.2
	c-5.8-3.8-7.4-9.6-6.6-16.2c3.9-4.7,8.1-8.1,14.7-6.6c-28.7-4.1-56.9-8.3-85.9-11.2c2.3,7.7-3.8,11.6-8.1,16.3
	c-5,3.9-10.8,0.4-14.7-3c-7.4-5-3.9-12.4-0.1-17.8l-6.6,0c-6.6-2.7-14.7-6.5-11.3-16.2l-25.9,0.1c-15.1-3-5.5-23.6-8.3-32.5
	l-18.1,17.9c-1.8,33.7-39.3,44.3-62.8,57.1c-1,25.9-27.3,38.4-41.9,57.1l9.7,8.1c4.7,12-6.9,22.5-16.1,29.1
	c-6.1,27.5-6,57.3-19.4,81.3c1.6,19.7-16.1,34.1-14.1,51.9c-25.8,40.7-17.4,99.9-19.1,146.3C1592.5,476.6,1622.3,496.2,1635.2,523.2
	L1635.2,523.2z M1722.9,582.8c3.9,7.7,16.3,7.3,13.2,18.1c-3.8,7-10.8,6.6-17.8,6.3c-10.5-7.3-9.4-20.1-16.4-28.9
	c-11.7-17-21.8-34.3-39.3-48.6c0.7-10.8,9.6-18.2,19.6-21.3C1717.6,519.8,1699.6,562,1722.9,582.8L1722.9,582.8z M1769.6,462.7
	c-5-2.3-3.1-7.7-4.7-11.2c3.5-10.1,15.5-3.9,17.7-14.8c7.2-29.4-50-34.2-13.4-59.9c17.4,5,39.8,0.6,50.4,19.1
	c-0.4,9.3,7.8,17,3.6,25.9C1801.2,428.9,1797.8,467.2,1769.6,462.7L1769.6,462.7z M1931.4,671.3l-5,3.5
	c-13.6-13.5-39.5-17.6-40.8-40.4c-36.1-21.5-23.1-69.5-61.9-84.1c-4.7-7.3-12.1-15.4-6.7-24.3c8.5-13.2,21.2-22.9,37.1-21.5
	c11.2,5,5.5,17.4,11.7,24.3c32.6,24.2,51.3,59,49.2,97.3C1927,638.4,1934.5,654.6,1931.4,671.3L1931.4,671.3z M1990,700.4
	c0.8,8.9-6.9,17-14.6,19.4c-3.8,0.1-7.4-1.6-9.7-4.6c-7-12.7,8-38.7-13.3-40.6c-4.7-6.9,1.9-13.2,6.5-18.2
	C1979,661.4,1979.4,685.8,1990,700.4z M1963.3,624.3c-5,5.8-13.5,8.6-20.9,4.7c-8.9-7.3-11.3-17.4-9.8-28.9
	c11.2-5.1-3.9-15.1,8.1-19.8C1954.7,589.6,1966.3,605.4,1963.3,624.3L1963.3,624.3z M1927.3,513.8c3.9,16.2,5.6,33.6,11.8,48.7
	l4.6,1.5c-5.8,0.8-4.6,7-4.6,11.6c-10.4,2-12.8-14.3-19.8-21.2c-16.7-8.8-31-23.1-34.2-42c-1.6-8.5,2.6-17.8,11.1-19.4
	C1911.7,491.5,1917.9,505,1927.3,513.8L1927.3,513.8z M1793.1,256.4c21.7-2,38.3,8.7,56.9,14.5c3.5-10.1,14.3-5.1,20.9-1.6
	c36.1,30.4,46.4,83.8,31.5,122.9c-1.9,9.3-8.1,20.2-14.6,24.4c-3.1,1.2-12.8-2.7-16.2,3.5c3.9,12,20.2,15,23,28.9
	c2,6.9-2.7,12.4-8.1,14.7c-22.8,11.7-26.1-33.9-48.8-17.6c-3.1,0.4-6.2-0.4-8.2-3c-0.4-7,6.5-12,11.6-14.8h3.1
	c0.6-38.7-29.7-69.5-52.3-98.8C1792.1,305.1,1783.1,278.9,1793.1,256.4L1793.1,256.4z M1761.6,125c12.8,0.3,15.5,15.8,21.4,24.3
	c-14.9,48.8-22.8,103-30.3,152.6c-3.1,1.2-4.7-1.1-6.6-3.1C1739.2,238,1749.4,180,1761.6,125z M1645.9,396.7
	c22.8,3.8,41.9,21.5,57,40.4c-3,7.8,6.3,13.1,11.3,14.7c16.6-2.8,28.7,9.5,40.7,14.1c2.8,10.8-9.6,13.2-16.2,16.3
	c-20.9-3-42.2-6.4-63.1-9.4c-13.6-6.1-29.9-15.4-36.1-28.9C1640.6,428.4,1623.5,403.7,1645.9,396.7L1645.9,396.7z"/>
<path fill-rule="evenodd" fill="#32428B" d="M1932,75.8l0-5C1931.6,72.5,1931.6,74.2,1932,75.8z M118.1,646.6l83.9-0.4l-0.4-95.5
	c2.7-3.9,6.5-11.6,13.1-9.7c19.5,33.9,36.3,69.5,52.3,105l92.8-0.4c-24.6-54.4-52.7-107.3-73.8-163.7l72.9-55.3l-39.1,0.2
	l-113.4,81.7l-5-5l-0.3-76.2l-84.3-1.2C118.9,498.4,115.8,572.3,118.1,646.6L118.1,646.6z M421.3,644.2c0,0,6.2-19.4,13.1-24.9
	l89-0.4c8.5,8.1,7.8,19.8,16.3,26.8l86.3,0.7l-93.4-220.6l-34.4,0.2l-99.6,219.4C410.5,651.5,421.3,644.2,421.3,644.2L421.3,644.2z
	 M479.2,525.1h3.1c10.2,23.6,24.4,46.9,30.7,72.1l-64.4-0.7C453.9,572.8,469.3,548.7,479.2,525.1z M713.5,498.4
	c22.2,42.9,49.2,103.2,69.9,147.2c10.5-0.1,16.6-0.5,25.9,1.4c22.3-42.7,74.1-138.4,74.1-138.4l0.2,138.1l86.3,0.6L969,427
	l-80.9-1.2c-23.4,37.2-35.6,80.2-59.9,115.5c-20.7-37.8-37.1-77.2-57.4-115l-79.3,0.3L691,646l20.9-0.1L713.5,498.4L713.5,498.4z
	 M1069.2,613.5c20.6,5.1,84.9,4,84.9,4s8.1,9.2,10.7,28l85.9-0.4l-91.3-219l-36,0.1l-93.2,218.2
	C1053.2,657.2,1058.4,622.8,1069.2,613.5L1069.2,613.5z M1109.1,522.4l31.3,73l-65-1.6L1109.1,522.4z M1287.5,448.5
	c20.5,1.5,44.1-4.4,61.5,4.8c-9.2,22.5-31.6,41.9-27.2,68.2c13.2,1.5,29-4.4,39.1,4.5c-21.1,39.9-42.6,81.4-59.8,120.6l90.9-0.4
	l58-110.5l1.9-18.2c-7.1-22.4-32.9-5.7-45.7-17.6c9.2-25.2,26.5-46.9,37.2-71.4l-152.8-2.8C1279.7,428.4,1290.6,441.9,1287.5,448.5
	L1287.5,448.5z"/>
<path fill-rule="evenodd" fill="#32428B" d="M24.2,705.2h1494.5c13.4,0,24.2-10.8,24.2-24.2V387.6c0-13.4-10.8-24.2-24.2-24.2H24.2
	C10.8,363.5,0,374.3,0,387.6v293.4C0,694.4,10.9,705.2,24.2,705.2L24.2,705.2z M15.5,387.6c0-4.8,3.9-8.7,8.7-8.7h1494.5
	c4.8,0,8.7,3.9,8.7,8.7v293.4c0,4.8-3.9,8.7-8.7,8.7H24.2c-4.8,0-8.7-3.9-8.7-8.7V387.6L15.5,387.6z M5,808h2114.9v-35H5V808z"/>
</svg>
