<svg width="815" height="238" viewBox="0 0 815 238" fill="none" xmlns="http://www.w3.org/2000/svg">
<path d="M392.859 226.192C390.936 229.45 388.431 232.541 384.755 232.541C380.995 232.541 379.826 229.116 379.826 225.357C379.826 216.001 389.266 205.14 397.37 200.294C397.538 202.634 397.62 204.972 397.62 206.644C397.62 212.074 396.368 220.344 392.859 226.192ZM433.121 175.984C428.194 175.984 423.933 180.329 420.674 183.669C418.92 185.507 417.249 188.014 417.165 189.601C417.165 190.352 417.834 190.854 418.169 190.854C418.92 190.771 419.755 189.935 422.179 187.346C425.101 184.087 429.614 180.077 432.704 180.077C434.375 180.077 435.21 181.33 435.21 182.5C435.21 192.191 424.016 206.142 414.409 206.142C411.735 206.142 410.816 204.054 410.816 201.547C410.816 199.209 411.735 196.369 412.236 195.031C413.74 191.021 416.33 187.514 420.006 183.502C421.343 182.082 421.76 181.747 422.261 181.247C422.763 180.746 423.014 180.244 423.014 179.744C423.014 178.574 422.011 177.571 420.758 177.571C418.251 177.571 415.411 180.746 414.159 182.332C411.93 185.056 409.475 188.72 407.838 192.781C407.801 192.781 407.763 192.776 407.729 192.776C405.306 192.776 403.469 193.026 401.464 193.777C400.544 184.922 398.623 175.649 394.613 175.649C391.523 175.649 388.18 183.586 386.926 185.675C383.251 192.107 378.239 199.626 375.984 200.629C375.649 200.629 375.566 200.545 375.483 200.294C375.483 195.534 375.9 190.854 375.9 186.26C375.9 185.006 375.9 183.921 375.816 182.751C375.733 179.576 374.479 177.32 371.974 177.32C371.806 177.32 368.799 178.072 368.799 179.576C368.799 181.415 370.886 180.329 371.054 184.672C371.138 186.761 371.221 189.016 371.221 191.189C371.221 194.28 371.138 197.455 371.138 200.379C371.138 201.882 371.138 203.219 371.221 204.471C371.305 205.975 373.478 207.729 374.73 207.729C377.821 207.729 381.414 202.382 385.59 196.117C388.681 191.522 391.355 186.594 394.446 182.082C395.533 184.505 396.451 190.186 396.953 195.784C386.343 201.465 375.231 214.08 375.231 226.025C375.231 229.45 376.318 232.625 379.158 235.047C380.745 236.301 382.666 237.052 384.923 237.052C389.935 237.052 393.276 233.627 395.95 229.952C400.461 223.602 402.299 214.831 402.299 208.649C402.299 207.729 402.215 203.301 401.881 198.04C403.38 197.487 404.746 197.084 406.581 196.689C406.199 198.286 405.971 199.915 405.971 201.547C405.971 206.644 409.48 210.57 414.659 210.57C426.689 210.57 440.056 194.53 440.056 183.251C440.056 178.824 437.466 175.984 433.121 175.984V175.984ZM400.806 59.1612C413.003 59.1612 419.006 68.7537 419.4 79.1462V80.545H378.549C380.386 69.0887 388.119 59.1612 400.806 59.1612V59.1612ZM406.609 123.114C390.815 123.114 379.626 112.524 378.03 97.1362H443.183V88.34C443.183 74.75 440.58 62.16 431.388 52.5637C424.398 45.1725 414.406 40.5725 402.211 40.5725C372.435 40.5725 352.644 61.3625 352.644 91.3387C352.644 122.519 371.233 142.497 402.611 142.497C414.183 142.497 426.963 140.631 440.084 134.401L435.21 116.544C427.57 120.334 416.026 123.114 406.609 123.114ZM559.178 169.385C561.266 169.385 562.603 166.46 562.603 164.789C562.519 162.867 561.015 161.447 559.178 161.447C557.506 161.447 555.753 162.784 555.753 164.371C555.753 166.961 557.089 169.385 559.178 169.385ZM499.7 172.559C498.781 172.559 497.863 172.892 497.278 173.227C490.26 177.989 485.916 187.429 483.828 193.277C483.66 190.937 482.408 183.836 481.321 180.329C480.986 179.075 480.069 177.237 478.564 177.237C476.894 177.32 475.473 178.49 475.473 180.077C475.473 181.08 476.059 182.166 476.476 183.169C477.676 186.474 478.75 189.929 479.424 193.48C479.36 193.466 479.291 193.445 479.235 193.445C478.65 193.445 478.233 193.945 477.899 194.362C475.81 197.287 473.721 201.631 471.215 201.631C470.296 201.631 469.963 199.876 469.879 199.376C469.461 196.201 469.211 193.862 469.211 191.105C469.211 184.505 469.711 180.746 469.711 180.746C469.711 180.746 469.963 179.994 469.963 179.159C469.963 178.072 469.629 176.736 467.79 176.736C466.788 176.736 466.036 177.405 465.535 178.155C464.615 179.576 461.691 185.842 460.605 188.097C458.183 192.86 455.009 198.54 451.416 202.55C451.416 202.55 449.995 204.221 448.91 204.221C448.241 204.221 447.824 203.719 447.824 201.214C448.158 195.115 448.158 182.584 448.158 182.584C448.158 182.584 448.074 179.994 447.155 178.072C446.57 176.652 445.234 175.901 444.148 175.901C442.895 175.901 440.806 176.736 440.806 178.49C440.806 178.49 441.893 179.241 442.394 180.495C443.313 182.332 443.396 188.431 443.396 190.352C443.396 194.53 442.979 197.787 442.979 201.046C442.979 204.137 443.145 209.817 447.824 209.817C454.674 209.817 458.851 198.791 464.365 189.685C464.365 193.611 464.615 205.892 470.046 206.56C472.551 206.56 474.474 206.477 479.57 196.535C479.656 196.382 479.749 196.214 479.838 196.036C480.038 197.58 480.151 199.14 480.151 200.712C480.151 203.554 480.069 204.304 480.069 205.807C480.069 207.312 480.569 208.231 481.154 208.732C481.99 209.567 483.075 209.817 483.828 209.817C484.579 209.735 485.248 209.15 485.248 207.312C485.248 204.639 485.499 200.211 488.005 193.862C490.176 188.599 493.601 181.747 498.781 178.657C500.536 177.571 502.29 176.401 502.29 174.396C502.206 173.144 501.204 172.559 499.7 172.559V172.559ZM563.773 199.041C563.521 193.862 563.438 189.184 563.438 184.589C563.438 182.584 563.521 180.579 563.521 178.657C563.521 177.32 561.766 176.736 560.765 176.736C558.926 176.82 557.256 177.655 557.256 178.824C557.256 178.991 557.256 179.241 557.674 180.411C558.511 182.532 558.975 188.456 559.215 193.701C559.201 193.7 559.193 193.695 559.18 193.695C558.761 193.695 558.01 194.112 556.506 194.781L553.331 196.117C553.331 196.117 554.166 194.864 554.166 192.942C554.166 192.692 554.083 192.274 554.083 191.941C553.583 188.349 549.405 188.097 548.988 188.097C545.98 188.097 543.64 189.1 540.466 190.186C536.706 191.439 532.948 193.36 528.686 193.611C527.851 193.445 527.434 193.11 527.434 192.359C527.6 189.35 538.126 178.155 542.554 178.155C543.39 178.155 543.891 178.574 544.309 178.991C544.81 179.409 545.145 179.911 545.896 179.911C546.983 179.911 547.316 178.49 547.4 177.655C547.316 174.981 544.894 173.06 542.388 172.892C539.38 172.892 535.37 175.734 532.111 178.741C528.77 181.832 525.178 185.34 523.34 189.935C522.923 191.105 522.504 192.359 522.504 193.611C522.504 196.702 525.178 198.04 527.35 198.04C531.276 198.04 535.036 196.619 537.876 195.449C541.385 194.03 546.063 192.609 547.985 192.609C548.653 192.609 549.405 193.11 549.405 193.862C549.155 195.534 545.228 198.957 540.884 201.715C536.289 203.804 534.284 204.304 534.2 204.304C532.028 205.307 531.694 206.06 531.694 207.396C531.694 208.565 532.864 209.735 534.284 209.735C535.37 209.735 536.623 209.4 537.876 208.732C539.548 207.981 540.884 207.061 543.224 205.39C544.81 204.722 546.398 203.719 547.985 202.801C549.99 201.631 552.413 200.211 555.42 198.791C557.325 197.876 558.555 197.249 559.336 196.764C559.381 198.17 559.411 199.444 559.428 200.461V204.806C559.428 206.06 559.428 207.061 559.511 208.231C559.511 208.649 559.845 208.9 560.096 209.234C560.598 209.651 562.101 210.07 563.271 210.07C564.44 210.07 565.359 209.651 565.359 208.732C565.359 208.565 565.276 208.399 565.276 208.231C564.358 205.975 563.939 202.55 563.773 199.041V199.041ZM648.646 175.984C643.719 175.984 639.458 180.329 636.199 183.669C634.445 185.507 632.774 188.014 632.69 189.601C632.69 190.352 633.359 190.854 633.693 190.854C634.445 190.771 635.28 189.935 637.703 187.346C640.626 184.087 645.139 180.077 648.229 180.077C649.9 180.077 650.735 181.33 650.735 182.5C650.735 192.191 639.541 206.142 629.934 206.142C627.26 206.142 626.341 204.054 626.341 201.547C626.341 199.209 627.26 196.369 627.761 195.031C629.265 191.021 631.855 187.514 635.531 183.502C636.868 182.082 637.285 181.747 637.786 181.247C638.288 180.746 638.538 180.244 638.538 179.744C638.538 178.574 637.536 177.571 636.283 177.571C633.776 177.571 630.936 180.746 629.683 182.332C627.499 185.002 625.094 188.577 623.458 192.545C622.545 193.135 621.375 194.652 619.743 196.284C614.063 201.882 607.295 206.811 599.776 206.811C599.443 206.811 595.015 206.644 595.015 202.467C595.015 195.534 602.784 186.677 607.546 182.416C609.801 180.329 611.055 179.826 611.974 179.826C612.643 179.826 613.06 180.746 613.06 181.247C613.06 181.247 613.561 185.257 615.483 185.257C617.404 185.257 618.156 183.669 618.156 182.25C618.156 179.826 616.068 176.902 614.23 175.649C614.23 175.649 613.144 174.731 611.473 174.731C606.961 174.731 598.44 184.672 596.185 187.764C593.01 192.024 589.919 197.872 589.919 202.885C589.919 204.471 590.336 206.31 591.673 207.896C593.094 209.651 595.683 210.737 599.61 210.737C606.043 210.737 611.806 207.646 616.903 203.469C618.666 202.026 620.268 200.519 621.669 199.027C621.56 199.864 621.496 200.704 621.496 201.547C621.496 206.644 625.005 210.57 630.184 210.57C642.214 210.57 655.581 194.53 655.581 183.251C655.581 178.824 652.991 175.984 648.646 175.984V175.984ZM575.3 202.05C574.966 198.957 574.799 195.449 574.381 172.141C574.298 167.296 574.298 162.784 574.298 158.356C574.298 156.269 573.045 155.099 571.374 155.099C569.536 155.181 568.116 155.934 568.116 157.605C568.116 158.106 568.116 158.44 568.199 158.857C568.283 159.025 568.283 159.609 568.45 160.361C569.203 165.792 570.288 188.264 570.539 196.451C570.621 201.882 570.621 205.39 570.621 208.9C570.621 210.32 572.71 210.987 573.796 210.987C575.216 210.987 576.136 210.57 576.136 209.234C576.136 208.9 575.885 208.649 575.885 208.314C575.719 207.396 575.635 205.39 575.3 202.05V202.05ZM585.993 199.041C585.743 193.862 585.659 189.184 585.659 184.589C585.659 182.584 585.743 180.579 585.743 178.657C585.743 177.32 583.988 176.736 582.985 176.736C581.148 176.82 579.476 177.655 579.476 178.824C579.476 178.991 579.476 179.241 579.894 180.411C581.148 183.586 581.565 195.281 581.649 200.461V204.806C581.649 206.06 581.649 207.061 581.733 208.231C581.733 208.649 582.066 208.9 582.316 209.234C582.818 209.651 584.321 210.07 585.491 210.07C586.661 210.07 587.58 209.651 587.58 208.732C587.58 208.565 587.496 208.399 587.496 208.231C586.578 205.975 586.16 202.55 585.993 199.041V199.041ZM584.823 164.789C584.739 162.867 583.236 161.447 581.398 161.447C579.728 161.447 577.973 162.784 577.973 164.371C577.973 166.961 579.31 169.385 581.398 169.385C583.486 169.385 584.823 166.46 584.823 164.789ZM223.265 71.3562C229.653 65.755 237.653 61.3625 245.446 61.3625C257.641 61.3625 259.829 69.7575 259.829 80.3462V140.104H283.016V101.73C283.016 98.9312 282.616 72.155 282.211 70.35C288.409 65.3575 297.208 61.3625 304.798 61.3625C316.993 61.3625 319.794 69.5562 319.794 80.3462V140.104H343.774V84.5437C343.774 71.755 342.766 62.9587 338.983 55.5625C334.784 47.77 325.584 40.5725 311.005 40.5725C298.804 40.5725 285.81 44.9712 276.819 53.5662C272.226 45.9725 263.635 40.5725 251.44 40.5725C241.049 40.5725 230.249 44.7725 222.061 51.9662L221.86 43.1762H199.083V140.104H223.265V71.3562V71.3562ZM475.039 71.5525C480.038 65.5575 487.43 61.9575 494.228 61.9575C495.885 61.9575 499.686 62.3125 502.694 63.3337L506.019 41.9037C503.454 41.205 500.435 40.5725 498.029 40.5725C486.835 40.5725 480.038 45.5712 473.841 53.3612L473.644 43.1762H450.856V140.104H475.039V71.5525ZM647.57 69.1575C647.57 82.7412 656.764 91.5375 668.15 95.7325L683.944 101.73C692.146 104.925 695.936 107.924 695.936 113.522C695.936 120.115 689.938 124.112 681.143 124.112C672.284 124.112 660.761 120.066 652.17 116.537L646.608 134.242C655.369 138.044 667.099 142.497 680.541 142.497C700.929 142.497 719.113 132.507 719.113 111.524C719.113 98.535 710.724 90.34 700.13 85.945L682.144 78.5475C674.548 75.5475 672.344 72.75 672.344 68.3537C672.344 63.7575 676.545 59.1612 684.933 59.1612C693.208 59.1612 702.805 62.2825 710.269 65.4575L715.885 47.6875C705.599 43.1762 695.488 40.5725 683.741 40.5725C665.951 40.5725 647.57 49.5662 647.57 69.1575V69.1575ZM604.708 140.104H628.89V59.7625H641.446L650.633 43.1762H628.89V39.3725C628.89 27.7812 631.488 19.7887 643.475 19.7887C648.041 19.7887 654.62 21.0387 661.193 24.1262L664.223 5.45499C655.43 1.41374 646.1 -7.62939e-06 639.876 -7.62939e-06C619.893 -7.62939e-06 609.306 10.1937 606.108 26.9837C605.304 31.3825 604.708 36.5787 604.708 43.1762H590.839V59.7625H604.708V140.104V140.104ZM710.548 178.574C711.049 178.657 711.133 178.991 711.133 179.326C711.049 180.244 710.799 181.08 710.548 181.747C708.876 185.006 703.696 189.935 696.513 192.359C700.356 186.761 705.118 181.247 710.548 178.574V178.574ZM721.659 191.941C720.323 191.856 716.396 197.37 713.973 199.125C709.963 202.634 705.703 205.807 700.439 205.807C696.93 205.807 694.925 202.885 694.925 199.876C694.925 199.125 695.176 197.955 695.426 197.287C702.695 195.699 715.726 187.429 715.726 179.075C715.726 175.901 713.639 173.645 710.881 173.645C705.535 173.645 697.683 183.001 695.426 186.175C693.579 188.832 691.713 192.09 690.723 195.392C688.67 198.494 686.854 201.465 684.651 201.465C683.731 201.465 683.398 199.709 683.314 199.209C682.479 194.614 682.311 184.505 682.311 182.584C682.311 181.33 682.144 179.826 681.393 178.657C680.808 177.737 680.139 177.237 678.719 177.237C674.543 177.237 668.025 187.346 664.266 196.952C663.431 187.596 663.096 180.912 663.096 180.077C663.014 177.905 661.844 177.154 660.005 177.154C658.669 177.154 657.333 178.072 657.333 179.494C658.419 187.764 659.671 195.281 659.671 203.051C659.671 204.054 659.588 204.972 659.588 205.975C659.671 207.562 660.256 208.982 661.844 208.982C663.264 208.9 663.849 208.732 664.35 207.646C665.185 205.975 665.603 204.471 668.444 197.287C670.699 191.522 675.294 183.419 677.131 183.419C677.716 183.419 677.716 185.257 677.716 186.677C677.8 193.026 677.884 206.226 683.731 206.226C685.66 206.226 687.101 206.207 690.095 201.64C690.328 203.897 690.986 205.53 691.918 206.727C694.258 209.15 697.014 209.902 699.77 209.902C705.368 209.902 711.216 206.644 715.894 202.55C718.484 200.379 719.988 198.54 721.659 196.369C722.578 195.115 723.079 194.03 723.079 193.277C723.079 192.274 722.076 191.941 721.659 191.941V191.941ZM548.658 59.1612C560.854 59.1612 566.848 68.7537 567.251 79.1462V80.545H526.395C528.238 69.0887 535.966 59.1612 548.658 59.1612V59.1612ZM554.466 123.114C538.671 123.114 527.484 112.524 525.886 97.1362H591.03V88.34C591.03 74.75 588.431 62.16 579.245 52.5637C572.245 45.1725 562.254 40.5725 550.069 40.5725C520.281 40.5725 500.501 61.3625 500.501 91.3387C500.501 122.519 519.084 142.497 550.468 142.497C562.04 142.497 574.82 140.631 587.94 134.401L583.056 116.544C575.428 120.334 563.884 123.114 554.466 123.114ZM344.156 173.477C342.736 173.561 339.729 174.062 329.704 176.485C330.204 170.887 330.873 168.381 330.873 166.376C330.873 165.124 329.786 164.204 328.534 164.204C326.529 164.204 325.526 165.29 325.276 166.877C324.524 171.474 324.69 175.482 324.608 177.571L318.174 179.576C315.334 180.161 314.164 180.912 314.164 182C314.164 183.169 315.585 184.171 316.588 184.171C318.008 184.171 319.178 183.251 324.69 181.915C324.941 188.932 325.776 198.04 326.194 204.471V205.056C326.194 207.312 327.114 208.732 329.119 208.732C331.04 208.732 333.546 206.727 333.546 204.806C333.546 204.304 333.045 204.221 332.794 204.221C332.293 204.221 332.126 204.304 332.043 204.304C331.291 204.304 330.789 202.3 330.539 200.461C329.87 196.034 329.62 189.1 329.62 180.746C335.301 179.409 339.228 178.322 344.658 178.322C345.828 178.322 347.414 177.905 347.414 176.652C347.414 174.814 346.078 173.477 344.156 173.477V173.477ZM281.584 178.574C282.085 178.657 282.169 178.991 282.169 179.326C282.085 180.244 281.835 181.08 281.584 181.747C279.914 185.006 274.734 189.935 267.549 192.359C271.393 186.761 276.154 181.247 281.584 178.574V178.574ZM308.15 178.574C308.651 178.657 308.735 178.991 308.735 179.326C308.651 180.244 308.401 181.08 308.15 181.747C306.479 185.006 301.299 189.935 294.115 192.359C297.959 186.761 302.72 181.247 308.15 178.574V178.574ZM319.261 191.941C317.925 191.856 313.999 197.37 311.575 199.125C307.565 202.634 303.305 205.807 298.041 205.807C294.533 205.807 292.528 202.885 292.528 199.876C292.528 199.125 292.779 197.955 293.029 197.287C300.298 195.699 313.329 187.429 313.329 179.075C313.329 175.901 311.241 173.645 308.484 173.645C303.138 173.645 295.285 183.001 293.029 186.175C291.048 189.025 289.026 192.561 288.109 196.106C287.008 197.311 285.905 198.475 285.009 199.125C280.999 202.634 276.739 205.807 271.475 205.807C267.966 205.807 265.961 202.885 265.961 199.876C265.961 199.125 266.213 197.955 266.463 197.287C273.731 195.699 286.764 187.429 286.764 179.075C286.764 175.901 284.675 173.645 281.919 173.645C276.571 173.645 268.719 183.001 266.463 186.175C264.593 188.866 262.701 192.17 261.723 195.514C261.715 195.522 261.711 195.526 261.704 195.534C259.198 198.791 257.528 202.55 255.689 202.634C254.686 202.801 253.015 195.699 252.181 189.601C251.511 184.756 250.928 178.657 249.34 175.984C248.671 174.814 247.251 174.062 246.165 174.062C240.15 174.647 237.143 194.03 234.053 199.376C231.128 191.021 230.209 181.164 229.123 175.649C228.455 172.141 227.451 168.632 223.776 168.632C221.604 168.632 219.766 170.302 218.179 174.897C217.009 178.49 214.586 188.349 212.248 195.951C210.744 200.712 209.324 205.975 208.488 205.892C208.321 204.137 207.988 202.132 207.82 199.794C207.319 192.692 205.648 182.332 205.146 169.134C205.063 167.714 203.309 167.211 201.304 167.211C201.304 167.211 198.796 167.462 198.796 169.467C198.796 170.386 198.964 171.139 199.131 171.806C199.968 176.401 202.556 194.112 203.141 202.215C203.391 205.975 203.643 209.902 204.478 212.409C205.146 214.497 207.151 214.831 208.989 214.831C209.825 214.831 210.576 214.162 211.078 212.575C222.273 177.905 222.94 175.901 223.441 175.901C224.361 175.901 226.784 205.725 233.049 205.725C234.97 205.725 235.806 205.39 237.644 201.715C239.064 198.875 243.074 183.419 245.163 180.662C248.171 186.51 247.836 207.814 254.269 207.814C256.251 207.814 257.789 206.799 261.074 201.031C261.241 203.614 261.94 205.424 262.954 206.727C265.294 209.15 268.05 209.902 270.806 209.902C276.404 209.902 282.253 206.644 286.93 202.55C287.208 202.317 287.465 202.092 287.719 201.866C287.971 204.009 288.619 205.569 289.52 206.727C291.86 209.15 294.616 209.902 297.373 209.902C302.97 209.902 308.819 206.644 313.496 202.55C316.086 200.379 317.59 198.54 319.261 196.369C320.18 195.115 320.681 194.03 320.681 193.277C320.681 192.274 319.679 191.941 319.261 191.941V191.941ZM790.221 109.122C787.225 115.322 778.831 122.715 769.036 122.715C754.249 122.715 747.861 108.524 747.861 91.7362C747.861 70.7537 758.251 60.3587 770.436 60.3587C778.038 60.3587 786.224 64.7587 790.221 70.5487V109.122ZM792.021 43.1762L791.621 52.1662C786.629 45.3712 776.633 40.5725 766.039 40.5725C743.656 40.5725 722.875 58.7625 722.875 93.3375C722.875 119.314 735.66 142.497 763.846 142.497C774.084 142.497 786.034 136.612 791.671 129.832L792.021 140.104H814.41V43.1762H792.021V43.1762Z" fill="#444443"/>
<path d="M88.5925 7.45724C70.7588 7.46849 55.7863 10.3497 44.0775 16.021C16.0663 28.5772 0 55.0135 0 88.5872C0 125.155 23.395 167.856 89.315 167.856C109.795 167.843 126.409 164.07 138.719 156.635C163.274 143.321 177.919 117.918 177.919 88.5872C177.919 49.366 154.459 7.45724 88.5925 7.45724Z" fill="#D32124"/>
<path d="M15.3009 88.5876C15.3009 64.4076 25.1071 41.1864 50.5521 29.8926C64.7871 22.9126 82.6921 22.7639 88.5984 22.7614C143.395 22.7614 162.606 54.7339 162.606 88.5876C162.606 106.46 155.283 130.433 131.106 143.358C116.451 152.371 95.7409 152.545 89.3146 152.55C30.4434 152.55 15.3009 114.275 15.3009 88.5876ZM88.9584 131.791L90.9659 131.771C106.612 131.446 121.793 127.249 121.793 116.311C121.793 90.6776 31.2809 110.898 31.2809 59.8451C31.2809 58.2001 31.3784 56.6289 31.5596 55.1301C30.0996 58.8001 29.2796 63.0189 29.2796 67.8814C29.2796 78.6214 33.2821 86.2101 39.6146 91.7326C41.7859 123.095 66.8434 131.791 88.9584 131.791V131.791ZM146.348 120.178C147.813 116.506 148.628 112.284 148.628 107.423C148.628 97.0289 144.663 89.6926 138.391 84.3339C137.046 56.5514 116.26 43.5089 88.9584 43.5089L86.9409 43.5364C71.2896 43.8626 56.1196 48.0564 56.1196 58.9914C56.1196 85.7139 146.627 65.8526 146.627 115.461C146.627 117.103 146.54 118.676 146.348 120.178Z" fill="white"/>
</svg>
