<?xml version="1.0" encoding="utf-8"?>
<!-- Generator: Adobe Illustrator 21.0.2, SVG Export Plug-In . SVG Version: 6.00 Build 0)  -->
<svg version="1.1" id="Laag_1" xmlns="http://www.w3.org/2000/svg" xmlns:xlink="http://www.w3.org/1999/xlink" x="0px" y="0px"
	 viewBox="0 0 324.1 161" style="enable-background:new 0 0 324.1 161;" xml:space="preserve">
<style type="text/css">
	.st0{fill:#00578B;}
	.st1{fill:url(#SVGID_1_);}
	.st2{fill:url(#SVGID_2_);}
	.st3{fill:url(#SVGID_3_);}
	.st4{fill:url(#SVGID_4_);}
	.st5{fill:url(#SVGID_5_);}
	.st6{fill:url(#SVGID_6_);}
</style>
<g>
	<path class="st0" d="M6.6,56.8C19.9,19.3,88.6-4,177.9,9.3c28.4,4.2,58.1,9.5,80.2,19.1c-22.9-10.6-53.2-20.1-83.7-24.7
		C86.2-9.4,8.5,13.7,0.6,55.4C-1.6,67.6,2.3,80,11.2,91.8C3.9,80.9,3,66.8,6.6,56.8"/>
	<path class="st0" d="M317.5,104.2c-13.3,37.5-82,60.8-171.3,47.5c-28.4-4.2-58.1-9.5-80.2-19.1c22.9,10.6,53.2,20.1,83.7,24.7
		c88.1,13.1,165.8-10.1,173.7-51.8c2.3-12.2-1.7-24.6-10.6-36.4C320.2,80.1,321.1,94.2,317.5,104.2"/>
	<path d="M70.8,114.9h4c1.1,0,1.9,0.3,2.5,0.9c0.4,0.4,0.6,0.9,0.6,1.6v0c0,1.3-0.8,2-1.5,2.3c1.1,0.4,2,1,2,2.4v0
		c0,1.7-1.4,2.7-3.4,2.7h-4.2V114.9z M76.9,117.6c0-1-0.7-1.6-2.1-1.6h-2.9v3.4h2.8C76,119.4,76.9,118.7,76.9,117.6L76.9,117.6z
		 M74.9,120.3h-3v3.5h3.2c1.4,0,2.3-0.7,2.3-1.8v0C77.4,121,76.5,120.3,74.9,120.3z"/>
	<path d="M82.8,114.9h4.1c1.2,0,2.1,0.4,2.7,1c0.5,0.5,0.7,1.2,0.7,2v0c0,1.6-1.1,2.6-2.6,2.9l2.9,4h-1.3l-2.8-3.8h-2.7v3.8h-1.1
		V114.9z M86.8,120c1.4,0,2.4-0.8,2.4-2v0c0-1.2-0.9-2-2.4-2h-2.9v4H86.8z"/>
	<path d="M94.8,114.9h6.9v1h-5.8v3.4h5.2v1h-5.2v3.5h5.9v1h-6.9V114.9z"/>
	<path d="M109.6,114.9h1l4.3,10h-1.2l-1.1-2.6h-5.2l-1.1,2.6h-1.1L109.6,114.9z M112.2,121.2l-2.2-5l-2.2,5H112.2z"/>
	<path d="M118.9,114.9h1.1v5.9l5.5-5.9h1.4l-4.1,4.3l4.2,5.6h-1.3L122,120l-2,2.1v2.7h-1.1V114.9z"/>
	<path d="M130.9,114.9h6.8v1H132v3.5h5.1v1H132v4.3h-1.1V114.9z"/>
	<path d="M144.4,114.9h1l4.3,10h-1.2l-1.1-2.6h-5.2l-1.1,2.6h-1.1L144.4,114.9z M147,121.2l-2.2-5l-2.2,5H147z"/>
	<path d="M152.9,123.4l0.7-0.8c1,0.9,1.9,1.4,3.3,1.4c1.3,0,2.1-0.7,2.1-1.7v0c0-0.9-0.5-1.4-2.5-1.9c-2.2-0.5-3.2-1.2-3.2-2.9v0
		c0-1.6,1.3-2.7,3.1-2.7c1.4,0,2.4,0.4,3.3,1.2l-0.6,0.9c-0.9-0.7-1.8-1.1-2.7-1.1c-1.2,0-2,0.7-2,1.6v0c0,0.9,0.5,1.5,2.6,1.9
		c2.1,0.5,3.1,1.3,3.1,2.8v0c0,1.7-1.4,2.8-3.2,2.8C155.3,125,154.1,124.5,152.9,123.4z"/>
	<path d="M166.7,116h-3.2v-1h7.5v1h-3.2v8.9h-1.1V116z"/>
	<path d="M181,119.9L181,119.9c0-2.8,2-5.1,4.8-5.1c1.7,0,2.8,0.6,3.7,1.6l-0.7,0.8c-0.8-0.8-1.7-1.4-3-1.4c-2.1,0-3.7,1.8-3.7,4.1
		v0c0,2.3,1.6,4.1,3.7,4.1c1.3,0,2.2-0.5,3.1-1.4l0.7,0.7c-1,1-2.1,1.7-3.8,1.7C183,125,181,122.8,181,119.9z"/>
	<path d="M193.6,114.9h6.9v1h-5.8v3.4h5.2v1h-5.2v3.5h5.9v1h-6.9V114.9z"/>
	<path d="M204.9,114.9h4.1c1.2,0,2.1,0.4,2.7,1c0.5,0.5,0.7,1.2,0.7,2v0c0,1.6-1.1,2.6-2.6,2.9l2.9,4h-1.3l-2.8-3.8H206v3.8h-1.1
		V114.9z M208.9,120c1.4,0,2.4-0.8,2.4-2v0c0-1.2-0.9-2-2.4-2H206v4H208.9z"/>
	<path d="M216.9,114.9h6.9v1h-5.8v3.4h5.2v1h-5.2v3.5h5.9v1h-6.9V114.9z"/>
	<path d="M231.7,114.9h1l4.3,10h-1.2l-1.1-2.6h-5.2l-1.1,2.6h-1.1L231.7,114.9z M234.3,121.2l-2.2-5l-2.2,5H234.3z"/>
	<path d="M241,114.9h1.1v8.9h5.3v1H241V114.9z"/>
	<path d="M251,123.4l0.7-0.8c1,0.9,1.9,1.4,3.3,1.4c1.3,0,2.1-0.7,2.1-1.7v0c0-0.9-0.5-1.4-2.5-1.9c-2.2-0.5-3.2-1.2-3.2-2.9v0
		c0-1.6,1.3-2.7,3.1-2.7c1.4,0,2.4,0.4,3.3,1.2l-0.6,0.9c-0.9-0.7-1.8-1.1-2.7-1.1c-1.2,0-2,0.7-2,1.6v0c0,0.9,0.5,1.5,2.6,1.9
		c2.1,0.5,3.1,1.3,3.1,2.8v0c0,1.7-1.4,2.8-3.2,2.8C253.4,125,252.1,124.5,251,123.4z"/>
	<path class="st0" d="M107.4,84l-4.9-28.3c-1.2-6.6-5.1-7.9-8.3-7.9c-6.3,0-7.6,3.6-10.8,13.5l-6.1,18.9h-0.2L71,61.4
		c-3.2-9.9-4.6-13.5-10.8-13.5c-3.2,0-7.1,1.3-8.3,7.9L47,84c-1,5.7-2.1,12-2.1,13.8c0,2.8,2.2,5.9,5.9,5.9c5.6,0,6.6-4,7.3-8.3
		l3.7-24.4h0.2l8.4,27c1.2,4,3.1,5.6,6.9,5.6c3.8,0,5.6-1.6,6.9-5.6l8.4-27h0.2l3.7,24.4c0.6,4.2,1.6,8.3,7.3,8.3c0.2,0,0.4,0,0.5,0
		l0,0l6.3,0l-1-6C109.4,95.9,108.4,89.7,107.4,84z"/>
	<path class="st0" d="M138,73.4v4.2l0,0.1v8.7c0,5.9-2.5,7.7-5.5,7.7c-3.6,0-6.1-1.7-6.1-7.2V73.4c0-5.7-2.5-7.7-8.1-7.7H113v20.7
		c0,12,6.6,18,18.8,18c11.5,0,19.2-5.6,19.2-17.6v-0.5l0,0V65.7H146C140.8,65.7,138,67.9,138,73.4z"/>
	<path class="st0" d="M162.7,43.9L162.7,43.9l-0.2,0c-0.1,0-0.2,0-0.2,0c-0.1,0-0.2,0-0.2,0h-5.8v6c0,0.1,0,0.2,0,0.2v47.4
		c0,3.3,2.3,6,5.6,6.2v0h0.3c0,0,0.1,0,0.1,0c0,0,0.1,0,0.1,0h5.9v-5.9c0-0.1,0-0.2,0-0.3V50.1C168.3,46.8,166,44.1,162.7,43.9z"/>
	<path class="st0" d="M207.1,43.9L207.1,43.9l-0.2,0c-0.1,0-0.2,0-0.2,0c-0.1,0-0.2,0-0.2,0h-5.8v5.7c0,0.2,0,0.3,0,0.5v14.3
		c-2.2-1.8-4.8-3.4-10-3.4c-10.5,0-18.6,9.7-18.6,21.8c0,12.1,8.1,21.8,18.6,21.8c4.6,0,7.6-1.3,10.4-4.6c0.8,1.8,2.5,3.6,5.2,3.8v0
		h0.4c0,0,0,0,0.1,0c0,0,0.1,0,0.1,0h5.9v-5.5c0-0.2,0-0.5,0-0.7V50.1C212.7,46.8,210.4,44.1,207.1,43.9z M192.4,93
		c-5.3,0-8.3-4.6-8.3-10.2c0-5.6,2.9-10.2,8.3-10.2c5.3,0,8.3,4.6,8.3,10.2C200.6,88.3,197.7,93,192.4,93z"/>
	<path class="st0" d="M257,81.5C257,71,249.4,61,237.5,61c-12.4,0-21.1,10.2-21.1,21.8c0,12.1,8.1,21.8,21.1,21.8
		c9.1,0,18.9-3.9,18.9-9.7c0-3.1-2.3-5.2-5-5.2c-2.8,0-6.4,3.8-12.4,3.8c-7.7,0-9.7-4.2-9.7-6.7h21.8C255,86.7,257,85.7,257,81.5z
		 M229.4,78.4c0-2.7,3.1-7.3,7.8-7.3c4.7,0,7.8,4.6,7.8,7.3H229.4z"/>
	<path class="st0" d="M278.8,60.5c-0.9-0.2-1.9-0.3-2.9-0.3c-0.5,0-1,0-1.4,0c-1.2,0-2.5,0.1-3.8,0.4c-9.3,1.8-10.1,10.5-10.1,13.1
		c0,0.7,0,1.3,0,1.6c0,0.5,0,1,0,1.6c0,0,0,0.1,0,0.1l0,4.4l0,0v16.1c0,3.3,2.3,6,5.6,6.2v0h0.3c0,0,0.1,0,0.1,0c0,0,0.1,0,0.1,0
		h5.9v-5.9c0-0.1,0-0.2,0-0.3V78.3c0-0.1,0-0.2,0-0.2c0-1.5,0.1-2.8,0.5-3.9c0.6-1.1,1.9-2,4.2-1.2c3.3,1.1,6.8-0.5,7.8-3.9
		c0.3-1,0.6-1.9,0.8-2.6l0,0l1-3.2C285.1,62.2,282.2,61,278.8,60.5z"/>
	<g>
		<linearGradient id="SVGID_1_" gradientUnits="userSpaceOnUse" x1="125.6789" y1="61.1286" x2="125.6789" y2="22.6213">
			<stop  offset="0" style="stop-color:#FED377"/>
			<stop  offset="0.5018" style="stop-color:#F39100"/>
			<stop  offset="1" style="stop-color:#E8470A"/>
		</linearGradient>
		<path class="st1" d="M130.3,61.4c-2.1,0-4.4-0.7-6.2-2.2c-3.4-2.7-4.6-7.2-3.1-10.7c2.1,0,4.4,0.7,6.2,2.2
			C130.7,53.5,131.9,57.9,130.3,61.4z"/>
		<linearGradient id="SVGID_2_" gradientUnits="userSpaceOnUse" x1="125.6789" y1="61.1286" x2="125.6789" y2="22.6213">
			<stop  offset="0" style="stop-color:#FED377"/>
			<stop  offset="0.5018" style="stop-color:#F39100"/>
			<stop  offset="1" style="stop-color:#E8470A"/>
		</linearGradient>
		<path class="st2" d="M130.3,48.6c-2.1,0-4.4-0.7-6.2-2.2c-3.4-2.7-4.6-7.2-3.1-10.7c2.1,0,4.4,0.7,6.2,2.2
			C130.7,40.7,131.9,45.1,130.3,48.6z"/>
		<linearGradient id="SVGID_3_" gradientUnits="userSpaceOnUse" x1="125.6789" y1="61.1286" x2="125.6789" y2="22.6213">
			<stop  offset="0" style="stop-color:#FED377"/>
			<stop  offset="0.5018" style="stop-color:#F39100"/>
			<stop  offset="1" style="stop-color:#E8470A"/>
		</linearGradient>
		<path class="st3" d="M130.3,35.9c-2.1,0-4.4-0.7-6.2-2.2c-3.4-2.7-4.6-7.2-3.1-10.7c2.1,0,4.4,0.7,6.2,2.2
			C130.7,28,131.9,32.4,130.3,35.9z"/>
		<linearGradient id="SVGID_4_" gradientUnits="userSpaceOnUse" x1="138.4415" y1="61.1286" x2="138.4415" y2="22.6213">
			<stop  offset="0" style="stop-color:#FED377"/>
			<stop  offset="0.5018" style="stop-color:#F39100"/>
			<stop  offset="1" style="stop-color:#E8470A"/>
		</linearGradient>
		<path class="st4" d="M140,59.1c-1.9,1.5-4.1,2.3-6.2,2.3c-1.5-3.5-0.4-7.9,3.1-10.7c1.9-1.5,4.1-2.3,6.2-2.3
			C144.6,51.9,143.5,56.3,140,59.1z"/>
		<linearGradient id="SVGID_5_" gradientUnits="userSpaceOnUse" x1="138.4415" y1="61.1286" x2="138.4415" y2="22.6213">
			<stop  offset="0" style="stop-color:#FED377"/>
			<stop  offset="0.5018" style="stop-color:#F39100"/>
			<stop  offset="1" style="stop-color:#E8470A"/>
		</linearGradient>
		<path class="st5" d="M140,46.3c-1.9,1.5-4.1,2.3-6.2,2.3c-1.5-3.5-0.4-7.9,3.1-10.7c1.9-1.5,4.1-2.3,6.2-2.3
			C144.6,39.1,143.5,43.6,140,46.3z"/>
		<linearGradient id="SVGID_6_" gradientUnits="userSpaceOnUse" x1="138.4415" y1="61.1286" x2="138.4415" y2="22.6213">
			<stop  offset="0" style="stop-color:#FED377"/>
			<stop  offset="0.5018" style="stop-color:#F39100"/>
			<stop  offset="1" style="stop-color:#E8470A"/>
		</linearGradient>
		<path class="st6" d="M140,33.6c-1.9,1.5-4.1,2.3-6.2,2.3c-1.5-3.5-0.4-7.9,3.1-10.7c1.9-1.5,4.1-2.3,6.2-2.3
			C144.6,26.4,143.5,30.9,140,33.6z"/>
	</g>
</g>
</svg>
