<?xml version="1.0" encoding="utf-8"?>
<!-- Generator: Adobe Illustrator 23.0.1, SVG Export Plug-In . SVG Version: 6.00 Build 0)  -->
<svg version="1.1" id="Layer_1" xmlns="http://www.w3.org/2000/svg" xmlns:xlink="http://www.w3.org/1999/xlink" x="0px" y="0px"
	 viewBox="0 0 491.05 235.21" style="enable-background:new 0 0 491.05 235.21;" xml:space="preserve">
<style type="text/css">
	.st0{fill:#FFE400;}
	.st1{fill:#0070BA;}
	.st2{fill:#FFFFFF;stroke:#FFFFFF;stroke-width:2.4284;}
</style>
<g>
	<path class="st0" d="M407.39,70.79h-0.02c0,0,0,0,0,0c-12.71,1.44-25.4,3.14-38.11,4.92c2.48-3.7,3.83-11.34,4.26-28.54
		c0.45-18.71-4.2-29.76-12.19-29.69c-23.42,0.17-55.82,0.82-92.76,4.39c-4.62-11.8-11.84-22.31-22.48-21.84
		c-19.71,0.88-38.94,5.74-57.66,10.8c-23.97,6.5-47.52,14.52-70.62,23.4c-7.02,2.7-9.95,16.38-10.94,22.94
		c-0.03,0.2-0.05,0.41-0.08,0.61c-1.6,0.61-3.21,1.27-4.81,1.9c0-0.01-0.01-0.01-0.01-0.02c-0.07,0.04-0.16,0.07-0.26,0.12
		c-0.91,0.36-1.81,0.72-2.72,1.08c0.01,0.04,0.01,0.1,0.01,0.14c-15.38,6.93-79.75,36.26-90.79,41.76
		c-20.19,10.06,2.08,71.94,10.63,67.3c4.93-2.69,31.58-14.5,31.58-14.5s18.22-7.08,35.48-14.2c-2.99,15.46-4.21,40.69-3.33,47.1
		c1.48,10.81,6.84,27.66,20.65,23.46c27.06-8.24,53.86-16.48,80.58-24.49h5.45c0.88,4.34,2.71,9.07,4.57,14.47
		c8.3,24.16,15.1,38.5,33.4,31.6c40.41-15.25,54.03-21.42,95.77-30.29c33.22-7.06,66.97-10.57,100.83-12.61
		c14.06-0.85,16.79-23.34,16.79-33.54c0-2.95-0.33-7.79-1.29-12.89c13.1-3.91,26.22-7.76,39.36-11.55
		c10.45-3.01,12.33-24.27,12.33-32.37c0-9.57-2.79-33.5-16.79-33.58c-6.51-0.03-36.2,2.06-54.17,3.29L407.39,70.79z"/>
	<g>
		<path class="st1" d="M192.04,158.53h-3.57v-1.29h8.69v1.29h-3.58v10.44h-1.53V158.53z"/>
		<path class="st1" d="M200.67,157.25v4.91h5.68v-4.91h1.53v11.73h-1.53v-5.49h-5.68v5.49h-1.53v-11.73H200.67z"/>
		<path class="st1" d="M217.26,163.48h-4.55v4.22h5.08v1.27h-6.61v-11.73h6.36v1.27h-4.83v3.71h4.55V163.48z"/>
		<path class="st1" d="M226.38,157.25v4.91h5.67v-4.91h1.53v11.73h-1.53v-5.49h-5.67v5.49h-1.53v-11.73H226.38z"/>
		<path class="st1" d="M238.81,165.29l-1.22,3.69h-1.57l4-11.73h1.82l4,11.73h-1.62l-1.25-3.69H238.81z M242.67,164.11l-1.16-3.38
			c-0.27-0.77-0.44-1.47-0.62-2.14h-0.03c-0.17,0.67-0.35,1.41-0.59,2.12l-1.15,3.4H242.67z"/>
		<path class="st1" d="M248.26,157.39c0.73-0.12,1.69-0.22,2.91-0.22c1.49,0,2.59,0.35,3.29,0.97c0.63,0.56,1.03,1.41,1.03,2.46
			c0,1.06-0.31,1.9-0.9,2.51c-0.82,0.85-2.11,1.29-3.59,1.29c-0.45,0-0.87-0.02-1.22-0.11v4.7h-1.52V157.39z M249.77,163.05
			c0.33,0.09,0.75,0.12,1.26,0.12c1.83,0,2.94-0.9,2.94-2.49c0-1.57-1.11-2.31-2.76-2.31c-0.67,0-1.17,0.05-1.43,0.12V163.05z"/>
		<path class="st1" d="M258.21,157.39c0.74-0.12,1.69-0.22,2.92-0.22c1.49,0,2.59,0.35,3.29,0.97c0.63,0.56,1.03,1.41,1.03,2.46
			c0,1.06-0.32,1.9-0.9,2.51c-0.83,0.85-2.11,1.29-3.59,1.29c-0.46,0-0.87-0.02-1.22-0.11v4.7h-1.52V157.39z M259.73,163.05
			c0.33,0.09,0.75,0.12,1.25,0.12c1.83,0,2.95-0.9,2.95-2.49c0-1.57-1.12-2.31-2.77-2.31c-0.66,0-1.16,0.05-1.43,0.12V163.05z"/>
		<path class="st1" d="M270.63,168.97V164l-3.72-6.76h1.74l1.65,3.24c0.44,0.89,0.8,1.6,1.17,2.42h0.04
			c0.31-0.77,0.72-1.53,1.18-2.42l1.69-3.24h1.7l-3.91,6.74v4.99H270.63z"/>
		<path class="st1" d="M282.53,157.39c0.73-0.12,1.69-0.22,2.91-0.22c1.5,0,2.59,0.35,3.29,0.97c0.63,0.56,1.03,1.41,1.03,2.46
			c0,1.06-0.32,1.9-0.9,2.51c-0.82,0.85-2.11,1.29-3.59,1.29c-0.46,0-0.88-0.02-1.22-0.11v4.7h-1.51V157.39z M284.04,163.05
			c0.34,0.09,0.75,0.12,1.26,0.12c1.82,0,2.94-0.9,2.94-2.49c0-1.57-1.12-2.31-2.77-2.31c-0.66,0-1.16,0.05-1.43,0.12V163.05z"/>
		<path class="st1" d="M302.52,162.99c0,4.01-2.45,6.17-5.44,6.17c-3.13,0-5.29-2.42-5.29-5.96c0-3.72,2.31-6.17,5.44-6.17
			C300.44,157.04,302.52,159.5,302.52,162.99z M293.39,163.17c0,2.52,1.36,4.77,3.76,4.77c2.41,0,3.77-2.21,3.77-4.87
			c0-2.35-1.22-4.79-3.75-4.79C294.64,158.27,293.39,160.61,293.39,163.17z"/>
		<path class="st1" d="M306.97,158.53h-3.56v-1.29h8.69v1.29h-3.59v10.44h-1.54V158.53z"/>
		<path class="st1" d="M314.7,165.29l-1.23,3.69h-1.57l4.01-11.73h1.81l4,11.73h-1.62l-1.25-3.69H314.7z M318.56,164.11l-1.17-3.38
			c-0.26-0.77-0.43-1.47-0.61-2.14h-0.03c-0.18,0.67-0.35,1.41-0.59,2.12l-1.14,3.4H318.56z"/>
		<path class="st1" d="M325.03,158.53h-3.57v-1.29h8.69v1.29h-3.59v10.44h-1.54V158.53z"/>
		<path class="st1" d="M341.71,162.99c0,4.01-2.45,6.17-5.45,6.17c-3.12,0-5.27-2.42-5.27-5.96c0-3.72,2.3-6.17,5.43-6.17
			C339.65,157.04,341.71,159.5,341.71,162.99z M332.59,163.17c0,2.52,1.35,4.77,3.76,4.77c2.4,0,3.76-2.21,3.76-4.87
			c0-2.35-1.22-4.79-3.74-4.79C333.84,158.27,332.59,160.61,332.59,163.17z"/>
		<path class="st1" d="M348.75,157.25h6.32v1.27h-4.79v3.91h4.42v1.25h-4.42v5.3h-1.54V157.25z"/>
		<path class="st1" d="M358.48,165.29l-1.22,3.69h-1.57l4-11.73h1.82l4,11.73h-1.62l-1.26-3.69H358.48z M362.35,164.11l-1.17-3.38
			c-0.26-0.77-0.43-1.47-0.61-2.14h-0.04c-0.17,0.67-0.34,1.41-0.59,2.12l-1.15,3.4H362.35z"/>
		<path class="st1" d="M377.76,163.83c-0.08-1.63-0.19-3.62-0.19-5.07h-0.03c-0.42,1.36-0.89,2.84-1.48,4.46l-2.07,5.68h-1.15
			l-1.92-5.58c-0.56-1.67-1.01-3.17-1.34-4.56h-0.04c-0.03,1.47-0.12,3.41-0.22,5.19l-0.31,5.02h-1.45l0.82-11.73h1.93l2.01,5.68
			c0.48,1.45,0.87,2.73,1.18,3.95h0.04c0.31-1.18,0.72-2.47,1.25-3.95l2.09-5.68h1.93l0.73,11.73h-1.5L377.76,163.83z"/>
		<path class="st1" d="M384.08,157.25v11.73h-1.54v-11.73H384.08z"/>
		<path class="st1" d="M387.41,157.25h1.53v10.46h5.01v1.27h-6.54V157.25z"/>
		<path class="st1" d="M397.49,168.97V164l-3.72-6.76h1.74l1.66,3.24c0.43,0.89,0.8,1.6,1.17,2.42h0.04
			c0.31-0.77,0.73-1.53,1.18-2.42l1.69-3.24h1.7l-3.92,6.74v4.99H397.49z"/>
	</g>
	<g>
		<g>
			<path class="st2" d="M135.78,154.46c4.23,0,7.96-2.58,10.14-7.99l2.05-4.79l-20.52-47.04c-0.73-1.84-1.57-2.21-3.26-2.21h-1.81
				V79.17h10.14c4.35,0,6.51,1.6,8.09,5.9l12.06,31.31c1.21,3.2,2.17,8.35,2.17,8.35h0.24c0,0,0.96-5.15,2.05-8.35l10.5-31.31
				c1.45-4.3,3.98-5.9,8.2-5.9h10.42v13.27h-1.85c-1.81,0-2.78,0.37-3.51,2.21l-22.08,56.62c-4.35,11.31-13.04,16.33-22.21,16.33
				c-9.65,0-15.57-6.38-15.57-6.38l5.92-11.06C126.97,150.15,130.71,154.46,135.78,154.46z"/>
			<g>
				<g>
					<path class="st2" d="M397.29,79.4c17.61,0,27.27,13.15,27.27,29.73c0,1.84-0.36,5.77-0.36,5.77h-42.48
						c1.2,11.06,9.17,16.83,18.46,16.83c9.9,0,17.26-7,17.26-7l6.4,10.81c0,0-9.42,9.46-24.74,9.46c-20.4,0-33.07-14.98-33.07-32.79
						C366.03,92.92,378.82,79.4,397.29,79.4z M408.88,104.09c-0.24-7.49-5.31-12.65-11.59-12.65c-7.84,0-13.4,4.79-15.08,12.65
						H408.88z"/>
					<path class="st2" d="M283.95,88.64c-0.16-5.35-2.6-7.76-8.07-7.76h-14.6v13.27h4.83c1.69,0,2.66,0.86,2.66,2.7v38.32
						c0,5.89,2.41,8.35,8.08,8.35h7.1V88.64z"/>
					<path class="st2" d="M268.63,64.05c0-4.27,3.46-7.73,7.73-7.73c4.27,0,7.74,3.46,7.74,7.73c0,4.27-3.47,7.73-7.74,7.73
						C272.09,71.78,268.63,68.32,268.63,64.05z"/>
					<path class="st2" d="M332.92,79.4c-13.03,0-18.46,8.72-18.46,8.72h-0.24c0,0,0.24-2.21,0.24-5.28v-3.83v-1.71v-5.03
						c0-0.25,0.02-0.48,0.05-0.69V56.31h-7.17c-5.67,0-8.21,2.58-8.21,8.35v14.35v1.86v40.72h0v5.77c0,0.1-0.04,0.17-0.04,0.27v15.7
						h7.16c4.92,0,7.49-1.95,8.08-6.24c1.84,2.27,7.43,7.89,17.63,7.89c16.3,0,28.24-12.89,28.24-32.79
						C360.2,92.79,349.57,79.4,332.92,79.4z M329.3,131.85c-10.26,0-15.32-9.59-15.32-19.28c0-13.88,7.48-19.78,15.44-19.78
						c9.06,0,15.33,7.74,15.33,19.65C344.75,124.85,337.63,131.85,329.3,131.85z"/>
					<path class="st2" d="M451.66,130.38c-1.69,0-2.66-0.99-2.66-2.7V71.83c0,0,0,0,0,0V56.31h-7.14c-5.67,0-8.2,2.58-8.2,8.35
						v12.55c0,0,0.01,0,0.02,0v57.95c0,5.89,2.41,8.35,8.2,8.35h14.48v-13.14H451.66z"/>
				</g>
				<path class="st2" d="M249.67,72.01V56.31h-7.16c-5.67,0-8.2,2.58-8.2,8.35v12.47c0.01,0,0.02-0.01,0.04-0.02v6.21
					c0,2.09,0.13,3.68,0.13,3.68h-0.25c0,0-4.34-7.62-17.74-7.62c-16.29,0-27.99,12.9-27.99,32.79c0,19.41,10.74,32.79,27.39,32.79
					c11.06,0,16.55-6.24,18.42-8.95c0.31,5.03,2.87,7.3,8.18,7.3h7.17v-15.7c-0.01-0.1-0.05-0.17-0.05-0.27v-2.3
					c0.02-0.02,0.05-0.05,0.07-0.08V77.13c-0.01,0-0.03-0.01-0.04-0.02v-4.84C249.63,72.18,249.67,72.1,249.67,72.01z
					 M219.25,131.85c-9.04,0-15.2-7.74-15.2-19.66c0-12.4,7-19.4,15.45-19.4c10.25,0,15.2,9.58,15.2,19.28
					C234.7,125.95,227.23,131.85,219.25,131.85z"/>
			</g>
		</g>
		<path class="st2" d="M123.51,129.81h-4.4c-1.69,0-2.54-0.99-2.66-2.71l-0.05-0.65c-0.01,0-0.02,0-0.03,0l-0.38-4.96l0.05,0
			l-0.19-2.42l-3.08-40.82l0,0l-0.69-13.3c-0.48-6.09-2.53-8.62-8.17-8.62h-7.55h-0.93h-0.12L78.34,97.83
			c-0.31,0.78-0.61,1.61-0.92,2.43l-2.18,4.83c-0.03,0.06-0.07,0.1-0.1,0.16l-1,2.23l-1-2.23c-0.03-0.06-0.07-0.1-0.09-0.16
			l-2.02-4.46c-0.35-0.96-0.7-1.91-1.06-2.81L53.14,56.66c-0.02,0.02-0.03,0.03-0.05,0.05v-0.04h-8.48c-5.64,0-7.69,2.54-8.17,8.62
			l-0.51,7.42c0,0,0,0,0.01,0l-3.65,48.45l-0.45,6.02c-0.01,0.07-0.04,0.13-0.05,0.2l-1.2,16.13h8.21c5.47,0,7.44-2.46,7.91-8.35
			l0.49-7.19l2.18-31.63c0.47-5.76,0.12-13.63,0.12-13.63h0.23c0,0,2.44,8.72,4.54,13.63l3.99,9.38c0,0,0,0-0.01,0l4.57,10.77
			c1.6,3.5,3.31,5.25,5.88,5.33v0.01h0.28c0.03,0,0.06,0,0.09,0h10.14c0.02,0,0.06,0,0.08,0h0.27v-0.01
			c2.57-0.08,4.29-1.82,5.88-5.33l1.89-4.49h0.01l6.68-15.67c2.1-4.91,4.54-13.51,4.54-13.51h0.23c0,0-0.35,7.74,0.11,13.51
			l2.22,30.86l0.13,1.74c-0.04,0.01-0.06,0.02-0.09,0.02l0.44,6.13c0.16,1.96,0.51,3.53,1.08,4.78c1.09,2.52,3.13,3.63,6.81,3.63
			h8.15l-0.01-0.04h5.87V129.81z"/>
	</g>
	<g>
		<g>
			<g>
				<path class="st1" d="M132.68,151.6c4.22,0,7.96-2.58,10.13-7.99l2.05-4.79l-20.52-47.04c-0.72-1.84-1.56-2.21-3.26-2.21h-1.81
					V76.31h10.13c4.34,0,6.51,1.6,8.09,5.9l12.07,31.32c1.21,3.2,2.17,8.35,2.17,8.35h0.25c0,0,0.96-5.16,2.05-8.35l10.5-31.32
					c1.45-4.3,3.98-5.9,8.21-5.9h10.42v13.27h-1.85c-1.81,0-2.78,0.37-3.5,2.21l-22.08,56.62c-4.34,11.3-13.03,16.34-22.21,16.34
					c-9.65,0-15.57-6.38-15.57-6.38l5.91-11.06C123.87,147.3,127.61,151.6,132.68,151.6z"/>
				<g>
					<g>
						<path class="st1" d="M394.2,76.54c17.62,0,27.27,13.15,27.27,29.73c0,1.84-0.36,5.77-0.36,5.77h-42.48
							c1.21,11.05,9.18,16.83,18.46,16.83c9.9,0,17.27-7.01,17.27-7.01l6.39,10.81c0,0-9.42,9.45-24.74,9.45
							c-20.4,0-33.07-14.98-33.07-32.8C362.94,90.06,375.72,76.54,394.2,76.54z M405.78,101.23c-0.24-7.49-5.31-12.65-11.58-12.65
							c-7.84,0-13.4,4.79-15.08,12.65H405.78z"/>
						<path class="st1" d="M280.85,85.79c-0.17-5.36-2.61-7.77-8.07-7.77h-14.61v13.27h4.84c1.69,0,2.65,0.86,2.65,2.7v38.32
							c0,5.9,2.41,8.35,8.08,8.35h7.11V85.79z"/>
						<path class="st1" d="M265.53,61.19c0-4.27,3.47-7.73,7.74-7.73c4.26,0,7.73,3.46,7.73,7.73c0,4.27-3.47,7.73-7.73,7.73
							C268.99,68.92,265.53,65.46,265.53,61.19z"/>
						<path class="st1" d="M329.82,76.54c-13.03,0-18.46,8.72-18.46,8.72h-0.24c0,0,0.24-2.21,0.24-5.28v-3.83v-1.71v-5.02
							c0-0.25,0.02-0.48,0.06-0.7V53.45h-7.18c-5.66,0-8.21,2.58-8.21,8.35v14.35v1.86v40.72h-0.01v5.77c0,0.1-0.04,0.17-0.04,0.27
							v15.7h7.16c4.92,0,7.48-1.95,8.07-6.24c1.85,2.27,7.44,7.89,17.64,7.89c16.3,0,28.24-12.89,28.24-32.8
							C357.1,89.93,346.48,76.54,329.82,76.54z M326.21,129c-10.26,0-15.33-9.58-15.33-19.29c0-13.88,7.48-19.78,15.45-19.78
							c9.06,0,15.33,7.75,15.33,19.65C341.66,121.99,334.53,129,326.21,129z"/>
						<path class="st1" d="M448.56,127.52c-1.69,0-2.66-0.98-2.66-2.7V68.97c0,0,0,0,0,0V53.45h-7.14c-5.67,0-8.2,2.58-8.2,8.35
							v12.55c0.01,0,0.01,0,0.02,0v57.95c0,5.9,2.41,8.35,8.2,8.35h14.49v-13.14H448.56z"/>
					</g>
					<path class="st1" d="M246.58,69.15v-15.7h-7.16c-5.68,0-8.2,2.58-8.2,8.35v12.47c0,0,0.02,0,0.03-0.01v6.22
						c0,2.09,0.13,3.69,0.13,3.69h-0.24c0,0-4.35-7.62-17.74-7.62c-16.29,0-28,12.9-28,32.8c0,19.41,10.74,32.8,27.39,32.8
						c11.06,0,16.55-6.23,18.42-8.95c0.3,5.03,2.86,7.3,8.18,7.3h7.16v-15.7c-0.01-0.1-0.04-0.17-0.04-0.27v-2.3
						c0.02-0.03,0.05-0.05,0.07-0.08V74.27c-0.01,0-0.03-0.01-0.04-0.02v-4.83C246.54,69.32,246.58,69.25,246.58,69.15z M216.16,129
						c-9.04,0-15.2-7.74-15.2-19.66c0-12.4,7-19.4,15.45-19.4c10.26,0,15.21,9.58,15.21,19.29C231.61,123.1,224.13,129,216.16,129z"
						/>
				</g>
			</g>
			<path class="st1" d="M120.41,126.95h-4.4c-1.69,0-2.54-0.99-2.66-2.71l-0.05-0.64c0,0-0.01,0-0.03,0l-0.37-4.97l0.04-0.01
				l-0.18-2.41l-3.08-40.83l0,0l-0.69-13.31c-0.48-6.09-2.52-8.62-8.17-8.62h-7.55h-0.92h-0.12L75.25,94.97
				c-0.31,0.78-0.63,1.6-0.92,2.44l-2.18,4.84c-0.02,0.05-0.07,0.1-0.1,0.15l-1,2.23l-1-2.23c-0.03-0.06-0.07-0.1-0.09-0.15
				l-2.01-4.46c-0.35-0.95-0.71-1.91-1.06-2.81L50.04,53.81c-0.01,0.02-0.03,0.04-0.05,0.05L50,53.82h-8.48
				c-5.64,0-7.69,2.54-8.17,8.62l-0.51,7.42l0.01,0l-3.65,48.45l-0.45,6.02c0,0.07-0.03,0.13-0.04,0.2l-1.2,16.14h8.21
				c5.47,0,7.44-2.45,7.91-8.35l0.49-7.19l2.17-31.63c0.47-5.77,0.13-13.63,0.13-13.63h0.23c0,0,2.44,8.72,4.53,13.63l4,9.38
				c-0.01,0-0.01,0-0.01,0l4.56,10.77c1.6,3.5,3.32,5.25,5.88,5.33v0.01h0.27c0.03,0,0.06,0,0.09,0h10.13c0.03,0,0.06,0,0.1,0h0.26
				v-0.01c2.57-0.08,4.28-1.82,5.89-5.33l1.89-4.49h0.01l6.68-15.67c2.1-4.91,4.54-13.51,4.54-13.51h0.23c0,0-0.35,7.74,0.12,13.51
				l2.22,30.86l0.13,1.74c-0.03,0.01-0.06,0.02-0.09,0.02l0.44,6.13c0.16,1.96,0.5,3.54,1.08,4.78c1.09,2.52,3.13,3.64,6.8,3.64
				h8.14v-0.04h5.87V126.95z"/>
		</g>
		<g>
			<g>
				<path class="st1" d="M132.68,151.6c4.22,0,7.96-2.58,10.13-7.99l2.05-4.79l-20.52-47.04c-0.72-1.84-1.56-2.21-3.26-2.21h-1.81
					V76.31h10.13c4.34,0,6.51,1.6,8.09,5.9l12.07,31.32c1.21,3.2,2.17,8.35,2.17,8.35h0.25c0,0,0.96-5.16,2.05-8.35l10.5-31.32
					c1.45-4.3,3.98-5.9,8.21-5.9h10.42v13.27h-1.85c-1.81,0-2.78,0.37-3.5,2.21l-22.08,56.62c-4.34,11.3-13.03,16.34-22.21,16.34
					c-9.65,0-15.57-6.38-15.57-6.38l5.91-11.06C123.87,147.3,127.61,151.6,132.68,151.6z"/>
				<g>
					<g>
						<path class="st1" d="M394.2,76.54c17.62,0,27.27,13.15,27.27,29.73c0,1.84-0.36,5.77-0.36,5.77h-42.48
							c1.21,11.05,9.18,16.83,18.46,16.83c9.9,0,17.27-7.01,17.27-7.01l6.39,10.81c0,0-9.42,9.45-24.74,9.45
							c-20.4,0-33.07-14.98-33.07-32.8C362.94,90.06,375.72,76.54,394.2,76.54z M405.78,101.23c-0.24-7.49-5.31-12.65-11.58-12.65
							c-7.84,0-13.4,4.79-15.08,12.65H405.78z"/>
						<path class="st1" d="M280.85,85.79c-0.17-5.36-2.61-7.77-8.07-7.77h-14.61v13.27h4.84c1.69,0,2.65,0.86,2.65,2.7v38.32
							c0,5.9,2.41,8.35,8.08,8.35h7.11V85.79z"/>
						<path class="st1" d="M265.53,61.19c0-4.27,3.47-7.73,7.74-7.73c4.26,0,7.73,3.46,7.73,7.73c0,4.27-3.47,7.73-7.73,7.73
							C268.99,68.92,265.53,65.46,265.53,61.19z"/>
						<path class="st1" d="M329.82,76.54c-13.03,0-18.46,8.72-18.46,8.72h-0.24c0,0,0.24-2.21,0.24-5.28v-3.83v-1.71v-5.02
							c0-0.25,0.02-0.48,0.06-0.7V53.45h-7.18c-5.66,0-8.21,2.58-8.21,8.35v14.35v1.86v40.72h-0.01v5.77c0,0.1-0.04,0.17-0.04,0.27
							v15.7h7.16c4.92,0,7.48-1.95,8.07-6.24c1.85,2.27,7.44,7.89,17.64,7.89c16.3,0,28.24-12.89,28.24-32.8
							C357.1,89.93,346.48,76.54,329.82,76.54z M326.21,129c-10.26,0-15.33-9.58-15.33-19.29c0-13.88,7.48-19.78,15.45-19.78
							c9.06,0,15.33,7.75,15.33,19.65C341.66,121.99,334.53,129,326.21,129z"/>
						<path class="st1" d="M448.56,127.52c-1.69,0-2.66-0.98-2.66-2.7V68.97c0,0,0,0,0,0V53.45h-7.14c-5.67,0-8.2,2.58-8.2,8.35
							v12.55c0.01,0,0.01,0,0.02,0v57.95c0,5.9,2.41,8.35,8.2,8.35h14.49v-13.14H448.56z"/>
					</g>
					<path class="st1" d="M246.58,69.15v-15.7h-7.16c-5.68,0-8.2,2.58-8.2,8.35v12.47c0,0,0.02,0,0.03-0.01v6.22
						c0,2.09,0.13,3.69,0.13,3.69h-0.24c0,0-4.35-7.62-17.74-7.62c-16.29,0-28,12.9-28,32.8c0,19.41,10.74,32.8,27.39,32.8
						c11.06,0,16.55-6.23,18.42-8.95c0.3,5.03,2.86,7.3,8.18,7.3h7.16v-15.7c-0.01-0.1-0.04-0.17-0.04-0.27v-2.3
						c0.02-0.03,0.05-0.05,0.07-0.08V74.27c-0.01,0-0.03-0.01-0.04-0.02v-4.83C246.54,69.32,246.58,69.25,246.58,69.15z M216.16,129
						c-9.04,0-15.2-7.74-15.2-19.66c0-12.4,7-19.4,15.45-19.4c10.26,0,15.21,9.58,15.21,19.29C231.61,123.1,224.13,129,216.16,129z"
						/>
				</g>
			</g>
			<path class="st1" d="M120.41,126.95h-4.4c-1.69,0-2.54-0.99-2.66-2.71l-0.05-0.64c0,0-0.01,0-0.03,0l-0.37-4.97l0.04-0.01
				l-0.18-2.41l-3.08-40.83l0,0l-0.69-13.31c-0.48-6.09-2.52-8.62-8.17-8.62h-7.55h-0.92h-0.12L75.25,94.97
				c-0.31,0.78-0.63,1.6-0.92,2.44l-2.18,4.84c-0.02,0.05-0.07,0.1-0.1,0.15l-1,2.23l-1-2.23c-0.03-0.06-0.07-0.1-0.09-0.15
				l-2.01-4.46c-0.35-0.95-0.71-1.91-1.06-2.81L50.04,53.81c-0.01,0.02-0.03,0.04-0.05,0.05L50,53.82h-8.48
				c-5.64,0-7.69,2.54-8.17,8.62l-0.51,7.42l0.01,0l-3.65,48.45l-0.45,6.02c0,0.07-0.03,0.13-0.04,0.2l-1.2,16.14h8.21
				c5.47,0,7.44-2.45,7.91-8.35l0.49-7.19l2.17-31.63c0.47-5.77,0.13-13.63,0.13-13.63h0.23c0,0,2.44,8.72,4.53,13.63l4,9.38
				c-0.01,0-0.01,0-0.01,0l4.56,10.77c1.6,3.5,3.32,5.25,5.88,5.33v0.01h0.27c0.03,0,0.06,0,0.09,0h10.13c0.03,0,0.06,0,0.1,0h0.26
				v-0.01c2.57-0.08,4.28-1.82,5.89-5.33l1.89-4.49h0.01l6.68-15.67c2.1-4.91,4.54-13.51,4.54-13.51h0.23c0,0-0.35,7.74,0.12,13.51
				l2.22,30.86l0.13,1.74c-0.03,0.01-0.06,0.02-0.09,0.02l0.44,6.13c0.16,1.96,0.5,3.54,1.08,4.78c1.09,2.52,3.13,3.64,6.8,3.64
				h8.14v-0.04h5.87V126.95z"/>
		</g>
	</g>
</g>
</svg>
