<?xml version="1.0" encoding="UTF-8" standalone="no"?>
<!-- Generator: Adobe Illustrator 19.1.0, SVG Export Plug-In . SVG Version: 6.00 Build 0)  -->
<svg id="Layer_1" xmlns:rdf="http://www.w3.org/1999/02/22-rdf-syntax-ns#" xmlns="http://www.w3.org/2000/svg" enable-background="new 0 0 1474.5 450" xml:space="preserve" viewBox="0 0 350 106.81587" height="106.82" width="350" version="1.1" y="0px" x="0px" xmlns:cc="http://creativecommons.org/ns#" xmlns:dc="http://purl.org/dc/elements/1.1/"><metadata id="metadata26"><rdf:RDF><cc:Work rdf:about=""><dc:format>image/svg+xml</dc:format><dc:type rdf:resource="http://purl.org/dc/dcmitype/StillImage"/><dc:title/></cc:Work></rdf:RDF></metadata><g id="layer1" transform="translate(0 -343.18)"><g id="g19" transform="matrix(.23737 0 0 .23737 0 343.18)"><g id="g10"><path id="path2" d="m574.3 141.3c26-25.7 58.8-38.7 96.3-38.7 35.3 0 68.8 13.8 94.5 39 26.8 26.4 40.9 60.2 40.9 96.3 0 37.9-13.4 71.8-38.3 97.4-25.7 26.8-60.6 41.3-97.4 41.3-39 0-72.5-14.1-98.5-41.6-24.9-26.4-37.6-59.1-37.6-98.2 0-36.4 14.1-69.9 40.1-95.5zm95.9 169.9c37.9 0 68.8-30.5 68.8-73.6 0-38.7-30.9-69.5-68.1-69.5-39.4 0-70.3 30.9-70.3 69.5 0.1 41.6 33.2 73.6 69.6 73.6z"/><path id="path4" d="m897 107.4v264.4h-58.4v-264.4z"/><path id="path6" d="m1084.1 349.5c-17.5 17.1-35.3 23.4-59.1 23.4-24.2 0-45-7.8-62.5-23.4-23.1-20.5-35-47.2-35-78.5 0-28.6 11.2-54.3 32-74.4 18.6-18.2 41.3-27.5 66.6-27.5 24.2 0 42.8 8.2 56.1 25.3v-22.3h58.8v199.7h-56.9zm-46.1-29.8c25.3 0 46.5-20.8 46.5-48.3 0-28.6-21.2-50.2-48.7-50.2-27.9 0-49.5 22.7-49.5 49.5 0 27.9 21.5 49 51.7 49z"/><path id="path8" d="m1179.6 371.8v-199.7h53.2v26.8c12.3-20.5 30.1-30.5 54.3-30.5s42.4 10.4 55.4 32c20.8-21.9 36.8-32 61.7-32 45 0 70.3 25.3 70.3 71.8v131.6h-57.3v-108.2c0-27.9-5.9-40.5-27.9-40.5-22.3 0-34.2 13.8-34.2 40.5v108.2h-57.6v-108.2c0-27.9-5.9-40.5-27.9-40.5-22.3 0-34.2 13.8-34.2 40.5v108.2z"/></g><g id="XMLID_33_" fill="#698714"><path id="XMLID_35_" d="m450 225c-124.3 0-225 100.7-225 225 124.3 0 225-100.7 225-225z"/><path id="XMLID_34_" d="m0 225c0 124.3 100.7 225 225 225 0-124.3-100.7-225-225-225z"/></g><g id="XMLID_31_"><path id="XMLID_32_" fill="#a0c800" d="m225 407.3c0-121.3 96.1-238.8 216.3-244.2-8.4-29.5-22.7-56.6-41.6-79.8-100 35.5-174.7 170.4-174.7 277.4 0-107-74.7-241.9-174.7-277.5-18.9 23.3-33.1 50.3-41.6 79.8 120.2 5.5 216.3 122.9 216.3 244.3z"/></g><g id="XMLID_29_"><path id="XMLID_30_" fill="#a0c800" d="m225 313.5c0-85.6 47.8-211.3 118.2-279.9-34.4-21.3-74.8-33.6-118.2-33.6s-83.8 12.3-118.2 33.6c70.4 68.6 118.2 194.3 118.2 279.9z"/></g></g></g></svg>
