<?xml version="1.0" encoding="utf-8"?>
<!-- Generator: Adobe Illustrator 23.1.1, SVG Export Plug-In . SVG Version: 6.00 Build 0)  -->
<svg version="1.2" baseProfile="tiny" id="Layer_1" xmlns="http://www.w3.org/2000/svg" xmlns:xlink="http://www.w3.org/1999/xlink"
	 x="0px" y="0px" viewBox="0 0 383.6 361.4" xml:space="preserve">
<g>
	<path fill="#E30613" d="M113.5,330.6c2.5,0.7,5.8,3.1,5.2,5c-0.2,0.7-0.8,1.1-1.8,0.9c-1.3-0.4-1.3-2.4-4.2-3.2
		c-1.7-0.5-3.4-0.1-3.9,1.4c-0.9,3.2,9.1,5.7,7.6,11c-1.1,3.9-4.9,4.8-8.4,3.8c-3.9-1.1-6.4-3.9-6-5.5c0.2-0.8,1-1.2,1.6-1
		c1.4,0.4,1.8,3,5.2,3.9c2.2,0.6,3.9-0.2,4.3-1.5c1-3.6-8.9-6.2-7.5-11.4C106.7,330.7,110.4,329.7,113.5,330.6z"/>
	<path fill="#E30613" d="M132.9,342.5c0.6-3.3-1.5-5.1-3.5-5.5c-2.1-0.4-4.6,0.6-5.2,3.9l-1.9,10.3c-0.2,1-0.9,1.6-1.9,1.4
		c-1-0.2-1.4-0.9-1.3-2l4.4-24.3c0.2-1,0.9-1.6,1.9-1.4c1,0.2,1.4,0.9,1.3,2L125,336l0.1,0.1c1.7-1.5,3.8-1.9,5.7-1.5
		c2.9,0.5,6.2,3,5.3,8.4l-1.9,10.5c-0.2,1-0.9,1.6-1.9,1.4c-1-0.2-1.4-0.9-1.3-2L132.9,342.5z"/>
	<path fill="#E30613" d="M155.1,355.6c-0.1,1.1-1,1.5-1.6,1.4c-0.6-0.1-1.4-0.6-1.3-1.7l0.1-1.3l-0.1,0c-1.5,1.8-3.4,2.6-5.5,2.4
		c-5.4-0.5-8-5.5-7.6-10.5c0.4-5.1,3.9-9.5,9.3-9.1c2.2,0.2,3.7,1.3,5,3l0.1,0l0.1-1c0.1-1.1,1-1.5,1.6-1.4c0.6,0,1.4,0.6,1.3,1.7
		L155.1,355.6z M147,353.7c3.9,0.3,5.6-3.4,5.9-6.6c0.3-3.2-0.8-7.2-4.6-7.5c-3.9-0.3-5.6,3.4-5.9,6.6
		C142.1,349.4,143.1,353.4,147,353.7z"/>
	<path fill="#E30613" d="M160.6,339.3c0-1,0.6-1.7,1.6-1.7c1,0,1.6,0.7,1.6,1.7l0,1.6h0.1c0.8-1.5,2.5-3.3,4.4-3.3
		c1.1,0,1.8,0.8,1.8,1.7c0,0.9-0.7,1.5-2,1.7c-1.9,0.3-4.2,1.7-4.3,5.4l-0.1,9.1c0,1-0.6,1.7-1.6,1.7c-1,0-1.6-0.7-1.6-1.7
		L160.6,339.3z"/>
	<path fill="#E30613" d="M173.6,331.1c1.1,0,2,0.8,2,1.9c0,1.1-0.8,2-1.9,2c-1.1,0-2-0.8-2-1.9C171.7,332,172.5,331.1,173.6,331.1z
		 M175.9,355.5c0,1-0.6,1.7-1.5,1.7c-1,0-1.6-0.6-1.6-1.6l-0.5-16.3c0-1,0.6-1.7,1.5-1.8c1,0,1.6,0.6,1.6,1.6L175.9,355.5z"/>
	<path fill="#E30613" d="M179.7,339.2c-0.1-1,0.5-1.8,1.4-1.8c1-0.1,1.6,0.5,1.7,1.5l0.1,0.8l0.1,0.1c1.2-1.9,3.2-2.8,5.1-3
		c3-0.3,6.8,1.3,7.3,6.7l1,10.6c0.1,1-0.5,1.8-1.4,1.8s-1.6-0.5-1.7-1.5l-0.9-10.4c-0.3-3.4-2.8-4.5-4.9-4.3c-2.1,0.2-4.3,1.8-4,5.1
		l0.9,10.4c0.1,1-0.5,1.8-1.4,1.8s-1.6-0.5-1.7-1.5L179.7,339.2z"/>
	<path fill="#E30613" d="M216.9,350.6c1,5.6-1.8,9.7-6.9,10.6c-3.2,0.6-7.6-0.5-7.9-2.1c-0.1-0.6,0.1-1.5,1-1.7
		c1.4-0.3,3.2,1.7,6.6,1.1c4-0.7,4.6-4.1,4.1-6.8l-0.3-1.6l-0.1,0c-0.7,1.8-2.2,3.2-4.3,3.6c-5.3,1-9.2-3.1-10.1-8.2
		c-0.9-5,1.2-10.2,6.6-11.2c2-0.4,4.2,0.5,5.2,1.5l0.1,0l-0.2-0.9c-0.2-1.1,0.5-1.7,1.4-1.8c0.6-0.1,1.5,0.2,1.7,1.3L216.9,350.6z
		 M208.7,351c3.8-0.7,4.5-4.7,3.9-7.9c-0.6-3.2-2.6-6.7-6.5-6s-4.5,4.7-3.9,7.9C202.8,348.1,204.9,351.7,208.7,351z"/>
	<path fill="#E30613" d="M239,333c-0.9-2.6-2.9-3.7-5.4-2.8c-2.4,0.9-3.3,3-2.4,5.5l3.6,10.2c0.4,1,0,1.8-0.9,2.1s-1.7-0.1-2.1-1.1
		l-5.4-15.4c-0.4-1,0-1.8,0.9-2.1s1.7,0.1,2.1,1.1l0.2,0.5l0.1,0c0.4-1.2,1.1-2.9,3.8-3.8c1.8-0.6,3.9-0.5,6.1,1.3
		c0.7-2.4,1.9-4.1,4.5-5c2.8-1,6.9-0.5,8.7,4.7l3.5,10.1c0.4,1,0,1.8-0.9,2.1c-0.9,0.3-1.7-0.1-2.1-1.1l-3.6-10.2
		c-0.9-2.6-2.9-3.7-5.4-2.8c-2.4,0.9-3.3,3-2.4,5.5l3.6,10.2c0.4,1,0,1.8-0.9,2.1s-1.7-0.1-2.1-1.1L239,333z"/>
	<path fill="#E30613" d="M260.1,316.6c4.9-2.4,9.7,0.6,11.9,5.2c2.2,4.6,1.5,10.2-3.4,12.5c-4.9,2.4-9.7-0.6-11.9-5.2
		C254.5,324.6,255.2,319,260.1,316.6z M267.4,331.9c3.5-1.7,3.1-5.7,1.7-8.7c-1.4-2.9-4.3-5.8-7.8-4.1s-3.1,5.7-1.7,8.7
		C261,330.7,263.9,333.6,267.4,331.9z"/>
	<path fill="#E30613" d="M271.2,312.8c-0.5-0.9-0.3-1.8,0.5-2.3s1.7-0.2,2.2,0.7l0.8,1.4l0.1,0c-0.1-1.6,0.5-4.1,2.1-5
		c1-0.5,1.9-0.2,2.3,0.5c0.5,0.8,0.2,1.6-0.9,2.5c-1.5,1.2-2.8,3.6-1,6.8l4.5,8c0.5,0.9,0.3,1.8-0.5,2.3c-0.9,0.5-1.7,0.2-2.2-0.7
		L271.2,312.8z"/>
	<path fill="#E30613" d="M287.9,313.9c1.8,2.8,5,3.7,8,1.8c3.5-2.3,3-5.1,4-5.8c0.5-0.3,1.2-0.2,1.7,0.5c0.9,1.3-1.1,5.5-4.3,7.5
		c-5.1,3.4-10,0.9-12.8-3.4c-2.9-4.4-2.7-10,1.8-13c4.4-2.9,9.5-0.6,12.1,3.3c0.6,0.9,0.6,1.6-0.5,2.4L287.9,313.9z M295.4,306.1
		c-1.5-2.3-4.6-4.1-7.5-2.1c-3.4,2-2.8,5.5-1.3,8L295.4,306.1z"/>
	<path fill="#E30613" d="M304.1,291.1c-0.7-0.8-0.6-1.7,0.1-2.3c0.8-0.6,1.6-0.5,2.3,0.3l0.6,0.7l0,0c-0.4-1.9,0.3-3.7,2.2-5.3
		c4-3.4,9.3-1.6,12.6,2.3c3.3,3.9,4,9.5,0,12.8c-1.9,1.6-4.2,1.7-5.6,1.3l0,0l5.5,6.5c0.7,0.8,0.6,1.7-0.1,2.3
		c-0.8,0.6-1.6,0.5-2.3-0.3L304.1,291.1z M320.1,297.6c3-2.5,1.6-6.3-0.5-8.8c-2.1-2.5-5.6-4.5-8.6-2c-3,2.5-1.6,6.3,0.5,8.8
		C313.6,298,317.1,300.1,320.1,297.6z"/>
	<path fill="#E30613" d="M332.8,287.7c0.7,0.8,0.7,1.7,0,2.3c-0.7,0.7-1.6,0.6-2.3-0.2l-16.9-18.1c-0.7-0.8-0.7-1.7,0-2.3
		c0.7-0.7,1.6-0.6,2.3,0.2L332.8,287.7z"/>
	<path fill="#E30613" d="M333.1,277.9c2.3,2.3,5.6,2.6,8.2,0.1c3-3,1.9-5.6,2.7-6.5c0.4-0.4,1.2-0.5,1.8,0.2c1.1,1.1,0,5.6-2.6,8.2
		c-4.3,4.4-9.6,3-13.2-0.6c-3.7-3.7-4.7-9.2-0.9-13.1c3.7-3.7,9.2-2.6,12.5,0.7c0.8,0.8,0.9,1.5,0,2.5L333.1,277.9z M338.8,268.7
		c-2-1.9-5.3-3-7.8-0.5c-2.9,2.7-1.6,5.9,0.4,8L338.8,268.7z"/>
	<path fill="#E30613" d="M360.1,257.5c0.9,0.7,0.7,1.6,0.3,2.1c-0.4,0.5-1.2,0.9-2.1,0.2l-1.1-0.8l0,0.1c0.7,2.3,0.4,4.3-0.9,5.9
		c-3.3,4.3-8.9,3.8-13,0.7c-4-3.1-5.9-8.4-2.6-12.7c1.4-1.8,3-2.4,5.2-2.6l0-0.1l-0.8-0.6c-0.9-0.7-0.7-1.6-0.3-2.1
		c0.4-0.5,1.2-0.9,2.1-0.2L360.1,257.5z M354.1,263.3c2.4-3.1,0.2-6.5-2.4-8.5c-2.6-2-6.5-3.2-8.8-0.1c-2.4,3.1-0.2,6.5,2.4,8.5
		C347.8,265.1,351.7,266.4,354.1,263.3z"/>
	<path fill="#E30613" d="M350.2,238.8c1.3-2.3,4.4-4.9,6.1-3.9c0.6,0.3,0.9,1.1,0.4,1.9c-0.7,1.2-2.6,0.7-4.2,3.3
		c-0.9,1.6-1,3.3,0.4,4.1c2.9,1.7,7.7-7.4,12.5-4.6c3.5,2,3.4,5.9,1.6,9c-2,3.5-5.4,5.3-6.8,4.5c-0.8-0.4-1-1.3-0.6-1.9
		c0.7-1.2,3.3-1,5-4.1c1.1-2,0.7-3.9-0.4-4.5c-3.3-1.9-8.2,7.1-12.8,4.5C348.6,245.4,348.6,241.6,350.2,238.8z"/>
	<path fill="#E30613" d="M355.9,232.2c-1-0.4-1.4-1.2-1-2.1c0.4-0.9,1.2-1.2,2.2-0.9l9.5,3.8c3.1,1.2,5.2,0.5,6.3-2.3s0-4.8-3-6
		l-9.5-3.8c-1-0.4-1.4-1.2-1-2.1c0.4-0.9,1.2-1.2,2.2-0.9l9.6,3.8c5.2,2.1,5.7,6.3,4.3,9.9c-1.4,3.6-4.7,6.3-9.9,4.3L355.9,232.2z"
		/>
	<path fill="#E30613" d="M362.2,215.1c-1-0.3-1.5-1-1.2-2c0.2-1,1-1.4,2-1.1l1.6,0.4l0-0.1c-1.3-1.1-2.6-3.2-2.1-5
		c0.3-1.1,1.1-1.5,2-1.3c0.9,0.2,1.3,1,1.2,2.4c-0.1,1.9,0.6,4.5,4.2,5.4l8.9,2.3c1,0.3,1.5,1,1.2,2c-0.2,1-1,1.4-2,1.1L362.2,215.1
		z"/>
	<path fill="#E30613" d="M374.3,204.3c3.3,0.4,6.1-1.3,6.5-4.9c0.5-4.2-1.9-5.6-1.8-6.8c0.1-0.6,0.6-1.1,1.5-1
		c1.5,0.2,3.4,4.4,2.9,8.1c-0.8,6.1-5.8,8.1-10.9,7.5c-5.2-0.7-9.4-4.5-8.7-9.8c0.7-5.2,5.8-7.6,10.3-7c1.1,0.1,1.6,0.6,1.5,2
		L374.3,204.3z M373.3,193.5c-2.7-0.4-6.1,0.8-6.5,4.3c-0.6,3.9,2.3,5.7,5.2,6.2L373.3,193.5z"/>
</g>
<g>
	<path fill="#E30613" d="M160.1,178.4c8.1,0.5,13.1-8.6,11.2-20.5c-1.9-11.8-10-21.9-18.1-22.4c-8.1-0.5-13.1,8.6-11.2,20.5
		C143.9,167.8,152,177.8,160.1,178.4z"/>
	<path fill="#E30613" d="M65.6,182.3c-3.6-5.7-8.2-6-11.1-3.9c-7.1,5.1-0.4,17.6,9.7,26.8c1.5,1.4,3.1,2.7,4.7,4.1
		c0.6-3.5,0.9-7.4,0.7-11.7C69.3,191.7,68.1,186.7,65.6,182.3z"/>
	<path fill="#E30613" d="M292,109.9c-6.4-4.8-15.4-0.3-20.1,10c-4.8,10.3-3.5,22.4,2.9,27.2c6.4,4.8,15.4,0.3,20.1-10
		C299.7,126.8,298.4,114.6,292,109.9z"/>
	<path fill="#E30613" d="M143.7,217.1c-8.1,0.6-11.6,10.5-7.9,22c3.7,11.5,13.2,20.3,21.3,19.7c8.1-0.6,11.6-10.5,8-22
		C161.3,225.3,151.8,216.5,143.7,217.1z"/>
	<path fill="#E30613" d="M351.6,163.6c-0.4-29.2-9.7-52.5-24.6-70.3c-1.2,5.2-5.2,11.4-16.7,15.1c4.8,6.8,7.1,15.3,5.9,24.2
		c-2.6,18.4-19.5,31.3-37.9,28.7c-10.5-1.5-19.2-7.6-24.2-16.1c-3.4,6.7-9.2,12.9-19.3,15.8c-16.9,5-39-3.1-44.2-27.5
		c-5.3-24.4,11-41.6,30.2-43.5c16.6-1.6,25.9,5.4,26.3,16.4c0.2,5.3-3,11.4-8.8,13c-5.8,1.6-11.3-1.4-12.2-6.6
		c-0.7-5,2.7-9.8,7.6-11.9c-1.7-1.4-5.5-2.6-9.4-1.4c-25.3,7.6-17.1,54.6,11.6,48.3c5.9-1.3,11.4-5.1,14.6-11.5
		c-1-4.1-1.3-8.5-0.7-12.9c2.5-18.4,19.5-31.3,37.9-28.7c1.3,0.2,2.5,0.4,3.7,0.7c7.3,1,23.4,2.1,31.7-6.5
		C286.3,50,220.7,40.2,165.5,54.6c-36,9.4-17.8-25.1-8.6-38c9.2-12.9,6.4-20.4-11-14.7c-157.1,51.4-184,197.2-96.5,272.9
		c16.7,14.5,35.5,24.8,55.3,31.5c3.2-4.7,5.3-12,0.2-22.9c-0.1-0.1-0.1-0.3-0.1-0.4h0c-8.2-19.9-25.3-31.4-41.9-44.5
		c-9.9,5.7-17.5-0.1-17.5-0.1s5-1.4,10.4-5.7c-5.1-4.4-10-9.1-14.4-14.4C8.9,179.5,54.2,152.6,75,175.9c0,0,0,0,0,0
		c6.5,8.6,11.9,24.9,4.3,42.1c15.7,13.5,34.2,31.7,42.6,62.4c0,0,0,0,0,0h0c0.8,3.9,1,7.3,0.9,10.4c5.4-3.4,11.2-5.8,17.7-6.9
		c10.9-1.8,16.1-0.2,25.5-2.5c32.5-8,24-33.3,24-33.3s7.3-1.5,13.5,6.2c6.6,8.1,7.8,21.9-1.4,31.8c-14.3,15.3-34.2,8.7-46.7,8.4
		c-5.9-0.1-23.1-0.5-42.6,14.2C220.3,339.4,353.2,267.4,351.6,163.6z M148.8,121.7c18.4-3.9,36.6,8.6,40.6,27.9
		c4,19.3-7.6,38.1-26,42c-18.4,3.9-36.6-8.6-40.6-27.9C118.8,144.4,130.4,125.6,148.8,121.7z M83.6,159.4
		c-7-58.8-20.1-61.5-20.1-61.5s24.8-20,29.7,3c1.8,8.5,3.3,18,5.1,27.7c34.8-17.1,15.9-68.7-30.1-48.4
		c-25.4,11.2-29.6,31.5-21.5,40.3c2.5-3.6,7-5.5,10.7-4.3c4.7,1.4,7.1,7.4,5.4,13c-1.3,4.1-4.8,6.8-8.5,7.4
		C36,141.4,12.7,94.3,64.5,67.6c38.2-19.6,68.2-5.5,75.3,14.7c7.6,21.8-7.8,46.5-40,54.8c5.2,26.7,13,52.3,33.9,57.8
		c0,0-1.2,4.5-12.9,7.1C107.7,205.1,88.4,200,83.6,159.4z M161.3,271.9c-17.8,6.1-37.4-4.3-43.7-23.2c-6.4-18.9,2.9-39,20.7-45.1
		c17.8-6,37.4,4.3,43.7,23.1C188.4,245.7,179.1,265.9,161.3,271.9z M332.3,166.2c-8.5,15.8-25.5,20.5-38,21.7
		c7.8,5.1,13.6,13.5,15.3,23.6c3.1,18.9-9.1,36.6-27.4,39.7c-14.9,2.5-29.2-5.6-35.7-18.9c-3.5,5.4-9,10.1-17.5,12.6
		c-16.9,5-39-3.1-44.2-27.5c-5.3-24.4,11-41.6,30.2-43.5c16.6-1.6,25.6,5.5,26.2,16.4c0.3,5.3-3,11.4-8.8,13
		c-5.8,1.6-11.3-1.3-12.2-6.6c-0.7-5,2.7-9.8,7.6-11.9c-1.7-1.5-4.8-2.7-9-1.5c-25.3,7.7-17.1,54.6,11.6,48.3
		c5.1-1.1,9.8-4.1,13-9.1c0,0,0-0.1,0-0.1c-2.5-14.6,4.4-28.6,16.1-35.5l0,0c0,0,0,0,0,0c0.6-0.4,1.3-0.7,1.9-1
		c0.1-0.1,0.2-0.1,0.4-0.2c0.5-0.2,0.9-0.4,1.4-0.6c0.3-0.1,0.6-0.3,0.9-0.4c0.1,0,0.1,0,0.2-0.1c9.5-3.8,19.2-3,30.8-7.6
		c33.6-13.5,30.3-37.9,30.3-37.9S342.9,146.5,332.3,166.2z"/>
	<path fill="#E30613" d="M284.5,196.4c-6.9-4-15.3,1.8-18.8,12.9c-3.5,11.1-0.7,23.3,6.2,27.3c6.9,4,15.3-1.8,18.8-12.9
		C294.2,212.6,291.4,200.4,284.5,196.4z"/>
	<path fill="#FFFFFF" d="M122.8,163.7c4.1,19.3,22.2,31.8,40.6,27.9s30-22.7,26-42c-4-19.3-22.2-31.8-40.6-27.9
		C130.4,125.6,118.8,144.4,122.8,163.7z M153.2,135.5c8.1,0.5,16.2,10.6,18.1,22.4c1.9,11.8-3.1,21-11.2,20.5
		c-8.1-0.5-16.2-10.5-18.1-22.4C140.1,144.1,145.1,135,153.2,135.5z"/>
	<path fill="#FFFFFF" d="M138.3,203.7c-17.8,6-27.1,26.2-20.7,45.1c6.4,18.9,25.9,29.2,43.7,23.2c17.8-6.1,27.1-26.3,20.7-45.1
		C175.7,208,156.1,197.6,138.3,203.7z M157,258.8c-8.1,0.6-17.6-8.2-21.3-19.7c-3.7-11.5-0.1-21.4,7.9-22
		c8.1-0.6,17.6,8.2,21.3,19.7C168.7,248.3,165.1,258.2,157,258.8z"/>
	<path fill="#FFFFFF" d="M133.7,195c-20.9-5.5-28.8-31.1-33.9-57.8c32.2-8.4,47.6-33.1,40-54.9c-7.1-20.2-37.1-34.3-75.3-14.7
		C12.7,94.3,36,141.4,54.3,136.4c3.7-0.6,7.2-3.3,8.5-7.4c1.7-5.5-0.8-11.5-5.4-13c-3.7-1.1-8.2,0.7-10.7,4.3
		c-8.1-8.8-3.9-29.1,21.5-40.3c46.1-20.3,64.9,31.3,30.1,48.4c-1.7-9.7-3.2-19.2-5.1-27.7c-4.9-22.9-29.7-3-29.7-3
		s13.1,2.8,20.1,61.5c4.8,40.6,24.1,45.7,37.3,42.7C132.6,199.5,133.7,195,133.7,195z"/>
	<path fill="#FFFFFF" d="M325.4,139.1c0,0,3.4,24.5-30.3,37.9c-11.6,4.6-21.2,3.8-30.8,7.6c-0.1,0-0.1,0-0.2,0.1
		c-0.3,0.1-0.6,0.2-0.9,0.4c-0.5,0.2-0.9,0.4-1.4,0.6c-0.1,0.1-0.2,0.1-0.4,0.2c-0.7,0.3-1.3,0.7-1.9,1c0,0,0,0,0,0l0,0
		c-11.7,6.9-18.6,20.9-16.1,35.5c0,0,0,0.1,0,0.1c-3.2,5-7.9,8-13,9.1c-28.7,6.3-36.9-40.6-11.6-48.3c4.2-1.3,7.3,0,9,1.5
		c-5,2.1-8.3,6.9-7.6,11.9c0.9,5.2,6.4,8.2,12.2,6.6c5.8-1.6,9.1-7.6,8.8-13c-0.7-10.8-9.6-18-26.2-16.4
		c-19.1,1.9-35.5,19.1-30.2,43.5c5.3,24.4,27.3,32.5,44.2,27.5c8.4-2.5,13.9-7.2,17.5-12.6c6.5,13.3,20.8,21.4,35.7,18.9
		c18.3-3,30.5-20.8,27.4-39.7c-1.7-10.1-7.5-18.5-15.3-23.6c12.5-1.2,29.5-5.9,38-21.7C342.9,146.5,325.4,139.1,325.4,139.1z
		 M290.7,223.7c-3.5,11.1-11.9,16.9-18.8,12.9c-6.9-4-9.7-16.2-6.2-27.3c3.5-11.1,11.9-16.9,18.8-12.9
		C291.4,200.4,294.2,212.6,290.7,223.7z"/>
	<path fill="#FFFFFF" d="M155.4,294.6c12.5,0.3,32.4,6.9,46.7-8.4c9.2-9.9,8-23.6,1.4-31.8c-6.2-7.7-13.5-6.2-13.5-6.2
		s8.5,25.2-24,33.3c-9.4,2.3-14.6,0.7-25.5,2.5c-6.5,1.1-12.3,3.5-17.7,6.9c0.1-3-0.1-6.5-0.9-10.4c0,0,0,0,0,0s0,0,0,0
		c-8.4-30.7-26.8-48.9-42.6-62.4c7.6-17.3,2.1-33.5-4.3-42.1c0,0,0,0,0,0c-20.7-23.4-66.1,3.6-33.6,42.2c4.4,5.3,9.3,10,14.4,14.4
		c-5.4,4.4-10.4,5.7-10.4,5.7s7.6,5.8,17.5,0.1c16.5,13.1,33.7,24.7,41.9,44.5h0c0,0.1,0.1,0.3,0.1,0.4c5.1,10.9,3,18.2-0.2,22.9
		c2.7,0.9,5.4,1.8,8.1,2.5C132.4,294.1,149.5,294.4,155.4,294.6z M68.9,209.3c-1.6-1.4-3.2-2.8-4.7-4.1c-10-9.2-16.8-21.6-9.7-26.8
		c2.9-2.1,7.5-1.8,11.1,3.9c2.4,4.5,3.6,9.4,3.9,15.3C69.7,201.9,69.5,205.8,68.9,209.3z"/>
	<path fill="#FFFFFF" d="M327,93.3L327,93.3C327,93.3,327,93.3,327,93.3L327,93.3z"/>
	<path fill="#FFFFFF" d="M291.3,95.4c-1.2-0.3-2.4-0.6-3.7-0.7c-18.4-2.6-35.3,10.3-37.9,28.7c-0.6,4.5-0.3,8.8,0.7,12.9
		c-3.2,6.4-8.8,10.2-14.6,11.5c-28.7,6.3-36.9-40.8-11.6-48.3c3.9-1.2,7.7,0,9.4,1.4c-5,2.1-8.3,6.9-7.6,11.9
		c0.9,5.2,6.4,8.2,12.2,6.6c5.8-1.6,9-7.7,8.8-13c-0.4-11-9.6-18-26.3-16.4c-19.1,1.9-35.5,19.1-30.2,43.5
		c5.3,24.4,27.3,32.5,44.2,27.5c10.1-3,15.9-9.1,19.3-15.8c5,8.5,13.7,14.7,24.2,16.1c18.4,2.5,35.3-10.3,37.9-28.7
		c1.2-8.9-1.1-17.4-5.9-24.2c11.4-3.8,15.5-9.9,16.7-15.1l0,0c-0.6-0.7-1.1-1.3-1.7-2c-0.1-0.1-0.2-0.2-0.3-0.4
		c-0.6-0.7-1.2-1.4-1.9-2.1c0,0,0,0,0,0C314.7,97.5,298.6,96.4,291.3,95.4z M294.9,137c-4.8,10.3-13.8,14.7-20.1,10
		c-6.4-4.8-7.7-16.9-2.9-27.2c4.8-10.3,13.8-14.7,20.1-10C298.4,114.6,299.7,126.8,294.9,137z"/>
	<path fill="#FFFFFF" d="M327,93.3c-0.6-0.7-1.1-1.3-1.7-2C325.8,92,326.4,92.7,327,93.3z"/>
	<path fill="#FFFFFF" d="M323,88.9L323,88.9C323,88.9,323.1,88.9,323,88.9C323.1,88.9,323,88.9,323,88.9z"/>
	<path fill="#FFFFFF" d="M325,91c-0.6-0.7-1.2-1.4-1.9-2.1C323.7,89.6,324.3,90.3,325,91z"/>
</g>
</svg>
