<svg width="322" height="217" viewBox="0 0 322 217" fill="none" xmlns="http://www.w3.org/2000/svg">
<path d="M116.602 72.3535C114.412 70.8435 110.492 71.8835 103.902 70.2235C97.0019 68.4935 90.3919 59.6735 87.8619 52.8135C84.5719 43.9035 87.1519 34.4035 93.2919 27.1735C94.3319 25.9535 95.8119 24.7235 96.9119 23.5735C99.3719 21.0035 102.332 19.3135 105.912 17.9935C120.932 12.4435 148.452 16.4435 152.592 30.4335C166.342 76.9335 117.142 72.7235 116.602 72.3535Z" fill="white"/>
<path d="M207.092 27.9335C207.092 37.7535 198.712 46.7635 190.262 51.6235C185.642 54.2835 185.092 59.4335 189.432 62.1035C142.172 68.2735 144.442 37.7735 144.442 27.5035C144.442 22.4135 146.092 16.9435 148.722 12.8635C151.412 8.88347 167.632 -0.436531 178.352 2.13347C184.252 3.54347 189.692 3.95347 193.402 5.79347C197.002 7.58347 198.692 8.28347 200.182 9.26347C204.362 12.0135 207.092 20.0435 207.092 27.9335Z" fill="white"/>
<path d="M249.652 213.353H258.382V215.883H246.842V196.493H249.652V213.353Z" fill="black"/>
<path d="M278.502 198.943H271.732V215.883H268.942V198.943H262.292V196.493H278.492V198.943H278.502Z" fill="black"/>
<path d="M291.942 196.493C293.622 196.493 294.472 196.553 295.522 196.783C296.522 196.953 297.402 197.263 298.162 197.663C301.262 199.223 303.222 202.553 303.222 206.193C303.222 210.313 300.602 213.953 296.652 215.293C295.112 215.803 294.492 215.923 291.532 215.923L285.392 215.893V196.503H291.942V196.493ZM288.162 213.383H291.742C293.622 213.383 294.162 213.323 295.412 212.983C298.372 212.193 300.362 209.403 300.362 206.043C300.362 203.173 298.882 200.813 296.322 199.673C295.012 199.073 294.222 198.963 291.662 198.963H288.162V213.383V213.383Z" fill="black"/>
<path d="M313.062 197.324H310.682V203.284H309.702V197.324H307.362V196.464H313.062V197.324Z" fill="black"/>
<path d="M321.822 203.284H320.842V197.973H320.822L318.742 200.613H318.562L316.462 197.973H316.442V203.284H315.462V196.464H316.382L318.652 199.264L320.912 196.464H321.822V203.284Z" fill="black"/>
<path d="M8.52194 144.903C8.52194 139.483 8.52194 137.853 5.94194 136.223L4.04194 135.003C3.09194 134.183 3.09194 131.753 4.04194 130.933C9.60194 129.303 19.7619 124.963 23.5619 122.393C24.5119 122.253 25.8719 122.803 26.4119 124.023C26.1419 125.653 26.1419 127.143 26.1419 128.503C26.1419 129.443 26.6819 130.263 27.2219 130.403C31.2919 128.363 37.2519 124.973 44.4419 124.973C58.8019 124.973 67.4819 136.223 67.4819 150.863C67.4819 169.843 54.0719 182.993 34.2819 182.993C32.3719 182.993 29.4019 182.863 28.1819 182.583C26.9619 182.853 26.1519 183.673 26.1519 186.513V199.933C26.1519 209.423 26.6919 210.503 31.1619 210.913L35.7719 211.323C36.8519 212.133 36.8519 215.253 35.6419 216.063C28.8519 215.793 23.4419 215.653 17.0619 215.653C11.0919 215.653 5.81194 215.793 0.931936 216.063C-0.288064 215.253 -0.288064 212.133 0.801936 211.323L3.51194 211.043C7.99194 210.643 8.53194 209.413 8.53194 199.933V144.903H8.52194ZM26.1419 165.773C26.1419 168.743 27.2219 171.593 29.2519 173.633C31.0219 175.523 33.5919 176.753 35.7619 176.753C44.1619 176.753 48.7619 167.803 48.7619 155.203C48.7619 141.923 42.2619 134.333 33.3119 134.333C31.0119 134.333 28.7019 134.873 27.6219 136.233C26.9419 137.053 26.1319 138.813 26.1319 144.093V165.773H26.1419Z" fill="#56AF31"/>
<path d="M310.802 176.753L308.632 176.473C303.752 175.943 303.212 174.843 303.212 165.363V142.043C303.212 132.683 297.522 124.963 286.262 124.963C280.032 124.963 273.662 128.623 270.672 130.393C269.862 130.793 268.502 131.473 268.102 131.473C267.692 131.473 267.422 131.203 267.422 130.393C267.422 129.433 267.832 126.193 267.832 124.293C267.292 123.473 266.472 123.073 265.392 123.073C261.462 125.503 251.702 129.173 245.332 130.933C244.382 131.743 244.382 134.183 245.332 135.003L247.232 136.223C249.812 137.853 249.812 139.473 249.812 144.903V165.373C249.812 174.853 248.862 176.483 242.472 176.483C242.472 176.483 235.432 176.553 235.432 165.373V143.413C235.432 137.853 235.722 132.163 236.122 127.833C235.982 126.463 234.902 125.793 233.812 125.793C230.282 126.603 221.202 126.883 211.442 126.883H201.012C197.762 126.883 197.492 127.013 197.492 123.493V115.913C197.492 95.7135 202.772 90.9635 207.242 90.9635C210.492 90.9635 212.942 92.4535 215.652 97.0735C216.872 99.1035 218.232 102.353 219.312 104.113C220.382 105.873 222.832 106.963 225.412 106.963C230.422 106.963 235.032 103.713 235.032 98.1535C235.032 90.4335 226.222 84.1935 212.532 84.1935C200.472 84.1935 193.012 89.2135 190.032 92.1835C186.382 88.6635 179.322 87.4435 173.642 87.4435C158.182 87.4435 149.902 95.9835 145.702 105.063C142.712 111.573 141.902 121.463 141.902 124.043C141.902 125.803 140.682 126.613 138.912 127.573L133.082 130.553C132.412 131.233 132.682 133.673 133.492 134.213H138.512C141.632 134.213 141.902 134.343 141.902 138.013V165.393C141.902 174.903 139.362 176.773 134.572 176.773C134.572 176.773 127.392 176.963 127.392 163.223V138.533C127.392 133.513 127.662 129.043 127.792 126.603C127.652 125.663 126.982 124.983 126.442 124.983C125.622 124.983 121.562 126.473 116.812 127.153C112.482 127.693 107.602 128.233 102.722 128.513C101.092 129.053 100.952 132.303 102.042 133.253L103.932 133.523C108.822 134.203 109.762 135.423 109.762 140.843V166.463C109.762 167.813 109.222 169.853 108.272 170.533C107.182 171.353 105.022 173.113 101.222 173.113C92.5519 173.113 91.6019 167.423 91.6019 160.913V138.533C91.6019 133.653 91.7319 129.993 92.0019 126.603C91.8719 125.933 91.1819 124.983 90.3719 124.983C89.8319 124.983 85.8919 126.603 81.8319 127.293C77.9019 127.973 73.1519 128.373 68.6819 128.513C67.3319 129.453 67.1919 132.023 68.1419 133.253L69.9019 133.793C73.1519 134.743 73.9719 135.433 73.9719 142.613V165.653C73.9719 177.183 78.5819 183.003 89.8319 183.003C98.2319 183.003 102.972 179.883 108.262 176.493C109.082 176.493 109.752 177.033 109.752 177.853C109.752 178.933 109.612 178.273 109.342 179.903C109.482 180.713 110.022 181.393 110.972 181.533C111.352 181.533 144.862 181.113 150.422 181.113C156.792 181.113 162.232 181.253 166.152 181.523C167.372 180.713 167.372 177.863 166.282 177.053L164.522 176.783C160.042 176.103 159.502 175.153 159.502 165.403V138.023C159.502 134.353 160.182 134.223 163.032 134.223H176.442C179.572 134.223 179.842 134.353 179.842 138.023V165.403C179.842 175.153 179.292 176.373 175.772 176.783L173.602 177.053C172.512 177.873 172.512 180.713 173.732 181.523C178.072 181.253 182.812 181.113 188.382 181.113C194.742 181.113 200.162 181.253 204.102 181.523C205.322 180.713 205.322 177.863 204.232 177.053L202.472 176.783C198.002 176.103 197.462 175.153 197.462 165.403V138.023C197.462 134.363 197.732 134.223 200.982 134.223H210.732C217.382 134.223 217.782 135.443 217.782 146.023V165.403C217.782 175.153 217.242 176.373 213.712 176.783L211.552 177.053C210.462 177.873 210.462 180.713 211.682 181.523C216.022 181.253 220.762 181.113 226.592 181.113C232.492 181.113 252.672 181.113 258.312 181.113C264.822 181.113 269.152 181.253 273.362 181.523C274.582 180.713 274.582 177.593 273.492 176.783L271.322 176.503C267.932 176.103 267.402 174.873 267.402 167.423V143.133C267.402 140.693 267.672 139.073 268.482 138.123C269.562 136.633 272.282 134.873 276.082 134.873C282.852 134.873 285.562 139.213 285.562 144.503V167.413C285.562 174.863 285.022 175.813 281.912 176.353L279.472 176.763C278.392 177.573 278.392 180.693 279.612 181.503C283.542 181.233 288.822 181.093 294.252 181.093C300.762 181.093 306.442 181.233 310.642 181.503C311.882 180.683 311.882 177.573 310.802 176.753ZM179.862 124.023C179.862 126.323 179.452 126.873 176.872 126.873H163.052C159.662 126.873 159.522 126.743 159.522 123.083V121.863C159.522 98.4135 166.982 93.6735 172.532 93.6735C178.502 93.6735 181.622 99.9035 182.572 103.973C180.542 111.013 179.862 119.153 179.862 124.023Z" fill="#56AF31"/>
<path d="M95.342 25.8834C95.342 25.8834 93.652 30.3034 93.722 32.4934C93.782 34.4234 115.342 3.43344 143.312 22.6434C143.312 22.6434 148.662 21.3334 151.442 21.1634C153.352 21.0434 153.182 19.9634 148.542 16.5634C145.532 14.3534 141.132 12.3934 141.132 12.3934C141.132 12.3934 112.112 -1.45656 95.342 25.8834Z" fill="black"/>
<path d="M197.322 8.27346C197.322 8.27346 201.652 13.5635 201.262 14.7635C200.652 16.6035 168.822 -8.40654 155.192 18.8735C155.192 18.8735 154.772 19.3535 154.382 18.8735C152.722 16.8635 148.932 14.3735 148.492 14.1435C147.742 13.7335 149.472 11.7635 149.472 11.7635C149.472 11.7635 169.462 -12.1965 197.322 8.27346Z" fill="black"/>
<path d="M227.602 74.7035C210.662 62.2835 197.222 62.2435 176.532 61.1635C175.602 61.0035 174.642 60.8635 173.602 60.7435C165.432 59.8135 159.312 54.6235 154.732 48.8235C154.732 48.8235 153.402 46.1535 153.172 49.0535C150.952 60.1335 141.932 73.6935 116.422 70.2835C116.072 70.2035 114.042 70.1435 115.822 71.8435C116.232 72.5135 123.992 75.2635 122.542 83.3535C121.302 90.2635 113.102 106.783 105.912 112.803C101.042 116.883 96.4919 120.454 100.042 121.144C108.082 120.834 113.792 120.213 122.372 118.363C127.932 117.203 129.402 115.043 130.022 113.113C130.022 113.113 140.142 63.2535 189.182 80.8235C189.612 80.8935 190.012 80.8635 190.382 80.7635L190.422 80.8235C197.792 77.7935 204.282 71.3035 229.002 77.1735C231.312 77.1835 228.282 75.2035 227.602 74.7035Z" fill="black"/>
<path d="M110.882 67.3935C110.162 59.5235 97.3219 59.2435 93.0119 50.6335C91.5819 47.7635 90.9819 44.2735 90.9719 40.6835C90.9619 35.8535 92.0319 30.8335 93.6319 26.8435C94.0919 25.6835 72.7419 51.4435 80.5019 74.1535C87.8019 76.5835 95.1019 77.3935 110.402 71.2535C110.842 69.7835 110.982 68.5135 110.882 67.3935Z" fill="#E56606"/>
<path opacity="0.6" d="M102.512 67.0835C109.902 67.3535 110.772 67.3835 110.882 67.3935C110.162 59.5235 97.3219 59.2435 93.0119 50.6335C91.5819 47.7635 90.9819 44.2735 90.9719 40.6835C86.7719 58.3935 90.6919 66.6435 102.512 67.0835Z" fill="black"/>
<path d="M80.8619 74.2634C81.3319 74.2634 81.7219 74.2034 82.5319 74.0934C81.8319 74.1434 81.1519 74.1634 80.4719 74.1334C80.5319 74.2034 80.7919 74.2334 80.8619 74.2634Z" fill="white"/>
<path d="M105.712 59.9134C104.432 59.5434 106.632 60.3034 105.832 61.0434C94.9919 70.9834 86.6419 73.5334 82.5319 74.0834C91.9019 73.4534 103.102 66.1534 107.052 61.8234C107.262 61.5934 107.312 61.5934 107.692 61.8834C109.632 63.3934 108.602 60.7534 105.712 59.9134Z" fill="white"/>
<path d="M200.102 9.20349C200.102 9.20349 202.442 12.1135 203.732 15.2935C203.762 15.3535 203.782 15.4035 203.812 15.4635C209.182 28.4335 200.332 37.8235 194.652 38.5235C194.602 38.5335 190.712 38.9835 190.712 38.9835C190.392 38.8935 188.122 39.6335 187.822 39.7935C185.392 41.0735 184.132 41.9735 184.572 44.4235C185.032 46.9735 187.582 47.0835 188.972 49.0535C190.132 50.5635 189.432 52.2935 189.432 52.2935C189.432 52.2935 208.552 56.1235 223.012 48.9435C223.022 48.9535 225.182 25.8635 200.102 9.20349Z" fill="#E56606"/>
<path opacity="0.6" d="M204.642 44.6234C220.812 40.5834 207.222 18.8634 203.742 15.2834C203.772 15.3434 203.792 15.3934 203.822 15.4534C209.192 28.4234 200.342 37.8135 194.662 38.5135C194.612 38.5235 190.722 38.9734 190.722 38.9734C190.402 38.8834 188.132 39.6234 187.832 39.7834C185.402 41.0634 184.142 41.9634 184.582 44.4134C185.042 46.9634 187.592 47.0734 188.982 49.0434C189.892 48.4634 192.342 46.5134 194.332 46.3934C198.382 46.1834 201.392 45.4334 204.642 44.6234Z" fill="black"/>
<path d="M184.682 42.3335C185.032 41.3535 185.662 42.1235 185.902 42.3335C192.872 48.5035 211.302 49.5135 223.052 48.7235C223.082 48.7035 223.062 48.7035 223.082 48.6935C217.962 48.8835 195.882 49.1935 186.132 41.0635C185.542 40.5635 187.772 39.6135 186.532 39.6135C183.522 39.6135 183.862 44.6635 184.682 42.3335Z" fill="white"/>
<path d="M178.852 16.2535C178.852 16.2535 178.942 18.6835 176.572 21.9735C176.582 22.0335 176.582 22.1035 176.562 22.1935C176.142 24.5435 176.352 24.6435 174.332 26.1435C173.002 27.1135 168.632 28.7135 168.092 29.0135C168.682 28.6935 172.932 26.7335 183.832 31.0735C183.822 31.0635 185.612 22.0235 178.852 16.2535Z" fill="black" stroke="black" stroke-width="0.5558" stroke-linecap="round" stroke-linejoin="round"/>
<path d="M183.672 24.9335C183.272 27.7235 181.162 29.7335 178.942 29.4135C176.732 29.0935 175.252 26.5835 175.652 23.7935C176.052 21.0035 178.162 18.9935 180.382 19.3035C182.582 19.6335 184.062 22.1435 183.672 24.9335Z" fill="white"/>
<path d="M180.472 26.3634C180.232 28.0734 178.882 29.3034 177.452 29.1034C176.032 28.9034 175.072 27.3434 175.322 25.6334C175.572 23.9234 176.912 22.6934 178.342 22.8934C179.762 23.1034 180.712 24.6534 180.472 26.3634Z" fill="black"/>
<path d="M111.362 31.9135C111.362 31.9135 111.982 34.2635 115.222 36.7135C115.222 36.7735 115.242 36.8435 115.292 36.9335C116.382 39.0535 116.212 39.2135 118.592 40.0435C120.142 40.5935 124.792 40.8335 125.402 40.9635C124.752 40.8235 120.112 40.1935 110.952 47.5335C110.942 47.5335 106.582 39.4035 111.362 31.9135Z" fill="black" stroke="black" stroke-width="0.5558" stroke-linecap="round" stroke-linejoin="round"/>
<path d="M109.292 41.6234C110.492 44.1734 113.102 45.4734 115.132 44.5234C117.162 43.5734 117.832 40.7334 116.642 38.1834C115.452 35.6334 112.832 34.3334 110.812 35.2834C108.772 36.2334 108.102 39.0734 109.292 41.6234Z" fill="white"/>
<path d="M112.772 42.0535C113.512 43.6235 115.162 44.4035 116.462 43.7935C117.762 43.1835 118.222 41.4235 117.482 39.8535C116.752 38.2835 115.102 37.5035 113.802 38.1135C112.492 38.7235 112.032 40.4835 112.772 42.0535Z" fill="black"/>
<path d="M78.882 196.493H80.0219C83.7419 196.493 86.102 198.623 86.102 201.983C86.102 204.513 84.5919 206.503 82.2919 207.103C81.1519 207.393 80.562 207.473 78.712 207.473H76.6619V215.883H73.8719V196.493H78.882ZM76.6619 204.993H78.882H79.702C81.972 204.993 83.2219 203.883 83.2219 201.923C83.2219 199.903 82.0319 198.943 79.5219 198.943H78.752H76.6519V204.993H76.6619Z" fill="black"/>
<path d="M97.7219 196.493C101.642 196.493 104.092 198.573 104.092 201.893C104.092 204.163 102.952 205.843 100.852 206.673C101.622 207.183 101.902 207.443 102.532 208.183C103.382 209.153 103.842 209.833 105.172 212.023C105.822 213.103 106.362 213.923 106.792 214.493L107.642 215.653L107.812 215.883H104.512L104.312 215.623L103.632 214.603C103.522 214.403 103.292 214.063 102.982 213.583C102.272 212.413 101.532 211.303 101.132 210.713C100.192 209.403 99.4819 208.583 98.6919 208.013C98.0419 207.533 97.6119 207.443 96.3619 207.443H95.6219V215.883H92.8619V196.493H97.7219ZM95.6219 204.963H96.702C97.472 204.963 98.1819 204.933 98.6919 204.853C100.232 204.653 101.252 203.463 101.252 201.863C101.252 200.753 100.652 199.733 99.7719 199.303C99.0619 198.963 98.1819 198.843 96.4719 198.843H95.6219V204.963Z" fill="black"/>
<path d="M134.192 206.193C134.192 211.933 129.702 216.143 123.592 216.143C117.732 216.143 113.362 211.903 113.362 206.253C113.362 200.453 117.742 196.243 123.742 196.243C129.732 196.233 134.192 200.473 134.192 206.193ZM116.222 206.243C116.222 210.423 119.462 213.543 123.752 213.543C128.072 213.543 131.342 210.363 131.342 206.123C131.342 202.033 128.072 198.843 123.842 198.843C119.412 198.853 116.222 201.953 116.222 206.243Z" fill="black"/>
<path d="M148.432 196.493C150.112 196.493 150.962 196.553 152.012 196.783C153.002 196.953 153.892 197.263 154.652 197.663C157.752 199.223 159.722 202.553 159.722 206.193C159.722 210.313 157.102 213.953 153.152 215.293C151.612 215.803 150.992 215.923 148.032 215.923L141.892 215.893V196.503H148.432V196.493ZM144.652 213.383H148.232C150.112 213.383 150.652 213.323 151.902 212.983C154.862 212.193 156.852 209.403 156.852 206.043C156.852 203.173 155.372 200.813 152.812 199.673C151.502 199.073 150.712 198.963 148.152 198.963H144.652V213.383Z" fill="black"/>
<path d="M183.712 207.493C183.712 209.623 183.652 210.113 183.282 211.303C182.942 212.353 182.342 213.293 181.522 214.033C179.962 215.423 177.882 216.133 175.412 216.133C171.462 216.133 168.452 214.313 167.512 211.353C167.112 210.133 167.052 209.563 167.052 207.463V196.493H169.842V207.493C169.842 210.053 170.102 211.073 171.062 212.043C172.112 213.123 173.562 213.663 175.382 213.663C178.192 213.663 180.362 212.243 180.752 210.113C180.862 209.603 180.952 208.403 180.952 207.493V196.493H183.712V207.493V207.493Z" fill="black"/>
<path d="M208.352 200.813C205.992 199.473 203.922 198.883 201.702 198.883C197.272 198.883 193.972 202.013 193.972 206.243C193.972 210.503 197.182 213.543 201.672 213.543C204.002 213.543 206.332 212.803 208.552 211.383V214.423C206.422 215.593 204.142 216.133 201.502 216.133C198.692 216.133 196.532 215.423 194.652 213.853C192.382 211.973 191.072 209.193 191.072 206.233C191.072 200.603 195.652 196.223 201.562 196.223C203.692 196.223 205.682 196.683 208.352 197.813V200.813V200.813Z" fill="black"/>
<path d="M227.222 198.973H219.002V204.883H226.932V207.353H219.002V213.383H227.472V215.883H216.212V196.493H227.212V198.973H227.222Z" fill="black"/>
</svg>
