<?xml version="1.0" encoding="utf-8"?>
<!-- Generator: Adobe Illustrator 23.1.1, SVG Export Plug-In . SVG Version: 6.00 Build 0)  -->
<svg version="1.2" baseProfile="tiny" id="Layer_1" xmlns="http://www.w3.org/2000/svg" xmlns:xlink="http://www.w3.org/1999/xlink"
	 x="0px" y="0px" viewBox="0 0 854 235.9" xml:space="preserve">
<g>
	<g>
		<g>
			<g>
				<path fill="#004E65" d="M298.5,136c5.7,4.3,12.6,7.9,21.3,7.9c5.8,0,10.9-1.7,10.9-6.9c0-4.7-4-6.4-11.8-8.3
					c-16-4-21.9-11.3-21.9-24.1c0-15.2,11.5-23.9,26.7-23.9c9.2,0,15.5,2.2,21.3,5.6v18.9c-6-4.9-12.6-8-20.5-8
					c-5.8,0-8.7,2.6-8.7,6.2c0,4.9,4.4,6.5,12.6,8.5c15.8,4.2,21.3,11.5,21.3,24.4c0,16.7-13.4,24-29.7,24c-8.6,0-16.3-2.3-21.4-5.5
					L298.5,136L298.5,136z"/>
			</g>
			<g>
				<path fill="#004E65" d="M393.2,101.4l-10,27.4h19.7L393.2,101.4z M377.4,144.4l-5.3,14.6h-20.3l30-77h23.2l30,77h-21.1
					l-5.2-14.6H377.4z"/>
				<polygon fill="#004E65" points="454.5,159.1 425.9,82.1 446.6,82.1 466.4,139.5 486,82.1 506.6,82.1 478,159.1 				"/>
				<polygon fill="#004E65" points="568.4,142.1 568.4,159.1 516.6,159.1 516.6,82.1 567.5,82.1 567.5,99.1 535.6,99.1 535.6,112.3 
					564.7,112.3 564.7,128.9 535.6,128.9 535.6,142.1 				"/>
				<polygon fill="#004E65" points="635.1,129.3 635.1,82.1 653.7,82.1 653.7,159.1 635.5,159.1 603.3,112.8 603.3,159.1 
					584.6,159.1 584.6,82.1 604.1,82.1 				"/>
			</g>
			<g>
				<path fill="#004E65" d="M726.5,106.3c-4.8-4.8-11.9-8.2-20.9-8.2c-12.7,0-20,9.3-20,22.4c0,13.6,8.3,22.4,20.7,22.4
					c9.2,0,14.9-2.7,21.7-8v19.7c-7.5,4.5-14.7,5.7-22.6,5.7c-24.2,0-39.7-16.5-39.7-39.8c0-23.5,15.8-39.8,39.7-39.8
					c7.9,0,14.8,1.3,21,4.9L726.5,106.3L726.5,106.3z"/>
			</g>
			<g>
				<rect x="743.6" y="82.1" fill="#004E65" width="19.3" height="77"/>
				<path fill="#004E65" d="M812.3,101.4l-10,27.4h19.7L812.3,101.4z M796.5,144.4l-5.3,14.6h-20.3l30-77H824l29.9,77h-21.1
					l-5.2-14.6H796.5z"/>
				<polygon fill="#0098D7" points="299.4,235.2 299.4,191.1 323.8,191.1 323.8,197.8 306.9,197.8 306.9,210.6 322.2,210.6 
					322.2,217.3 306.9,217.3 306.9,235.2 				"/>
			</g>
			<g>
				<path fill="#0098D7" d="M339.3,213.3h3.7c6,0,9.9-2.6,9.9-8.3c0-5-3.5-8-10.2-8c-0.9,0-2.6,0.1-3.4,0.1V213.3z M339.3,235.2
					h-7.6v-44c2.7-0.4,7.4-0.8,11-0.8c11.6,0,17.9,5.1,17.9,14.4c0,6.5-3.6,11.1-8.8,13l13.3,17.4H356l-11.7-15.7h-5L339.3,235.2
					L339.3,235.2z"/>
				<path fill="#0098D7" d="M390.5,197.2c-8.5,0-15,6.3-15,15.9s6.6,15.9,15,15.9s15-6.3,15-15.9
					C405.5,203.5,398.9,197.2,390.5,197.2 M390.5,190.4c12.7,0,22.8,9.3,22.8,22.8c0,13.5-10.2,22.8-22.8,22.8
					c-12.8,0-22.8-9.3-22.8-22.8S377.7,190.4,390.5,190.4"/>
			</g>
			<g>
				<polygon fill="#0098D7" points="441.7,235.2 431.3,201.1 425.9,235.2 418.4,235.2 425.5,191.1 434.9,191.1 445.6,226.1 
					456,191.1 465.5,191.1 472.5,235.2 464.9,235.2 459.6,201.1 449.1,235.2 				"/>
				<path fill="#0098D7" d="M497.8,198.3l-7.6,20.3h15L497.8,198.3z M488,224.8l-3.9,10.4h-8l17.1-44h9.3l17.2,44h-8.2l-3.9-10.4
					H488z"/>
			</g>
			<g>
				<path fill="#0098D7" d="M557.1,201.8c-3.1-2.9-7.6-4.6-12.5-4.6c-8.9,0-15.3,6.3-15.3,15.9c0,9.8,6.7,16.2,15.3,16.2
					c2.7,0,4.7-0.3,6.5-1v-13.3h7.6v17.7c-3.5,2.1-8.8,3.3-14.2,3.3c-13.7,0-23-9-23-22.8c0-13.5,9.7-22.8,22.8-22.8
					c5,0,9.3,1.2,12.8,3.3L557.1,201.8L557.1,201.8z"/>
			</g>
			<g>
				<polygon fill="#0098D7" points="595.3,228.5 595.3,235.2 567.9,235.2 567.9,191.1 594.8,191.1 594.8,197.8 575.4,197.8 
					575.4,209.7 593.4,209.7 593.4,216.2 575.4,216.2 575.4,228.5 				"/>
			</g>
			<g>
				<path fill="#0098D7" d="M631,208.7c3-1.5,5.1-3.7,5.1-7.6c0-3-2.1-4.8-5-4.9c-3,0-4.8,2-4.8,4.8c0,2.1,1,3.8,3.4,6.3L631,208.7z
					 M628.2,215.8c-4,1.9-5.8,4.6-5.8,7.8c0,3.9,3,6.5,7.7,6.5c3.5,0,6.4-1.2,8.9-3L628.2,215.8z M623.8,211.2
					c-2.7-2.7-4.6-6.1-4.6-10.1c0-6.2,4.6-10.7,11.8-10.7c7,0,11.9,4.1,11.9,10.5c0,5.9-3.6,9.4-8.1,11.9l8.4,9
					c1.4-2.7,2.2-5.8,2.4-8.9h6.3c-0.1,5-1.6,9.7-4.4,13.6l8.2,8.7h-8.8l-3.8-4c-3.7,2.9-8.3,4.7-13.5,4.7
					c-8.9,0-14.5-4.5-14.5-12.1c0-6.1,3.6-9.3,9.3-12L623.8,211.2z"/>
				<path fill="#0098D7" d="M682.6,228.9c1.6,0.2,3.3,0.3,5,0.3c10.2,0,17.2-5.3,17.2-16.8c0-9.5-6.1-15-17.7-15
					c-1.4,0-3,0.1-4.5,0.2L682.6,228.9L682.6,228.9z M675,191.2c3.3-0.5,7.7-0.8,11.7-0.8c17.6,0,25.9,9.1,25.9,22
					c0,14.1-8.7,23.4-25.7,23.4c-4.5,0-8.6-0.3-11.9-0.8L675,191.2L675,191.2z"/>
			</g>
			<g>
				<path fill="#0098D7" d="M736.1,198.3l-7.6,20.3h15L736.1,198.3z M726.3,224.8l-3.9,10.4h-8l17.1-44h9.3l17.2,44h-8.2l-3.9-10.4
					H726.3z"/>
				<rect x="763.9" y="191.1" fill="#0098D7" width="7.6" height="44"/>
			</g>
			<g>
				<path fill="#0098D7" d="M790,213.3h3.7c6,0,9.9-2.6,9.9-8.3c0-5-3.5-8-10.2-8c-0.9,0-2.6,0.1-3.4,0.1V213.3z M790,235.2h-7.6
					v-44c2.7-0.4,7.4-0.8,11-0.8c11.6,0,17.9,5.1,17.9,14.4c0,6.5-3.6,11.1-8.8,13l13.3,17.4h-9.1L795,219.6h-5L790,235.2L790,235.2
					z"/>
			</g>
			<g>
				<polygon fill="#0098D7" points="845.6,191.1 854,191.1 838.1,218.3 838.1,235.2 830.5,235.2 830.5,218.3 814.6,191.1 
					822.9,191.1 834.3,211.2 				"/>
			</g>
			<g>
				<path fill="#0098D7" d="M206.1,169.3c-1.8-41.5-48.1-59.5-78.2-72.7C82.6,76.7,61.3,65.7,60.3,40.9c-0.5-11.8,3.4-20.7,9.6-27.2
					C74.7,8,81.4,4.1,87.3,1.6C57.5,9.2,22.7,29.1,24.2,64.4c0.9,22,12.9,43.3,70.8,66.3c62.3,24.6,75.3,33.3,76.4,59
					c0.5,11-5.5,27.6-22,38.3c-3.8,2.9-7.6,4.7-11.8,6.8C173.2,227.5,207.5,204.2,206.1,169.3"/>
				<path fill="#00BFF2" d="M193.2,92.3c-14.7-2.3-14.9,8.7-12.4,13.8c4.4,8.8,18.1,12,27.5,9c19.1-6,25.9-28.2,15-48.9
					C223.4,66.2,215.6,95.8,193.2,92.3"/>
				<path fill="#0098D7" d="M136.2,0c42.6,23.5,23.1,61.6,43.4,73.4c15.6,9.1,30.9-2.9,28.1-20.9c-3-19.5-23.5-34.7-41.8-43.1
					C152.4,3.2,142.5,1.2,136.2,0"/>
				<path fill="#E06D1E" d="M134.2,23.1c-10.8-9.7-24.5-8.9-34.8-5.8C88.2,20.7,79,30.2,78.4,40.6c-0.4,7.5,4.9,19.6,17.9,17.7
					c15.9-2.3,13-15,20.8-24.7C126.6,21.9,134.2,23.1,134.2,23.1"/>
				<path fill="#004E65" d="M166.9,88.1c-19.6,3.8-37.5-7.4-40.7-21.7c-2.1-9.4-0.8-16.8,3.7-20.6c5.6-4.7,13-5,18.8,1.1
					c6.2,6.6,2.8,13.2,5.8,23.7C157.2,80.9,166.9,88.1,166.9,88.1"/>
				<path fill="#A4CC53" d="M231,137.6c-0.5-9.5-5.2-15.5-12.1-14.5c-7.5,1-10.4,7.6-7.5,16.2c2.4,7.2,9.4,12.1,6.5,33.6
					C221.8,168.9,232.2,157.5,231,137.6"/>
				<path fill="#00BFF2" d="M37.8,142.7C52.5,145,52.7,134,50.2,129c-4.4-8.8-18.1-12-27.5-9.1c-19.1,6-25.9,28.2-15.1,48.9
					C7.6,168.8,15.4,139.2,37.8,142.7"/>
				<path fill="#0098D7" d="M94.6,235.2c-42.6-23.6-23-61.6-43.2-73.5c-15.6-9.1-30.9,2.8-28.1,20.9c3,19.5,23.4,34.8,41.7,43.2
					C78.5,231.9,88.4,233.9,94.6,235.2"/>
				<path fill="#E06D1E" d="M96.7,212c10.8,9.7,24.5,8.9,34.8,5.9c11.1-3.3,20.4-12.9,21-23.2c0.4-7.5-4.8-19.6-17.9-17.8
					c-15.9,2.2-13,14.9-20.9,24.6C104.3,213.3,96.7,212,96.7,212"/>
				<path fill="#004E65" d="M64.1,147c19.6-3.8,37.5,7.5,40.7,21.8c2.1,9.4,0.8,16.8-3.8,20.6c-5.6,4.7-13,5-18.8-1.2
					c-6.2-6.7-2.8-13.2-5.7-23.8C73.8,154.3,64.1,147,64.1,147"/>
				<path fill="#A4CC53" d="M0.1,97.3c0.5,9.5,5.2,15.5,12.1,14.6c7.5-1,10.4-7.6,7.5-16.2c-2.4-7.2-9.3-12.1-6.5-33.6
					C9.4,66.1-1,77.4,0.1,97.3"/>
			</g>
		</g>
	</g>
</g>
</svg>
