<?xml version="1.0" encoding="utf-8"?>
<!-- Generator: Adobe Illustrator 21.1.0, SVG Export Plug-In . SVG Version: 6.00 Build 0)  -->
<svg version="1.1" id="Laag_1" xmlns="http://www.w3.org/2000/svg" xmlns:xlink="http://www.w3.org/1999/xlink" x="0px" y="0px"
	 viewBox="0 0 141.7 115" style="enable-background:new 0 0 141.7 115;" xml:space="preserve">
<style type="text/css">
	.st0{display:none;}
	.st1{display:inline;fill:#E30040;}
	.st2{display:inline;}
	.st3{fill:#E30040;}
	.st4{fill:#FFFFFF;}
	.st5{fill:#007754;}
	.st6{fill:#CA0935;}
</style>
<g id="payoff_oud" class="st0">
	<path class="st1" d="M217.5,166.8"/>
	<g class="st2">
		<path class="st3" d="M-57.3,139.2c0.7,1.8-1.2,2.3-1.7,3.5c-0.6,2.5-3,8.1-4.2,10.1c-2.1,3.2-3.1,6.4-5.2,9.7
			c-0.1,1.5-1.1,2.6-2.2,3.1c-1.2,0-1.8,0.8-3,0.2c-1.7-0.3-0.1-1.9-0.6-2.7c0.5-0.1,0-0.7,0.5-0.9c-1-6.3-0.8-16.2-2.1-22.3
			c0.8-0.6,1.2-1.4,2.3-1.6c0.2,0,1.3,0.8,1.7,1.4c0.9,4.7,0.7,13.1,2,17.7c0,0.1,0.1,0.1,0.2,0.2c2.2-4,5.8-10.3,7.3-14.8
			c0.2-0.9-1.8-1.4-0.2-1.8C-62,139.6-58.9,136-57.3,139.2z"/>
		<path class="st3" d="M-52.1,150.9c1.2,3.8-1.8,7-4.4,8.1c-0.2,0.9-0.1,2,0.6,3.5c0,0.8,0.8,1.7,1.5,1.1c1.2-0.9,1.7-3,3.5-3.1
			c0,0.3,0.1,0.5-0.2,0.6c0.5,1.1,1.8-1.4,1,0.3c-0.9,2.3-2.9,5.4-5.9,5.3c0,1.1-0.9-0.2-0.8,0.2c-1.1,0.3-0.6-1.3-1.7-1.1
			c-0.3-0.9-1.2-1.4-1-2.6c-0.7-1.4-0.4-3.2-1-4.6c-0.1-2.5,0.1-6.6,1.9-8.1c1.2-1.1,2.7-1.5,4.4-1.3
			C-53.3,149.6-52.7,149.8-52.1,150.9z M-55.6,154.3c0.3-0.5,0.8-0.9,0.4-1.4c-0.8-0.9-1.7,1.1-1.8,2.7
			C-55.8,155.2-55.9,155-55.6,154.3z"/>
		<path class="st3" d="M-36.3,148.2c0.9,1.7-0.6,2.5-1.5,3.6c-0.7,0.9-2.2,0.9-3.1,0.2c-1.6,0.4-1.4-0.1-2.5,0.9
			c0.4,4.4-0.7,8.4-0.6,12.3c-0.8,1.5-2.7,1.7-4,1.5c-2-4.8,0.6-11.4-1.5-15.7c0-1.1,0-1.4,0.4-2.4c0.7-0.6,1.4-0.9,2.3-1.1
			c1.6-0.3,1.5,3.3,3.8,1.4c1.9-1.1,2.9-0.2,4.8-1.4C-37.4,147.4-37.2,148.7-36.3,148.2z"/>
		<path class="st3" d="M-28.1,145.4c0.5,1.6-1.3,2.1-2.2,3.1c-2.2,1.8-1.7,5.5-1.5,7.8c0.5,4.5,3.8,9.5,0.5,13.7
			c-1.7,1.3-3.4,2.1-5.7,1.8c0-1,0.7-1.5,1.3-2.2c0.8,0.4,1.2-0.8,1.7-1.3c0.9-3.3-0.8-6-1.7-9.1c-1.6-3.6,0-8,1.8-11.2
			C-32.4,146.8-30.4,142-28.1,145.4z"/>
		<path class="st3" d="M-15.8,151.9c-0.3,0.5-2.1-0.4-2.6,0.4c-0.5,0.1-0.2-0.3-0.6-0.4c-0.6,0.9-1.8,0-2.6,0.6
			c-0.2,3.8-0.5,7.3,0.9,10.6c0.7-0.3,1.5-0.6,1.8-1.1c-0.1,0.6,1,0.4,1.1,1.1c0.1-1,1-0.4,0.4,0.3c-0.8,1.1-1.7,1.8-1.9,3
			c-0.2,0.2-0.2,0.4-0.2,0.7c-0.5,0.4-1.8,0-1.8,0.4c-2.7,0-3.2-3.5-4.4-5.5c-0.6-2.5,0.4-4.9,0-7.5c-0.9-0.4-3.2,0.7-3.5-0.9
			c0.8-1.6,1.6-3.1,3.5-3.1c2.4-1.1,0.4-5.7,3.2-6.8c0.9,0.4,2.2,0,2.6,1.4c0.3,0.8-0.5,2.6-1.1,3.7c2.6-0.3,3.2,0.1,5.1,0
			C-14.5,148.8-15.4,151.4-15.8,151.9z"/>
		<path class="st3" d="M-7.6,150.9c1.2,3.8-1.8,7-4.4,8.1c-0.2,0.9-0.1,2,0.6,3.5c0,0.8,0.8,1.7,1.5,1.1c1.2-0.9,1.7-3,3.5-3.1
			c0,0.3,0.1,0.5-0.2,0.6c0.5,1.1,1.8-1.4,1,0.3c-0.9,2.3-2.9,5.4-5.9,5.3c0,1.1-0.9-0.2-0.8,0.2c-1.1,0.3-0.6-1.3-1.7-1.1
			c-0.3-0.9-1.2-1.4-1-2.6c-0.7-1.4-0.4-3.2-1-4.6c-0.1-2.5,0.1-6.6,1.9-8.1c1.2-1.1,2.7-1.5,4.4-1.3
			C-8.7,149.6-8.1,149.8-7.6,150.9z M-11,154.3c0.3-0.5,0.8-0.9,0.4-1.4c-0.8-0.9-1.7,1.1-1.8,2.7C-11.2,155.2-11.3,155-11,154.3z"
			/>
		<path class="st3" d="M4.5,150.1c0.3,0.6,2.2,0.8,2.1,2.2c-0.3,6.9,3.8,16.1-1.9,21.1c-1.8,1.9-3.3,3.2-6.5,2.7
			c-0.3-1.8,1.2-1.1,2.1-1.6c3.5-3.3,5-8.4,3.3-12.9c-0.6-0.6-0.6-1.4-0.8-2.1c-2.2,1.8-1.4,6.7-5,5.8c-0.9-0.8-1.7-1.1-1.6-2.6
			c-0.7-0.9-0.4-2.1-1.1-2.9c0.5-1.8-1.1-2.3-0.2-4c0.1-0.9,0.6-1.5,1-2.2C-6.2,152.9,0.9,151,4.5,150.1z M1.2,155.4
			c-0.8-0.4-1.2-0.4-1.8,0c0,1-0.2,2.8,0.2,3.1c0.7-0.7,0.9-1.8,1.5-2.4C0.8,155.8,1.4,155.7,1.2,155.4z"/>
		<path class="st3" d="M17.4,150.9c1.2,3.8-1.8,7-4.4,8.1c-0.2,0.9-0.1,2,0.6,3.5c0,0.8,0.8,1.7,1.5,1.1c1.2-0.9,1.7-3,3.5-3.1
			c0,0.3,0.1,0.5-0.2,0.6c0.5,1.1,1.8-1.4,1,0.3c-0.9,2.3-2.9,5.4-5.9,5.3c0,1.1-0.9-0.2-0.8,0.2c-1.1,0.3-0.6-1.3-1.7-1.1
			c-0.3-0.9-1.2-1.4-1-2.6c-0.7-1.4-0.4-3.2-1-4.6c-0.1-2.5,0.1-6.6,1.9-8.1c1.2-1.1,2.6-1.5,4.4-1.3
			C16.3,149.6,16.9,149.8,17.4,150.9z M14,154.3c0.3-0.5,0.8-0.9,0.4-1.4c-0.8-0.9-1.7,1.1-1.8,2.7C13.7,155.2,13.6,155,14,154.3z"
			/>
		<path class="st3" d="M24.6,149.6c0.3,2.6-0.6,5.4,0,8.1c1.5-2.5,2.9-4.2,4.6-6.8c1.1-0.3,1.9-0.9,2.5-1.3c0.7,0.5,1.6,0.6,2.1,1.5
			c0,3.6,0,8.4,0,12.6c1.2,1,0.5,2.3,0.7,3.6c-1,1-2.4,0.7-3.8,0.6c0-0.7-1-0.4-1.1-1.1c-0.1-3.4,0.4-6.8-0.4-10.2
			c-1.9,2.5-2.9,5.8-3.9,8.8c0.3,1-0.5,1.3-0.9,1.8c-1.2,0-2.9,0.6-3.3-0.9c-1.5-4.6-0.7-10.7-0.6-15.6c0.4-0.9,1-0.9,1.7-1.8
			C23.5,147.9,23.2,150.1,24.6,149.6z"/>
		<path class="st3" d="M43.3,163.8c-0.3,1.8-1.8,3-3.5,3.3c-1.2,0.2-1.7-0.4-2.3-1.1c-0.6-1.5,0.8-3.1,1.9-3.7
			C40.6,162.4,43.2,161.7,43.3,163.8z"/>
	</g>
	<g class="st2">
		<path class="st3" d="M70.1,140.1c-0.7,1-1.3,2.7-2.7,2.9c-1.8,0.7-4.1-0.7-5.1,1.9c-0.3,1-0.1,2.8-0.2,4.2c1.3,0,3.3,0.2,4.8-0.3
			c-0.2-0.4,0.2-0.1,0.4-0.1c0.3,0.8,1.5,0.6,1.4,1.9c-1.4,2.1-4.3,3-6.7,2.9c0.2,3-0.5,6.1,0.6,9c0.5,1.5-0.8,2.4-1.3,3.3
			c-0.9,0.3-1.3,1.4-2.5,0.6c-0.9-1.6-0.1-3.9-0.7-6.1c0-1.8,0-3.4,0-5.5c-0.9-0.4-1-1.8-0.6-2.7c0.6-0.2,0.6-1.2,0.9-1.8
			c1.1-3.5-1.5-6.1,0.6-9.3c0.8-0.8,1.9-0.8,3-1.1C64.6,139.7,68.1,136.7,70.1,140.1z"/>
		<path class="st3" d="M72.6,148c1.3-0.4,2.3,0.5,3.1,1.5c-0.3,2.7-1.2,6.6,0,9.5c0.8-1.4,1.8-2.7,2.4-4c1.3-1.4,2-2.7,3.1-4.6
			c-0.3-1.6,1.2-1.9,1.9-2.6c1.1-0.4,1.3-0.4,2.3,0.2c1.4,0.9-0.1,3.1-0.2,4.8c0.3,4.7,0.9,10.3,2.5,15c0,1.4-2,0-2.3,1.1
			c-2.3,0.1-1.8-2.5-2.8-4c-0.3-2.6-1.8-4.5-1.8-7.2c-1.3,1.4-2,3.6-3.1,5c-0.1,0.3,0.2,0.8-0.3,0.7c-0.3,2.7-2.3,2.9-4.6,2.4
			c-1.4-3.5-2.7-7.3-2.1-11.9c-0.3-0.7-1.5-1.2-1.5-1.9C69.3,151.1,70.7,149.6,72.6,148z"/>
		<path class="st3" d="M93,149.6c0.3,2.6-0.6,5.4,0,8.1c1.5-2.5,2.9-4.2,4.6-6.8c1.1-0.3,1.9-0.9,2.5-1.3c0.7,0.5,1.6,0.6,2.1,1.5
			c0,3.6,0,8.4,0,12.6c1.2,1,0.5,2.3,0.7,3.6c-1,1-2.4,0.7-3.8,0.6c0-0.7-1-0.4-1.1-1.1c-0.1-3.4,0.4-6.8-0.4-10.2
			c-1.9,2.5-2.9,5.8-3.9,8.8c0.3,1-0.5,1.3-0.9,1.8c-1.2,0-2.9,0.6-3.3-0.9c-1.5-4.6-0.7-10.7-0.6-15.6c0.4-0.9,1-0.9,1.7-1.8
			C91.9,147.9,91.5,150.1,93,149.6z"/>
		<path class="st3" d="M124.9,140.1c-0.7,1-1.3,2.7-2.7,2.9c-1.8,0.7-4.1-0.7-5.1,1.9c-0.3,1-0.1,2.8-0.2,4.2c1.3,0,3.3,0.2,4.8-0.3
			c-0.2-0.4,0.2-0.1,0.4-0.1c0.3,0.8,1.5,0.6,1.4,1.9c-1.4,2.1-4.3,3-6.7,2.9c0.2,3-0.5,6.1,0.6,9c0.5,1.5-0.8,2.4-1.3,3.3
			c-0.9,0.3-1.3,1.4-2.5,0.6c-0.9-1.6-0.1-3.9-0.7-6.1c0-1.8,0-3.4,0-5.5c-0.9-0.4-1-1.8-0.6-2.7c0.6-0.2,0.6-1.2,0.9-1.8
			c1.1-3.5-1.5-6.1,0.6-9.3c0.8-0.8,1.9-0.8,3-1.1C119.3,139.7,122.9,136.7,124.9,140.1z"/>
		<path class="st3" d="M130.1,150c0.7-0.3,0.5,0.6,0.9,0.9c2.6,2.1,4.5,5,3.3,8.8c-0.6,3.2-2.7,5.8-4.5,8.2c-2.1,0-3.7,0.2-5.3-1.4
			c-1.9-2.5-3.7-5.8-3-9.4c1.6-2.2,3.2-3.8,4.2-6.2C127.1,150.4,128.6,148.2,130.1,150z M128.6,154.9c-0.8-1.4-1.8,1-2.3,1.7
			c-1.8,2.5-0.3,5.7,0.9,8c0.4,0,0.6-0.1,1-0.2c0.7-1.7,1.6-3.3,2.1-5.1c0.1-1.5,0-3.2-1.3-4.4C128.9,154.9,128.8,154.9,128.6,154.9
			z"/>
		<path class="st3" d="M148.8,148.2c0.9,1.7-0.6,2.5-1.5,3.6c-0.7,0.9-2.2,0.9-3.1,0.2c-1.6,0.4-1.4-0.1-2.5,0.9
			c0.4,4.4-0.7,8.4-0.6,12.3c-0.8,1.5-2.6,1.7-4,1.5c-2-4.8,0.6-11.4-1.5-15.7c0-1.1,0-1.4,0.4-2.4c0.7-0.6,1.4-0.9,2.3-1.1
			c1.6-0.3,1.5,3.3,3.8,1.4c1.9-1.1,2.9-0.2,4.8-1.4C147.7,147.4,147.9,148.7,148.8,148.2z"/>
		<path class="st3" d="M168.6,140.1c-0.7,1-1.3,2.7-2.7,2.9c-1.8,0.7-4.1-0.7-5.1,1.9c-0.3,1-0.1,2.8-0.2,4.2c1.3,0,3.3,0.2,4.8-0.3
			c-0.2-0.4,0.2-0.1,0.4-0.1c0.3,0.8,1.5,0.6,1.4,1.9c-1.4,2.1-4.3,3-6.7,2.9c0.2,3-0.5,6.1,0.6,9c0.5,1.5-0.8,2.4-1.3,3.3
			c-0.9,0.3-1.3,1.4-2.5,0.6c-0.9-1.6-0.1-3.9-0.7-6.1c0-1.8,0-3.4,0-5.5c-0.9-0.4-1-1.8-0.6-2.7c0.6-0.2,0.6-1.2,0.9-1.8
			c1.1-3.5-1.5-6.1,0.6-9.3c0.8-0.8,1.9-0.8,3-1.1C163.1,139.7,166.6,136.7,168.6,140.1z"/>
		<path class="st3" d="M174.1,150c0.7-0.3,0.5,0.6,0.9,0.9c2.6,2.1,4.5,5,3.3,8.8c-0.6,3.2-2.7,5.8-4.5,8.2c-2.1,0-3.7,0.2-5.3-1.4
			c-1.9-2.5-3.7-5.8-3-9.4c1.6-2.2,3.2-3.8,4.2-6.2C171.1,150.4,172.6,148.2,174.1,150z M172.7,154.9c-0.8-1.4-1.8,1-2.3,1.7
			c-1.8,2.5-0.3,5.7,0.9,8c0.4,0,0.6-0.1,1-0.2c0.7-1.7,1.6-3.3,2.1-5.1c0.1-1.5,0-3.2-1.3-4.4C172.9,154.9,172.9,154.9,172.7,154.9
			z"/>
		<path class="st3" d="M188.1,150c0.7-0.3,0.5,0.6,0.9,0.9c2.6,2.1,4.5,5,3.3,8.8c-0.6,3.2-2.7,5.8-4.5,8.2c-2.1,0-3.7,0.2-5.3-1.4
			c-1.9-2.5-3.7-5.8-3-9.4c1.6-2.2,3.2-3.8,4.2-6.2C185.1,150.4,186.6,148.2,188.1,150z M186.6,154.9c-0.8-1.4-1.8,1-2.3,1.7
			c-1.8,2.5-0.3,5.7,0.9,8c0.4,0,0.6-0.1,1-0.2c0.7-1.7,1.6-3.3,2.1-5.1c0.1-1.5,0-3.2-1.3-4.4C186.9,154.9,186.8,154.9,186.6,154.9
			z"/>
		<path class="st3" d="M206.6,142.8c-0.2,6.2-2.4,13.5,0.3,18.9c0.8-0.4,1.1-0.4,1.8-0.7c0,0.3,0,0.6,0.3,0.7c0.5-0.1,0.6,0,0.8,0.4
			c0,0.8-1.7,2-2.4,2.9c0.1-0.4-0.3-0.5-0.6-0.4c-0.9-0.5-0.9,0.9-1.7,0.4c-1.5-1.6-2.1-3.4-3-5.5c-0.6,2.3-1.9,4.5-2.7,6.8
			c-0.7,1-1.9-0.5-2.6,0.7c-2.2-1.3-2.8-4.4-2.8-6.8c-0.6-3.9,1.5-7.5,4.6-10c0.9-1,2.5-0.6,3.4-1.9c0.4-2.4-0.3-5.3,2.2-5.9
			C205.6,141.8,205.6,143.5,206.6,142.8z M198.7,154.7c-0.8,2.1-1.2,4.7-0.4,6.8c0.3-2.9,1.9-5.2,2.3-8.1
			C199.6,153.6,199.4,154.3,198.7,154.7z"/>
		<path class="st3" d="M216.4,163.8c-0.3,1.8-1.8,3-3.5,3.3c-1.2,0.2-1.7-0.4-2.3-1.1c-0.6-1.5,0.8-3.1,1.9-3.7
			C213.6,162.4,216.3,161.7,216.4,163.8z"/>
	</g>
</g>
<g id="pay_off_new">
</g>
<path class="st4" d="M129.6,0.6H12.1C5.9,0.6,0.8,5.7,0.8,11.9v91.2c0,6.2,5.1,11.3,11.3,11.3h117.6c6.2,0,11.3-5.1,11.3-11.3V11.9
	C140.9,5.7,135.8,0.6,129.6,0.6z"/>
<g>
	<path class="st5" d="M129.6,0.6H12.1C5.9,0.6,0.8,5.7,0.8,11.9v29.2c0.2,0,0.9,0.2,1.3,0.4V11.9c0-5.5,4.5-10,10-10h117.6
		c5.5,0,10,4.5,10,10v29.6c0.4-0.2,1.1-0.4,1.3-0.4V11.9C140.9,5.7,135.8,0.6,129.6,0.6z"/>
	<path class="st5" d="M134.9,58.8v11.5c0,7-6.3,17.2-17.7,17.2H24.5c-11.4,0-17.7-10.1-17.7-17.2V58.8c0-4.5-2.5-8.4-6-10.3v54.5
		c0,6.2,5.1,11.3,11.3,11.3h117.6c6.2,0,11.3-5.1,11.3-11.3V48.6C137.3,50.5,134.9,54.3,134.9,58.8z"/>
</g>
<g>
	<path class="st6" d="M21.8,53c-1.3,2.7-2.1,4.1-3.3,4.1c-1.2,0-1.6-1.3-2.8-4.1l-4.5-10.3c-0.5-1.1-0.6-1.4-1.2-1.6
		c-0.7-0.3-0.9-0.5-0.9-1.3c0-1.1,0.3-1.3,1.1-1.3c1.3,0,2.7,0.1,4.2,0.1c1.5,0,2.9-0.1,4.2-0.1c0.7,0,1,0.1,1,1.3
		c0,0.7-0.3,1.1-0.8,1.3c-0.5,0.2-0.6,0.5-0.6,1.3c0,0.9,1.8,5.7,2.4,5.7c0.7,0,2.3-4.5,2.3-5.6c0-1.1-0.2-1.1-0.9-1.4
		c-0.7-0.3-0.8-0.5-0.8-1.5c0-0.7,0.2-1.1,0.9-1.1c1,0,2.1,0.1,3.1,0.1c1,0,2.1-0.1,3.1-0.1c0.7,0,1,0.2,1,1.3c0,0.8-0.1,0.9-1,1.3
		c-0.6,0.3-0.9,0.7-1.1,1.1L21.8,53z"/>
	<g>
		<path class="st6" d="M30.6,50.2c0.4,1.8,1.2,3.2,3,3.2c1.7,0,2.9-1.6,3.4-1.6c0.3,0,0.4,0.2,0.4,0.7c0,3.6-4.2,4.4-6.9,4.4
			c-3.8,0-5.8-2.8-5.8-6.4c0-4,3.2-7.8,7.1-7.8c4.2,0,5.5,3.4,5.5,5c0,0.4-0.5,0.8-1.2,1L30.6,50.2z M31.3,45.3
			c-0.8,0-1.2,0.9-1.2,1.6c0,0.7,0.1,1.1,0.5,1.1c0.3,0,1.9-0.4,1.9-1.3C32.6,46,32.1,45.3,31.3,45.3z"/>
	</g>
	<path class="st6" d="M38.8,46.8c0-0.3-0.6-0.5-0.9-0.6c-0.3-0.2-0.5-0.4-0.5-0.9c0-1,1.2-1.1,2.7-1.6c1.5-0.5,3.1-1,3.7-1
		c0.6,0,0.7,0.3,0.7,0.7c0,0.2-0.1,0.5-0.1,0.8c0,0.1,0,0.2,0.1,0.2c0.4,0,1.5-1.8,3-1.8c1.8,0,2.2,2.2,2.2,3.7
		c0,0.9-0.1,2.6-1.3,2.6c-1.1,0-2.1-2.3-3.4-2.3c-0.4,0-0.7,0.2-0.7,0.7V52c0,1.3,0.3,1.8,1.5,2.3c0.7,0.2,0.9,0.4,0.9,1.2
		c0,0.6-0.1,1.2-0.8,1.2c-1,0-2.2-0.1-3.5-0.1c-1.3,0-2.5,0.1-3.8,0.1c-1,0-1.4-0.3-1.4-1.4c0-0.7,0.2-0.9,0.6-1
		c0.8-0.3,0.8-1.8,0.8-2.5V46.8z"/>
	<path class="st6" d="M58.1,43.1c0.2,0,0.6-0.1,0.8-0.1c0.9,0,1.3,2.4,1.3,3.1c0,0.8-0.2,1.3-1.1,1.3c-1,0-1.4-2-3.3-2
		c-0.4,0-0.8,0.2-0.8,0.6c0,1.6,5.8,1.3,5.8,5.5c0,3.7-3,5.6-6.2,5.6c-2.3,0-4.5-0.2-4.5-3.2c0-0.6,0.1-2.1,1-2.1
		c1.1,0,1.4,2.7,3.8,2.7c0.5,0,1.6,0.1,1.6-0.6c0-1.7-6.2-1.3-6.2-5.9c0-3,2-5.1,4.9-5.1C56.9,42.7,57.6,43.1,58.1,43.1z"/>
	<path class="st6" d="M61.8,46.2c0-0.7-1.1-0.8-1.1-1.7c0-0.7,1.3-1.3,2.8-2.4c1.6-1.1,3-2.2,3.4-2.2c0.5,0,0.5,0.4,0.5,0.9
		c0,1.6,0,2,0.3,2c0.6,0,1.8-0.1,2.3-0.1c0.3,0,0.4,0.3,0.4,0.6c0,0.5-0.3,1.5-0.4,2c-0.1,0.4-0.5,0.6-1.5,0.6h-1.2v4.3
		c0,2.8,0.6,3.3,1.2,3.3c0.4,0,0.8-0.1,1.1-0.1c0.5,0,0.7,0.1,0.7,0.6c0,2.1-3,2.9-4.5,2.9c-2.8,0-4.2-1.3-4.2-4.3V46.2z"/>
	<path class="st6" d="M76.4,50.2c0.4,1.8,1.2,3.2,3,3.2c1.7,0,2.9-1.6,3.4-1.6c0.3,0,0.4,0.2,0.4,0.7c0,3.6-4.2,4.4-6.9,4.4
		c-3.8,0-5.8-2.8-5.8-6.4c0-4,3.2-7.8,7.1-7.8c4.2,0,5.5,3.4,5.5,5c0,0.4-0.5,0.8-1.2,1L76.4,50.2z M77.1,45.3
		c-0.8,0-1.2,0.9-1.2,1.6c0,0.7,0.1,1.1,0.5,1.1c0.3,0,1.9-0.4,1.9-1.3C78.4,46,77.9,45.3,77.1,45.3z"/>
	<path class="st6" d="M90,42.7c3,0,4.3,1.3,5,1.3c0.9,0,1.5-0.9,2.2-0.9c0.6,0,0.8,1.2,0.8,1.7c0,1.6-0.6,1.9-2,2.4
		c0.1,0.2,0.2,0.6,0.2,1.1c0,1.4-1.2,4-5.3,4c-0.7,0-1.4-0.1-2.1-0.1c-0.5,0-0.7,0.2-0.7,0.6c0,0.8,1,0.8,1.9,0.8
		c1,0,2.3-0.1,3.8-0.1c2.4,0,3.9,1.6,3.9,3.6c0,3.5-3.3,5.6-8.1,5.6c-4,0-6-1-6-2.9c0-1.2,0.5-1.7,1.3-2.5c-0.8-0.6-1.4-1.5-1.4-2.5
		c0-1.8,1.2-2.6,2.6-3.4c-1.5-0.8-2.2-2.3-2.2-3.7C83.7,44.3,86.7,42.7,90,42.7z M89.7,59.9c1.2,0,2.1-0.3,2.1-0.7
		c0-0.9-0.8-0.8-1.5-0.9c-1-0.2-2-0.3-2.4-0.3c-0.4,0-0.7,0.1-0.7,0.5C87.1,59.6,88.9,59.9,89.7,59.9z M89.9,49.3c1,0,1-1.4,1-2.1
		c0-0.8-0.1-1.9-1.1-1.9c-0.8,0-0.9,1-0.9,1.6C88.9,47.5,89,49.3,89.9,49.3z"/>
	<path class="st6" d="M102.9,50.2c0.4,1.8,1.2,3.2,3,3.2c1.7,0,2.9-1.6,3.4-1.6c0.3,0,0.4,0.2,0.4,0.7c0,3.6-4.2,4.4-6.9,4.4
		c-3.8,0-5.8-2.8-5.8-6.4c0-4,3.2-7.8,7.1-7.8c4.2,0,5.5,3.4,5.5,5c0,0.4-0.5,0.8-1.2,1L102.9,50.2z M103.6,45.3
		c-0.8,0-1.2,0.9-1.2,1.6c0,0.7,0.1,1.1,0.5,1.1c0.3,0,1.9-0.4,1.9-1.3C104.8,46,104.3,45.3,103.6,45.3z"/>
	<path class="st6" d="M116.6,53.2c0,0.8,0.2,1,0.5,1.1c0.4,0.2,0.8,0.3,0.8,1.1c0,1-0.3,1.3-1.4,1.3c-0.9,0-1.8-0.1-2.7-0.1
		c-0.9,0-1.8,0.1-2.7,0.1c-1.3,0-1.4-0.4-1.4-1.2c0-0.8,0.3-0.9,0.8-1.2C111,54,111,53,111,50.3c0-2.7,0-3.1-0.5-3.6
		c-0.3-0.3-0.7-0.3-0.7-1.1c0-1.2,0.9-1.3,2.6-2c1.5-0.6,3-1.2,3.7-1.2c0.2,0,0.5,0.1,0.5,0.4c0.1,0.6,0.1,1.1,0.1,1.7
		c1.3-0.9,2.7-1.7,4.3-1.7c2.9,0,4.6,2.5,4.6,5v5.2c0,0.7,0,1,0.5,1.5c0.5,0.4,0.8,0.2,0.8,1.1c0,0.8-0.1,1.3-0.9,1.3
		c-1,0-2-0.1-3-0.1c-1,0-2,0.1-3,0.1c-1,0-1.1-0.5-1.1-1.3c0-0.6,0.3-0.8,0.8-1.1c0.3-0.2,0.3-0.6,0.3-1.3c0-0.9-0.1-2.3-0.1-3.7
		c0-1.4-0.6-3.2-2.2-3.2c-0.7,0-1,0.3-1,1V53.2z"/>
</g>
<path class="st6" d="M129,58.1V69c0,6.6-5,12.6-12.6,12.6c-3.5,0-87.6,0-91.1,0c-7.5,0-12.6-6-12.6-12.6V58.1
	c0-5.8-4.2-13.3-11.9-15.7v4.9C5,49.2,8,53.7,8,58.8v11.5c0,6.5,5.9,16,16.5,16h92.7c10.6,0,16.5-9.5,16.5-16V58.8
	c0-5.2,3-9.6,7.2-11.6v-4.9C133.2,44.7,129,52.3,129,58.1z"/>
<g>
	<path class="st5" d="M19.7,68.8c-0.1-0.1-0.3-0.3-0.4-0.4c-0.2-0.1-0.4-0.1-0.6-0.1c-0.1,0-0.2,0-0.3,0c-0.1,0-0.2,0.1-0.3,0.1
		c-0.1,0.1-0.2,0.1-0.2,0.2c-0.1,0.1-0.1,0.2-0.1,0.4c0,0.1,0,0.2,0.1,0.3c0.1,0.1,0.1,0.2,0.2,0.2c0.1,0.1,0.2,0.1,0.3,0.2
		c0.1,0,0.3,0.1,0.4,0.1c0.2,0.1,0.4,0.1,0.6,0.2c0.2,0.1,0.4,0.2,0.5,0.3c0.2,0.1,0.3,0.3,0.4,0.5c0.1,0.2,0.2,0.4,0.2,0.7
		c0,0.3-0.1,0.6-0.2,0.8c-0.1,0.2-0.3,0.4-0.4,0.6c-0.2,0.2-0.4,0.3-0.6,0.3c-0.2,0.1-0.5,0.1-0.8,0.1c-0.4,0-0.7-0.1-1.1-0.2
		c-0.3-0.1-0.6-0.4-0.9-0.6l0.7-0.7c0.1,0.2,0.3,0.4,0.5,0.5c0.2,0.1,0.5,0.2,0.7,0.2c0.1,0,0.2,0,0.4,0c0.1,0,0.2-0.1,0.3-0.2
		s0.2-0.2,0.2-0.3c0.1-0.1,0.1-0.2,0.1-0.4c0-0.2,0-0.3-0.1-0.4c-0.1-0.1-0.2-0.2-0.3-0.3s-0.3-0.1-0.4-0.2
		c-0.2-0.1-0.3-0.1-0.5-0.2c-0.2-0.1-0.3-0.1-0.5-0.2c-0.2-0.1-0.3-0.2-0.5-0.3c-0.1-0.1-0.2-0.3-0.3-0.5c-0.1-0.2-0.1-0.4-0.1-0.7
		c0-0.3,0.1-0.6,0.2-0.8c0.1-0.2,0.3-0.4,0.5-0.5c0.2-0.1,0.4-0.2,0.7-0.3c0.2-0.1,0.5-0.1,0.7-0.1c0.3,0,0.6,0.1,0.9,0.2
		s0.5,0.3,0.8,0.5L19.7,68.8z"/>
	<path class="st5" d="M21.3,67.6h1.8c0.3,0,0.6,0,0.9,0.1c0.3,0.1,0.5,0.2,0.7,0.3c0.2,0.1,0.3,0.3,0.4,0.5c0.1,0.2,0.1,0.5,0.1,0.8
		c0,0.3-0.1,0.6-0.2,0.8c-0.1,0.2-0.3,0.4-0.5,0.5c-0.2,0.1-0.4,0.2-0.7,0.3C23.6,71,23.3,71,23,71h-0.8v2.4h-1V67.6z M23,70.2
		c0.2,0,0.3,0,0.5,0c0.1,0,0.3-0.1,0.4-0.1c0.1-0.1,0.2-0.2,0.3-0.3c0.1-0.1,0.1-0.3,0.1-0.4c0-0.2,0-0.3-0.1-0.4
		c-0.1-0.1-0.2-0.2-0.3-0.3c-0.1-0.1-0.2-0.1-0.4-0.1c-0.1,0-0.3,0-0.4,0h-0.7v1.7H23z"/>
	<path class="st5" d="M26,67.6h1v5.9h-1V67.6z"/>
	<path class="st5" d="M32.1,69c-0.1-0.2-0.3-0.4-0.6-0.5c-0.2-0.1-0.5-0.1-0.7-0.1c-0.3,0-0.6,0.1-0.8,0.2s-0.4,0.3-0.6,0.5
		c-0.2,0.2-0.3,0.4-0.4,0.7s-0.1,0.5-0.1,0.8c0,0.3,0,0.6,0.1,0.9c0.1,0.3,0.2,0.5,0.4,0.7c0.2,0.2,0.4,0.3,0.6,0.4
		c0.2,0.1,0.5,0.2,0.8,0.2c0.3,0,0.6-0.1,0.8-0.2c0.2-0.1,0.4-0.3,0.6-0.5l0.8,0.6c-0.2,0.3-0.5,0.6-0.9,0.8
		c-0.4,0.2-0.8,0.3-1.3,0.3c-0.4,0-0.8-0.1-1.2-0.2c-0.4-0.2-0.7-0.4-0.9-0.6s-0.5-0.6-0.6-1c-0.1-0.4-0.2-0.8-0.2-1.3
		c0-0.5,0.1-0.9,0.2-1.3c0.2-0.4,0.4-0.7,0.6-1c0.3-0.3,0.6-0.5,1-0.6c0.4-0.1,0.8-0.2,1.2-0.2c0.2,0,0.4,0,0.6,0.1
		c0.2,0,0.4,0.1,0.6,0.2s0.3,0.2,0.5,0.3c0.2,0.1,0.3,0.2,0.4,0.4L32.1,69z"/>
	<path class="st5" d="M33.4,67.6h3.7v0.9h-2.7V70H37v0.9h-2.6v1.7h2.8v0.9h-3.8V67.6z"/>
	<path class="st5" d="M41,68.8c-0.1-0.1-0.3-0.3-0.4-0.4c-0.2-0.1-0.4-0.1-0.6-0.1c-0.1,0-0.2,0-0.3,0c-0.1,0-0.2,0.1-0.3,0.1
		c-0.1,0.1-0.2,0.1-0.2,0.2C39,68.9,39,69,39,69.1c0,0.1,0,0.2,0.1,0.3c0.1,0.1,0.1,0.2,0.2,0.2c0.1,0.1,0.2,0.1,0.3,0.2
		c0.1,0,0.3,0.1,0.4,0.1c0.2,0.1,0.4,0.1,0.6,0.2c0.2,0.1,0.4,0.2,0.5,0.3c0.2,0.1,0.3,0.3,0.4,0.5c0.1,0.2,0.2,0.4,0.2,0.7
		c0,0.3-0.1,0.6-0.2,0.8c-0.1,0.2-0.3,0.4-0.4,0.6c-0.2,0.2-0.4,0.3-0.6,0.3c-0.2,0.1-0.5,0.1-0.8,0.1c-0.4,0-0.7-0.1-1.1-0.2
		c-0.3-0.1-0.6-0.4-0.9-0.6l0.7-0.7c0.1,0.2,0.3,0.4,0.5,0.5c0.2,0.1,0.5,0.2,0.7,0.2c0.1,0,0.2,0,0.4,0c0.1,0,0.2-0.1,0.3-0.2
		s0.2-0.2,0.2-0.3c0.1-0.1,0.1-0.2,0.1-0.4c0-0.2,0-0.3-0.1-0.4c-0.1-0.1-0.2-0.2-0.3-0.3c-0.1-0.1-0.3-0.1-0.4-0.2
		c-0.2-0.1-0.3-0.1-0.5-0.2c-0.2-0.1-0.3-0.1-0.5-0.2c-0.2-0.1-0.3-0.2-0.5-0.3c-0.1-0.1-0.2-0.3-0.3-0.5C38,69.7,38,69.5,38,69.2
		c0-0.3,0.1-0.6,0.2-0.8c0.1-0.2,0.3-0.4,0.5-0.5c0.2-0.1,0.4-0.2,0.7-0.3c0.2-0.1,0.5-0.1,0.7-0.1c0.3,0,0.6,0.1,0.9,0.2
		s0.5,0.3,0.8,0.5L41,68.8z"/>
	<path class="st5" d="M48.3,72.1l1.3,1.4h-1.3l-0.6-0.7c-0.2,0.2-0.4,0.4-0.7,0.6c-0.3,0.1-0.6,0.2-1,0.2c-0.2,0-0.5,0-0.7-0.1
		c-0.2-0.1-0.4-0.2-0.6-0.3c-0.2-0.1-0.3-0.3-0.4-0.5c-0.1-0.2-0.2-0.5-0.2-0.7c0-0.2,0-0.4,0.1-0.6c0.1-0.2,0.2-0.3,0.3-0.5
		c0.1-0.1,0.2-0.3,0.4-0.4c0.1-0.1,0.3-0.2,0.5-0.3c-0.2-0.2-0.3-0.4-0.4-0.6c-0.1-0.2-0.2-0.4-0.2-0.7c0-0.2,0-0.5,0.1-0.6
		s0.2-0.3,0.4-0.5c0.1-0.1,0.3-0.2,0.5-0.3c0.2-0.1,0.4-0.1,0.6-0.1c0.2,0,0.4,0,0.6,0.1c0.2,0.1,0.4,0.1,0.5,0.3
		c0.1,0.1,0.3,0.3,0.3,0.4s0.1,0.4,0.1,0.6c0,0.2,0,0.4-0.1,0.5c-0.1,0.2-0.1,0.3-0.2,0.4c-0.1,0.1-0.2,0.2-0.4,0.3
		c-0.1,0.1-0.3,0.2-0.4,0.3l0.9,1l0.6-1.1h1.1L48.3,72.1z M45.9,70.9c-0.1,0-0.2,0.1-0.3,0.1s-0.2,0.1-0.2,0.2
		c-0.1,0.1-0.1,0.2-0.2,0.3c0,0.1-0.1,0.2-0.1,0.4c0,0.1,0,0.3,0.1,0.4c0.1,0.1,0.1,0.2,0.2,0.3c0.1,0.1,0.2,0.1,0.3,0.2
		c0.1,0,0.2,0.1,0.3,0.1c0.2,0,0.4-0.1,0.6-0.2c0.2-0.1,0.3-0.3,0.5-0.4L45.9,70.9z M46.4,68.3c-0.2,0-0.3,0.1-0.5,0.2
		c-0.1,0.1-0.2,0.3-0.2,0.5c0,0.2,0,0.3,0.1,0.5c0.1,0.2,0.2,0.3,0.4,0.5c0.1-0.1,0.2-0.1,0.3-0.2c0.1-0.1,0.2-0.1,0.3-0.2
		s0.1-0.2,0.2-0.3c0-0.1,0.1-0.2,0.1-0.3c0-0.2-0.1-0.3-0.2-0.5C46.7,68.3,46.6,68.3,46.4,68.3z"/>
	<path class="st5" d="M54.8,68.8c-0.1-0.1-0.3-0.3-0.4-0.4c-0.2-0.1-0.4-0.1-0.6-0.1c-0.1,0-0.2,0-0.3,0c-0.1,0-0.2,0.1-0.3,0.1
		c-0.1,0.1-0.2,0.1-0.2,0.2c-0.1,0.1-0.1,0.2-0.1,0.4c0,0.1,0,0.2,0.1,0.3c0.1,0.1,0.1,0.2,0.2,0.2c0.1,0.1,0.2,0.1,0.3,0.2
		c0.1,0,0.3,0.1,0.4,0.1c0.2,0.1,0.4,0.1,0.6,0.2c0.2,0.1,0.4,0.2,0.5,0.3c0.2,0.1,0.3,0.3,0.4,0.5c0.1,0.2,0.2,0.4,0.2,0.7
		c0,0.3-0.1,0.6-0.2,0.8c-0.1,0.2-0.3,0.4-0.4,0.6c-0.2,0.2-0.4,0.3-0.6,0.3c-0.2,0.1-0.5,0.1-0.8,0.1c-0.4,0-0.7-0.1-1.1-0.2
		c-0.3-0.1-0.6-0.4-0.9-0.6l0.7-0.7c0.1,0.2,0.3,0.4,0.5,0.5c0.2,0.1,0.5,0.2,0.7,0.2c0.1,0,0.2,0,0.4,0c0.1,0,0.2-0.1,0.3-0.2
		s0.2-0.2,0.2-0.3c0.1-0.1,0.1-0.2,0.1-0.4c0-0.2,0-0.3-0.1-0.4c-0.1-0.1-0.2-0.2-0.3-0.3c-0.1-0.1-0.3-0.1-0.4-0.2
		c-0.2-0.1-0.3-0.1-0.5-0.2c-0.2-0.1-0.3-0.1-0.5-0.2c-0.2-0.1-0.3-0.2-0.5-0.3c-0.1-0.1-0.2-0.3-0.3-0.5c-0.1-0.2-0.1-0.4-0.1-0.7
		c0-0.3,0.1-0.6,0.2-0.8c0.1-0.2,0.3-0.4,0.5-0.5c0.2-0.1,0.4-0.2,0.7-0.3c0.2-0.1,0.5-0.1,0.7-0.1c0.3,0,0.6,0.1,0.9,0.2
		s0.5,0.3,0.8,0.5L54.8,68.8z"/>
	<path class="st5" d="M58.2,67.6H59l2.4,5.9h-1.1l-0.5-1.3h-2.4l-0.5,1.3h-1.1L58.2,67.6z M59.4,71.2l-0.9-2.4l-0.9,2.4H59.4z"/>
	<path class="st5" d="M66.2,71.3c0,0.4-0.1,0.7-0.2,1c-0.1,0.3-0.3,0.5-0.5,0.7c-0.2,0.2-0.4,0.4-0.7,0.5c-0.3,0.1-0.6,0.2-0.9,0.2
		c-0.3,0-0.6-0.1-0.9-0.2c-0.3-0.1-0.5-0.3-0.7-0.5c-0.2-0.2-0.4-0.4-0.5-0.7c-0.1-0.3-0.2-0.6-0.2-1v-3.7h1v3.7
		c0,0.2,0,0.3,0.1,0.5c0,0.2,0.1,0.3,0.2,0.5s0.2,0.2,0.4,0.3c0.2,0.1,0.4,0.1,0.6,0.1c0.2,0,0.4,0,0.6-0.1c0.2-0.1,0.3-0.2,0.4-0.3
		s0.2-0.3,0.2-0.5c0-0.2,0.1-0.3,0.1-0.5v-3.7h1V71.3z"/>
	<path class="st5" d="M71.3,69c-0.1-0.2-0.3-0.4-0.6-0.5c-0.2-0.1-0.5-0.1-0.7-0.1c-0.3,0-0.6,0.1-0.8,0.2s-0.4,0.3-0.6,0.5
		c-0.2,0.2-0.3,0.4-0.4,0.7c-0.1,0.3-0.1,0.5-0.1,0.8c0,0.3,0,0.6,0.1,0.9c0.1,0.3,0.2,0.5,0.4,0.7c0.2,0.2,0.4,0.3,0.6,0.4
		c0.2,0.1,0.5,0.2,0.8,0.2c0.3,0,0.6-0.1,0.8-0.2c0.2-0.1,0.4-0.3,0.6-0.5l0.8,0.6c-0.2,0.3-0.5,0.6-0.9,0.8
		c-0.4,0.2-0.8,0.3-1.3,0.3c-0.4,0-0.8-0.1-1.2-0.2c-0.4-0.2-0.7-0.4-0.9-0.6s-0.5-0.6-0.6-1C67.1,71.4,67,71,67,70.5
		c0-0.5,0.1-0.9,0.2-1.3c0.2-0.4,0.4-0.7,0.6-1c0.3-0.3,0.6-0.5,1-0.6c0.4-0.1,0.8-0.2,1.2-0.2c0.2,0,0.4,0,0.6,0.1
		c0.2,0,0.4,0.1,0.6,0.2s0.3,0.2,0.5,0.3c0.2,0.1,0.3,0.2,0.4,0.4L71.3,69z"/>
	<path class="st5" d="M72.6,67.6h3.7v0.9h-2.7V70h2.6v0.9h-2.6v1.7h2.8v0.9h-3.8V67.6z"/>
	<path class="st5" d="M80.2,68.8c-0.1-0.1-0.3-0.3-0.4-0.4c-0.2-0.1-0.4-0.1-0.6-0.1c-0.1,0-0.2,0-0.3,0c-0.1,0-0.2,0.1-0.3,0.1
		c-0.1,0.1-0.2,0.1-0.2,0.2c-0.1,0.1-0.1,0.2-0.1,0.4c0,0.1,0,0.2,0.1,0.3c0.1,0.1,0.1,0.2,0.2,0.2c0.1,0.1,0.2,0.1,0.3,0.2
		c0.1,0,0.3,0.1,0.4,0.1c0.2,0.1,0.4,0.1,0.6,0.2c0.2,0.1,0.4,0.2,0.5,0.3c0.2,0.1,0.3,0.3,0.4,0.5c0.1,0.2,0.2,0.4,0.2,0.7
		c0,0.3-0.1,0.6-0.2,0.8c-0.1,0.2-0.3,0.4-0.4,0.6c-0.2,0.2-0.4,0.3-0.6,0.3c-0.2,0.1-0.5,0.1-0.8,0.1c-0.4,0-0.7-0.1-1.1-0.2
		c-0.3-0.1-0.6-0.4-0.9-0.6l0.7-0.7c0.1,0.2,0.3,0.4,0.5,0.5c0.2,0.1,0.5,0.2,0.7,0.2c0.1,0,0.2,0,0.4,0c0.1,0,0.2-0.1,0.3-0.2
		s0.2-0.2,0.2-0.3c0.1-0.1,0.1-0.2,0.1-0.4c0-0.2,0-0.3-0.1-0.4c-0.1-0.1-0.2-0.2-0.3-0.3c-0.1-0.1-0.3-0.1-0.4-0.2
		c-0.2-0.1-0.3-0.1-0.5-0.2c-0.2-0.1-0.3-0.1-0.5-0.2c-0.2-0.1-0.3-0.2-0.5-0.3c-0.1-0.1-0.2-0.3-0.3-0.5c-0.1-0.2-0.1-0.4-0.1-0.7
		c0-0.3,0.1-0.6,0.2-0.8c0.1-0.2,0.3-0.4,0.5-0.5c0.2-0.1,0.4-0.2,0.7-0.3c0.2-0.1,0.5-0.1,0.7-0.1c0.3,0,0.6,0.1,0.9,0.2
		s0.5,0.3,0.8,0.5L80.2,68.8z"/>
	<path class="st5" d="M86.5,68.8c-0.1-0.1-0.3-0.3-0.4-0.4c-0.2-0.1-0.4-0.1-0.6-0.1c-0.1,0-0.2,0-0.3,0c-0.1,0-0.2,0.1-0.3,0.1
		c-0.1,0.1-0.2,0.1-0.2,0.2c-0.1,0.1-0.1,0.2-0.1,0.4c0,0.1,0,0.2,0.1,0.3c0.1,0.1,0.1,0.2,0.2,0.2c0.1,0.1,0.2,0.1,0.3,0.2
		c0.1,0,0.3,0.1,0.4,0.1c0.2,0.1,0.4,0.1,0.6,0.2c0.2,0.1,0.4,0.2,0.5,0.3c0.2,0.1,0.3,0.3,0.4,0.5c0.1,0.2,0.2,0.4,0.2,0.7
		c0,0.3-0.1,0.6-0.2,0.8c-0.1,0.2-0.3,0.4-0.4,0.6c-0.2,0.2-0.4,0.3-0.6,0.3c-0.2,0.1-0.5,0.1-0.8,0.1c-0.4,0-0.7-0.1-1.1-0.2
		c-0.3-0.1-0.6-0.4-0.9-0.6l0.7-0.7c0.1,0.2,0.3,0.4,0.5,0.5c0.2,0.1,0.5,0.2,0.7,0.2c0.1,0,0.2,0,0.4,0c0.1,0,0.2-0.1,0.3-0.2
		s0.2-0.2,0.2-0.3c0.1-0.1,0.1-0.2,0.1-0.4c0-0.2,0-0.3-0.1-0.4c-0.1-0.1-0.2-0.2-0.3-0.3s-0.3-0.1-0.4-0.2
		c-0.2-0.1-0.3-0.1-0.5-0.2c-0.2-0.1-0.3-0.1-0.5-0.2c-0.2-0.1-0.3-0.2-0.5-0.3c-0.1-0.1-0.2-0.3-0.3-0.5c-0.1-0.2-0.1-0.4-0.1-0.7
		c0-0.3,0.1-0.6,0.2-0.8c0.1-0.2,0.3-0.4,0.5-0.5c0.2-0.1,0.4-0.2,0.7-0.3c0.2-0.1,0.5-0.1,0.7-0.1c0.3,0,0.6,0.1,0.9,0.2
		s0.5,0.3,0.8,0.5L86.5,68.8z"/>
	<path class="st5" d="M88,67.6h1v5.9h-1V67.6z"/>
	<path class="st5" d="M90.1,67.6h1.3L94,72h0v-4.4h1v5.9h-1.3l-2.7-4.5h0v4.5h-1V67.6z"/>
	<path class="st5" d="M100.2,69c-0.1-0.2-0.3-0.4-0.6-0.5c-0.2-0.1-0.5-0.1-0.7-0.1c-0.3,0-0.6,0.1-0.8,0.2s-0.4,0.3-0.6,0.5
		c-0.2,0.2-0.3,0.4-0.4,0.7C97,69.9,97,70.2,97,70.5c0,0.3,0,0.6,0.1,0.9c0.1,0.3,0.2,0.5,0.4,0.7c0.2,0.2,0.4,0.3,0.6,0.4
		c0.2,0.1,0.5,0.2,0.8,0.2c0.3,0,0.6-0.1,0.8-0.2c0.2-0.1,0.4-0.3,0.6-0.5l0.8,0.6c-0.2,0.3-0.5,0.6-0.9,0.8
		c-0.4,0.2-0.8,0.3-1.3,0.3c-0.4,0-0.8-0.1-1.2-0.2c-0.4-0.2-0.7-0.4-0.9-0.6c-0.3-0.3-0.5-0.6-0.6-1c-0.1-0.4-0.2-0.8-0.2-1.3
		c0-0.5,0.1-0.9,0.2-1.3c0.2-0.4,0.4-0.7,0.6-1c0.3-0.3,0.6-0.5,1-0.6c0.4-0.1,0.8-0.2,1.2-0.2c0.2,0,0.4,0,0.6,0.1
		c0.2,0,0.4,0.1,0.6,0.2c0.2,0.1,0.3,0.2,0.5,0.3c0.2,0.1,0.3,0.2,0.4,0.4L100.2,69z"/>
	<path class="st5" d="M101.5,67.6h3.7v0.9h-2.7V70h2.6v0.9h-2.6v1.7h2.8v0.9h-3.8V67.6z"/>
	<path class="st5" d="M109.9,68.8l-1.1,1l-0.6-0.7l1.7-1.5h0.9v5.9h-0.9V68.8z"/>
	<path class="st5" d="M113.8,67.4c0.2,0,0.5,0,0.7,0.1c0.2,0.1,0.4,0.2,0.6,0.3c0.2,0.1,0.3,0.3,0.4,0.5c0.1,0.2,0.1,0.4,0.1,0.7
		c0,0.3-0.1,0.6-0.2,0.9c-0.2,0.2-0.4,0.4-0.6,0.5v0c0.1,0,0.3,0.1,0.4,0.2c0.1,0.1,0.2,0.2,0.3,0.3c0.1,0.1,0.2,0.3,0.2,0.4
		c0.1,0.2,0.1,0.3,0.1,0.5c0,0.3-0.1,0.6-0.2,0.8c-0.1,0.2-0.2,0.4-0.4,0.6c-0.2,0.2-0.4,0.3-0.6,0.3c-0.2,0.1-0.5,0.1-0.8,0.1
		c-0.3,0-0.5,0-0.8-0.1c-0.2-0.1-0.4-0.2-0.6-0.3c-0.2-0.2-0.3-0.3-0.4-0.6c-0.1-0.2-0.2-0.5-0.2-0.8c0-0.2,0-0.4,0.1-0.5
		c0.1-0.2,0.1-0.3,0.2-0.4c0.1-0.1,0.2-0.2,0.3-0.3c0.1-0.1,0.3-0.1,0.4-0.2v0c-0.3-0.1-0.5-0.2-0.6-0.5c-0.2-0.2-0.2-0.5-0.2-0.8
		c0-0.2,0-0.5,0.1-0.7c0.1-0.2,0.2-0.4,0.4-0.5c0.2-0.1,0.3-0.3,0.6-0.3C113.3,67.5,113.6,67.4,113.8,67.4z M113.8,70.8
		c-0.1,0-0.3,0-0.4,0.1c-0.1,0.1-0.2,0.1-0.3,0.2c-0.1,0.1-0.2,0.2-0.2,0.3c-0.1,0.1-0.1,0.3-0.1,0.4c0,0.3,0.1,0.6,0.3,0.7
		c0.2,0.2,0.4,0.3,0.7,0.3c0.3,0,0.5-0.1,0.7-0.3c0.2-0.2,0.3-0.4,0.3-0.7c0-0.1,0-0.3-0.1-0.4c-0.1-0.1-0.1-0.2-0.2-0.3
		c-0.1-0.1-0.2-0.2-0.3-0.2C114.1,70.8,114,70.8,113.8,70.8z M113.8,68.3c-0.2,0-0.4,0.1-0.6,0.2c-0.1,0.1-0.2,0.4-0.2,0.6
		c0,0.2,0.1,0.4,0.2,0.6c0.1,0.2,0.3,0.2,0.6,0.2c0.1,0,0.2,0,0.3-0.1c0.1,0,0.2-0.1,0.3-0.2c0.1-0.1,0.1-0.2,0.2-0.3
		c0-0.1,0.1-0.2,0.1-0.3c0-0.1,0-0.2-0.1-0.3c0-0.1-0.1-0.2-0.2-0.3c-0.1-0.1-0.2-0.1-0.3-0.2C114,68.3,113.9,68.3,113.8,68.3z"/>
	<path class="st5" d="M118.5,67.4c0.2,0,0.5,0,0.7,0.1c0.2,0.1,0.4,0.2,0.6,0.3c0.2,0.1,0.3,0.3,0.4,0.5c0.1,0.2,0.1,0.4,0.1,0.7
		c0,0.3-0.1,0.6-0.2,0.9c-0.2,0.2-0.4,0.4-0.6,0.5v0c0.1,0,0.3,0.1,0.4,0.2c0.1,0.1,0.2,0.2,0.3,0.3c0.1,0.1,0.2,0.3,0.2,0.4
		c0.1,0.2,0.1,0.3,0.1,0.5c0,0.3-0.1,0.6-0.2,0.8c-0.1,0.2-0.2,0.4-0.4,0.6c-0.2,0.2-0.4,0.3-0.6,0.3c-0.2,0.1-0.5,0.1-0.8,0.1
		c-0.3,0-0.5,0-0.8-0.1c-0.2-0.1-0.4-0.2-0.6-0.3c-0.2-0.2-0.3-0.3-0.4-0.6c-0.1-0.2-0.2-0.5-0.2-0.8c0-0.2,0-0.4,0.1-0.5
		c0.1-0.2,0.1-0.3,0.2-0.4c0.1-0.1,0.2-0.2,0.3-0.3c0.1-0.1,0.3-0.1,0.4-0.2v0c-0.3-0.1-0.5-0.2-0.6-0.5c-0.2-0.2-0.2-0.5-0.2-0.8
		c0-0.2,0-0.5,0.1-0.7c0.1-0.2,0.2-0.4,0.4-0.5c0.2-0.1,0.3-0.3,0.6-0.3C118,67.5,118.3,67.4,118.5,67.4z M118.5,70.8
		c-0.1,0-0.3,0-0.4,0.1c-0.1,0.1-0.2,0.1-0.3,0.2c-0.1,0.1-0.2,0.2-0.2,0.3c-0.1,0.1-0.1,0.3-0.1,0.4c0,0.3,0.1,0.6,0.3,0.7
		c0.2,0.2,0.4,0.3,0.7,0.3c0.3,0,0.5-0.1,0.7-0.3c0.2-0.2,0.3-0.4,0.3-0.7c0-0.1,0-0.3-0.1-0.4c-0.1-0.1-0.1-0.2-0.2-0.3
		c-0.1-0.1-0.2-0.2-0.3-0.2C118.8,70.8,118.7,70.8,118.5,70.8z M118.5,68.3c-0.2,0-0.4,0.1-0.6,0.2c-0.1,0.1-0.2,0.4-0.2,0.6
		c0,0.2,0.1,0.4,0.2,0.6c0.1,0.2,0.3,0.2,0.6,0.2c0.1,0,0.2,0,0.3-0.1c0.1,0,0.2-0.1,0.3-0.2c0.1-0.1,0.1-0.2,0.2-0.3
		c0-0.1,0.1-0.2,0.1-0.3c0-0.1,0-0.2-0.1-0.3c0-0.1-0.1-0.2-0.2-0.3c-0.1-0.1-0.2-0.1-0.3-0.2C118.7,68.3,118.6,68.3,118.5,68.3z"/>
	<path class="st5" d="M124.3,67.6l-1.4,2.2l0,0c0.1,0,0.2-0.1,0.3-0.1s0.2,0,0.3,0c0.2,0,0.5,0,0.7,0.1c0.2,0.1,0.4,0.2,0.6,0.4
		c0.2,0.2,0.3,0.4,0.4,0.6c0.1,0.2,0.1,0.5,0.1,0.7c0,0.3-0.1,0.6-0.2,0.8c-0.1,0.3-0.2,0.5-0.4,0.7c-0.2,0.2-0.4,0.3-0.6,0.4
		c-0.3,0.1-0.5,0.1-0.8,0.1c-0.3,0-0.6-0.1-0.8-0.2c-0.2-0.1-0.5-0.2-0.6-0.4c-0.2-0.2-0.3-0.4-0.4-0.6c-0.1-0.2-0.2-0.5-0.2-0.8
		c0-0.2,0-0.3,0-0.5c0-0.1,0.1-0.3,0.1-0.4c0.1-0.1,0.1-0.3,0.2-0.4c0.1-0.1,0.2-0.3,0.2-0.4l1.4-2.3H124.3z M122.1,71.6
		c0,0.2,0,0.3,0.1,0.4c0.1,0.1,0.1,0.3,0.2,0.4c0.1,0.1,0.2,0.2,0.3,0.2c0.1,0.1,0.3,0.1,0.4,0.1c0.3,0,0.6-0.1,0.8-0.3
		c0.2-0.2,0.3-0.5,0.3-0.8c0-0.2,0-0.3-0.1-0.5c-0.1-0.1-0.1-0.3-0.2-0.4c-0.1-0.1-0.2-0.2-0.3-0.2c-0.1-0.1-0.3-0.1-0.4-0.1
		c-0.2,0-0.3,0-0.4,0.1c-0.1,0.1-0.2,0.1-0.3,0.2c-0.1,0.1-0.2,0.2-0.2,0.4S122.1,71.5,122.1,71.6z"/>
</g>
<g>
	<g>
		<path class="st5" d="M76.7,9.1c-0.5,0-8,0-11.7,0c-3.6,0-6,3-6,6c0,0.5,0,0.4,0,0.6c0,0.2,0,0.2,0.1,0.2c0.1,0,0.1-0.1,0.1-0.2
			c0-2.6,2.1-5,4.8-5h13.6c2.6,0,4.8,2.3,4.8,5c0,0.1,0,0.2,0.1,0.2s0.1,0,0.1-0.2c0-0.2,0-0.1,0-0.6C82.7,12.1,80.3,9.1,76.7,9.1z"
			/>
		<path class="st5" d="M82.5,25.8c-0.1,0-0.1,0.1-0.1,0.2c0,2.6-2.1,5-4.8,5H64c-2.6,0-4.8-2.3-4.8-5c0-0.1,0-0.2-0.1-0.2
			c-0.1,0-0.1,0-0.1,0.2c0,0.2,0,0.1,0,0.6c0,3,2.4,6,6,6c3.7,0,11.3,0,11.7,0c3.6,0,6-3,6-6c0-0.5,0-0.4,0-0.6
			C82.7,25.8,82.6,25.8,82.5,25.8z"/>
	</g>
	<path class="st5" d="M69.4,15.5c-0.1,0-0.3,0-0.4,0c-2.1,0.1-6.3,1-8.6,1.9l0,0.3c0.3-0.2,2.1-0.7,2.1-0.7l-1.6,4.2v3.6h3.5V21
		l-1.6-4.2c0,0,1.6-0.4,2.9-0.6c1.3-0.2,2.7-0.3,3.4-0.4c-0.2,0.2-0.6,1.2-0.7,1.6c-0.1,0.4-0.2,1-0.5,1.4c-0.3,0.4-0.4,1.1-0.5,1.3
		c0,0.1-0.1,0.4,0,0.4c0.1,0,0.1,0,0.2,0.5c0,0.5,0.2,1,0.4,1.7c0.1,0.7,0.3,1.3,0.3,2.1c0,0,0,0.3,0,0.4c0,0.2-0.1,0.2-0.3,0.1
		c-0.8,0.1-1.3,0.2-1.5,0.4c-1,0.5-1.9,0.7-1.9,0.7c0,0.1,0,0.1,0,0.1c-0.4,0-0.6,0-0.8,0.1c-0.1,0.1-0.1,0.2-0.1,0.3
		c0,0.3,0.1,1.4,0.6,2.1c0,0,0.2,0.3,0.5,0.2c0.1,0,0.2-0.1,0.1-0.2c-0.1,0-0.1-0.1-0.2-0.2c-0.1-0.1-0.2-0.2-0.2-0.5
		c0-0.3,0.1-0.4,0.2-0.7c0-0.1,0.1-0.1,0.1-0.2c0.2,0.3,0.4,0.4,0.4,0.4c0.1-0.1,1.8-1,3-1.3c0.8-0.2,1.1-0.4,1.2-0.5
		c0.2-0.1,0.3-0.6,0.3-1.3c0.1-1.2,0.1-1.3,0.2-1.5c0-0.3,0.2-0.2,0.2-0.2s1.6,0.7,1.9,0.9c0,0,0.1,0.1,0.3,0.2
		c0.2,0.1,0.2,0.2,0.3,0.5c0,0.5,0.1,1,0.3,1.5c0.3,1.1,0.5,2.6,0.5,2.6c0.2,0,0.4,0,0.6,0c0,0.2,0,0.4,0.1,0.7
		c0,0.1,0.1,0.2,0.2,0.2c0,0,0,0,0,0c0,0,0,0,0.1,0l0,0c0.4,0,1.6-0.1,2.4-0.4c0,0,0.2-0.1,0.1-0.3c0-0.1-0.1-0.1-0.2-0.1
		c-0.1,0-0.6,0.1-0.8,0c-0.4-0.1-0.7-0.2-0.8-0.3c-0.1-0.1-0.1-0.1-0.2-0.2c0,0,0.1-0.1,0.1-0.1c-0.1-0.1-0.8-2.7-1.2-3.8
		c0-0.2-0.1-0.5-0.1-0.7c-0.1-0.5-0.5-0.7-0.9-1.1c-0.6-0.5-2-1.6-2.3-1.8c-0.3-0.2,0.1-0.3,0.1-0.3c0.1,0,0.1,0,0.1-0.3
		c0.1-1.6,0.5-1.9,0.5-1.9s0.4,0.4,0.7,0.6c0.2,0.2,0.3,0,0.4,0c0.1-0.1,0.1-0.2,0.3-0.5c0,0,0.1,0,0.3,0.1c0.2,0.1,0.2,0,0.3-0.1
		c0.1-0.1,0.4-0.4,0.7-0.7c0.3-0.3,1-0.9,1.2-1.1c0.3-0.2,0.3-0.3,0.4-0.5c0-0.2,0.2-0.3,0.3-0.3c0,0,2.3,0.5,3.4,0.8L77.6,21v3.6
		h3.5V21c0,0-1.5-3.5-1.7-4l1.9,0.7l0-0.3c-2-0.9-4.7-1.4-5.3-1.6c0.1-0.4-0.2-0.3-0.2-0.3c-0.2-0.2-0.3,0-0.4-0.1
		c-0.2-0.2-0.2,0-0.3,0c-0.1-0.1-0.3,0-0.4,0.3l-0.5-0.1c0,0,0-0.2-0.1-0.2c-0.1-0.1-0.3-0.2-0.6-0.2c-0.3,0-0.5,0-0.6,0.3
		c0,0-0.3,0-0.4,0c-0.7,0-1,0-1.4,0c0.1-0.2,0.1-0.4,0.2-0.5c0,0,0,0,0.1,0l0.3,0.1c0.3,0.1,0.4-0.1,0.4-0.1c0-0.1,0-0.2,0-0.2
		l0-0.1c0,0,0,0,0,0c0,0,0-0.1,0-0.1c0,0,0-0.1,0.1-0.1c0.2-0.1,0-0.1,0-0.3c0-0.1,0-0.2,0.1-0.3c1.2-0.4,2.1-0.7,2.1-0.7l-3.6-0.9
		l-3.1,2.8c0.8-0.1,1.6-0.3,2.5-0.5C70.4,14.9,69.7,15.2,69.4,15.5z M64.1,21l-2.9,0l1.4-3.8L64.1,21z M80.7,20.9l-2.8,0l1.3-3.7
		L80.7,20.9z M73.4,16.8c0-0.1,0.1-0.4,0.2-0.5c0.1-0.1,0.3-0.4,0.3-0.5l0.5,0c0,0.1,0.1,0.3-0.1,0.5c-0.2,0.1-0.7,0.4-0.8,0.5
		C73.6,17,73.4,16.9,73.4,16.8z M71.1,15.7c0.1,0,1.3,0,1.3,0l0.5,0c0,0.1-0.1,0.4,0,0.5c-0.2,0.2-0.5,0.8-0.6,0.8
		c0,0.1-0.1,0.1-0.3,0c-0.1-0.1-0.7-0.7-0.7-0.7S71.2,16,71.1,15.7L71.1,15.7C71.1,15.8,71.1,15.7,71.1,15.7z"/>
</g>
</svg>
