<?xml version="1.0" encoding="utf-8"?>
<!-- Generator: Adobe Illustrator 23.1.1, SVG Export Plug-In . SVG Version: 6.00 Build 0)  -->
<svg version="1.2" baseProfile="tiny" id="Layer_1" xmlns="http://www.w3.org/2000/svg" xmlns:xlink="http://www.w3.org/1999/xlink"
	 x="0px" y="0px" viewBox="0 0 568.1 356.4" xml:space="preserve">
<g>
	<polygon fill-rule="evenodd" fill="#F4CC91" points="5.1,178 285.8,0 568.1,178 285.8,356.4 	"/>
	<path fill-rule="evenodd" fill="#381829" d="M5.1,178l39.6-25.6h483.4l39.9,25.6l-39.9,25.2H44.7L5.1,178L5.1,178z M382.5,164.5
		h8.1c2,0,3.6,0.2,4.6,0.7s2,1.2,2.9,2.3c0.9,1.1,1.6,2.5,2.1,4.3s0.8,3.9,0.8,6.5c0,2.3-0.3,4.4-0.8,6.1c-0.5,1.7-1.2,3.1-2,4.1
		c-0.8,1-1.8,1.8-2.9,2.3c-1.1,0.5-2.6,0.8-4.4,0.8h-8.3L382.5,164.5L382.5,164.5z M387,169.1V187h3.3c1.4,0,2.5-0.1,3.1-0.4
		s1.2-0.7,1.6-1.2c0.4-0.5,0.8-1.4,1-2.6s0.4-2.7,0.4-4.7c0-2-0.1-3.6-0.4-4.7c-0.3-1.1-0.7-2.1-1.3-2.7c-0.6-0.7-1.3-1.1-2.1-1.3
		c-0.6-0.2-1.8-0.2-3.6-0.2H387L387,169.1z M404.7,164.5h4.4v14.6c0,2.3,0,3.8,0.2,4.5c0.2,1.2,0.7,2.1,1.4,2.8s1.7,1,2.9,1
		c1,0,1.9-0.2,2.5-0.7c0.6-0.5,1.1-1.1,1.3-1.9c0.2-0.8,0.4-2.6,0.4-5.3v-15h4.4v14.2c0,3.6-0.2,6.2-0.6,7.9
		c-0.4,1.6-1.2,2.9-2.6,3.9c-1.4,1-3.1,1.5-5.3,1.5c-2.3,0-4.1-0.4-5.4-1.2s-2.2-2-2.8-3.5s-0.9-4.3-0.9-8.3L404.7,164.5
		L404.7,164.5z M426.9,164.5h8.8c2.4,0,4.1,0.2,5.1,0.7c1,0.4,1.8,1.2,2.5,2.3c0.7,1.1,1,2.4,1,3.8c0,1.3-0.3,2.5-0.9,3.5
		c-0.6,1-1.3,1.8-2.2,2.3c1.3,0.5,2.3,1.3,3.1,2.4s1.1,2.5,1.1,4.1c0,2-0.5,3.6-1.4,5s-2,2.2-3.3,2.5c-0.9,0.2-3,0.3-6.2,0.3h-7.5
		L426.9,164.5L426.9,164.5z M431.3,169v6.2h2.9c1.8,0,2.8,0,3.3-0.1c0.8-0.1,1.3-0.4,1.8-1c0.4-0.5,0.6-1.2,0.6-2.1
		c0-0.8-0.2-1.5-0.5-2c-0.4-0.5-0.8-0.8-1.3-0.9c-0.5-0.1-1.9-0.2-4.2-0.2L431.3,169L431.3,169z M431.3,179.8v7.2h4.1
		c1.8,0,3-0.1,3.5-0.3s0.9-0.6,1.3-1.1c0.3-0.6,0.5-1.3,0.5-2.1c0-0.9-0.2-1.6-0.6-2.2s-0.9-1-1.5-1.2c-0.6-0.2-1.9-0.3-3.8-0.3
		L431.3,179.8L431.3,179.8z M449.1,164.5h8.8c2.4,0,4.1,0.2,5.1,0.7c1,0.4,1.8,1.2,2.5,2.3c0.7,1.1,1,2.4,1,3.8
		c0,1.3-0.3,2.5-0.9,3.5c-0.6,1-1.3,1.8-2.2,2.3c1.3,0.5,2.3,1.3,3.1,2.4s1.1,2.5,1.1,4.1c0,2-0.5,3.6-1.4,5s-2,2.2-3.3,2.5
		c-0.9,0.2-3,0.3-6.2,0.3h-7.5L449.1,164.5L449.1,164.5z M453.5,169v6.2h2.9c1.8,0,2.8,0,3.3-0.1c0.8-0.1,1.3-0.4,1.8-1
		c0.4-0.5,0.6-1.2,0.6-2.1c0-0.8-0.2-1.5-0.5-2c-0.4-0.5-0.8-0.8-1.3-0.9c-0.5-0.1-1.9-0.2-4.2-0.2L453.5,169L453.5,169z
		 M453.5,179.8v7.2h4.1c1.8,0,3-0.1,3.5-0.3s0.9-0.6,1.3-1.1c0.3-0.6,0.5-1.3,0.5-2.1c0-0.9-0.2-1.6-0.6-2.2c-0.4-0.6-0.9-1-1.5-1.2
		c-0.6-0.2-1.9-0.3-3.8-0.3L453.5,179.8L453.5,179.8z M471.2,191.5v-27h16.3v4.6h-11.9v6h11v4.5h-11v7.4H488v4.6L471.2,191.5
		L471.2,191.5z M491.8,191.5v-26.8h4.4V187h11v4.6L491.8,191.5L491.8,191.5z M83.8,191.5v-22.5h-6.3v-4.6h16.9v4.6H88v22.5H83.8
		L83.8,191.5z M97.1,191.5v-27h9c2.3,0,4,0.2,4.9,0.7c1,0.5,1.8,1.3,2.4,2.5c0.6,1.2,0.9,2.6,0.9,4.3c0,2.1-0.5,3.8-1.4,5.1
		c-1,1.3-2.4,2.1-4.1,2.4c0.9,0.7,1.7,1.4,2.3,2.3c0.6,0.8,1.4,2.3,2.5,4.4l2.6,5.3h-5.1l-3.1-5.9c-1.1-2.1-1.9-3.5-2.3-4
		c-0.4-0.5-0.8-0.9-1.3-1.1c-0.4-0.2-1.2-0.3-2.2-0.3h-0.9v11.3L97.1,191.5L97.1,191.5z M101.4,175.9h3.2c1.9,0,3.2-0.1,3.7-0.3
		c0.5-0.2,1-0.5,1.3-1.1c0.3-0.5,0.5-1.3,0.5-2.2c0-0.9-0.2-1.6-0.5-2.1c-0.3-0.5-0.8-0.9-1.3-1.1c-0.4-0.1-1.6-0.2-3.5-0.2h-3.4
		L101.4,175.9L101.4,175.9z M118.4,191.5v-27h4.3v27H118.4L118.4,191.5z M126.8,191.5v-27h6.9c2.6,0,4.2,0.1,5,0.4
		c1.3,0.4,2.3,1.3,3.1,2.7c0.8,1.4,1.2,3.1,1.2,5.3c0,2-0.4,3.6-1.1,4.9c-0.7,1.3-1.6,2.2-2.6,2.8c-1.1,0.5-2.9,0.8-5.5,0.8H131
		v10.2L126.8,191.5L126.8,191.5z M131,169.1v7.7h2.4c1.6,0,2.7-0.1,3.2-0.4c0.6-0.2,1-0.7,1.4-1.3c0.4-0.6,0.6-1.4,0.6-2.2
		c0-0.9-0.2-1.7-0.6-2.3c-0.4-0.6-0.8-1-1.4-1.2c-0.6-0.2-1.7-0.3-3.5-0.3L131,169.1L131,169.1z M146.6,191.5v-27h15.8v4.6h-11.5v6
		h10.7v4.5h-10.7v7.4h11.9v4.6L146.6,191.5L146.6,191.5z M166.4,191.5v-26.8h4.3V187h10.7v4.6L166.4,191.5L166.4,191.5z"/>
	<polygon fill-rule="evenodd" stroke="#000000" stroke-width="2.0001" stroke-miterlimit="22.9256" points="16.8,101.3 24.1,84.7 
		16.5,75.9 15.3,71.2 24.7,73.9 49.8,128.9 68.6,133.3 76.6,115.4 100.4,119.8 113.9,86.6 90.4,36.1 69.7,28.9 63.9,47.4 77.2,50.7 
		96.8,93.5 97.9,99.6 86.6,98.2 77.7,79.7 82.4,79.7 82.1,68.9 74.7,69 63.6,47.7 45.1,42.2 40.4,59.6 52.3,63.1 58.7,79.4 
		55.7,79.4 55.7,91.6 63.4,91.6 71.8,109.4 72.5,113.7 62.3,111.5 40.3,59.7 15.9,53.8 3.3,86.5 	"/>
	<path fill-rule="evenodd" stroke="#000000" stroke-width="2.0001" stroke-miterlimit="22.9256" d="M168.3,86.6l-8.7,15h-28.2
		L118,62.9l29.3-22.6l21,15.7l-25.7,23.2l1.7,7.5L168.3,86.6L168.3,86.6z M141.1,74.6l11.6-10l-17.2-9.7L141.1,74.6L141.1,74.6z"/>
	<path fill-rule="evenodd" stroke="#000000" stroke-width="2.0001" stroke-miterlimit="22.9256" d="M538.4,133l-16.7,4.8l-20.3-19.6
		l17.3-37.2l36.8,4l4.2,25.9l-34.6-1.1l-4,6.5L538.4,133L538.4,133z M527.1,105.5l15.3,0.8l-5.6-18.9L527.1,105.5L527.1,105.5z"/>
	<polygon fill-rule="evenodd" stroke="#000000" stroke-width="2.0001" stroke-miterlimit="22.9256" points="208.7,50 220.6,37.6 
		208.9,26.7 179.7,44.3 180.6,66.6 207.3,70.6 207.4,83.5 188.4,73.6 177.4,84.6 197.2,96.2 223,79.6 221.6,56.2 196.9,52.6 
		195.7,39.9 	"/>
	<polygon fill-rule="evenodd" stroke="#000000" stroke-width="2.0001" stroke-miterlimit="22.9256" points="259.1,9.3 259.1,30.7 
		275.5,30.7 267.8,43.2 259.1,43.2 259.1,76.7 275.4,83.9 262.8,95.2 242.7,88.7 242.7,43.3 231.8,43.3 236.5,30.7 242.7,30.7 
		242.7,17.6 	"/>
	<path fill-rule="evenodd" stroke="#000000" stroke-width="2.0001" stroke-miterlimit="22.9256" d="M282,39.3l13.9-12.2l12.2,9.5
		l12.2-8.8l13.9,11.2l13.2-8.3l13.8,12.6l-1.2,34.6l6.9,7.4c0,0-14.5,10.7-14.5,9.8c0-0.9-10.1-7.9-10.1-7.9l1.4-37.3l-9.3-6.5
		l-2.1,39.4l-17.2,11l2.2-47l-10.8-6.5l-2.1,44l-17,9.8l2.4-50.8L282,39.3L282,39.3z"/>
	<polygon fill-rule="evenodd" stroke="#000000" stroke-width="2.0001" stroke-miterlimit="22.9256" points="407.5,61.5 377.4,61.5 
		372.7,85.5 384.3,101.6 400.6,91.1 391.2,79.4 393.8,66.6 406.6,67 402.5,90.8 412.2,101.6 428.5,94.1 420.4,85 426.5,50.5 
		397.1,33.8 382.1,42.4 407.5,57.2 	"/>
	<polygon fill-rule="evenodd" stroke="#000000" stroke-width="2.0001" stroke-miterlimit="22.9256" points="460,28 480.2,26.8 
		455.7,97.9 464.2,104.7 447.1,111.4 434.6,100.4 	"/>
	<polygon fill-rule="evenodd" stroke="#000000" stroke-width="2.0001" stroke-miterlimit="22.9256" points="495.7,36.4 515.9,36.7 
		488.5,105.6 496.8,113.2 479.4,118.5 467.4,106.5 	"/>
	<polygon fill-rule="evenodd" fill="#FFFFFF" stroke="#000000" stroke-width="2.0001" stroke-miterlimit="22.9256" points="14.7,97 
		22,80.4 14.3,71.6 13.2,66.9 22.6,69.7 47.7,124.6 66.5,129 74.5,111.1 98.2,115.5 111.8,82.4 88.3,31.8 67.6,24.7 61.8,43.2 
		75,46.5 94.6,89.3 95.8,95.4 84.4,94 75.6,75.5 80.3,75.4 80,64.7 72.6,64.7 61.5,43.4 43,37.9 38.3,55.3 50.2,58.9 56.5,75.2 
		53.6,75.2 53.6,87.4 61.2,87.4 69.7,105.2 70.3,109.4 60.1,107.2 38.2,55.4 13.7,49.5 1.2,82.3 	"/>
	<path fill-rule="evenodd" fill="#FFFFFF" stroke="#000000" stroke-width="2.0001" stroke-miterlimit="22.9256" d="M166.2,82.4
		l-8.7,15h-28.2l-13.4-38.8L145.2,36l21,15.7l-25.7,23.2l1.7,7.5L166.2,82.4L166.2,82.4z M139,70.4l11.6-10l-17.2-9.7L139,70.4
		L139,70.4z"/>
	<path fill-rule="evenodd" fill="#FFFFFF" stroke="#000000" stroke-width="2.0001" stroke-miterlimit="22.9256" d="M536.3,128.8
		l-16.7,4.8L499.3,114l17.3-37.2l36.8,4l4.2,25.9l-34.6-1.1l-4,6.5L536.3,128.8L536.3,128.8z M525,101.2l15.3,0.8l-5.6-18.9
		L525,101.2L525,101.2z"/>
	<polygon fill-rule="evenodd" fill="#FFFFFF" stroke="#000000" stroke-width="2.0001" stroke-miterlimit="22.9256" points="
		206.6,45.8 218.5,33.3 206.8,22.4 177.6,40 178.4,62.4 205.2,66.4 205.3,79.2 186.3,69.4 175.3,80.4 195,92 220.9,75.4 219.5,51.9 
		194.7,48.3 193.6,35.6 	"/>
	<polygon fill-rule="evenodd" fill="#FFFFFF" stroke="#000000" stroke-width="2.0001" stroke-miterlimit="22.9256" points="
		256.9,5.1 256.9,26.4 273.3,26.4 265.6,39 256.9,39 256.9,72.4 273.3,79.6 260.6,90.9 240.6,84.5 240.6,39 229.7,39 234.4,26.4 
		240.6,26.4 240.6,13.3 	"/>
	<path fill-rule="evenodd" fill="#FFFFFF" stroke="#000000" stroke-width="2.0001" stroke-miterlimit="22.9256" d="M279.8,35
		l13.9-12.2l12.2,9.5l12.2-8.8l13.9,11.2l13.2-8.3L359.2,39L358,73.6l6.9,7.4c0,0-14.5,10.7-14.5,9.8c0-0.9-10.1-7.9-10.1-7.9
		l1.4-37.3l-9.3-6.5l-2.1,39.4l-17.2,11l2.2-47l-10.8-6.5l-2.1,44.1l-17,9.8l2.4-50.8L279.8,35L279.8,35z"/>
	<polygon fill-rule="evenodd" fill="#FFFFFF" stroke="#000000" stroke-width="2.0001" stroke-miterlimit="22.9256" points="
		405.3,57.2 375.2,57.2 370.5,81.3 382.1,97.4 398.5,86.9 389.1,75.2 391.7,62.4 404.5,62.8 400.4,86.5 410,97.4 426.3,89.8 
		418.3,80.7 424.4,46.2 394.9,29.5 380,38.2 405.3,52.9 	"/>
	<polygon fill-rule="evenodd" fill="#FFFFFF" stroke="#000000" stroke-width="2.0001" stroke-miterlimit="22.9256" points="
		457.9,23.8 478.1,22.5 453.5,93.6 462.1,100.5 445,107.1 432.5,96.1 	"/>
	<polygon fill-rule="evenodd" fill="#FFFFFF" stroke="#000000" stroke-width="2.0001" stroke-miterlimit="22.9256" points="
		493.5,32.1 513.8,32.5 486.4,101.4 494.7,108.9 477.3,114.2 465.2,102.3 	"/>
	<path fill-rule="evenodd" stroke="#000000" stroke-width="2.0001" stroke-miterlimit="22.9256" d="M125.1,258.6l15.5-16.9h66.1
		l-12.4,10.7c-6.8-1.1-14.2-1.6-22-1.4V285c0,7.8-11.1,11.6-17.7,10.2c7.3-3.5,7.1-6.4,7.1-11.1l0.2-32.7
		c-24,25.3-15,53.4,18.4,54.8l-15.3,10.6c-16,0.4-26.7-10.3-28.4-31c-1.1-12.9,7.4-23.8,17.9-33.5
		C144.3,253.4,135,254.8,125.1,258.6L125.1,258.6z"/>
	<polygon fill-rule="evenodd" stroke="#000000" stroke-width="2.0001" stroke-miterlimit="22.9256" points="183.5,277.9 
		192.5,268.5 200.7,275.7 209,267.7 218.6,275.3 208.9,284.5 201.3,278.3 201.3,302.7 207.2,308 197.3,316 189,310.9 189,284 	"/>
	<polygon fill-rule="evenodd" stroke="#000000" stroke-width="2.0001" stroke-miterlimit="22.9256" points="223.4,276.4 
		231.5,268.1 253.2,277 253.2,303.4 259.8,307.9 251.3,316.3 241.3,310.1 241.3,290.7 231.9,293.1 231.9,302 239.4,308.4 
		230.2,317.1 220.4,309.3 220.4,292.2 241.3,286.9 241.3,284.4 	"/>
	<polygon fill-rule="evenodd" stroke="#000000" stroke-width="2.0001" stroke-miterlimit="22.9256" points="259.8,277.5 
		270.3,268.7 280.2,275.7 287.4,268.7 301,278.9 301,307.5 289.9,317 283.3,309.2 287.4,306 287.4,284.7 279.2,278.5 279.2,325.4 
		285,329.8 275.1,337.8 266.8,331.8 266.8,282.8 	"/>
	<polygon fill-rule="evenodd" stroke="#000000" stroke-width="2.0001" stroke-miterlimit="22.9256" points="304.6,277.9 315.1,269 
		325,276 332.1,269 345.8,279.2 345.8,307.8 334.7,317.4 328,309.5 332.1,306.3 332.1,285 324,278.9 324,325.7 329.7,330.1 
		319.9,338.2 311.5,332.2 311.5,283.1 	"/>
	<polygon fill-rule="evenodd" stroke="#000000" stroke-width="2.0001" stroke-miterlimit="22.9256" points="348.4,277.2 
		358.9,268.3 367.7,275 367.7,302.2 373.3,306.7 363.5,314.7 355.3,308.7 355.3,282.3 	"/>
	<polygon fill-rule="evenodd" stroke="#000000" stroke-width="2.0001" stroke-miterlimit="22.9256" points="352.8,259.6 
		362.7,249.7 370.9,257.9 361,267.8 	"/>
	<polygon fill-rule="evenodd" stroke="#000000" stroke-width="2.0001" stroke-miterlimit="22.9256" points="382.3,278.3 
		404.8,268.1 413.7,277 404.1,284.6 395.4,277 395.4,286.3 411.8,290.8 411.8,306.8 389.5,317.2 377,308.1 385.3,300.1 399.2,308.1 
		399.2,298.9 383.4,294.4 	"/>
	<polygon fill-rule="evenodd" stroke="#000000" stroke-width="2.0001" stroke-miterlimit="22.9256" points="436.8,256.5 
		436.8,272.2 449.1,272.4 443.5,282.3 436.8,282.3 436.8,305.8 450.4,310.3 439.5,320 425,313.4 425,282.3 415.6,282.3 420.7,272.4 
		425,272.4 425,263.6 	"/>
	<path fill-rule="evenodd" fill="#FFFFFF" stroke="#000000" stroke-width="2.0001" stroke-miterlimit="22.9256" d="M122.2,255.2
		l15.5-16.9h66.1L191.3,249c-6.8-1.1-14.2-1.6-22-1.4v33.9c0,7.8-11.1,11.6-17.7,10.2c7.3-3.5,7.1-6.4,7.1-11.1L159,248
		c-24,25.3-15,53.4,18.4,54.8L162,313.4c-16,0.4-26.7-10.3-28.4-31c-1.1-12.9,7.4-23.8,17.9-33.5
		C141.4,249.9,132.1,251.3,122.2,255.2L122.2,255.2z"/>
	<polygon fill-rule="evenodd" fill="#FFFFFF" stroke="#000000" stroke-width="2.0001" stroke-miterlimit="22.9256" points="
		180.6,274.4 189.6,265 197.8,272.2 206.1,264.2 215.7,271.9 206,281 198.4,274.9 198.4,299.3 204.3,304.5 194.4,312.5 186.2,307.4 
		186.2,280.5 	"/>
	<polygon fill-rule="evenodd" fill="#FFFFFF" stroke="#000000" stroke-width="2.0001" stroke-miterlimit="22.9256" points="
		220.5,273 228.6,264.6 250.4,273.6 250.4,299.9 256.9,304.5 248.4,312.9 238.4,306.6 238.4,287.3 229.1,289.6 229.1,298.5 
		236.5,305 227.3,313.6 217.5,305.9 217.5,288.7 238.4,283.5 238.4,280.9 	"/>
	<polygon fill-rule="evenodd" fill="#FFFFFF" stroke="#000000" stroke-width="2.0001" stroke-miterlimit="22.9256" points="
		256.9,274.1 267.4,265.2 277.3,272.2 284.5,265.2 298.1,275.4 298.1,304 287,313.6 280.4,305.7 284.5,302.5 284.5,281.2 
		276.3,275.1 276.3,321.9 282.1,326.3 272.2,334.3 263.9,328.4 263.9,279.4 	"/>
	<polygon fill-rule="evenodd" fill="#FFFFFF" stroke="#000000" stroke-width="2.0001" stroke-miterlimit="22.9256" points="
		301.7,274.4 312.2,265.6 322.1,272.5 329.2,265.6 342.9,275.8 342.9,304.4 331.8,313.9 325.2,306.1 329.2,302.8 329.2,281.6 
		321.1,275.4 321.1,322.2 326.9,326.7 317,334.7 308.6,328.7 308.6,279.7 	"/>
	<polygon fill-rule="evenodd" fill="#FFFFFF" stroke="#000000" stroke-width="2.0001" stroke-miterlimit="22.9256" points="
		345.5,273.7 356,264.9 364.8,271.5 364.8,298.8 370.5,303.2 360.6,311.2 352.4,305.2 352.4,278.8 	"/>
	<polygon fill-rule="evenodd" fill="#FFFFFF" stroke="#000000" stroke-width="2.0001" stroke-miterlimit="22.9256" points="
		350,256.1 359.8,246.2 368,254.4 358.1,264.3 	"/>
	<polygon fill-rule="evenodd" fill="#FFFFFF" stroke="#000000" stroke-width="2.0001" stroke-miterlimit="22.9256" points="
		379.4,274.8 401.9,264.6 410.8,273.5 401.3,281.2 392.6,273.5 392.6,282.9 408.9,287.3 408.9,303.4 386.6,313.8 374.1,304.7 
		382.4,296.6 396.3,304.7 396.3,295.4 380.5,290.9 	"/>
	<polygon fill-rule="evenodd" fill="#FFFFFF" stroke="#000000" stroke-width="2.0001" stroke-miterlimit="22.9256" points="
		433.9,253 433.9,268.8 446.2,269 440.7,278.8 433.9,278.8 433.9,302.3 447.5,306.9 436.6,316.5 422.1,310 422.1,278.8 412.7,278.8 
		417.8,269 422.1,269 422.1,260.2 	"/>
	<path fill-rule="evenodd" fill="#E30613" stroke="#000000" stroke-width="2.0001" stroke-miterlimit="22.9256" d="M286.3,119.1
		c32.3,0,58.7,26.4,58.7,58.7s-26.4,58.7-58.7,58.7s-58.7-26.4-58.7-58.7C227.5,145.5,253.9,119.1,286.3,119.1L286.3,119.1z"/>
	<path fill-rule="evenodd" fill="#FFFFFF" stroke="#000000" stroke-width="2.0001" stroke-miterlimit="22.9256" d="M239.3,161
		c14.8,26.6,17.2,37.3,23.9,61.8l17.6,3.5l5.7-9l5,8.5l16-2.4c7.9-28.1,11.8-38.3,25-62.3l-10.1-14.6
		c-12.2,20.1-21.4,40.6-26.4,62.9l-9.1-11.4l-9.8,11.4c-6.2-22.1-14.4-43-26.4-62.9L239.3,161L239.3,161z"/>
	<path fill-rule="evenodd" fill="#FFFFFF" stroke="#000000" stroke-width="2.0001" stroke-miterlimit="22.9256" d="M245,207.3
		c13.6-23.6,22.9-48,28.5-73l6.5,6.5l7.1-11.7l6.2,11.4l6.8-7.3c5.2,29.5,15.2,53.8,29,73.9l-12.5,11.4l-14.9-35.3h-30.7l-14.9,34.8
		L245,207.3L245,207.3z M275.9,172.8h21.2c-4.2-10-7.4-20.5-10.5-31.2C283.6,152,280.1,162.4,275.9,172.8L275.9,172.8z"/>
</g>
</svg>
