<?xml version="1.0" encoding="utf-8"?>
<!-- Generator: Adobe Illustrator 22.0.1, SVG Export Plug-In . SVG Version: 6.00 Build 0)  -->
<svg version="1.2" baseProfile="tiny" id="Слой_1"
	 xmlns="http://www.w3.org/2000/svg" xmlns:xlink="http://www.w3.org/1999/xlink" x="0px" y="0px" viewBox="0 0 186 55"
	 xml:space="preserve">
<g>
	<path fill="#00C6FF" d="M43.8,31.5c-0.7-2.3-2.8-4-5.3-4h0c2.5,0,4.6-1.7,5.3-4c0.1-0.5,0.2-1,0.2-1.5l0-11c0-6.1-4.9-11-11-11
		h-0.6h-8.7H8.3C8,0,7.8,0,7.6,0.1C6.4,0.4,5.5,1.5,5.5,2.8v2.8v10.7c0,0.2,0.1,0.3,0.3,0.3c5.9,0.2,10.7,5,10.7,11
		c0,6-4.7,10.8-10.7,11c-0.2,0-0.3,0.2-0.3,0.3v10.7v2.8c0,1.3,0.9,2.4,2.1,2.7C7.8,55,8,55,8.3,55h15.5h8.7H33c6.1,0,11-4.9,11-11
		l0-11C44,32.4,43.9,31.9,43.8,31.5z"/>
	<path fill="#00A0FF" d="M43.8,31.5c-0.7-2.3-2.8-4-5.3-4h0c2.5,0,4.6-1.7,5.3-4c0.1-0.5,0.2-1,0.2-1.5l0-11c0-6.1-4.9-11-11-11
		h-0.6h-8.7c8.9,5.9,14.8,16,14.8,27.5c0,11.5-5.9,21.6-14.8,27.5h8.7H33c6.1,0,11-4.9,11-11l0-11C44,32.4,43.9,31.9,43.8,31.5z"/>
	<path fill="#00B4FF" d="M23.7,0H8.3C8,0,7.8,0,7.6,0.1C6.4,0.4,5.5,1.5,5.5,2.8v2.8c12.1,0,22,9.9,22,22c0,12.1-9.8,22-22,22v2.8
		c0,1.3,0.9,2.4,2.1,2.7C7.8,55,8,55,8.3,55h15.5c8.9-5.9,14.8-16,14.8-27.5C38.5,16,32.6,5.9,23.7,0z"/>
	<path fill="#00C8FF" d="M5.5,5.5v10.7c0,0.2,0.1,0.3,0.3,0.3c5.9,0.2,10.7,5,10.7,11c0,6-4.7,10.8-10.7,11c-0.2,0-0.3,0.2-0.3,0.3
		v10.7c12.1,0,22-9.9,22-22C27.5,15.4,17.7,5.5,5.5,5.5z"/>
	<g>
		<path fill="#FFFFFF" d="M5.7,22c-0.8,0-1.6,0.1-2.3,0.4c-0.2,0.1-0.3,0.3-0.2,0.5c0.2,0.3,0.3,0.7,0.2,1.1
			c-0.1,0.7-0.7,1.3-1.4,1.4c-0.4,0.1-0.8,0-1.1-0.2c-0.2-0.1-0.4,0-0.5,0.2C0.1,26.1,0,26.8,0,27.7c0.1,2.8,2.4,5.2,5.2,5.3
			c3.3,0.2,5.9-2.5,5.8-5.8C10.9,24.4,8.5,22.1,5.7,22z"/>
		<g>
			<path fill="#FFFFFF" d="M71.3,22.3c0,2.2-0.7,3.7-2.4,4.7v0.1c2,0.7,3.2,2.6,3.2,5.4c0,3.9-2.9,6-7,6h-8.8
				c-0.8,0-1.1-0.3-1.1-1.1V17.5c0-0.8,0.3-1.1,1.1-1.1h8.6C68.9,16.5,71.3,18.6,71.3,22.3z M64.5,20.1h-5.3v5.4h5.3
				c1.8,0,2.8-0.9,2.8-2.7C67.3,21,66.3,20.1,64.5,20.1z M65,29.1h-5.8v5.8H65c1.9,0,2.9-1,2.9-2.8S66.9,29.1,65,29.1z"/>
			<path fill="#FFFFFF" d="M82.7,22c0.7,0,1,0.2,1,1v1.4c0,0.7-0.2,1-1,1h-1.1c-1.2,0-2.1,0.1-2.9,0.4c-0.3,0.1-0.3,0.2-0.3,0.4
				v11.5c0,0.7-0.2,1-0.9,1h-1.7c-0.7,0-1-0.2-1-1V24.7c0-1,0.2-1.4,1.2-1.8c1.1-0.4,3-0.9,5.8-0.9H82.7z"/>
			<path fill="#FFFFFF" d="M90.2,18.3v0.3c0,1.4-0.5,1.9-1.9,1.9h-0.2c-1.4,0-1.9-0.5-1.9-1.9v-0.3c0-1.4,0.5-1.9,1.9-1.9h0.2
				C89.7,16.4,90.2,16.9,90.2,18.3z M90,23.4v14.1c0,0.7-0.2,1-1,1h-1.7c-0.7,0-0.9-0.2-0.9-1V23.4c0-0.7,0.2-0.9,0.9-0.9H89
				C89.7,22.4,90,22.6,90,23.4z"/>
			<path fill="#FFFFFF" d="M99.8,22c2.5,0,4.5,0.5,5.6,1c1,0.5,1.1,0.7,1.1,1.7V39c0,4.1-1.9,6.7-6.8,6.7c-3.3,0-5.3-1.1-6.4-3
				c-0.5-0.7-0.3-1.2,0.4-1.5l1.2-0.6c0.7-0.4,1.1-0.3,1.6,0.4c0.6,1,1.5,1.6,3.2,1.6c2.2,0,3.3-1.1,3.3-3.3v-1.5
				c-0.9,0.2-2.2,0.6-3.7,0.6c-4.4,0-6.4-2.3-6.4-6.2v-3.5C92.8,24.3,95,22,99.8,22z M100,25.2c-2.5,0-3.7,1.1-3.7,3.3v3.3
				c0,1.9,1.2,3,3.4,3c1.3,0,2.4-0.2,3.2-0.4V26c0-0.2-0.1-0.3-0.3-0.4C102,25.4,101,25.2,100,25.2z"/>
			<path fill="#FFFFFF" d="M113.2,16.5v5.9c0.3-0.2,1.9-0.4,3.7-0.4c4.4,0,6.4,2.3,6.4,6.2v9.3c0,0.7-0.2,1-1,1h-1.7
				c-0.7,0-1-0.2-1-1v-9.2c0-2-1.2-3-3.4-3c-1.5,0-2.9,0.3-3.2,0.5v11.8c0,0.7-0.2,1-0.9,1h-1.7c-0.7,0-1-0.2-1-1v-21
				c0-0.7,0.2-1,1-1h1.7C112.9,15.6,113.2,15.8,113.2,16.5z"/>
			<path fill="#FFFFFF" d="M131.8,19.6v2.8h3.5c0.7,0,1,0.2,1,0.9v1.4c0,0.7-0.2,1-1,1h-3.5V32c0,3,0.9,3.6,3.5,3.6c0.7,0,1,0.2,1,1
				v1.4c0,0.7-0.2,1-1,1c-5.1,0.2-7.1-1.5-7.1-6.8v-6.3H126c-0.7,0-0.9-0.2-0.9-1v-1.4c0-0.7,0.2-0.9,0.9-0.9h2.1v-2.8
				c0-0.7,0.2-0.9,1-0.9h1.7C131.5,18.7,131.8,18.9,131.8,19.6z"/>
			<path fill="#FFFFFF" d="M145.3,22c4.9,0,7.1,2.8,7.1,6.4v1.9c0,0.8-0.3,1.3-1.4,1.3h-9.3v1.1c0,2,1.3,3.1,3.5,3.1
				c1.8,0,3-0.6,3.7-1.6c0.5-0.7,0.8-0.8,1.6-0.4l1.1,0.6c0.7,0.3,0.8,0.9,0.4,1.5c-1.1,1.8-3.2,3-6.7,3c-5.1,0-7.1-2.8-7.1-6.6
				v-3.7C138.1,24.3,140.6,22,145.3,22z M145.3,25c-2.3,0-3.6,1.1-3.6,3.2v0.7h7.1v-0.7C148.8,26.1,147.6,25,145.3,25z"/>
			<path fill="#FFFFFF" d="M168.8,23.4V39c0,4.1-1.9,6.7-6.8,6.7c-3.3,0-5.3-1.1-6.4-3c-0.4-0.7-0.3-1.2,0.4-1.5l1.2-0.6
				c0.7-0.4,1.1-0.3,1.5,0.4c0.6,1,1.6,1.6,3.2,1.6c2.2,0,3.3-1.1,3.3-3.3v-1.5c-1,0.2-2.2,0.4-3.7,0.4c-4.4,0-6.5-2.3-6.5-6.2v-8.6
				c0-0.7,0.2-0.9,1-0.9h1.7c0.7,0,0.9,0.2,0.9,0.9v8.4c0,2.1,1.1,3.1,3.4,3.1c1.3,0,2.4-0.2,3.2-0.4V23.4c0-0.7,0.2-0.9,1-0.9h1.7
				C168.6,22.4,168.8,22.6,168.8,23.4z"/>
			<path fill="#FFFFFF" d="M178.8,22c4.9,0,7.1,2.8,7.1,6.4v1.9c0,0.8-0.3,1.3-1.4,1.3h-9.3v1.1c0,2,1.3,3.1,3.5,3.1
				c1.8,0,3-0.6,3.7-1.6c0.5-0.7,0.8-0.8,1.6-0.4l1.1,0.6c0.7,0.3,0.8,0.9,0.4,1.5c-1.1,1.8-3.2,3-6.7,3c-5.1,0-7.1-2.8-7.1-6.6
				v-3.7C171.6,24.3,174.1,22,178.8,22z M178.8,25c-2.3,0-3.6,1.1-3.6,3.2v0.7h7.1v-0.7C182.4,26.1,181.2,25,178.8,25z"/>
		</g>
	</g>
</g>
</svg>
