<?xml version="1.0" encoding="utf-8"?>
<!-- Generator: Adobe Illustrator 22.1.0, SVG Export Plug-In . SVG Version: 6.00 Build 0)  -->
<svg version="1.1" id="Слой_1" xmlns="http://www.w3.org/2000/svg" xmlns:xlink="http://www.w3.org/1999/xlink" x="0px" y="0px"
	 viewBox="0 0 720 377" style="enable-background:new 0 0 720 377;" xml:space="preserve">
<style type="text/css">
	.st0{fill:#00C8FA;}
	.st1{fill:#28DBFC;}
	.st2{fill:#A0EFFC;}
	.st3{fill:none;stroke:#FFFFFF;stroke-width:2;stroke-miterlimit:10;}
	.st4{fill:#FFFFFF;}
	.st5{fill:#00002B;}
</style>
<rect y="0.4" class="st0" width="720" height="377"/>
<path class="st1" d="M536.9,113.9c-41.4-41.3-108.6-41.3-150,0l-26.6,26.6l48.1,48.1L435,162c14.9-14.8,39-14.8,53.9,0
	c7.2,7.2,11.1,16.7,11.1,26.9s-4,19.7-11.1,26.9c-14.9,14.8-39,14.8-53.9,0l-26.9-26.9L360,140.8l-26.9-26.9
	c-41.4-41.3-108.6-41.3-150,0c-20,20-31.1,46.6-31.1,75s11,54.9,31.1,75c20.7,20.7,47.8,31,75,31s54.3-10.3,75-31l26.6-26.6
	l-48.1-48.1L285,215.7c-14.9,14.8-39,14.8-53.9,0C224,208.5,220,199,220,188.9s4-19.7,11.1-26.9c14.9-14.8,39-14.8,53.9,0
	l101.9,101.8c20.7,20.7,47.8,31,75,31s54.3-10.3,75-31c20-20,31.1-46.6,31.1-75S557,133.9,536.9,113.9z"/>
<g>
	<g>
		
			<rect x="358.5" y="187.6" transform="matrix(0.7066 -0.7076 0.7076 0.7066 -27.7757 309.639)" class="st2" width="2" height="1.5"/>
	</g>
	<g>
		<path class="st2" d="M258.1,261.9c-1,0-2,0-3-0.1l0.1-2c1,0,1.9,0.1,2.9,0.1l0,0V261.9L258.1,261.9z M261.1,261.8l-0.1-2
			c1,0,2-0.1,2.9-0.2l0.2,2C263.2,261.7,262.1,261.7,261.1,261.8z M252,261.6c-1-0.1-2-0.2-3-0.3l0.2-2c1,0.1,2,0.2,2.9,0.3
			L252,261.6z M267.2,261.3l-0.2-2c1-0.1,2-0.3,2.9-0.4l0.3,2C269.2,261,268.2,261.2,267.2,261.3z M246,260.9c-1-0.2-2-0.4-3-0.6
			l0.4-2c1,0.2,1.9,0.4,2.9,0.5L246,260.9z M273.2,260.3l-0.4-2c1-0.2,1.9-0.4,2.9-0.7l0.5,1.9C275.2,259.8,274.2,260.1,273.2,260.3
			z M240.1,259.6c-1-0.2-2-0.5-2.9-0.8l0.6-1.9c0.9,0.3,1.9,0.5,2.8,0.8L240.1,259.6z M279.1,258.8l-0.6-1.9
			c0.9-0.3,1.9-0.6,2.8-0.9l0.7,1.9C281,258.2,280,258.5,279.1,258.8z M234.2,257.9c-1-0.3-1.9-0.7-2.9-1l0.7-1.9
			c0.9,0.4,1.8,0.7,2.8,1L234.2,257.9z M284.8,256.8l-0.7-1.9c0.9-0.4,1.8-0.7,2.7-1.1l0.8,1.8C286.7,256.1,285.7,256.4,284.8,256.8
			z M228.6,255.7c-0.9-0.4-1.8-0.8-2.8-1.3l0.9-1.8c0.9,0.4,1.8,0.9,2.7,1.2L228.6,255.7z M290.4,254.4l-0.9-1.8
			c0.9-0.4,1.8-0.9,2.6-1.4l1,1.8C292.2,253.5,291.3,253.9,290.4,254.4z M223.1,253c-0.9-0.5-1.8-1-2.6-1.5l1-1.7
			c0.8,0.5,1.7,1,2.6,1.5L223.1,253z M295.7,251.5l-1-1.7c0.8-0.5,1.7-1,2.5-1.6l1.1,1.7C297.4,250.4,296.6,250.9,295.7,251.5z
			 M217.9,249.9c-0.8-0.6-1.7-1.1-2.5-1.7l1.2-1.6c0.8,0.6,1.6,1.1,2.4,1.7L217.9,249.9z M300.8,248.1l-1.2-1.6
			c0.8-0.6,1.6-1.2,2.4-1.8l1.2,1.6C302.4,246.9,301.6,247.5,300.8,248.1z M213,246.3c-0.8-0.6-1.6-1.3-2.4-1.9l1.3-1.5
			c0.8,0.6,1.5,1.3,2.3,1.9L213,246.3z M305.5,244.4l-1.3-1.5c0.7-0.6,1.5-1.3,2.2-2l1.4,1.5C307,243,306.3,243.7,305.5,244.4z
			 M208.4,242.4c-0.7-0.6-1.3-1.2-2-1.9l-0.2-0.2l1.4-1.4l0.2,0.2c0.6,0.6,1.3,1.2,1.9,1.8L208.4,242.4z M310,240.2l-1.4-1.4
			l2.1-2.1l1.4,1.4L310,240.2z M204.1,238.1c-0.7-0.8-1.4-1.5-2-2.3l1.5-1.3c0.6,0.8,1.3,1.5,1.9,2.2L204.1,238.1z M314.2,236
			l-1.4-1.4l2.1-2.1l1.4,1.4L314.2,236z M200.2,233.4c-0.6-0.8-1.2-1.6-1.8-2.4l1.6-1.2c0.6,0.8,1.2,1.6,1.8,2.4L200.2,233.4z
			 M318.5,231.8l-1.4-1.4l2.1-2.1l1.4,1.4L318.5,231.8z M196.7,228.5c-0.6-0.9-1.1-1.7-1.6-2.6l1.7-1c0.5,0.8,1,1.7,1.6,2.5
			L196.7,228.5z M322.7,227.5l-1.4-1.4l2.1-2.1l1.4,1.4L322.7,227.5z M326.9,223.3l-1.4-1.4l2.1-2.1l1.4,1.4L326.9,223.3z
			 M193.6,223.2c-0.5-0.9-0.9-1.8-1.4-2.7l1.8-0.9c0.4,0.9,0.9,1.8,1.3,2.6L193.6,223.2z M331.2,219.1l-1.4-1.4l2.1-2.1l1.4,1.4
			L331.2,219.1z M191,217.8c-0.4-0.9-0.8-1.9-1.1-2.8l1.9-0.7c0.4,0.9,0.7,1.8,1.1,2.7L191,217.8z M188.8,212.1
			c-0.3-1-0.6-1.9-0.9-2.9l1.9-0.6c0.3,0.9,0.6,1.9,0.9,2.8L188.8,212.1z M187.1,206.3c-0.2-1-0.5-2-0.7-3l2-0.4
			c0.2,1,0.4,1.9,0.6,2.9L187.1,206.3z M185.9,200.3c-0.2-1-0.3-2-0.4-3l2-0.2c0.1,1,0.2,2,0.4,2.9L185.9,200.3z M185.2,194.3
			c-0.1-1-0.1-2-0.2-3l2-0.1c0,1,0.1,2,0.2,2.9L185.2,194.3z M187,188.2h-2c0-1,0-2,0.1-3l2,0.1C187,186.3,187,187.2,187,188.2z
			 M356.1,186.4l-2.1-2.1l1.4-1.4l2.1,2.1L356.1,186.4z M187.3,182.3l-2-0.2c0.1-1,0.2-2,0.3-3l2,0.3
			C187.5,180.4,187.4,181.3,187.3,182.3z M351.9,182.1l-2.1-2.1l1.4-1.4l2.1,2.1L351.9,182.1z M347.6,177.9l-2.1-2.1l1.4-1.4
			l2.1,2.1L347.6,177.9z M188.1,176.5l-2-0.3c0.2-1,0.4-2,0.6-3l2,0.4C188.4,174.5,188.3,175.5,188.1,176.5z M343.4,173.7l-2.1-2.1
			l1.4-1.4l2.1,2.1L343.4,173.7z M189.4,170.7l-1.9-0.5c0.3-1,0.5-2,0.8-2.9l1.9,0.6C189.9,168.8,189.6,169.7,189.4,170.7z
			 M339.2,169.4l-2.1-2.1l1.4-1.4l2.1,2.1L339.2,169.4z M334.9,165.2l-2.1-2.1l1.4-1.4l2.1,2.1L334.9,165.2z M191.1,165.1l-1.9-0.7
			c0.3-1,0.7-1.9,1.1-2.8l1.9,0.7C191.8,163.2,191.4,164.1,191.1,165.1z M330.7,161l-2.1-2.1l1.4-1.4l2.1,2.1L330.7,161z
			 M193.3,159.6l-1.8-0.8c0.4-0.9,0.9-1.8,1.3-2.7l1.8,0.9C194.1,157.8,193.7,158.7,193.3,159.6z M326.4,156.7l-2.1-2.1l1.4-1.4
			l2.1,2.1L326.4,156.7z M196,154.3l-1.7-1c0.5-0.9,1-1.8,1.5-2.6l1.7,1C196.9,152.6,196.4,153.4,196,154.3z M322.2,152.5l-2.1-2.1
			l1.4-1.4l2.1,2.1L322.2,152.5z M199.1,149.3l-1.7-1.1c0.6-0.8,1.1-1.7,1.8-2.5l1.6,1.2C200.2,147.6,199.6,148.5,199.1,149.3z
			 M318,148.3l-2.1-2.1l1.4-1.4l2.1,2.1L318,148.3z M202.6,144.5l-1.6-1.3c0.6-0.8,1.3-1.6,2-2.3l1.5,1.3
			C203.8,143,203.2,143.7,202.6,144.5z M313.7,144l-2.1-2.1l1.4-1.4l2.1,2.1L313.7,144z M206.4,140.1l-1.4-1.4
			c0.5-0.5,0.9-1,1.4-1.4c0.2-0.2,0.5-0.5,0.7-0.7l1.4,1.4c-0.2,0.2-0.5,0.5-0.7,0.7C207.4,139.1,206.9,139.6,206.4,140.1z
			 M309.5,139.8l-1.2-1.2c-0.3-0.3-0.6-0.6-1-0.9l1.4-1.4c0.3,0.3,0.7,0.6,1,1l1.2,1.2L309.5,139.8z M210.7,135.9l-1.3-1.5
			c0.8-0.7,1.5-1.3,2.3-2l1.3,1.5C212.2,134.6,211.4,135.3,210.7,135.9z M305.2,135.7c-0.7-0.7-1.5-1.3-2.3-1.9l1.3-1.5
			c0.8,0.6,1.6,1.3,2.3,2L305.2,135.7z M215.2,132.2l-1.2-1.6c0.8-0.6,1.6-1.2,2.5-1.8l1.1,1.6C216.8,131,216,131.6,215.2,132.2z
			 M300.6,132c-0.8-0.6-1.6-1.2-2.4-1.7l1.1-1.6c0.8,0.6,1.7,1.2,2.5,1.8L300.6,132z M220.1,128.8l-1.1-1.7c0.9-0.5,1.7-1.1,2.6-1.6
			l1,1.7C221.8,127.8,220.9,128.3,220.1,128.8z M295.7,128.6c-0.8-0.5-1.7-1-2.5-1.5l1-1.7c0.9,0.5,1.7,1,2.6,1.6L295.7,128.6z
			 M225.2,125.9l-0.9-1.8c0.9-0.5,1.8-0.9,2.7-1.3l0.8,1.8C227,125,226.1,125.4,225.2,125.9z M290.6,125.7c-0.9-0.5-1.8-0.9-2.7-1.3
			l0.8-1.8c0.9,0.4,1.8,0.9,2.7,1.3L290.6,125.7z M230.6,123.4l-0.8-1.8c0.9-0.4,1.9-0.8,2.8-1.1l0.7,1.9
			C232.4,122.6,231.5,123,230.6,123.4z M285.2,123.2c-0.9-0.4-1.8-0.7-2.8-1.1l0.7-1.9c0.9,0.3,1.9,0.7,2.8,1.1L285.2,123.2z
			 M236.1,121.3l-0.6-1.9c1-0.3,1.9-0.6,2.9-0.9l0.5,1.9C238,120.7,237,121,236.1,121.3z M279.7,121.2c-0.9-0.3-1.9-0.6-2.8-0.8
			l0.5-1.9c1,0.3,1.9,0.6,2.9,0.9L279.7,121.2z M241.8,119.7l-0.5-1.9c1-0.2,2-0.4,3-0.6l0.4,2C243.7,119.3,242.7,119.5,241.8,119.7
			z M274,119.6c-1-0.2-1.9-0.4-2.9-0.6l0.4-2c1,0.2,2,0.4,3,0.6L274,119.6z M247.6,118.6l-0.3-2c1-0.1,2-0.3,3-0.4l0.2,2
			C249.5,118.4,248.6,118.5,247.6,118.6z M268.2,118.6c-1-0.1-2-0.3-2.9-0.4l0.2-2c1,0.1,2,0.2,3,0.4L268.2,118.6z M253.5,118
			l-0.1-2c1-0.1,2-0.1,3-0.1v2C255.4,117.9,254.4,117.9,253.5,118z M262.3,118c-1-0.1-2-0.1-3-0.1v-2c1,0,2,0.1,3,0.1V118z"/>
	</g>
	<g>
		
			<rect x="334.6" y="212.6" transform="matrix(0.7074 -0.7069 0.7069 0.7074 -52.8575 299.5255)" class="st2" width="1.5" height="2"/>
	</g>
</g>
<g>
	<g>
		
			<rect x="359.5" y="188.6" transform="matrix(0.7066 -0.7076 0.7076 0.7066 -28.2405 310.6407)" class="st2" width="2" height="1.5"/>
	</g>
	<g>
		<path class="st2" d="M460.5,261.8c-1,0-2-0.1-3-0.1l0.1-2c1,0.1,2,0.1,3,0.1L460.5,261.8z M463.6,261.8v-2c1,0,2-0.1,3-0.1l0.1,2
			C465.6,261.8,464.6,261.8,463.6,261.8z M454.5,261.5c-1-0.1-2-0.2-3-0.4l0.3-2c1,0.1,2,0.3,2.9,0.4L454.5,261.5z M469.6,261.4
			l-0.2-2c1-0.1,2-0.2,2.9-0.4l0.3,2C471.6,261.2,470.6,261.3,469.6,261.4z M448.5,260.6c-1-0.2-2-0.4-3-0.6l0.4-1.9
			c1,0.2,1.9,0.4,2.9,0.6L448.5,260.6z M475.6,260.6l-0.4-2c1-0.2,1.9-0.4,2.9-0.6l0.5,1.9C477.6,260.2,476.6,260.4,475.6,260.6z
			 M442.5,259.3c-1-0.3-1.9-0.6-2.9-0.9l0.6-1.9c0.9,0.3,1.9,0.6,2.8,0.8L442.5,259.3z M481.5,259.2l-0.5-1.9
			c0.9-0.3,1.9-0.5,2.8-0.8l0.6,1.9C483.5,258.6,482.5,258.9,481.5,259.2z M436.8,257.4c-0.9-0.3-1.9-0.7-2.8-1.1l0.8-1.8
			c0.9,0.4,1.8,0.7,2.8,1.1L436.8,257.4z M487.3,257.3l-0.7-1.9c0.9-0.3,1.8-0.7,2.7-1.1l0.8,1.8C489.2,256.6,488.3,257,487.3,257.3
			z M431.2,255.1c-0.9-0.4-1.8-0.9-2.7-1.3l0.9-1.8c0.9,0.5,1.8,0.9,2.7,1.3L431.2,255.1z M492.9,255l-0.8-1.8
			c0.9-0.4,1.8-0.9,2.6-1.3l0.9,1.8C494.7,254.1,493.8,254.6,492.9,255z M425.8,252.3c-0.9-0.5-1.7-1-2.6-1.6l1.1-1.7
			c0.8,0.5,1.7,1,2.5,1.5L425.8,252.3z M498.3,252.2l-1-1.7c0.9-0.5,1.7-1,2.5-1.5l1.1,1.7C500,251.2,499.2,251.7,498.3,252.2z
			 M420.6,249.1c-0.8-0.6-1.7-1.2-2.5-1.8l1.2-1.6c0.8,0.6,1.6,1.2,2.4,1.7L420.6,249.1z M503.4,249l-1.1-1.6
			c0.8-0.6,1.6-1.1,2.4-1.7l1.2,1.6C505.1,247.8,504.3,248.4,503.4,249z M415.8,245.4c-0.8-0.6-1.6-1.3-2.3-2l1.3-1.5
			c0.7,0.7,1.5,1.3,2.2,1.9L415.8,245.4z M508.3,245.3l-1.3-1.5c0.8-0.6,1.5-1.3,2.2-1.9l1.3,1.5C509.8,244,509,244.7,508.3,245.3z
			 M411.2,241.4c-0.3-0.3-0.6-0.6-1-0.9l-1.2-1.2l1.4-1.4l1.2,1.2c0.3,0.3,0.6,0.6,0.9,0.9L411.2,241.4z M512.8,241.3l-1.4-1.4
			c0.3-0.3,0.5-0.5,0.8-0.8c0.4-0.4,0.9-0.9,1.3-1.3l1.4,1.4c-0.4,0.5-0.9,0.9-1.3,1.4C513.3,240.7,513.1,241,512.8,241.3z
			 M407,237.2l-2.1-2.1l1.4-1.4l2.1,2.1L407,237.2z M517,236.9l-1.5-1.3c0.7-0.7,1.3-1.5,1.9-2.3l1.6,1.3
			C518.3,235.3,517.6,236.1,517,236.9z M402.7,232.9l-2.1-2.1l1.4-1.4l2.1,2.1L402.7,232.9z M520.8,232.1l-1.6-1.2
			c0.6-0.8,1.2-1.6,1.7-2.4l1.7,1.1C522,230.5,521.4,231.3,520.8,232.1z M398.5,228.7l-2.1-2.1l1.4-1.4l2.1,2.1L398.5,228.7z
			 M524.2,227.1l-1.7-1c0.5-0.8,1-1.7,1.5-2.5l1.7,1C525.2,225.4,524.7,226.2,524.2,227.1z M394.2,224.5l-2.1-2.1l1.4-1.4l2.1,2.1
			L394.2,224.5z M527.2,221.8l-1.8-0.9c0.4-0.9,0.9-1.8,1.3-2.7l1.8,0.8C528.1,220,527.6,220.9,527.2,221.8z M390,220.2l-2.1-2.1
			l1.4-1.4l2.1,2.1L390,220.2z M529.7,216.3l-1.9-0.8c0.4-0.9,0.7-1.8,1.1-2.8l1.9,0.7C530.4,214.4,530,215.3,529.7,216.3z
			 M385.8,216l-2.1-2.1l1.4-1.4l2.1,2.1L385.8,216z M381.5,211.8l-2.1-2.1l1.4-1.4l2.1,2.1L381.5,211.8z M531.7,210.6l-1.9-0.6
			c0.3-0.9,0.6-1.9,0.8-2.8l1.9,0.5C532.3,208.6,532,209.6,531.7,210.6z M377.3,207.5l-2.1-2.1l1.4-1.4l2.1,2.1L377.3,207.5z
			 M533.3,204.7l-2-0.4c0.2-1,0.4-1.9,0.6-2.9l2,0.4C533.7,202.7,533.5,203.7,533.3,204.7z M373.1,203.3l-2.1-2.1l1.4-1.4l2.1,2.1
			L373.1,203.3z M368.8,199.1l-2.1-2.1l1.4-1.4l2.1,2.1L368.8,199.1z M534.3,198.7l-2-0.3c0.1-1,0.2-2,0.3-2.9l2,0.2
			C534.6,196.7,534.5,197.7,534.3,198.7z M364.6,194.9l-2.1-2.1l1.4-1.4l2.1,2.1L364.6,194.9z M534.9,192.7l-2-0.1
			c0.1-1,0.1-2,0.1-3h2C535,190.7,535,191.7,534.9,192.7z M533,186.7c0-1-0.1-2-0.2-2.9l2-0.1c0.1,1,0.1,2,0.2,3H533z M532.5,180.8
			c-0.1-1-0.2-2-0.4-2.9l2-0.3c0.2,1,0.3,2,0.4,3L532.5,180.8z M531.6,174.9c-0.2-1-0.4-1.9-0.6-2.9l1.9-0.5c0.2,1,0.5,2,0.7,3
			L531.6,174.9z M530.2,169.2c-0.3-0.9-0.6-1.9-0.9-2.8l1.9-0.6c0.3,1,0.6,1.9,0.9,2.9L530.2,169.2z M528.4,163.6
			c-0.3-0.9-0.7-1.8-1.1-2.7l1.8-0.8c0.4,0.9,0.8,1.9,1.1,2.8L528.4,163.6z M388.3,162l-1.4-1.4l2.1-2.1l1.4,1.4L388.3,162z
			 M526.1,158.2c-0.4-0.9-0.9-1.8-1.3-2.6l1.8-0.9c0.5,0.9,0.9,1.8,1.4,2.7L526.1,158.2z M392.5,157.7l-1.4-1.4l2.1-2.1l1.4,1.4
			L392.5,157.7z M396.8,153.5l-1.4-1.4l2.1-2.1l1.4,1.4L396.8,153.5z M523.3,153c-0.5-0.8-1-1.7-1.5-2.5l1.7-1.1
			c0.5,0.9,1.1,1.7,1.6,2.6L523.3,153z M401,149.3l-1.4-1.4l2.1-2.1l1.4,1.4L401,149.3z M520.1,148c-0.6-0.8-1.1-1.6-1.8-2.4
			l1.6-1.2c0.6,0.8,1.2,1.6,1.8,2.4L520.1,148z M405.3,145.1l-1.4-1.4l2.1-2.1l1.4,1.4L405.3,145.1z M516.5,143.3
			c-0.6-0.8-1.3-1.5-1.9-2.2l1.5-1.3c0.7,0.8,1.3,1.5,2,2.3L516.5,143.3z M409.5,140.8l-1.4-1.4l2.1-2.1l1.4,1.4L409.5,140.8z
			 M512.5,139l-0.3-0.3c-0.6-0.6-1.2-1.2-1.8-1.7l1.4-1.5c0.6,0.6,1.2,1.2,1.8,1.8l0.3,0.3L512.5,139z M413.7,136.7l-1.4-1.5
			c0.7-0.7,1.5-1.4,2.3-2l1.3,1.5C415.2,135.3,414.5,136,413.7,136.7z M508.2,135c-0.8-0.6-1.5-1.3-2.3-1.9l1.2-1.6
			c0.8,0.6,1.6,1.3,2.3,1.9L508.2,135z M418.2,132.8l-1.2-1.6c0.8-0.6,1.6-1.2,2.4-1.8l1.2,1.6C419.8,131.6,419,132.2,418.2,132.8z
			 M503.6,131.3c-0.8-0.6-1.6-1.1-2.4-1.7l1.1-1.7c0.8,0.6,1.7,1.1,2.5,1.7L503.6,131.3z M423,129.4l-1.1-1.7
			c0.8-0.6,1.7-1.1,2.6-1.6l1,1.7C424.7,128.3,423.9,128.9,423,129.4z M498.6,128c-0.8-0.5-1.7-1-2.6-1.5l1-1.8
			c0.9,0.5,1.8,1,2.6,1.5L498.6,128z M428.1,126.4l-1-1.8c0.9-0.5,1.8-0.9,2.7-1.4l0.9,1.8C429.8,125.5,429,125.9,428.1,126.4z
			 M493.5,125.2c-0.9-0.4-1.8-0.9-2.7-1.3l0.8-1.8c0.9,0.4,1.8,0.8,2.7,1.3L493.5,125.2z M433.4,123.8l-0.8-1.8
			c0.9-0.4,1.9-0.8,2.8-1.2l0.7,1.9C435.2,123,434.3,123.4,433.4,123.8z M488.1,122.8c-0.9-0.4-1.8-0.7-2.8-1l0.7-1.9
			c1,0.3,1.9,0.7,2.8,1.1L488.1,122.8z M438.9,121.7l-0.6-1.9c1-0.3,1.9-0.6,2.9-0.9l0.6,1.9C440.8,121,439.8,121.3,438.9,121.7z
			 M482.5,120.9c-0.9-0.3-1.9-0.5-2.8-0.8l0.5-1.9c1,0.3,2,0.5,2.9,0.8L482.5,120.9z M444.6,120l-0.5-1.9c1-0.2,2-0.5,3-0.7l0.4,2
			C446.5,119.5,445.5,119.7,444.6,120z M476.8,119.4c-1-0.2-1.9-0.4-2.9-0.6l0.3-2c1,0.2,2,0.4,3,0.6L476.8,119.4z M450.3,118.8
			l-0.3-2c1-0.2,2-0.3,3-0.4l0.2,2C452.3,118.5,451.3,118.6,450.3,118.8z M470.9,118.4c-1-0.1-2-0.2-2.9-0.3l0.2-2
			c1,0.1,2,0.2,3,0.3L470.9,118.4z M456.2,118.1l-0.2-2c1-0.1,2-0.1,3-0.2l0.1,2C458.2,117.9,457.2,118,456.2,118.1z M465.1,117.9
			c-1,0-2-0.1-3-0.1v-2c1,0,2,0,3,0.1V117.9z"/>
	</g>
	<g>
		<rect x="384.2" y="163" transform="matrix(0.7071 -0.7071 0.7071 0.7071 -3.1877 320.2372)" class="st2" width="1.5" height="2"/>
	</g>
</g>
<path class="st3" d="M536.9,113.9c-41.4-41.3-108.6-41.3-150,0l-26.6,26.6l48.1,48.1L435,162c14.9-14.8,39-14.8,53.9,0
	c7.2,7.2,11.1,16.7,11.1,26.9s-4,19.7-11.1,26.9c-14.9,14.8-39,14.8-53.9,0l-26.9-26.9L360,140.8l-26.9-26.9
	c-41.4-41.3-108.6-41.3-150,0c-20,20-31.1,46.6-31.1,75s11,54.9,31.1,75c20.7,20.7,47.8,31,75,31s54.3-10.3,75-31l26.6-26.6
	l-48.1-48.1L285,215.7c-14.9,14.8-39,14.8-53.9,0C224,208.5,220,199,220,188.9s4-19.7,11.1-26.9c14.9-14.8,39-14.8,53.9,0
	l101.9,101.8c20.7,20.7,47.8,31,75,31s54.3-10.3,75-31c20-20,31.1-46.6,31.1-75S557,133.9,536.9,113.9z"/>
<polygon class="st4" points="533.4,182.9 526.9,195.9 539.9,195.9 "/>
<polygon class="st4" points="469.6,260.8 456.6,254.3 456.6,267.3 "/>
<polygon class="st4" points="456.6,116.5 469.6,123 469.6,110 "/>
<polygon class="st4" points="186.4,182.9 179.9,195.9 192.9,195.9 "/>
<polygon class="st4" points="263.8,116.5 250.8,110 250.8,123 "/>
<polygon class="st4" points="250.8,260.5 263.8,267 263.8,254 "/>
<g>
	<circle class="st4" cx="360" cy="188.9" r="17"/>
	<path class="st5" d="M360.9,180.4c-1.5-0.2-2.9,0.1-4.2,0.6c-0.3,0.1-0.4,0.5-0.3,0.7c0.3,0.5,0.4,1.1,0.3,1.8
		c-0.2,1.1-1.1,1.9-2.1,2.1c-0.7,0.1-1.3,0-1.8-0.3c-0.3-0.2-0.6,0-0.7,0.3c-0.5,1.3-0.8,2.7-0.6,4.2c0.4,3.9,3.5,7.1,7.4,7.5
		c5.5,0.7,10.2-4,9.5-9.5C368,183.9,364.8,180.8,360.9,180.4z"/>
</g>
</svg>
