<?xml version="1.0" encoding="utf-8"?>
<!-- Generator: Adobe Illustrator 22.1.0, SVG Export Plug-In . SVG Version: 6.00 Build 0)  -->
<svg version="1.2" baseProfile="tiny" id="Слой_1"
	 xmlns="http://www.w3.org/2000/svg" xmlns:xlink="http://www.w3.org/1999/xlink" x="0px" y="0px" viewBox="0 0 718.2 377"
	 xml:space="preserve">
<rect fill="#00DC3C" width="718.2" height="377"/>
<g>
	<path fill="#00C83C" d="M488.7,184.6c7-7,11-16.5,11-26.4c0-14.9-8.8-27.8-21.5-33.7c0.2-0.3,0.4-0.5,0.6-0.9
		c1.5-3.6,2.3-7.5,2.3-11.5c0-15.5-11.9-28.2-27.1-29.4c-4.1-12.8-14.6-22.4-27.9-25c-3-0.6-6-0.8-9-0.6
		c-5.4-7.8-14.4-12.6-23.9-12.6c-16.1,0-29.2,13.1-29.2,29.2V91v7.6v156v4.7v36.1c0,20.5,16.7,37.2,37.2,37.2
		c13.7,0,26.2-7.5,32.8-19.6c0,0,0,0,0,0c0.8-1.4,1.4-2.9,2-4.3c16.6-0.8,30.1-13.9,31.4-30.5c8.8-1.5,16.5-6.6,21.4-14.1
		c5.5-8.4,6.8-18.7,3.6-28.2c-0.1-0.2-0.2-0.5-0.4-0.7c5.5-6.5,8.6-14.8,8.6-23.5C500.5,201.1,496.2,191.5,488.7,184.6z"/>
	<path fill="#00C83C" d="M219.1,211.5c0,8.7,3.1,17,8.6,23.5c-0.2,0.2-0.3,0.5-0.4,0.7c-3.2,9.5-1.9,19.8,3.6,28.2
		c4.9,7.5,12.6,12.5,21.4,14.1c1.2,16.6,14.7,29.7,31.4,30.5c0.6,1.5,1.2,2.9,2,4.3c0,0,0,0,0,0c6.5,12.1,19.1,19.6,32.8,19.6
		c20.5,0,37.2-16.7,37.2-37.2v-36.1v-4.7v-156V91V73.7c0-16.1-13.1-29.2-29.2-29.2c-9.5,0-18.5,4.8-23.9,12.6c-3-0.2-6,0-9,0.6
		c-13.3,2.6-23.8,12.1-27.9,25c-15.1,1.3-27.1,14-27.1,29.4c0,4,0.8,7.9,2.3,11.5c0.1,0.3,0.3,0.6,0.6,0.9
		c-12.7,6-21.5,18.8-21.5,33.7c0,9.9,4,19.4,11,26.4C223.4,191.5,219.1,201.1,219.1,211.5z"/>
</g>
<image width="2" height="46" xlink:href="2893AC198DDAE1A3.png"  transform="matrix(1 0 0 1 500.7368 97.75)">
</image>
<g>
	
		<line fill="none" stroke="#00F03C" stroke-width="2" stroke-linecap="round" stroke-linejoin="round" stroke-miterlimit="10" x1="277.8" y1="284.5" x2="233.9" y2="284.5"/>
	
		<line fill="none" stroke="#00F03C" stroke-width="2" stroke-linecap="round" stroke-linejoin="round" stroke-miterlimit="10" x1="154.9" y1="284.5" x2="199.9" y2="284.5"/>
	<g>
		
			<line fill="none" stroke="#00F03C" stroke-width="2" stroke-linecap="round" stroke-linejoin="round" stroke-miterlimit="10" x1="228.9" y1="99.5" x2="280.1" y2="146"/>
		
			<line fill="none" stroke="#00F03C" stroke-width="2" stroke-linecap="round" stroke-linejoin="round" stroke-miterlimit="10" x1="277.8" y1="88" x2="233.9" y2="87.9"/>
		
			<line fill="none" stroke="#00F03C" stroke-width="2" stroke-linecap="round" stroke-linejoin="round" stroke-miterlimit="10" x1="198.8" y1="88" x2="154.9" y2="87.9"/>
		
			<line fill="none" stroke="#00F03C" stroke-width="2" stroke-linecap="round" stroke-linejoin="round" stroke-miterlimit="10" x1="351.9" y1="146.4" x2="296.2" y2="94.9"/>
		
			<line fill="none" stroke="#00F03C" stroke-width="2" stroke-linecap="round" stroke-linejoin="round" stroke-miterlimit="10" x1="351.9" y1="277.8" x2="296.2" y2="226.3"/>
		
			<line fill="none" stroke="#00F03C" stroke-width="2" stroke-linecap="round" stroke-linejoin="round" stroke-miterlimit="10" x1="423.4" y1="94.9" x2="367.2" y2="146.4"/>
		
			<line fill="none" stroke="#00F03C" stroke-width="2" stroke-linecap="round" stroke-linejoin="round" stroke-miterlimit="10" x1="489.9" y1="99.5" x2="438.3" y2="146.4"/>
		
			<line fill="none" stroke="#00F03C" stroke-width="2" stroke-linecap="round" stroke-linejoin="round" stroke-miterlimit="10" x1="216.7" y1="87.4" x2="216.9" y2="142.6"/>
		
			<line fill="none" stroke="#00F03C" stroke-width="2" stroke-linecap="round" stroke-linejoin="round" stroke-miterlimit="10" x1="225.1" y1="211.4" x2="279.8" y2="160.6"/>
		
			<line fill="none" stroke="#00F03C" stroke-width="2" stroke-linecap="round" stroke-linejoin="round" stroke-miterlimit="10" x1="224.8" y1="160.2" x2="280.5" y2="212.1"/>
		
			<line fill="none" stroke="#00F03C" stroke-width="2" stroke-linecap="round" stroke-linejoin="round" stroke-miterlimit="10" x1="216.9" y1="229.3" x2="216.9" y2="267.5"/>
		
			<line fill="none" stroke="#00F03C" stroke-width="2" stroke-linecap="round" stroke-linejoin="round" stroke-miterlimit="10" x1="351.6" y1="226.6" x2="296.2" y2="277.4"/>
		
			<line fill="none" stroke="#00F03C" stroke-width="2" stroke-linecap="round" stroke-linejoin="round" stroke-miterlimit="10" x1="422.6" y1="277.4" x2="367.2" y2="226.6"/>
		
			<line fill="none" stroke="#00F03C" stroke-width="2" stroke-linecap="round" stroke-linejoin="round" stroke-miterlimit="10" x1="367.2" y1="277.4" x2="422.6" y2="226.3"/>
		
			<line fill="none" stroke="#00F03C" stroke-width="2" stroke-linecap="round" stroke-linejoin="round" stroke-miterlimit="10" x1="280.5" y1="226.3" x2="229.9" y2="272.5"/>
		
			<line fill="none" stroke="#00F03C" stroke-width="2" stroke-linecap="round" stroke-linejoin="round" stroke-miterlimit="10" x1="225.1" y1="225.9" x2="280.9" y2="277.4"/>
		
			<line fill="none" stroke="#00F03C" stroke-width="2" stroke-linecap="round" stroke-linejoin="round" stroke-miterlimit="10" x1="224.8" y1="146" x2="280.5" y2="94.9"/>
		
			<line fill="none" stroke="#00F03C" stroke-width="2" stroke-linecap="round" stroke-linejoin="round" stroke-miterlimit="10" x1="351.9" y1="212.5" x2="295.4" y2="160.2"/>
		
			<line fill="none" stroke="#00F03C" stroke-width="2" stroke-linecap="round" stroke-linejoin="round" stroke-miterlimit="10" x1="296.2" y1="212.1" x2="351.6" y2="160.6"/>
		
			<line fill="none" stroke="#00F03C" stroke-width="2" stroke-linecap="round" stroke-linejoin="round" stroke-miterlimit="10" x1="367.2" y1="160.6" x2="422.6" y2="212.1"/>
		
			<line fill="none" stroke="#00F03C" stroke-width="2" stroke-linecap="round" stroke-linejoin="round" stroke-miterlimit="10" x1="484.9" y1="88" x2="441.3" y2="88"/>
		
			<line fill="none" stroke="#00F03C" stroke-width="2" stroke-linecap="round" stroke-linejoin="round" stroke-miterlimit="10" x1="438.3" y1="212.1" x2="493.7" y2="160.6"/>
		
			<line fill="none" stroke="#00F03C" stroke-width="2" stroke-linecap="round" stroke-linejoin="round" stroke-miterlimit="10" x1="494.4" y1="212.1" x2="438.3" y2="160.6"/>
		
			<line fill="none" stroke="#00F03C" stroke-width="2" stroke-linecap="round" stroke-linejoin="round" stroke-miterlimit="10" x1="483.9" y1="284.3" x2="440.6" y2="284.3"/>
		
			<line fill="none" stroke="#00F03C" stroke-width="2" stroke-linecap="round" stroke-linejoin="round" stroke-miterlimit="10" x1="501.7" y1="229.7" x2="501.7" y2="267.5"/>
		
			<line fill="none" stroke="#00F03C" stroke-width="2" stroke-linecap="round" stroke-linejoin="round" stroke-miterlimit="10" x1="437.9" y1="277.4" x2="494" y2="226.3"/>
		
			<line fill="none" stroke="#00F03C" stroke-width="2" stroke-linecap="round" stroke-linejoin="round" stroke-miterlimit="10" x1="488.9" y1="272.5" x2="438.3" y2="226.3"/>
		
			<line fill="none" stroke="#00F03C" stroke-width="2" stroke-linecap="round" stroke-linejoin="round" stroke-miterlimit="10" x1="494" y1="146.4" x2="438.7" y2="94.9"/>
		
			<line fill="none" stroke="#00F03C" stroke-width="2" stroke-linecap="round" stroke-linejoin="round" stroke-miterlimit="10" x1="295.4" y1="145.7" x2="351.6" y2="94.9"/>
		
			<line fill="none" stroke="#00F03C" stroke-width="2" stroke-linecap="round" stroke-linejoin="round" stroke-miterlimit="10" x1="423" y1="146.4" x2="367.2" y2="94.9"/>
		
			<line fill="none" stroke="#00F03C" stroke-width="2" stroke-linecap="round" stroke-linejoin="round" stroke-miterlimit="10" x1="423.4" y1="161" x2="369.4" y2="215"/>
		
			<line fill="none" stroke="#00F03C" stroke-width="2" stroke-linecap="round" stroke-linejoin="round" stroke-miterlimit="10" x1="151.9" y1="95.5" x2="208.9" y2="146.5"/>
		
			<line fill="none" stroke="#00F03C" stroke-width="2" stroke-linecap="round" stroke-linejoin="round" stroke-miterlimit="10" x1="204.9" y1="99.5" x2="152.9" y2="146.5"/>
		
			<line fill="none" stroke="#00F03C" stroke-width="2" stroke-linecap="round" stroke-linejoin="round" stroke-miterlimit="10" x1="518.9" y1="88" x2="562.9" y2="88"/>
		
			<line fill="none" stroke="#00F03C" stroke-width="2" stroke-linecap="round" stroke-linejoin="round" stroke-miterlimit="10" x1="143.9" y1="98.5" x2="143.9" y2="142.5"/>
		
			<line fill="none" stroke="#00F03C" stroke-width="2" stroke-linecap="round" stroke-linejoin="round" stroke-miterlimit="10" x1="144.9" y1="274.5" x2="144.9" y2="235.5"/>
		
			<line fill="none" stroke="#00F03C" stroke-width="2" stroke-linecap="round" stroke-linejoin="round" stroke-miterlimit="10" x1="573.9" y1="274.5" x2="573.9" y2="236.5"/>
		
			<line fill="none" stroke="#00F03C" stroke-width="2" stroke-linecap="round" stroke-linejoin="round" stroke-miterlimit="10" x1="573.9" y1="87.5" x2="573.9" y2="142.5"/>
		
			<line fill="none" stroke="#00F03C" stroke-width="2" stroke-linecap="round" stroke-linejoin="round" stroke-miterlimit="10" x1="517.9" y1="284.5" x2="561.9" y2="284.5"/>
		
			<line fill="none" stroke="#00F03C" stroke-width="2" stroke-linecap="round" stroke-linejoin="round" stroke-miterlimit="10" x1="565.9" y1="95.5" x2="509.9" y2="146.5"/>
		
			<line fill="none" stroke="#00F03C" stroke-width="2" stroke-linecap="round" stroke-linejoin="round" stroke-miterlimit="10" x1="565.9" y1="145.5" x2="513.9" y2="99.5"/>
		
			<line fill="none" stroke="#00F03C" stroke-width="2" stroke-linecap="round" stroke-linejoin="round" stroke-miterlimit="10" x1="508.9" y1="160.5" x2="560.9" y2="207.5"/>
		
			<line fill="none" stroke="#00F03C" stroke-width="2" stroke-linecap="round" stroke-linejoin="round" stroke-miterlimit="10" x1="209.9" y1="160.5" x2="157.9" y2="207.5"/>
		
			<line fill="none" stroke="#00F03C" stroke-width="2" stroke-linecap="round" stroke-linejoin="round" stroke-miterlimit="10" x1="513.9" y1="273.5" x2="561.9" y2="230.5"/>
		
			<line fill="none" stroke="#00F03C" stroke-width="2" stroke-linecap="round" stroke-linejoin="round" stroke-miterlimit="10" x1="203.9" y1="273.5" x2="156.9" y2="230.5"/>
		
			<line fill="none" stroke="#00F03C" stroke-width="2" stroke-linecap="round" stroke-linejoin="round" stroke-miterlimit="10" x1="509.9" y1="226.5" x2="565.9" y2="278.5"/>
		
			<line fill="none" stroke="#00F03C" stroke-width="2" stroke-linecap="round" stroke-linejoin="round" stroke-miterlimit="10" x1="209.9" y1="226.5" x2="151.9" y2="277.5"/>
	</g>
</g>
<g>
	<g>
		<g>
			<circle fill="none" stroke="#FFFFFF" stroke-width="2" stroke-miterlimit="10" cx="216.7" cy="87.8" r="17"/>
		</g>
		<path fill="none" stroke="#FFFFFF" stroke-width="2" stroke-miterlimit="10" d="M229,99.5c-3.1-3.2-7.4-5.2-12.2-5.2
			c-4.8,0-9.2,2-12.3,5.3"/>
		<path fill="#FFFFFF" d="M223.2,81.3c-0.1-3.5-2.9-6.3-6.5-6.3c-3.5,0-6.4,2.8-6.5,6.3h0v0.1c0,0,0,0,0,0.1h0v4.1h0
			c0,3.6,2.9,6.5,6.5,6.5c3.6,0,6.5-2.9,6.5-6.5L223.2,81.3L223.2,81.3z"/>
		<path fill="#FFFFFF" d="M204.8,99.6c3.2,2.9,7.4,4.7,12,4.7c4.6,0,8.9-1.8,12-4.7c-3.3-3-7.5-4.7-12-4.7
			C212.3,94.9,208.1,96.6,204.8,99.6z"/>
	</g>
	<g>
		<g>
			<circle fill="none" stroke="#FFFFFF" stroke-width="2" stroke-miterlimit="10" cx="217.1" cy="153.1" r="10.5"/>
		</g>
		<path fill="none" stroke="#FFFFFF" stroke-width="2" stroke-miterlimit="10" d="M224.7,160.4c-1.9-2-4.6-3.2-7.6-3.2
			c-3,0-5.7,1.2-7.6,3.2"/>
		<path fill="#FFFFFF" d="M221.1,149.1c0-2.2-1.8-3.9-4-3.9c-2.2,0-3.9,1.7-4,3.9h0v0.1c0,0,0,0,0,0h0v2.5h0c0,2.2,1.8,4,4,4
			c2.2,0,4-1.8,4-4L221.1,149.1L221.1,149.1z"/>
		<path fill="#FFFFFF" d="M209.7,160.4c2,1.8,4.5,2.9,7.4,2.9c2.9,0,5.5-1.1,7.4-2.9c-2-1.9-4.6-2.9-7.4-2.9
			C214.4,157.5,211.7,158.5,209.7,160.4z"/>
	</g>
	<g>
		<g>
			<circle fill="none" stroke="#FFFFFF" stroke-width="2" stroke-miterlimit="10" cx="217.5" cy="218.8" r="10.5"/>
		</g>
		<path fill="none" stroke="#FFFFFF" stroke-width="2" stroke-miterlimit="10" d="M225.1,226.1c-1.9-2-4.6-3.2-7.6-3.2
			c-3,0-5.7,1.2-7.6,3.2"/>
		<path fill="#FFFFFF" d="M221.5,214.8c0-2.2-1.8-3.9-4-3.9c-2.2,0-3.9,1.7-4,3.9h0v0.1c0,0,0,0,0,0h0v2.5h0c0,2.2,1.8,4,4,4
			c2.2,0,4-1.8,4-4L221.5,214.8L221.5,214.8z"/>
		<path fill="#FFFFFF" d="M210.1,226.1c2,1.8,4.5,2.9,7.4,2.9c2.9,0,5.5-1.1,7.4-2.9c-2-1.9-4.6-2.9-7.4-2.9
			C214.7,223.2,212.1,224.2,210.1,226.1z"/>
	</g>
	<g>
		<g>
			<circle fill="none" stroke="#FFFFFF" stroke-width="2" stroke-miterlimit="10" cx="217.1" cy="284.5" r="17"/>
		</g>
		<path fill="none" stroke="#FFFFFF" stroke-width="2" stroke-miterlimit="10" d="M229.4,296.3c-3.1-3.2-7.4-5.2-12.2-5.2
			c-4.8,0-9.2,2-12.3,5.3"/>
		<path fill="#FFFFFF" d="M223.6,278c-0.1-3.5-2.9-6.3-6.5-6.3c-3.5,0-6.4,2.8-6.5,6.3h0v0.1c0,0,0,0,0,0.1h0v4.1h0
			c0,3.6,2.9,6.5,6.5,6.5c3.6,0,6.5-2.9,6.5-6.5L223.6,278L223.6,278z"/>
		<path fill="#FFFFFF" d="M205.1,296.3c3.2,2.9,7.4,4.7,12,4.7c4.6,0,8.9-1.8,12-4.7c-3.3-3-7.5-4.7-12-4.7
			C212.7,291.6,208.4,293.3,205.1,296.3z"/>
	</g>
	<g>
		<g>
			<circle fill="none" stroke="#FFFFFF" stroke-width="2" stroke-miterlimit="10" cx="288.5" cy="284.5" r="10.5"/>
		</g>
		<path fill="none" stroke="#FFFFFF" stroke-width="2" stroke-miterlimit="10" d="M296.1,291.8c-1.9-2-4.6-3.2-7.6-3.2
			c-3,0-5.7,1.2-7.6,3.2"/>
		<path fill="#FFFFFF" d="M292.5,280.5c0-2.2-1.8-3.9-4-3.9c-2.2,0-3.9,1.7-4,3.9h0v0.1c0,0,0,0,0,0h0v2.5h0c0,2.2,1.8,4,4,4
			c2.2,0,4-1.8,4-4L292.5,280.5L292.5,280.5z"/>
		<path fill="#FFFFFF" d="M281.1,291.8c2,1.8,4.5,2.9,7.4,2.9c2.9,0,5.5-1.1,7.4-2.9c-2-1.9-4.6-2.9-7.4-2.9
			C285.8,288.9,283.2,289.9,281.1,291.8z"/>
	</g>
	<g>
		<g>
			<circle fill="none" stroke="#FFFFFF" stroke-width="2" stroke-miterlimit="10" cx="359.6" cy="284.9" r="10.5"/>
		</g>
		<path fill="none" stroke="#FFFFFF" stroke-width="2" stroke-miterlimit="10" d="M367.2,292.2c-1.9-2-4.6-3.2-7.6-3.2
			c-3,0-5.7,1.2-7.6,3.2"/>
		<path fill="#FFFFFF" d="M363.6,280.9c0-2.2-1.8-3.9-4-3.9c-2.2,0-3.9,1.7-4,3.9h0v0.1c0,0,0,0,0,0h0v2.5h0c0,2.2,1.8,4,4,4
			c2.2,0,4-1.8,4-4L363.6,280.9L363.6,280.9z"/>
		<path fill="#FFFFFF" d="M352.2,292.2c2,1.8,4.5,2.9,7.4,2.9c2.9,0,5.5-1.1,7.4-2.9c-2-1.9-4.6-2.9-7.4-2.9
			C356.8,289.3,354.2,290.3,352.2,292.2z"/>
	</g>
	<g>
		<g>
			<circle fill="none" stroke="#FFFFFF" stroke-width="2" stroke-miterlimit="10" cx="430.2" cy="284.5" r="10.5"/>
		</g>
		<path fill="none" stroke="#FFFFFF" stroke-width="2" stroke-miterlimit="10" d="M437.8,291.8c-1.9-2-4.6-3.2-7.6-3.2
			c-3,0-5.7,1.2-7.6,3.2"/>
		<path fill="#FFFFFF" d="M434.3,280.5c0-2.2-1.8-3.9-4-3.9c-2.2,0-3.9,1.7-4,3.9h0v0.1c0,0,0,0,0,0h0v2.5h0c0,2.2,1.8,4,4,4
			c2.2,0,4-1.8,4-4L434.3,280.5L434.3,280.5z"/>
		<path fill="#FFFFFF" d="M422.8,291.8c2,1.8,4.5,2.9,7.4,2.9c2.9,0,5.5-1.1,7.4-2.9c-2-1.9-4.6-2.9-7.4-2.9
			C427.5,288.9,424.9,289.9,422.8,291.8z"/>
	</g>
	<g>
		<g>
			<circle fill="none" stroke="#FFFFFF" stroke-width="2" stroke-miterlimit="10" cx="500.9" cy="284.1" r="17"/>
		</g>
		<path fill="none" stroke="#FFFFFF" stroke-width="2" stroke-miterlimit="10" d="M513.2,295.9c-3.1-3.2-7.4-5.2-12.2-5.2
			c-4.8,0-9.2,2-12.3,5.3"/>
		<path fill="#FFFFFF" d="M507.4,277.6c-0.1-3.5-2.9-6.3-6.5-6.3c-3.5,0-6.4,2.8-6.5,6.3h0v0.1c0,0,0,0,0,0.1h0v4.1h0
			c0,3.6,2.9,6.5,6.5,6.5c3.6,0,6.5-2.9,6.5-6.5L507.4,277.6L507.4,277.6z"/>
		<path fill="#FFFFFF" d="M488.9,295.9c3.2,2.9,7.4,4.7,12,4.7c4.6,0,8.9-1.8,12-4.7c-3.3-3-7.5-4.7-12-4.7
			C496.5,291.2,492.2,292.9,488.9,295.9z"/>
	</g>
	<g>
		<g>
			<circle fill="none" stroke="#FFFFFF" stroke-width="2" stroke-miterlimit="10" cx="502" cy="219.2" r="10.5"/>
		</g>
		<path fill="none" stroke="#FFFFFF" stroke-width="2" stroke-miterlimit="10" d="M509.6,226.5c-1.9-2-4.6-3.2-7.6-3.2
			c-3,0-5.7,1.2-7.6,3.2"/>
		<path fill="#FFFFFF" d="M506.1,215.2c0-2.2-1.8-3.9-4-3.9c-2.2,0-3.9,1.7-4,3.9h0v0.1c0,0,0,0,0,0h0v2.5h0c0,2.2,1.8,4,4,4
			c2.2,0,4-1.8,4-4L506.1,215.2L506.1,215.2z"/>
		<path fill="#FFFFFF" d="M494.7,226.5c2,1.8,4.5,2.9,7.4,2.9c2.9,0,5.5-1.1,7.4-2.9c-2-1.9-4.6-2.9-7.4-2.9
			C499.3,223.6,496.7,224.6,494.7,226.5z"/>
	</g>
	<g>
		<g>
			<circle fill="none" stroke="#FFFFFF" stroke-width="2" stroke-miterlimit="10" cx="573.7" cy="285.2" r="10.5"/>
		</g>
		<path fill="none" stroke="#FFFFFF" stroke-width="2" stroke-miterlimit="10" d="M581.2,292.5c-1.9-2-4.6-3.2-7.6-3.2
			c-3,0-5.7,1.2-7.6,3.2"/>
		<path fill="#FFFFFF" d="M577.7,281.2c0-2.2-1.8-3.9-4-3.9c-2.2,0-3.9,1.7-4,3.9h0v0.1c0,0,0,0,0,0h0v2.5h0c0,2.2,1.8,4,4,4
			c2.2,0,4-1.8,4-4L577.7,281.2L577.7,281.2z"/>
		<path fill="#FFFFFF" d="M566.3,292.5c2,1.8,4.5,2.9,7.4,2.9c2.9,0,5.5-1.1,7.4-2.9c-2-1.9-4.6-2.9-7.4-2.9
			C570.9,289.6,568.3,290.6,566.3,292.5z"/>
	</g>
	<g>
		<g>
			<circle fill="none" stroke="#FFFFFF" stroke-width="2" stroke-miterlimit="10" cx="430.6" cy="219.2" r="10.5"/>
		</g>
		<path fill="none" stroke="#FFFFFF" stroke-width="2" stroke-miterlimit="10" d="M438.2,226.5c-1.9-2-4.6-3.2-7.6-3.2
			c-3,0-5.7,1.2-7.6,3.2"/>
		<path fill="#FFFFFF" d="M434.6,215.2c0-2.2-1.8-3.9-4-3.9c-2.2,0-3.9,1.7-4,3.9h0v0.1c0,0,0,0,0,0h0v2.5h0c0,2.2,1.8,4,4,4
			c2.2,0,4-1.8,4-4L434.6,215.2L434.6,215.2z"/>
		<path fill="#FFFFFF" d="M423.2,226.5c2,1.8,4.5,2.9,7.4,2.9c2.9,0,5.5-1.1,7.4-2.9c-2-1.9-4.6-2.9-7.4-2.9
			C427.9,223.6,425.3,224.6,423.2,226.5z"/>
	</g>
	<g>
		<g>
			<circle fill="none" stroke="#FFFFFF" stroke-width="2" stroke-miterlimit="10" cx="359.6" cy="219.6" r="10.5"/>
		</g>
		<path fill="none" stroke="#FFFFFF" stroke-width="2" stroke-miterlimit="10" d="M367.2,226.8c-1.9-2-4.6-3.2-7.6-3.2
			c-3,0-5.7,1.2-7.6,3.2"/>
		<path fill="#FFFFFF" d="M363.6,215.6c0-2.2-1.8-3.9-4-3.9c-2.2,0-3.9,1.7-4,3.9h0v0.1c0,0,0,0,0,0h0v2.5h0c0,2.2,1.8,4,4,4
			c2.2,0,4-1.8,4-4L363.6,215.6L363.6,215.6z"/>
		<path fill="#FFFFFF" d="M352.2,226.9c2,1.8,4.5,2.9,7.4,2.9c2.9,0,5.5-1.1,7.4-2.9c-2-1.9-4.6-2.9-7.4-2.9
			C356.8,224,354.2,225,352.2,226.9z"/>
	</g>
	<g>
		<g>
			<circle fill="none" stroke="#FFFFFF" stroke-width="2" stroke-miterlimit="10" cx="288.5" cy="219.2" r="10.5"/>
		</g>
		<path fill="none" stroke="#FFFFFF" stroke-width="2" stroke-miterlimit="10" d="M296.1,226.5c-1.9-2-4.6-3.2-7.6-3.2
			c-3,0-5.7,1.2-7.6,3.2"/>
		<path fill="#FFFFFF" d="M292.5,215.2c0-2.2-1.8-3.9-4-3.9c-2.2,0-3.9,1.7-4,3.9h0v0.1c0,0,0,0,0,0h0v2.5h0c0,2.2,1.8,4,4,4
			c2.2,0,4-1.8,4-4L292.5,215.2L292.5,215.2z"/>
		<path fill="#FFFFFF" d="M281.1,226.5c2,1.8,4.5,2.9,7.4,2.9c2.9,0,5.5-1.1,7.4-2.9c-2-1.9-4.6-2.9-7.4-2.9
			C285.8,223.6,283.2,224.6,281.1,226.5z"/>
	</g>
	<g>
		<g>
			<circle fill="none" stroke="#FFFFFF" stroke-width="2" stroke-miterlimit="10" cx="287.8" cy="153.1" r="10.5"/>
		</g>
		<path fill="none" stroke="#FFFFFF" stroke-width="2" stroke-miterlimit="10" d="M295.3,160.4c-1.9-2-4.6-3.2-7.6-3.2
			c-3,0-5.7,1.2-7.6,3.2"/>
		<path fill="#FFFFFF" d="M291.8,149.1c0-2.2-1.8-3.9-4-3.9c-2.2,0-3.9,1.7-4,3.9h0v0.1c0,0,0,0,0,0h0v2.5h0c0,2.2,1.8,4,4,4
			c2.2,0,4-1.8,4-4L291.8,149.1L291.8,149.1z"/>
		<path fill="#FFFFFF" d="M280.4,160.4c2,1.8,4.5,2.9,7.4,2.9c2.9,0,5.5-1.1,7.4-2.9c-2-1.9-4.6-2.9-7.4-2.9
			C285,157.5,282.4,158.5,280.4,160.4z"/>
	</g>
	<g>
		<g>
			<circle fill="none" stroke="#FFFFFF" stroke-width="2" stroke-miterlimit="10" cx="144.6" cy="218.5" r="17"/>
		</g>
		<path fill="none" stroke="#FFFFFF" stroke-width="2" stroke-miterlimit="10" d="M156.9,230.2c-3.1-3.2-7.4-5.2-12.2-5.2
			c-4.8,0-9.2,2-12.3,5.3"/>
		<path fill="#FFFFFF" d="M151.1,212c-0.1-3.5-2.9-6.3-6.5-6.3c-3.5,0-6.4,2.8-6.5,6.3h0v0.1c0,0,0,0,0,0.1h0v4.1h0
			c0,3.6,2.9,6.5,6.5,6.5c3.6,0,6.5-2.9,6.5-6.5L151.1,212L151.1,212z"/>
		<path fill="#FFFFFF" d="M132.6,230.3c3.2,2.9,7.4,4.7,12,4.7c4.6,0,8.9-1.8,12-4.7c-3.3-3-7.5-4.7-12-4.7
			C140.1,225.6,135.9,227.3,132.6,230.3z"/>
	</g>
	<g>
		<g>
			<circle fill="none" stroke="#FFFFFF" stroke-width="2" stroke-miterlimit="10" cx="430.6" cy="153.5" r="10.5"/>
		</g>
		<path fill="none" stroke="#FFFFFF" stroke-width="2" stroke-miterlimit="10" d="M438.2,160.8c-1.9-2-4.6-3.2-7.6-3.2
			c-3,0-5.7,1.2-7.6,3.2"/>
		<path fill="#FFFFFF" d="M434.6,149.5c0-2.2-1.8-3.9-4-3.9c-2.2,0-3.9,1.7-4,3.9h0v0.1c0,0,0,0,0,0h0v2.5h0c0,2.2,1.8,4,4,4
			c2.2,0,4-1.8,4-4L434.6,149.5L434.6,149.5z"/>
		<path fill="#FFFFFF" d="M423.2,160.8c2,1.8,4.5,2.9,7.4,2.9c2.9,0,5.5-1.1,7.4-2.9c-2-1.9-4.6-2.9-7.4-2.9
			C427.9,157.9,425.3,158.9,423.2,160.8z"/>
	</g>
	<g>
		<g>
			<circle fill="none" stroke="#FFFFFF" stroke-width="2" stroke-miterlimit="10" cx="501.7" cy="153.5" r="10.5"/>
		</g>
		<path fill="none" stroke="#FFFFFF" stroke-width="2" stroke-miterlimit="10" d="M509.2,160.8c-1.9-2-4.6-3.2-7.6-3.2
			c-3,0-5.7,1.2-7.6,3.2"/>
		<path fill="#FFFFFF" d="M505.7,149.5c0-2.2-1.8-3.9-4-3.9c-2.2,0-3.9,1.7-4,3.9h0v0.1c0,0,0,0,0,0h0v2.5h0c0,2.2,1.8,4,4,4
			c2.2,0,4-1.8,4-4L505.7,149.5L505.7,149.5z"/>
		<path fill="#FFFFFF" d="M494.3,160.8c2,1.8,4.5,2.9,7.4,2.9c2.9,0,5.5-1.1,7.4-2.9c-2-1.9-4.6-2.9-7.4-2.9
			C498.9,157.9,496.3,158.9,494.3,160.8z"/>
	</g>
	<g>
		<g>
			<circle fill="none" stroke="#FFFFFF" stroke-width="2" stroke-miterlimit="10" cx="573.7" cy="88.5" r="10.5"/>
		</g>
		<path fill="none" stroke="#FFFFFF" stroke-width="2" stroke-miterlimit="10" d="M581.2,95.8c-1.9-2-4.6-3.2-7.6-3.2
			c-3,0-5.7,1.2-7.6,3.2"/>
		<path fill="#FFFFFF" d="M577.7,84.5c0-2.2-1.8-3.9-4-3.9c-2.2,0-3.9,1.7-4,3.9h0v0.1c0,0,0,0,0,0h0v2.5h0c0,2.2,1.8,4,4,4
			c2.2,0,4-1.8,4-4L577.7,84.5L577.7,84.5z"/>
		<path fill="#FFFFFF" d="M566.3,95.8c2,1.8,4.5,2.9,7.4,2.9c2.9,0,5.5-1.1,7.4-2.9c-2-1.9-4.6-2.9-7.4-2.9
			C570.9,92.9,568.3,93.9,566.3,95.8z"/>
	</g>
	<g>
		<g>
			<circle fill="none" stroke="#FFFFFF" stroke-width="2" stroke-miterlimit="10" cx="501.7" cy="88.2" r="17"/>
		</g>
		<path fill="none" stroke="#FFFFFF" stroke-width="2" stroke-miterlimit="10" d="M513.9,99.9c-3.1-3.2-7.4-5.2-12.2-5.2
			c-4.8,0-9.2,2-12.3,5.3"/>
		<path fill="#FFFFFF" d="M508.2,81.7c-0.1-3.5-2.9-6.3-6.5-6.3c-3.5,0-6.4,2.8-6.5,6.3h0v0.1c0,0,0,0,0,0.1h0v4.1h0
			c0,3.6,2.9,6.5,6.5,6.5c3.6,0,6.5-2.9,6.5-6.5L508.2,81.7L508.2,81.7z"/>
		<path fill="#FFFFFF" d="M489.7,100c3.2,2.9,7.4,4.7,12,4.7c4.6,0,8.9-1.8,12-4.7c-3.3-3-7.5-4.7-12-4.7
			C497.2,95.3,493,96.9,489.7,100z"/>
	</g>
	<g>
		<g>
			<circle fill="none" stroke="#FFFFFF" stroke-width="2" stroke-miterlimit="10" cx="573.7" cy="219.2" r="17"/>
		</g>
		<path fill="none" stroke="#FFFFFF" stroke-width="2" stroke-miterlimit="10" d="M585.9,230.9c-3.1-3.2-7.4-5.2-12.2-5.2
			c-4.8,0-9.2,2-12.3,5.3"/>
		<path fill="#FFFFFF" d="M580.2,212.7c-0.1-3.5-2.9-6.3-6.5-6.3c-3.5,0-6.4,2.8-6.5,6.3h0v0.1c0,0,0,0,0,0.1h0v4.1h0
			c0,3.6,2.9,6.5,6.5,6.5c3.6,0,6.5-2.9,6.5-6.5L580.2,212.7L580.2,212.7z"/>
		<path fill="#FFFFFF" d="M561.7,231c3.2,2.9,7.4,4.7,12,4.7c4.6,0,8.9-1.8,12-4.7c-3.3-3-7.5-4.7-12-4.7
			C569.2,226.3,565,227.9,561.7,231z"/>
	</g>
	<g>
		<g>
			<circle fill="none" stroke="#FFFFFF" stroke-width="2" stroke-miterlimit="10" cx="431" cy="87.8" r="10.5"/>
		</g>
		<path fill="none" stroke="#FFFFFF" stroke-width="2" stroke-miterlimit="10" d="M438.6,95.1c-1.9-2-4.6-3.2-7.6-3.2
			c-3,0-5.7,1.2-7.6,3.2"/>
		<path fill="#FFFFFF" d="M435,83.8c0-2.2-1.8-3.9-4-3.9c-2.2,0-3.9,1.7-4,3.9h0v0.1c0,0,0,0,0,0h0v2.5h0c0,2.2,1.8,4,4,4
			c2.2,0,4-1.8,4-4L435,83.8L435,83.8z"/>
		<path fill="#FFFFFF" d="M423.6,95.1c2,1.8,4.5,2.9,7.4,2.9c2.9,0,5.5-1.1,7.4-2.9c-2-1.9-4.6-2.9-7.4-2.9
			C428.3,92.2,425.6,93.2,423.6,95.1z"/>
	</g>
	<g>
		<g>
			<circle fill="none" stroke="#FFFFFF" stroke-width="2" stroke-miterlimit="10" cx="573" cy="152.8" r="10.5"/>
		</g>
		<path fill="none" stroke="#FFFFFF" stroke-width="2" stroke-miterlimit="10" d="M580.6,160.1c-1.9-2-4.6-3.2-7.6-3.2
			c-3,0-5.7,1.2-7.6,3.2"/>
		<path fill="#FFFFFF" d="M577,148.8c0-2.2-1.8-3.9-4-3.9c-2.2,0-3.9,1.7-4,3.9h0v0.1c0,0,0,0,0,0h0v2.5h0c0,2.2,1.8,4,4,4
			c2.2,0,4-1.8,4-4L577,148.8L577,148.8z"/>
		<path fill="#FFFFFF" d="M565.6,160.1c2,1.8,4.5,2.9,7.4,2.9c2.9,0,5.5-1.1,7.4-2.9c-2-1.9-4.6-2.9-7.4-2.9
			C570.3,157.2,567.6,158.2,565.6,160.1z"/>
	</g>
	<g>
		<g>
			<circle fill="none" stroke="#FFFFFF" stroke-width="2" stroke-miterlimit="10" cx="359.6" cy="87.8" r="10.5"/>
		</g>
		<path fill="none" stroke="#FFFFFF" stroke-width="2" stroke-miterlimit="10" d="M367.2,95.1c-1.9-2-4.6-3.2-7.6-3.2
			c-3,0-5.7,1.2-7.6,3.2"/>
		<path fill="#FFFFFF" d="M363.6,83.8c0-2.2-1.8-3.9-4-3.9c-2.2,0-3.9,1.7-4,3.9h0v0.1c0,0,0,0,0,0h0v2.5h0c0,2.2,1.8,4,4,4
			c2.2,0,4-1.8,4-4L363.6,83.8L363.6,83.8z"/>
		<path fill="#FFFFFF" d="M352.2,95.1c2,1.8,4.5,2.9,7.4,2.9c2.9,0,5.5-1.1,7.4-2.9c-2-1.9-4.6-2.9-7.4-2.9
			C356.8,92.2,354.2,93.2,352.2,95.1z"/>
	</g>
	<g>
		<g>
			<circle fill="none" stroke="#FFFFFF" stroke-width="2" stroke-miterlimit="10" cx="288.5" cy="87.8" r="10.5"/>
		</g>
		<path fill="none" stroke="#FFFFFF" stroke-width="2" stroke-miterlimit="10" d="M296.1,95.1c-1.9-2-4.6-3.2-7.6-3.2
			c-3,0-5.7,1.2-7.6,3.2"/>
		<path fill="#FFFFFF" d="M292.5,83.8c0-2.2-1.8-3.9-4-3.9c-2.2,0-3.9,1.7-4,3.9h0v0.1c0,0,0,0,0,0h0v2.5h0c0,2.2,1.8,4,4,4
			c2.2,0,4-1.8,4-4L292.5,83.8L292.5,83.8z"/>
		<path fill="#FFFFFF" d="M281.1,95.1c2,1.8,4.5,2.9,7.4,2.9c2.9,0,5.5-1.1,7.4-2.9c-2-1.9-4.6-2.9-7.4-2.9
			C285.8,92.2,283.2,93.2,281.1,95.1z"/>
	</g>
	<g>
		<g>
			<circle fill="none" stroke="#FFFFFF" stroke-width="2" stroke-miterlimit="10" cx="144.5" cy="87.8" r="10.5"/>
		</g>
		<path fill="none" stroke="#FFFFFF" stroke-width="2" stroke-miterlimit="10" d="M152.1,95.1c-1.9-2-4.6-3.2-7.6-3.2
			c-3,0-5.7,1.2-7.6,3.2"/>
		<path fill="#FFFFFF" d="M148.5,83.8c0-2.2-1.8-3.9-4-3.9c-2.2,0-3.9,1.7-4,3.9h0v0.1c0,0,0,0,0,0h0v2.5h0c0,2.2,1.8,4,4,4
			c2.2,0,4-1.8,4-4L148.5,83.8L148.5,83.8z"/>
		<path fill="#FFFFFF" d="M137.1,95.1c2,1.8,4.5,2.9,7.4,2.9c2.9,0,5.5-1.1,7.4-2.9c-2-1.9-4.6-2.9-7.4-2.9
			C141.8,92.2,139.2,93.2,137.1,95.1z"/>
	</g>
	<g>
		<g>
			<circle fill="none" stroke="#FFFFFF" stroke-width="2" stroke-miterlimit="10" cx="144.5" cy="152.8" r="10.5"/>
		</g>
		<path fill="none" stroke="#FFFFFF" stroke-width="2" stroke-miterlimit="10" d="M152.1,160.1c-1.9-2-4.6-3.2-7.6-3.2
			c-3,0-5.7,1.2-7.6,3.2"/>
		<path fill="#FFFFFF" d="M148.5,148.8c0-2.2-1.8-3.9-4-3.9c-2.2,0-3.9,1.7-4,3.9h0v0.1c0,0,0,0,0,0h0v2.5h0c0,2.2,1.8,4,4,4
			c2.2,0,4-1.8,4-4L148.5,148.8L148.5,148.8z"/>
		<path fill="#FFFFFF" d="M137.1,160.1c2,1.8,4.5,2.9,7.4,2.9c2.9,0,5.5-1.1,7.4-2.9c-2-1.9-4.6-2.9-7.4-2.9
			C141.8,157.2,139.2,158.2,137.1,160.1z"/>
	</g>
	<g>
		<g>
			<circle fill="none" stroke="#FFFFFF" stroke-width="2" stroke-miterlimit="10" cx="144.5" cy="284.8" r="10.5"/>
		</g>
		<path fill="none" stroke="#FFFFFF" stroke-width="2" stroke-miterlimit="10" d="M152.1,292.1c-1.9-2-4.6-3.2-7.6-3.2
			c-3,0-5.7,1.2-7.6,3.2"/>
		<path fill="#FFFFFF" d="M148.5,280.8c0-2.2-1.8-3.9-4-3.9c-2.2,0-3.9,1.7-4,3.9h0v0.1c0,0,0,0,0,0h0v2.5h0c0,2.2,1.8,4,4,4
			c2.2,0,4-1.8,4-4L148.5,280.8L148.5,280.8z"/>
		<path fill="#FFFFFF" d="M137.1,292.1c2,1.8,4.5,2.9,7.4,2.9c2.9,0,5.5-1.1,7.4-2.9c-2-1.9-4.6-2.9-7.4-2.9
			C141.8,289.2,139.2,290.2,137.1,292.1z"/>
	</g>
	<g>
		<circle fill="#FFFFFF" cx="359.4" cy="154" r="17"/>
		<path d="M359.7,145.5c-1.3,0-2.5,0.2-3.5,0.6c-0.3,0.1-0.4,0.5-0.2,0.7c0.3,0.5,0.4,1.1,0.3,1.7c-0.2,1.1-1.1,2-2.2,2.2
			c-0.6,0.1-1.2,0-1.7-0.3c-0.3-0.2-0.6,0-0.7,0.2c-0.5,1.1-0.7,2.3-0.7,3.6c0.1,4.4,3.7,8,8.1,8.2c5,0.2,9.2-3.9,8.9-8.9
			C367.6,149.2,364,145.7,359.7,145.5z"/>
	</g>
</g>
</svg>
