<?xml version="1.0" encoding="utf-8"?>
<!-- Generator: Adobe Illustrator 22.1.0, SVG Export Plug-In . SVG Version: 6.00 Build 0)  -->
<svg version="1.2" baseProfile="tiny" id="Слой_1"
	 xmlns="http://www.w3.org/2000/svg" xmlns:xlink="http://www.w3.org/1999/xlink" x="0px" y="0px" viewBox="0 0 720 377"
	 xml:space="preserve">
<rect fill="#FAC800" width="720" height="377"/>
<path fill="#FADC00" d="M447,237.5v-94h37v-15H237v15h35v94h-35v16c0,2.8,2.2,5,5,5h71.5v-5.3c0-1.1,0.9-2,2-2h9.8
	c0.9-4.8,2.8-9.3,5.5-13.3l-6.9-6.9c-0.8-0.8-0.8-2,0-2.8l6.9-6.9c0.8-0.8,2-0.8,2.8,0l6.9,6.9c3.9-2.7,8.4-4.6,13.3-5.5v-9.8
	c0-1.1,0.9-2,2-2h9.8c1.1,0,2,0.9,2,2v9.8c4.8,0.9,9.3,2.8,13.3,5.5l6.9-6.9c0.8-0.8,2-0.8,2.8,0l6.9,6.9c0.8,0.8,0.8,2,0,2.8
	l-6.9,6.9c2.7,3.9,4.6,8.4,5.5,13.3h9.8c1.1,0,2,0.9,2,2v5.3H479c2.8,0,5-2.2,5-5v-16H447z"/>
<g>
	<circle fill="#FFFFFF" cx="360.7" cy="258" r="21.6"/>
	<path fill="#00002B" d="M361.9,247.3c-1.9-0.2-3.7,0.1-5.3,0.7c-0.4,0.2-0.5,0.6-0.3,0.9c0.4,0.6,0.5,1.4,0.4,2.2
		c-0.2,1.4-1.3,2.5-2.7,2.7c-0.8,0.1-1.6,0-2.3-0.4c-0.3-0.2-0.8,0-0.9,0.3c-0.7,1.6-1,3.4-0.8,5.3c0.5,4.9,4.4,9,9.4,9.6
		c7,0.9,13-5,12.1-12.1C370.8,251.7,366.8,247.8,361.9,247.3z"/>
</g>
<circle fill="none" stroke="#FFFFFF" stroke-width="2" stroke-linecap="round" stroke-linejoin="round" stroke-miterlimit="10" cx="471.3" cy="117.6" r="4.3"/>
<circle fill="none" stroke="#FFFFFF" stroke-width="2" stroke-linecap="round" stroke-linejoin="round" stroke-miterlimit="10" cx="457.5" cy="117.6" r="4.3"/>
<circle fill="none" stroke="#FFFFFF" stroke-width="2" stroke-linecap="round" stroke-linejoin="round" stroke-miterlimit="10" cx="443.8" cy="117.6" r="4.3"/>
<path fill="none" stroke="#FFFFFF" stroke-width="2" stroke-linecap="round" stroke-linejoin="round" stroke-miterlimit="10" d="
	M313.2,258.4h-71.1c-2.9,0-5.2-2.3-5.2-5.2v-15.5"/>
<path fill="none" stroke="#FFFFFF" stroke-width="2" stroke-linecap="round" stroke-linejoin="round" stroke-miterlimit="10" d="
	M483.8,237.6v15.5c0,2.9-2.3,5.2-5.2,5.2h-70.8"/>
<path fill="none" stroke="#FFFFFF" stroke-width="2" stroke-linecap="round" stroke-linejoin="round" stroke-miterlimit="10" d="
	M236.9,143.3V111c0-2.9,2.3-5.2,5.2-5.2h236.4c2.9,0,5.2,2.3,5.2,5.2v31.5"/>
<line fill="none" stroke="#FFFFFF" stroke-width="2" stroke-linecap="round" stroke-linejoin="round" stroke-miterlimit="10" x1="237.2" y1="128.7" x2="483.4" y2="128.7"/>
<path fill="none" stroke="#FFFFFF" stroke-width="2" stroke-miterlimit="10" d="M407.8,263v-9.8c0-1.1-0.9-2-2-2H396
	c-0.9-4.8-2.8-9.3-5.5-13.3l6.9-6.9c0.8-0.8,0.8-2,0-2.8l-6.9-6.9c-0.8-0.8-2-0.8-2.8,0l-6.9,6.9c-3.9-2.7-8.4-4.6-13.3-5.5v-9.8
	c0-1.1-0.9-2-2-2h-9.8c-1.1,0-2,0.9-2,2v9.8c-4.8,0.9-9.3,2.8-13.3,5.5l-6.9-6.9c-0.8-0.8-2-0.8-2.8,0l-6.9,6.9
	c-0.8,0.8-0.8,2,0,2.8l6.9,6.9c-2.7,3.9-4.6,8.4-5.5,13.3h-9.8c-1.1,0-2,0.9-2,2v9.8c0,1.1,0.9,2,2,2h9.8c0.9,4.8,2.8,9.3,5.5,13.3
	l-6.9,6.9c-0.8,0.8-0.8,2,0,2.8l6.9,6.9c0.8,0.8,2,0.8,2.8,0l6.9-6.9c3.9,2.7,8.4,4.6,13.3,5.5v9.8c0,1.1,0.9,2,2,2h9.8
	c1.1,0,2-0.9,2-2v-9.8c4.8-0.9,9.3-2.8,13.3-5.5l6.9,6.9c0.8,0.8,2,0.8,2.8,0l6.9-6.9c0.8-0.8,0.8-2,0-2.8l-6.9-6.9
	c2.7-3.9,4.6-8.4,5.5-13.3h9.8C406.9,265,407.8,264.1,407.8,263z M362.1,280.3c-13.4,0.8-24.5-10.2-23.7-23.7
	c0.7-11.1,9.7-20.1,20.8-20.8c13.4-0.8,24.5,10.2,23.7,23.7C382.1,270.6,373.1,279.6,362.1,280.3z"/>
<path fill="none" stroke="#FFFFFF" stroke-width="2" stroke-linecap="round" stroke-linejoin="round" stroke-miterlimit="10" d="
	M594.8,143.3H447.4v94.3h65.2l11,22.1l11-22.1h60c2.9,0,5.2-2.3,5.2-5.2v-83.8C600,145.6,597.7,143.3,594.8,143.3z"/>
<path fill="none" stroke="#FFFFFF" stroke-width="2" stroke-linecap="round" stroke-linejoin="round" stroke-miterlimit="10" d="
	M272.6,143.3H125.2c-2.9,0-5.2,2.3-5.2,5.2v83.8c0,2.9,2.3,5.2,5.2,5.2h60l11,22.1l11-22.1h65.2V143.3z"/>
<g>
	<line fill="#FFFFFF" stroke="#FFFFFF" stroke-width="2" stroke-miterlimit="10" x1="313.5" y1="156.9" x2="407.8" y2="156.9"/>
	<line fill="#FFFFFF" stroke="#FFFFFF" stroke-width="2" stroke-miterlimit="10" x1="313.2" y1="170.6" x2="407.5" y2="170.6"/>
	<line fill="#FFFFFF" stroke="#FFFFFF" stroke-width="2" stroke-miterlimit="10" x1="313.5" y1="184.4" x2="407.8" y2="184.4"/>
</g>
<g>
	
		<circle fill="none" stroke="#FFFFFF" stroke-width="2" stroke-linecap="round" stroke-linejoin="round" stroke-miterlimit="10" cx="523.9" cy="178.1" r="8.4"/>
	<path fill="none" stroke="#FFFFFF" stroke-width="2" stroke-linecap="round" stroke-linejoin="round" stroke-miterlimit="10" d="
		M537.4,209h-27.1v-6.1c0-5.9,4.8-10.6,10.6-10.6h5.8c5.9,0,10.6,4.8,10.6,10.6V209z"/>
</g>
<g>
	
		<circle fill="none" stroke="#FFFFFF" stroke-width="2" stroke-linecap="round" stroke-linejoin="round" stroke-miterlimit="10" cx="196.5" cy="178.8" r="8.4"/>
	<path fill="none" stroke="#FFFFFF" stroke-width="2" stroke-linecap="round" stroke-linejoin="round" stroke-miterlimit="10" d="
		M210,209.7h-27.1v-6.1c0-5.9,4.8-10.6,10.6-10.6h5.8c5.9,0,10.6,4.8,10.6,10.6V209.7z"/>
</g>
</svg>
