<?xml version="1.0" encoding="utf-8"?>
<!-- Generator: Adobe Illustrator 22.1.0, SVG Export Plug-In . SVG Version: 6.00 Build 0)  -->
<svg version="1.1" id="Слой_1" xmlns="http://www.w3.org/2000/svg" xmlns:xlink="http://www.w3.org/1999/xlink" x="0px" y="0px"
	 viewBox="0 0 578 121.2" style="enable-background:new 0 0 578 121.2;" xml:space="preserve">
<style type="text/css">
	.st0{fill:#00A0FF;}
	.st1{fill:#00B4FF;}
	.st2{fill:#00C8FF;}
	.st3{fill:#FFC800;}
	.st4{fill:#FFF000;}
	.st5{fill:#FFDC00;}
	.st6{fill:#00C800;}
	.st7{fill:#00F000;}
	.st8{fill:#00DC00;}
	.st9{fill:#FFFFFF;}
</style>
<polygon class="st0" points="21,36.4 0,48.5 0,72.7 21,84.8 21,109.1 42,121.2 63,109.1 63,60.6 "/>
<polygon class="st0" points="0,72.7 0,48.5 42,72.7 42,121.2 21,109.1 21,84.8 "/>
<polygon class="st1" points="21,36.4 0,48.5 42,72.7 63,60.6 "/>
<polygon class="st2" points="63,109.1 42,121.2 42,72.7 63,60.6 "/>
<polygon class="st3" points="84,0 63,12.1 42,0 21,12.1 21,36.4 63,60.6 105,36.4 105,12.1 105,12.1 "/>
<polygon class="st3" points="21,12.1 42,0 63,12.1 84,0 105,12.1 63,36.4 "/>
<polygon class="st4" points="63,60.6 63,36.4 21,12.1 21,36.4 "/>
<polygon class="st5" points="105,36.4 105,12.1 63,36.4 63,60.6 "/>
<polygon class="st6" points="105,36.3 63,60.6 63,109.1 84,121.2 105,109.1 105,84.9 126,72.7 126,48.5 "/>
<polygon class="st7" points="84,72.7 63,60.6 63,109.1 84,121.2 "/>
<polygon class="st8" points="105,36.3 126,48.5 84,72.7 63,60.6 "/>
<polygon class="st6" points="126,72.7 105,84.9 105,109.1 84,121.2 84,72.7 126,48.5 "/>
<path class="st9" d="M194.2,82.9V56l-10,26.9h-6l-10-26.9v26.9h-13.6V38.2h18.7l7.9,21.5l7.9-21.5h18.7v44.8H194.2z"/>
<path class="st9" d="M214.2,60.6c0-13.8,10.7-23.2,24.5-23.2s24.5,9.4,24.5,23.2s-10.7,23.1-24.5,23.1S214.2,74.3,214.2,60.6z
	 M249.4,60.6c0-6.2-4.2-11.2-10.7-11.2s-10.7,5-10.7,11.2s4.2,11.2,10.7,11.2S249.4,66.8,249.4,60.6z"/>
<path class="st9" d="M309.2,82.9V56l-10,26.9h-6l-10-26.9v26.9h-13.5V38.2h18.7l7.9,21.5l7.9-21.5h18.7v44.8H309.2z"/>
<path class="st9" d="M332.8,82.9V38.2h34V50h-20.4v4.4h19.9v11.8h-19.9v4.9h20.4v11.8H332.8z"/>
<path class="st9" d="M406,82.9l-16.5-22.7v22.7H376V38.2h14l15.6,21.2V38.2H419v44.8H406z"/>
<path class="st9" d="M438.7,82.9V50h-12V38.2h37.5V50h-12v32.9H438.7z"/>
<path class="st9" d="M472.5,64.6V38.2h13.8v25.9c0,4.3,2.8,7.7,8.4,7.7s8.3-3.4,8.3-7.7V38.2h13.8v26.3c0,11.1-7,19.2-22.1,19.2
	S472.5,75.6,472.5,64.6z"/>
<path class="st9" d="M564.5,82.9V56l-10,26.9h-6l-10-26.9v26.9h-13.5V38.2h18.7l7.8,21.5l7.8-21.5H578v44.8H564.5z"/>
</svg>
