<svg xmlns="http://www.w3.org/2000/svg" viewBox="0 0 578 121.19"><defs><style>.cls-1{fill:#00a0ff;}.cls-2{fill:#00b4ff;}.cls-3{fill:#00c8ff;}.cls-4{fill:#ffc800;}.cls-5{fill:#fff000;}.cls-6{fill:#ffdc00;}.cls-7{fill:#00c800;}.cls-8{fill:#00f000;}.cls-9{fill:#00dc00;}</style></defs><title>Ресурс 1</title><g id="Слой_2" data-name="Слой 2"><g id="Слой_1-2" data-name="Слой 1"><polygon class="cls-1" points="21 36.37 0 48.45 0.02 72.7 21.02 84.82 21 109.06 41.99 121.19 62.99 109.09 62.99 60.61 21 36.37"/><polygon class="cls-1" points="0.02 72.7 0 48.45 41.99 72.71 41.99 121.19 21 109.06 21.02 84.82 0.02 72.7"/><polygon class="cls-2" points="21 36.37 0 48.45 41.99 72.71 62.99 60.61 21 36.37"/><polygon class="cls-3" points="62.99 109.09 41.99 121.19 41.99 72.71 62.99 60.61 62.99 109.09"/><polygon class="cls-4" points="84.02 0 62.99 12.1 41.99 0 20.99 12.12 21.03 36.37 62.99 60.61 105 36.38 105 12.13 105.02 12.12 84.02 0"/><polygon class="cls-4" points="20.99 12.12 41.99 0 62.99 12.1 84.02 0 105.02 12.12 62.99 36.37 20.99 12.12"/><polygon class="cls-5" points="62.99 60.61 62.99 36.37 20.99 12.12 21.03 36.37 62.99 60.61"/><polygon class="cls-6" points="105 36.38 105 12.13 62.99 36.38 62.99 60.61 105 36.38"/><polygon class="cls-7" points="104.98 36.35 62.99 60.61 62.99 109.09 83.98 121.19 104.98 109.1 104.98 84.86 125.98 72.73 125.98 48.48 104.98 36.35"/><polygon class="cls-8" points="83.98 72.71 62.99 60.61 62.99 109.09 83.98 121.19 83.98 72.71"/><polygon class="cls-9" points="104.98 36.35 125.98 48.48 83.98 72.72 62.99 60.61 104.98 36.35"/><polygon class="cls-7" points="125.98 72.73 104.98 84.86 104.98 109.1 83.98 121.19 83.98 72.72 125.98 48.48 125.98 72.73"/><path d="M194.24,82.94V56l-10,26.91h-6L168.21,56V82.94H154.66V38.19h18.71l7.85,21.47,7.85-21.47h18.72V82.94Z"/><path d="M214.22,60.6c0-13.76,10.67-23.15,24.49-23.15S263.2,46.84,263.2,60.6s-10.67,23.14-24.49,23.14S214.22,74.35,214.22,60.6Zm35.22,0c0-6.24-4.22-11.21-10.73-11.21S228,54.36,228,60.6s4.22,11.2,10.73,11.2S249.44,66.84,249.44,60.6Z"/><path d="M309.21,82.94V56l-10,26.91h-6L283.18,56V82.94H269.63V38.19h18.72l7.85,21.47,7.85-21.47h18.71V82.94Z"/><path d="M332.83,82.94V38.19h33.95V50h-20.4v4.42h19.93V66.23H346.38v4.9h20.4V82.94Z"/><path d="M406,82.94,389.51,60.26V82.94H376V38.19h14l15.57,21.2V38.19H419V82.94Z"/><path d="M438.69,82.94V50h-12V38.19h37.51V50H452.24V82.94Z"/><path d="M472.45,64.55V38.19H486.2V64.08c0,4.3,2.82,7.72,8.39,7.72s8.32-3.42,8.32-7.72V38.19h13.75v26.3c0,11.13-7,19.25-22.07,19.25S472.45,75.62,472.45,64.55Z"/><path d="M564.45,82.94V56l-10,26.91h-6L538.42,56V82.94H524.87V38.19h18.71l7.85,21.47,7.85-21.47H578V82.94Z"/></g></g></svg>