<?xml version="1.0" encoding="utf-8"?>
<!-- Generator: Adobe Illustrator 22.1.0, SVG Export Plug-In . SVG Version: 6.00 Build 0)  -->
<svg version="1.2" baseProfile="tiny" id="Слой_1"
	 xmlns="http://www.w3.org/2000/svg" xmlns:xlink="http://www.w3.org/1999/xlink" x="0px" y="0px" viewBox="0 0 180 180"
	 xml:space="preserve">
<g>
	<ellipse fill="#FFFFFF" cx="90" cy="90.6" rx="44.5" ry="44.5"/>
	<path fill="#00002B" d="M92.5,68.5c-3.9-0.4-7.6,0.2-10.9,1.5c-0.8,0.3-1.1,1.2-0.7,1.9c0.7,1.3,1.1,2.9,0.8,4.6
		c-0.5,2.8-2.8,5.1-5.6,5.6c-1.7,0.3-3.3,0-4.6-0.8c-0.7-0.4-1.6-0.1-1.9,0.7c-1.4,3.3-2,7.1-1.6,11c1,10.2,9.1,18.5,19.3,19.7
		c14.5,1.8,26.7-10.4,24.9-24.9C110.8,77.7,102.6,69.6,92.5,68.5z"/>
</g>
</svg>
