<?xml version="1.0" encoding="utf-8"?>
<!-- Generator: Adobe Illustrator 23.0.2, SVG Export Plug-In . SVG Version: 6.00 Build 0)  -->
<svg version="1.2" baseProfile="tiny" id="Слой_1"
	 xmlns="http://www.w3.org/2000/svg" xmlns:xlink="http://www.w3.org/1999/xlink" x="0px" y="0px" viewBox="0 0 233 233"
	 xml:space="preserve">
<g>
	<path fill="#D2FAFA" d="M233,225.1c0,4.4-3.6,7.9-7.9,7.9H7.9c-4.4,0-7.9-3.6-7.9-7.9V7.9C0,3.6,3.6,0,7.9,0h217
		c4.4,0,7.9,3.6,7.9,7.9v217.1H233z"/>
</g>
<g>
	<path fill="#FFFFFF" d="M87.8,156.1l-40.6-40.6c-2-2-2-5.1,0-7.1l7.8-7.8c2-2,5.1-2,7.1,0l25.7,25.7c2,2,5.1,2,7.1,0l48.6-48.6
		c2-2,5.1-2,7.1,0l7.8,7.8c1.9,2,1.9,5.1,0,7.1l-63.5,63.5C92.9,158,89.7,158,87.8,156.1z"/>
</g>
<g>
	<path fill="#14DCFA" d="M117.5,156.1l-40.6-40.6c-2-2-2-5.1,0-7.1l7.8-7.8c2-2,5.1-2,7.1,0l25.7,25.7c2,2,5.1,2,7.1,0l48.6-48.6
		c2-2,5.1-2,7.1,0l7.8,7.8c1.9,2,1.9,5.1,0,7.1l-63.5,63.5C122.6,158,119.5,158,117.5,156.1z"/>
</g>
</svg>
