<?xml version="1.0" encoding="utf-8"?>
<!-- Generator: Adobe Illustrator 22.0.1, SVG Export Plug-In . SVG Version: 6.00 Build 0)  -->
<svg version="1.1" id="Слой_1" xmlns="http://www.w3.org/2000/svg" xmlns:xlink="http://www.w3.org/1999/xlink" x="0px" y="0px"
	 viewBox="0 0 146 146" style="enable-background:new 0 0 146 146;" xml:space="preserve">
<style type="text/css">
	.st0{fill:none;stroke:#12122F;stroke-width:4;stroke-linecap:round;stroke-linejoin:round;stroke-miterlimit:10;}
</style>
<g>
	<circle class="st0" cx="73" cy="43.3" r="6.5"/>
	<circle class="st0" cx="73.1" cy="73" r="1.5"/>
	<path class="st0" d="M145,140.1c0,2.7-2.2,4.9-4.9,4.9H5.9c-2.7,0-4.9-2.2-4.9-4.9V5.9C1,3.2,3.2,1,5.9,1H140
		c2.7,0,4.9,2.2,4.9,4.9v134.2L145,140.1L145,140.1z"/>
	<polyline class="st0" points="73,73 94,52 109.8,36.2 	"/>
	<path class="st0" d="M87.9,73c0,8.2-6.6,14.8-14.7,14.8c-8.2,0-14.8-6.5-14.9-14.7c0-8.2,6.5-14.8,14.7-14.9
		c4.1,0,7.8,1.7,10.5,4.2"/>
	<path class="st0" d="M117.5,73c0,24.6-19.9,44.5-44.5,44.5S28.5,97.6,28.5,73S48.4,28.5,73,28.5c12.2,0,23.3,4.9,31.3,12.9"/>
	<path class="st0" d="M79.5,44c5.6,1.2,10.6,4.1,14.5,8"/>
	<path class="st0" d="M102.6,73c0,16.4-13.3,29.7-29.7,29.7S43.2,89.4,43.2,73c0-14.2,9.9-26,23.2-29"/>
</g>
</svg>
