<?xml version="1.0" encoding="utf-8"?>
<!-- Generator: Adobe Illustrator 22.0.1, SVG Export Plug-In . SVG Version: 6.00 Build 0)  -->
<svg version="1.1" id="Слой_1" xmlns="http://www.w3.org/2000/svg" xmlns:xlink="http://www.w3.org/1999/xlink" x="0px" y="0px"
	 viewBox="0 0 146 146" style="enable-background:new 0 0 146 146;" xml:space="preserve">
<style type="text/css">
	.st0{fill:none;stroke:#12122F;stroke-width:4;stroke-linecap:round;stroke-linejoin:round;stroke-miterlimit:10;}
</style>
<g>
	<path class="st0" d="M1,56V5.9C1,3.2,3.2,1,5.9,1H56"/>
	<path class="st0" d="M90,1h50.1c2.7,0,4.9,2.2,4.9,4.9V56"/>
	<path class="st0" d="M56,145H5.9c-2.7,0-4.9-2.2-4.9-4.9V90"/>
	<path class="st0" d="M145,90v50.1c0,2.7-2.2,4.9-4.9,4.9H90"/>
	<path class="st0" d="M69,69H14V19c0-2.8,2.2-5,5-5h50V69z"/>
	<path class="st0" d="M132,69H77V14h50c2.8,0,5,2.2,5,5V69z"/>
	<path class="st0" d="M127,132H77V77h55v50C132,129.8,129.8,132,127,132z"/>
	<path class="st0" d="M69,132H19c-2.8,0-5-2.2-5-5V77h55V132z"/>
</g>
</svg>
