<?xml version="1.0" encoding="utf-8"?>
<!-- Generator: Adobe Illustrator 22.0.1, SVG Export Plug-In . SVG Version: 6.00 Build 0)  -->
<svg version="1.1" id="Слой_1" xmlns="http://www.w3.org/2000/svg" xmlns:xlink="http://www.w3.org/1999/xlink" x="0px" y="0px"
	 viewBox="0 0 146 146" style="enable-background:new 0 0 146 146;" xml:space="preserve">
<style type="text/css">
	.st0{fill:none;stroke:#12122F;stroke-width:4;stroke-linecap:round;stroke-linejoin:round;stroke-miterlimit:10;}
	.st1{fill:#12122F;}
</style>
<path class="st0" d="M145,140.1c0,2.7-2.2,4.9-4.9,4.9H5.9c-2.7,0-4.9-2.2-4.9-4.9V5.9C1,3.2,3.2,1,5.9,1H140c2.7,0,4.9,2.2,4.9,4.9
	L145,140.1L145,140.1z"/>
<circle class="st0" cx="73" cy="73" r="28.2"/>
<path class="st1" d="M73.5,58.9c-2.1-0.1-4.1,0.3-5.9,1.1c-0.5,0.2-0.7,0.8-0.4,1.2c0.5,0.8,0.7,1.8,0.5,2.8
	c-0.3,1.9-1.8,3.4-3.7,3.7c-1,0.1-2-0.1-2.8-0.5c-0.4-0.3-1-0.1-1.2,0.4c-0.8,1.8-1.2,3.8-1.1,5.9c0.2,7.3,6.1,13.3,13.4,13.7
	c8.4,0.4,15.2-6.5,14.8-14.8C86.8,65,80.8,59.1,73.5,58.9z"/>
</svg>
