<?xml version="1.0" encoding="utf-8"?>
<!-- Generator: Adobe Illustrator 22.0.1, SVG Export Plug-In . SVG Version: 6.00 Build 0)  -->
<svg version="1.1" id="Слой_1" xmlns="http://www.w3.org/2000/svg" xmlns:xlink="http://www.w3.org/1999/xlink" x="0px" y="0px"
	 viewBox="0 0 145.9 146" style="enable-background:new 0 0 145.9 146;" xml:space="preserve">
<style type="text/css">
	.st0{fill:none;stroke:#12122F;stroke-width:4;stroke-miterlimit:10;}
	.st1{fill:none;stroke:#12122F;stroke-width:4;stroke-linecap:round;stroke-linejoin:round;stroke-miterlimit:10;}
</style>
<g>
	<path class="st0" d="M43.8,55.6c0,1-0.8,1.8-1.8,1.8H25.2c-1,0-1.8-0.8-1.8-1.8V38.8c0-1,0.8-1.8,1.8-1.8H42c1,0,1.8,0.8,1.8,1.8
		V55.6z"/>
	<g>
		<line class="st1" x1="31.2" y1="44.7" x2="36" y2="49.5"/>
		<line class="st1" x1="36" y1="44.7" x2="31.2" y2="49.5"/>
	</g>
	<path class="st1" d="M100.4,5.2H140c2.7,0,4.9,2.2,4.9,4.8v130.2c0,2.6-2.2,4.8-4.9,4.8H5.9c-2.7,0-4.9-2.2-4.9-4.8V10
		c0-2.6,2.2-4.8,4.9-4.8h39.6"/>
	<g>
		<path class="st0" d="M99.6,7c0,1-0.8,1.8-1.8,1.8H48c-1,0-1.8-0.8-1.8-1.8V2.8C46.2,1.8,47,1,48,1h49.8c1,0,1.8,0.8,1.8,1.8
			C99.6,2.8,99.6,7,99.6,7z"/>
		<path class="st0" d="M99.6,7c0,1-0.8,1.8-1.8,1.8H48c-1,0-1.8-0.8-1.8-1.8V2.8C46.2,1.8,47,1,48,1h49.8c1,0,1.8,0.8,1.8,1.8
			C99.6,2.8,99.6,7,99.6,7z"/>
	</g>
	<path class="st0" d="M43.8,83.8c0,1-0.8,1.8-1.8,1.8H25.2c-1,0-1.8-0.8-1.8-1.8V67c0-1,0.8-1.8,1.8-1.8H42c1,0,1.8,0.8,1.8,1.8
		V83.8z"/>
	<path class="st0" d="M43.8,112c0,1-0.8,1.8-1.8,1.8H25.2c-1,0-1.8-0.8-1.8-1.8V95.2c0-1,0.8-1.8,1.8-1.8H42c1,0,1.8,0.8,1.8,1.8
		V112z"/>
	<line class="st1" x1="57" y1="47.2" x2="122.4" y2="47.2"/>
	<line class="st1" x1="57" y1="75.4" x2="122.4" y2="75.4"/>
	<line class="st1" x1="57" y1="103.6" x2="122.4" y2="103.6"/>
	<polyline class="st1" points="37.6,101.1 32.8,105.9 30,103.2 	"/>
</g>
</svg>
