<?xml version="1.0" encoding="utf-8"?>
<!-- Generator: Adobe Illustrator 22.0.1, SVG Export Plug-In . SVG Version: 6.00 Build 0)  -->
<svg version="1.1" id="Слой_1" xmlns="http://www.w3.org/2000/svg" xmlns:xlink="http://www.w3.org/1999/xlink" x="0px" y="0px"
	 viewBox="0 0 146 146" style="enable-background:new 0 0 146 146;" xml:space="preserve">
<style type="text/css">
	.st0{fill:none;stroke:#12122F;stroke-width:4;stroke-linecap:round;stroke-linejoin:round;stroke-miterlimit:10;}
	.st1{fill:none;stroke:#12122F;stroke-width:4;stroke-miterlimit:10;}
</style>
<g>
	<g>
		<g>
			<path class="st0" d="M43,140c0,2.8-2.2,5-5,5H6c-2.8,0-5-2.2-5-5V6c0-2.8,2.2-5,5-5h32c2.8,0,5,2.2,5,5V140z"/>
		</g>
		<ellipse class="st1" cx="21.7" cy="20.9" rx="6.5" ry="6.5"/>
		<line class="st1" x1="11.3" y1="132" x2="32.3" y2="132"/>
		<line class="st1" x1="11.3" y1="123.9" x2="32.3" y2="123.9"/>
	</g>
	<g>
		<g>
			<path class="st0" d="M93.6,140c0,2.8-2.2,5-5,5h-32c-2.8,0-5-2.2-5-5V6c0-2.8,2.2-5,5-5h32c2.8,0,5,2.2,5,5V140z"/>
		</g>
		<ellipse class="st1" cx="72.3" cy="20.9" rx="6.5" ry="6.5"/>
		<line class="st1" x1="62" y1="132" x2="83" y2="132"/>
		<line class="st1" x1="62" y1="123.9" x2="83" y2="123.9"/>
	</g>
	<g>
		<g>
			<path class="st0" d="M145,140c0,2.8-2.2,5-5,5h-32c-2.8,0-5-2.2-5-5V6c0-2.8,2.2-5,5-5h32c2.8,0,5,2.2,5,5V140z"/>
		</g>
		<ellipse class="st1" cx="123.7" cy="20.9" rx="6.5" ry="6.5"/>
		<line class="st1" x1="113.3" y1="132" x2="134.3" y2="132"/>
		<line class="st1" x1="113.3" y1="123.9" x2="134.3" y2="123.9"/>
	</g>
</g>
</svg>
