<?xml version="1.0" encoding="utf-8"?>
<!-- Generator: Adobe Illustrator 22.0.1, SVG Export Plug-In . SVG Version: 6.00 Build 0)  -->
<svg version="1.1" id="Слой_1" xmlns="http://www.w3.org/2000/svg" xmlns:xlink="http://www.w3.org/1999/xlink" x="0px" y="0px"
	 viewBox="0 0 146 146" style="enable-background:new 0 0 146 146;" xml:space="preserve">
<style type="text/css">
	.st0{fill:none;stroke:#12122F;stroke-width:4;stroke-linecap:round;stroke-linejoin:round;stroke-miterlimit:10;}
</style>
<g>
	<path class="st0" d="M145,140.1c0,2.7-2.2,4.9-4.9,4.9H5.9c-2.7,0-4.9-2.2-4.9-4.9V5.9C1,3.2,3.2,1,5.9,1H140
		c2.7,0,4.9,2.2,4.9,4.9L145,140.1L145,140.1z"/>
	<circle class="st0" cx="132.9" cy="11.5" r="4"/>
	<circle class="st0" cx="120" cy="11.5" r="4"/>
	<circle class="st0" cx="107" cy="11.5" r="4"/>
	<line class="st0" x1="25" y1="103.9" x2="25" y2="144.7"/>
	<line class="st0" x1="49.2" y1="83.5" x2="49.2" y2="144.7"/>
	<line class="st0" x1="73.3" y1="103.9" x2="73.3" y2="144.7"/>
	<line class="st0" x1="97" y1="83.5" x2="97" y2="144.7"/>
	<line class="st0" x1="121" y1="63.1" x2="121" y2="144.7"/>
	<polyline class="st0" points="25.1,83.5 49.2,62.5 72.7,83.5 120.9,42.1 	"/>
	<polyline class="st0" points="114.6,42.2 121,41.5 120.3,47.9 	"/>
	<line class="st0" x1="1" y1="22" x2="145" y2="22"/>
</g>
</svg>
