<?xml version="1.0" encoding="utf-8"?>
<!-- Generator: Adobe Illustrator 22.0.1, SVG Export Plug-In . SVG Version: 6.00 Build 0)  -->
<svg version="1.1" id="Слой_1" xmlns="http://www.w3.org/2000/svg" xmlns:xlink="http://www.w3.org/1999/xlink" x="0px" y="0px"
	 viewBox="0 0 146 145.9" style="enable-background:new 0 0 146 145.9;" xml:space="preserve">
<style type="text/css">
	.st0{fill:none;stroke:#12122F;stroke-width:4;stroke-miterlimit:10;}
	.st1{fill:none;stroke:#12122F;stroke-width:4;stroke-linecap:round;stroke-linejoin:round;stroke-miterlimit:10;}
</style>
<g>
	<path class="st0" d="M145,140c0,2.7-2.2,4.9-4.9,4.9H5.9c-2.7,0-4.9-2.2-4.9-4.9V5.9C1,3.2,3.2,1,5.9,1H140c2.7,0,4.9,2.2,4.9,4.9
		V140H145z"/>
	<g>
		<line class="st1" x1="36.7" y1="38.9" x2="36.7" y2="106.9"/>
		<line class="st1" x1="109.7" y1="38.9" x2="109.7" y2="106.9"/>
		<line class="st1" x1="73.2" y1="38.9" x2="73.2" y2="106.9"/>
		<line class="st1" x1="45.8" y1="38.9" x2="45.8" y2="93.9"/>
		<line class="st1" x1="55" y1="38.9" x2="55" y2="93.9"/>
		<line class="st1" x1="64.1" y1="38.9" x2="64.1" y2="93.9"/>
		<line class="st1" x1="82.3" y1="38.9" x2="82.3" y2="93.9"/>
		<line class="st1" x1="91.5" y1="38.9" x2="91.5" y2="93.9"/>
		<line class="st1" x1="100.6" y1="38.9" x2="100.6" y2="93.9"/>
	</g>
</g>
</svg>
