<?xml version="1.0" encoding="utf-8"?>
<!-- Generator: Adobe Illustrator 22.0.1, SVG Export Plug-In . SVG Version: 6.00 Build 0)  -->
<svg version="1.1" id="Слой_1" xmlns="http://www.w3.org/2000/svg" xmlns:xlink="http://www.w3.org/1999/xlink" x="0px" y="0px"
	 viewBox="0 0 146 146" style="enable-background:new 0 0 146 146;" xml:space="preserve">
<style type="text/css">
	.st0{fill:none;stroke:#12122F;stroke-width:4;stroke-linecap:round;stroke-linejoin:round;stroke-miterlimit:10;}
</style>
<g>
	<path class="st0" d="M145,140.1c0,2.7-2.2,4.9-4.9,4.9H5.9c-2.7,0-4.9-2.2-4.9-4.9V5.9C1,3.2,3.2,1,5.9,1H140
		c2.7,0,4.9,2.2,4.9,4.9L145,140.1L145,140.1z"/>
	<line class="st0" x1="109.5" y1="114.9" x2="117.5" y2="114.9"/>
	<line class="st0" x1="78" y1="114.9" x2="99.5" y2="114.9"/>
	<line class="st0" x1="46.5" y1="114.9" x2="68" y2="114.9"/>
	<line class="st0" x1="28.5" y1="114.9" x2="36.5" y2="114.9"/>
	<circle class="st0" cx="41.5" cy="114.9" r="5"/>
	<circle class="st0" cx="104.5" cy="114.9" r="5"/>
	<path class="st0" d="M112.5,26.1h-79c-2.8,0-5,2.2-5,5v45c0,2.8,2.2,5,5,5h33.1L73,94l6.4-12.9h33.1c2.8,0,5-2.2,5-5v-45
		C117.5,28.3,115.2,26.1,112.5,26.1z"/>
	<circle class="st0" cx="73" cy="114.9" r="5"/>
</g>
</svg>
