<?xml version="1.0" encoding="utf-8"?>
<!-- Generator: Adobe Illustrator 22.0.1, SVG Export Plug-In . SVG Version: 6.00 Build 0)  -->
<svg version="1.1" id="Слой_1" xmlns="http://www.w3.org/2000/svg" xmlns:xlink="http://www.w3.org/1999/xlink" x="0px" y="0px"
	 viewBox="0 0 146 146" style="enable-background:new 0 0 146 146;" xml:space="preserve">
<style type="text/css">
	.st0{fill:none;stroke:#12122F;stroke-width:4;stroke-linecap:round;stroke-linejoin:round;stroke-miterlimit:10;}
</style>
<g>
	<g>
		<path class="st0" d="M145,140.1c0,2.7-2.2,4.9-4.9,4.9H5.9c-2.7,0-4.9-2.2-4.9-4.9V5.9C1,3.2,3.2,1,5.9,1H140
			c2.7,0,4.9,2.2,4.9,4.9v134.2L145,140.1L145,140.1z"/>
		<line class="st0" x1="1.2" y1="22" x2="144.8" y2="22"/>
	</g>
	<line class="st0" x1="38.4" y1="82.9" x2="1" y2="82.9"/>
	<line class="st0" x1="144.4" y1="82.9" x2="107.4" y2="82.9"/>
	<line class="st0" x1="15.2" y1="11.2" x2="28.2" y2="11.2"/>
	<line class="st0" x1="117.2" y1="11.2" x2="130.2" y2="11.2"/>
	<line class="st0" x1="73" y1="118" x2="73" y2="145"/>
	<line class="st0" x1="73" y1="22.6" x2="73" y2="50"/>
	<circle class="st0" cx="73.1" cy="84.1" r="34"/>
	<polyline class="st0" points="57.4,74 73.4,83 89.4,68 	"/>
</g>
</svg>
