<svg width="34" height="22" viewBox="0 0 34 22" fill="none" xmlns="http://www.w3.org/2000/svg">
<path d="M0 0H8.5L8.85063 0.45375H25.1494L25.5 0H34V22H25.5L25.1494 21.5462H8.85063L8.5 22H0V0Z" fill="#FF0000"/>
<path d="M8.5 0H25.5V22H8.5V0ZM17.3188 18.6896L17.1594 15.6331C17.1571 15.5829 17.166 15.5327 17.1857 15.4864C17.2053 15.4401 17.2351 15.3987 17.2728 15.3654C17.3105 15.3321 17.3552 15.3077 17.4036 15.294C17.452 15.2802 17.5029 15.2775 17.5525 15.286L20.5948 15.8208L20.184 14.6875C20.1673 14.6424 20.1652 14.5932 20.1779 14.5469C20.1906 14.5005 20.2175 14.4593 20.2548 14.429L23.5875 11.7302L22.8367 11.3796C22.786 11.3556 22.7457 11.314 22.7236 11.2625C22.7014 11.2109 22.6988 11.1531 22.7163 11.0998L23.375 9.07396L21.4554 9.48125C21.4034 9.49209 21.3493 9.48462 21.3021 9.46009C21.255 9.43556 21.2178 9.39549 21.1969 9.34667L20.825 8.47188L19.3269 10.0798C19.2926 10.1159 19.2476 10.14 19.1985 10.1483C19.1494 10.1567 19.0989 10.1489 19.0547 10.1262C19.0104 10.1034 18.9746 10.067 18.9528 10.0222C18.931 9.97743 18.9243 9.92681 18.9338 9.87792L19.6562 6.15208L18.4981 6.82146C18.4709 6.83739 18.4408 6.84758 18.4095 6.85138C18.3782 6.85518 18.3465 6.85251 18.3162 6.84355C18.286 6.83458 18.258 6.81951 18.2338 6.79926C18.2097 6.77901 18.1899 6.75402 18.1758 6.72583L17 4.41667L15.8242 6.72583C15.8101 6.75402 15.7903 6.77901 15.7662 6.79926C15.742 6.81951 15.714 6.83458 15.6838 6.84355C15.6535 6.85251 15.6218 6.85518 15.5905 6.85138C15.5592 6.84758 15.5291 6.83739 15.5019 6.82146L14.3438 6.15208L15.0663 9.87792C15.0757 9.92681 15.069 9.97743 15.0472 10.0222C15.0254 10.067 14.9896 10.1034 14.9453 10.1262C14.9011 10.1489 14.8506 10.1567 14.8015 10.1483C14.7524 10.14 14.7074 10.1159 14.6731 10.0798L13.175 8.47188L12.8031 9.34667C12.7822 9.39549 12.745 9.43556 12.6979 9.46009C12.6507 9.48462 12.5966 9.49209 12.5446 9.48125L10.625 9.07396L11.2838 11.0998C11.3012 11.1531 11.2986 11.2109 11.2764 11.2625C11.2543 11.314 11.214 11.3556 11.1633 11.3796L10.4125 11.7302L13.7452 14.429C13.7825 14.4593 13.8094 14.5005 13.8221 14.5469C13.8348 14.5932 13.8327 14.6424 13.816 14.6875L13.4052 15.8208L16.4475 15.286C16.4971 15.2775 16.548 15.2802 16.5964 15.294C16.6448 15.3077 16.6895 15.3321 16.7272 15.3654C16.7649 15.3987 16.7947 15.4401 16.8143 15.4864C16.834 15.5327 16.8429 15.5829 16.8406 15.6331L16.6813 18.6896H17.3188Z" fill="white"/>
</svg>
