<svg width="18" height="18" viewBox="0 0 18 18" fill="none" xmlns="http://www.w3.org/2000/svg">
<path d="M9 17C13.4183 17 17 13.4183 17 9C17 4.58172 13.4183 1 9 1C4.58172 1 1 4.58172 1 9C1 13.4183 4.58172 17 9 17Z" stroke="#00002B" stroke-width="2" stroke-miterlimit="10"/>
<path d="M9.44293 5.0246C8.74754 4.95075 8.07677 5.05537 7.486 5.29537C7.35062 5.35075 7.28908 5.5169 7.36293 5.64613C7.49831 5.88613 7.55369 6.16921 7.50446 6.47075C7.41831 6.97537 7.006 7.38767 6.50139 7.47383C6.19369 7.52306 5.90446 7.46767 5.66446 7.32613C5.53523 7.25229 5.37523 7.31383 5.3137 7.44921C5.06139 8.04613 4.95062 8.7169 5.02446 9.4246C5.21523 11.2523 6.66754 12.7477 8.48908 12.9692C11.0983 13.2954 13.2891 11.0984 12.9691 8.48921C12.7414 6.67383 11.2583 5.22152 9.44293 5.0246Z" fill="#00002B"/>
</svg>
