<svg width="34" height="22" viewBox="0 0 34 22" fill="none" xmlns="http://www.w3.org/2000/svg">
<rect width="34" height="22" fill="#00C8FF"/>
<path d="M16.4671 21.5766V16.4001C15.2166 16.4236 13.9892 16.5413 12.8545 16.753C13.6419 19.3648 14.9619 21.2001 16.4671 21.5766Z" fill="white"/>
<path d="M12.5534 15.6942C13.7808 15.4589 15.1008 15.3412 16.4439 15.2942V11.5295H12.0439C12.0671 13.0118 12.2524 14.4236 12.5534 15.6942Z" fill="white"/>
<path d="M12.0439 10.447H16.4671V6.68229C15.1239 6.65876 13.8039 6.51758 12.5534 6.28229C12.2524 7.55288 12.0671 8.96464 12.0439 10.447Z" fill="white"/>
<path d="M11.4884 6.0707C11.4653 6.0707 11.4653 6.0707 11.4421 6.0707C10.0758 5.71776 8.89474 5.2707 7.85263 4.75305C6.76421 6.40011 6.09263 8.35305 6 10.4707H10.9558C11.0021 8.8707 11.1874 7.38835 11.4884 6.0707Z" fill="white"/>
<path d="M21.4462 6.28229C20.2188 6.51758 18.8988 6.65876 17.5557 6.68229V10.4235H21.9788C21.9325 8.96464 21.7472 7.55288 21.4462 6.28229Z" fill="white"/>
<path d="M12.8545 5.22337C13.9892 5.43514 15.2166 5.55278 16.4671 5.57631V0.399841C14.9619 0.776312 13.6419 2.61161 12.8545 5.22337Z" fill="white"/>
<path d="M17.5322 0.399841V5.57631C18.7828 5.55278 20.0101 5.43514 21.1449 5.22337C20.3575 2.61161 19.0375 0.776312 17.5322 0.399841Z" fill="white"/>
<path d="M11.4884 15.906C11.1874 14.5648 11.0021 13.106 10.9558 11.5295H6C6.09263 13.6471 6.76421 15.6001 7.85263 17.2471C8.89474 16.706 10.0758 16.2589 11.4421 15.9295C11.4653 15.9295 11.4653 15.906 11.4884 15.906Z" fill="white"/>
<path d="M11.7665 4.98824C12.4613 2.70588 13.5265 0.941176 14.8234 0C12.2992 0.517647 10.0992 1.90588 8.52441 3.83529C9.45073 4.30588 10.516 4.68235 11.7202 4.98824C11.7202 4.98824 11.7434 4.98824 11.7665 4.98824Z" fill="white"/>
<path d="M22.2336 4.98824C22.2568 4.98824 22.2799 4.98824 22.3031 4.96471C23.4841 4.68235 24.5494 4.28235 25.4757 3.83529C23.901 1.90588 21.701 0.517647 19.1768 0C20.4736 0.941176 21.5389 2.70588 22.2336 4.98824Z" fill="white"/>
<path d="M11.7665 16.9882C11.7434 16.9882 11.7202 16.9882 11.697 17.0117C10.516 17.3176 9.42757 17.6941 8.52441 18.1647C10.0992 20.0941 12.2992 21.4823 14.8234 22C13.5265 21.0353 12.4613 19.2706 11.7665 16.9882Z" fill="white"/>
<path d="M22.2339 16.9882C21.5391 19.2706 20.4739 21.0353 19.2002 21.9765C21.7244 21.4588 23.9244 20.0706 25.4991 18.1412C24.5728 17.6706 23.5076 17.2941 22.3265 17.0117C22.2802 16.9882 22.257 16.9882 22.2339 16.9882Z" fill="white"/>
<path d="M21.9554 11.5295H17.5322V15.2942C18.8985 15.3177 20.1954 15.4589 21.4228 15.6942C21.747 14.4236 21.9322 13.0118 21.9554 11.5295Z" fill="white"/>
<path d="M17.5322 16.4001V21.5766C19.0143 21.2001 20.3343 19.3648 21.1449 16.753C20.0101 16.5413 18.8059 16.4236 17.5322 16.4001Z" fill="white"/>
<path d="M22.5117 15.9295C22.5349 15.9295 22.558 15.9295 22.5812 15.953C23.9012 16.2825 25.1286 16.7295 26.1475 17.2707C27.2359 15.6236 27.9075 13.6707 28.0001 11.553H23.0443C22.998 13.106 22.8128 14.5883 22.5117 15.9295Z" fill="white"/>
<path d="M22.5117 6.04705C22.8128 7.38822 22.998 8.87058 23.0443 10.4235H28.0001C27.9075 8.30587 27.2359 6.35293 26.1475 4.70587C25.1054 5.27058 23.9012 5.71764 22.558 6.04705C22.5349 6.04705 22.5349 6.04705 22.5117 6.04705Z" fill="white"/>
</svg>
