<svg width="864" height="233" viewBox="0 0 864 233" fill="none" xmlns="http://www.w3.org/2000/svg">
<path d="M864 0H0V233H864V0Z" fill="#00224C"/>
<path d="M357.994 103.136C357.515 97.2628 352.372 92.8875 346.499 93.355C340.625 93.8345 336.25 98.9769 336.729 104.85C337.197 110.724 342.351 115.099 348.225 114.62C354.086 114.152 358.474 109.01 357.994 103.136Z" fill="#D90818"/>
<path d="M336.178 121.716C335.83 121.74 335.483 121.788 335.147 121.848C335.027 121.872 334.919 121.896 334.811 121.92C334.596 121.968 334.38 122.016 334.164 122.076C334.032 122.112 333.9 122.16 333.769 122.195C333.577 122.255 333.397 122.315 333.205 122.387C333.073 122.435 332.941 122.495 332.81 122.555C332.714 122.591 332.618 122.627 332.522 122.675C331.407 123.202 330.172 123.538 328.878 123.634C323.004 124.113 317.862 119.738 317.382 113.865C317.011 109.298 319.576 105.162 323.508 103.34C327.427 101.506 330.005 97.3826 329.633 92.8155C329.154 86.942 324.011 82.5667 318.138 83.0342C312.264 83.5137 307.889 88.6561 308.368 94.5297C308.476 95.8362 308.812 97.0589 309.327 98.1737C309.855 99.2885 310.19 100.523 310.286 101.83C310.658 106.397 308.081 110.532 304.161 112.354C300.241 114.188 297.664 118.312 298.036 122.879C298.503 128.752 303.657 133.128 309.531 132.648C310.838 132.54 312.06 132.205 313.175 131.689C314.29 131.162 315.524 130.826 316.831 130.73C321.398 130.359 325.522 132.936 327.356 136.855C327.391 136.939 327.439 137.023 327.487 137.107C327.535 137.203 327.583 137.299 327.643 137.407C327.751 137.611 327.871 137.814 327.991 138.006C328.039 138.078 328.075 138.15 328.123 138.21C328.29 138.462 328.47 138.713 328.662 138.953C328.71 139.025 328.77 139.085 328.83 139.145C328.974 139.325 329.13 139.493 329.285 139.66C329.357 139.744 329.441 139.816 329.513 139.888C329.669 140.044 329.825 140.188 329.981 140.332C330.053 140.392 330.124 140.464 330.208 140.523C330.448 140.715 330.688 140.907 330.928 141.087C330.94 141.099 330.952 141.099 330.964 141.111C331.203 141.279 331.455 141.434 331.719 141.578C331.803 141.626 331.887 141.674 331.982 141.722C332.174 141.83 332.366 141.926 332.57 142.022C332.666 142.07 332.762 142.106 332.858 142.154C333.073 142.25 333.301 142.333 333.529 142.417C333.601 142.441 333.673 142.465 333.745 142.489C334.044 142.585 334.344 142.669 334.656 142.741C334.727 142.753 334.811 142.765 334.883 142.789C335.123 142.837 335.363 142.885 335.603 142.909C335.71 142.921 335.818 142.933 335.926 142.945C336.154 142.969 336.382 142.981 336.621 142.993C336.717 142.993 336.825 143.005 336.921 143.005C337.245 143.005 337.58 143.005 337.916 142.969C343.778 142.489 348.165 137.347 347.685 131.473C347.194 125.612 342.051 121.248 336.178 121.716Z" fill="#D90818"/>
<path d="M381.596 133.319C380.649 133.319 379.618 132.936 379.319 131.917L377.76 126.894H367.584L366.025 131.917C365.738 132.924 364.695 133.319 363.7 133.319C361.722 133.319 360.547 131.737 361.242 129.855L370.209 105.174C370.568 104.191 371.515 103.772 372.69 103.772C373.865 103.772 374.788 104.191 375.147 105.15L384.09 129.843C384.713 131.533 383.946 133.319 381.596 133.319ZM376.238 121.896L372.702 110.472L369.142 121.896H376.238Z" fill="white"/>
<path d="M407.248 119.522V128.201C407.248 129.028 407.116 130.562 405.894 131.258C404.132 132.217 401.542 133.559 397.515 133.559C391.318 133.559 387.038 128.824 387.038 123.25V113.925C387.038 108.375 391.066 103.532 397.467 103.532C401.255 103.532 403.388 105.006 404.923 106.049C407.608 107.859 405.57 110.784 403.748 110.784C403.029 110.784 402.286 110.4 401.746 110.065C400.775 109.465 399.517 108.686 397.467 108.686C394.47 108.686 392.241 110.784 392.241 113.925V123.118C392.241 126.403 394.29 128.405 397.671 128.405C399.972 128.405 401.495 127.733 402.382 127.374V121.932H399.181C397.491 121.932 396.616 121.057 396.616 119.391C396.616 117.808 397.491 116.957 399.181 116.957H404.635C406.325 116.957 407.248 117.808 407.248 119.522Z" fill="white"/>
<path d="M428.597 103.532C431.546 103.532 433.955 104.263 436.616 106.277C438.558 107.703 437.107 110.676 435.058 110.676C434.47 110.676 434.027 110.472 433.188 109.981C431.701 108.95 430.239 108.602 428.597 108.602C426.499 108.602 424.677 109.645 424.677 111.707C424.677 113.781 427.11 114.476 429.927 115.806C434.207 117.88 438.078 119.642 438.078 125.06C438.078 129.903 433.883 133.559 428.285 133.559C425.216 133.559 422.591 132.492 420.314 131.042C417.653 129.412 419.678 126.175 421.441 126.175C421.932 126.175 422.256 126.223 423.203 126.774C424.485 127.578 426.247 128.405 428.681 128.405C431.09 128.405 432.912 127.026 432.912 125.168C432.912 122.807 430.587 121.728 427.194 120.194C423.323 118.48 419.511 116.358 419.511 111.875C419.487 106.493 423.838 103.532 428.597 103.532Z" fill="white"/>
<path d="M441.375 119.367C441.375 114.656 445.271 111.084 450.221 111.084C455.172 111.084 459.092 114.656 459.092 119.367V125.324C459.092 130.011 455.148 133.559 450.221 133.559C445.271 133.559 441.375 130.011 441.375 125.324V119.367ZM446.242 125.132C446.242 127.386 448.004 128.836 450.233 128.836C452.487 128.836 454.237 127.386 454.237 125.132V119.582C454.237 117.329 452.475 115.854 450.233 115.854C448.004 115.854 446.242 117.329 446.242 119.582V125.132Z" fill="white"/>
<path d="M469.065 130.922C469.065 132.48 468.226 133.307 466.631 133.307C465.037 133.307 464.198 132.48 464.198 130.922V105.582C464.198 104.023 465.037 103.196 466.631 103.196C468.25 103.196 469.065 104.023 469.065 105.582V130.922Z" fill="white"/>
<path d="M474.746 125.24V113.817C474.746 112.21 475.598 111.359 477.228 111.359C478.81 111.359 479.613 112.21 479.613 113.817V125.132C479.613 127.41 481.375 128.836 483.641 128.836C485.439 128.836 486.613 128.548 487.608 128.261V113.817C487.608 112.21 488.424 111.359 489.946 111.359C491.588 111.359 492.463 112.21 492.463 113.817V130.347C492.463 131.174 492.103 131.845 491.444 132.109C489.347 132.984 486.602 133.559 483.149 133.559C478.199 133.559 474.746 130.107 474.746 125.24Z" fill="white"/>
<path d="M504.055 106.385V111.515H507.77C509.281 111.515 510.096 112.294 510.096 113.793C510.096 115.291 509.281 116.07 507.77 116.07H504.055V126.403C504.055 127.925 504.75 128.86 506.152 128.86C507.027 128.86 507.567 128.728 508.478 128.597C510.072 128.357 511.139 129.268 511.139 130.874C511.139 132.3 510.3 132.948 508.622 133.235C507.603 133.415 506.847 133.571 505.829 133.571C501.501 133.571 499.212 131.234 499.212 126.834V116.082H498.493C497.162 116.058 496.395 115.255 496.395 113.805C496.395 112.33 497.162 111.551 498.493 111.527H499.212V106.397C499.212 104.814 500.051 104.011 501.645 104.011C503.215 103.999 504.055 104.802 504.055 106.385Z" fill="white"/>
<path d="M515.023 105.534C515.023 104.107 516.233 102.896 517.684 102.896C519.122 102.896 520.297 104.095 520.297 105.534C520.297 106.96 519.122 108.147 517.684 108.147C516.233 108.147 515.023 106.96 515.023 105.534ZM520.069 130.922C520.069 132.48 519.23 133.307 517.636 133.307C516.041 133.307 515.202 132.48 515.202 130.922V113.9C515.202 112.342 516.041 111.515 517.636 111.515C519.254 111.515 520.069 112.342 520.069 113.9V130.922Z" fill="white"/>
<path d="M524.948 119.367C524.948 114.656 528.844 111.084 533.794 111.084C538.745 111.084 542.664 114.656 542.664 119.367V125.324C542.664 130.011 538.721 133.559 533.794 133.559C528.844 133.559 524.948 130.011 524.948 125.324V119.367ZM529.802 125.132C529.802 127.386 531.565 128.836 533.794 128.836C536.048 128.836 537.798 127.386 537.798 125.132V119.582C537.798 117.329 536.036 115.854 533.794 115.854C531.565 115.854 529.802 117.329 529.802 119.582V125.132Z" fill="white"/>
<path d="M564.576 119.414V130.862C564.576 132.468 563.725 133.319 562.095 133.319C560.513 133.319 559.71 132.468 559.71 130.862V119.678C559.71 117.113 558.091 115.842 555.838 115.842C554.016 115.842 552.709 116.13 551.714 116.418V130.85C551.714 132.456 550.899 133.307 549.377 133.307C547.735 133.307 546.86 132.456 546.86 130.85V114.332C546.86 113.505 547.219 112.834 547.879 112.57C550.012 111.683 552.877 111.096 556.305 111.096C561.292 111.096 564.576 114.416 564.576 119.414Z" fill="white"/>
<path d="M361.722 150.796C361.626 150.7 361.578 150.569 361.578 150.401V142.357C361.578 142.202 361.626 142.082 361.722 141.986C361.818 141.89 361.95 141.842 362.117 141.842H365.15C366.097 141.842 366.84 142.07 367.356 142.537C367.883 143.005 368.147 143.652 368.147 144.503C368.147 145.354 367.883 146.001 367.356 146.481C366.828 146.948 366.097 147.188 365.15 147.188H362.621V150.413C362.621 150.569 362.573 150.7 362.477 150.808C362.381 150.904 362.249 150.952 362.093 150.952C361.95 150.952 361.818 150.892 361.722 150.796ZM365.054 146.301C366.433 146.301 367.116 145.702 367.116 144.491C367.116 143.304 366.433 142.705 365.054 142.705H362.633V146.289H365.054V146.301Z" fill="white"/>
<path d="M373.193 144.947C373.193 145.078 373.157 145.186 373.073 145.27C373.002 145.354 372.87 145.402 372.678 145.414L372.294 145.45C371.719 145.498 371.299 145.702 371.024 146.061C370.748 146.421 370.604 146.829 370.604 147.308V150.425C370.604 150.592 370.556 150.724 370.46 150.808C370.364 150.892 370.245 150.94 370.089 150.94C369.933 150.94 369.813 150.892 369.705 150.808C369.609 150.712 369.561 150.592 369.561 150.425V145.019C369.561 144.863 369.609 144.731 369.717 144.635C369.825 144.551 369.945 144.503 370.089 144.503C370.221 144.503 370.34 144.551 370.436 144.635C370.532 144.731 370.58 144.851 370.58 144.995V145.714C370.76 145.342 371.012 145.054 371.347 144.851C371.671 144.659 372.055 144.539 372.486 144.503L372.666 144.491C373.014 144.491 373.193 144.635 373.193 144.947Z" fill="white"/>
<path d="M374.991 150.58C374.548 150.317 374.2 149.933 373.949 149.442C373.709 148.95 373.589 148.375 373.589 147.728C373.589 147.08 373.709 146.505 373.949 146.013C374.188 145.522 374.536 145.138 374.991 144.875C375.447 144.611 375.962 144.479 376.55 144.479C377.137 144.479 377.665 144.611 378.108 144.875C378.564 145.138 378.911 145.522 379.151 146.013C379.391 146.505 379.511 147.068 379.511 147.728C379.511 148.375 379.391 148.95 379.151 149.442C378.911 149.933 378.564 150.305 378.108 150.58C377.653 150.844 377.137 150.976 376.55 150.976C375.962 150.976 375.447 150.844 374.991 150.58ZM377.964 149.502C378.288 149.094 378.456 148.507 378.456 147.728C378.456 146.972 378.288 146.385 377.952 145.965C377.617 145.546 377.149 145.342 376.538 145.342C375.926 145.342 375.459 145.546 375.123 145.965C374.788 146.385 374.62 146.972 374.62 147.728C374.62 148.495 374.788 149.082 375.111 149.49C375.435 149.897 375.914 150.101 376.526 150.101C377.173 150.113 377.641 149.909 377.964 149.502Z" fill="white"/>
<path d="M382.112 150.58C381.668 150.317 381.321 149.945 381.069 149.454C380.829 148.962 380.709 148.399 380.709 147.763C380.709 147.128 380.841 146.553 381.093 146.061C381.345 145.57 381.692 145.186 382.148 144.911C382.603 144.635 383.119 144.503 383.706 144.503C384.03 144.503 384.353 144.551 384.677 144.635C385.001 144.731 385.276 144.851 385.516 145.03C385.672 145.138 385.78 145.234 385.84 145.33C385.9 145.426 385.936 145.534 385.936 145.654C385.936 145.774 385.9 145.87 385.84 145.953C385.78 146.025 385.696 146.073 385.588 146.073C385.528 146.073 385.468 146.061 385.396 146.025C385.324 145.989 385.264 145.953 385.228 145.929C385.18 145.894 385.144 145.87 385.132 145.87C384.905 145.726 384.701 145.606 384.497 145.522C384.293 145.438 384.054 145.39 383.766 145.39C383.143 145.39 382.663 145.606 382.315 146.025C381.968 146.445 381.8 147.032 381.8 147.787C381.8 148.543 381.968 149.118 382.315 149.526C382.663 149.933 383.143 150.137 383.766 150.137C384.054 150.137 384.305 150.089 384.521 150.005C384.725 149.921 384.941 149.801 385.156 149.657C385.252 149.597 385.336 149.55 385.42 149.502C385.504 149.454 385.576 149.442 385.636 149.442C385.732 149.442 385.804 149.478 385.876 149.562C385.936 149.633 385.971 149.741 385.971 149.861C385.971 149.969 385.948 150.077 385.876 150.161C385.816 150.245 385.708 150.353 385.54 150.461C385.3 150.628 385.013 150.748 384.677 150.856C384.341 150.952 384.006 151 383.658 151C383.071 150.976 382.555 150.844 382.112 150.58Z" fill="white"/>
<path d="M392.289 149.55C392.361 149.622 392.396 149.729 392.396 149.849C392.396 150.065 392.241 150.257 391.953 150.437C391.641 150.616 391.318 150.748 390.982 150.844C390.634 150.94 390.311 150.976 389.987 150.976C389.016 150.976 388.261 150.688 387.698 150.113C387.134 149.538 386.859 148.746 386.859 147.74C386.859 147.104 386.978 146.529 387.23 146.037C387.482 145.546 387.829 145.162 388.273 144.887C388.716 144.611 389.232 144.479 389.807 144.479C390.622 144.479 391.27 144.743 391.737 145.27C392.217 145.798 392.456 146.517 392.456 147.428C392.456 147.596 392.42 147.728 392.349 147.799C392.277 147.871 392.169 147.919 392.013 147.919H387.889C387.961 149.394 388.657 150.125 389.975 150.125C390.311 150.125 390.598 150.077 390.838 149.993C391.078 149.897 391.33 149.777 391.605 149.633C391.821 149.502 391.977 149.442 392.049 149.442C392.145 149.43 392.217 149.478 392.289 149.55ZM388.489 145.81C388.165 146.157 387.961 146.637 387.901 147.26H391.533C391.521 146.625 391.354 146.145 391.054 145.81C390.754 145.474 390.335 145.306 389.795 145.306C389.256 145.294 388.824 145.462 388.489 145.81Z" fill="white"/>
<path d="M394.95 150.832C394.59 150.736 394.278 150.604 394.003 150.437C393.847 150.341 393.739 150.233 393.679 150.149C393.619 150.065 393.583 149.945 393.583 149.825C393.583 149.717 393.619 149.621 393.679 149.55C393.739 149.478 393.823 149.442 393.931 149.442C394.039 149.442 394.183 149.502 394.374 149.633C394.626 149.789 394.89 149.909 395.142 149.993C395.393 150.089 395.705 150.125 396.089 150.125C396.544 150.125 396.904 150.041 397.167 149.885C397.419 149.717 397.551 149.49 397.551 149.178C397.551 148.986 397.503 148.842 397.407 148.722C397.311 148.603 397.155 148.507 396.916 148.411C396.688 148.315 396.352 148.231 395.909 148.135C395.154 147.967 394.614 147.752 394.29 147.488C393.967 147.212 393.799 146.841 393.799 146.373C393.799 146.001 393.907 145.678 394.111 145.402C394.314 145.114 394.602 144.899 394.962 144.731C395.321 144.575 395.741 144.491 396.196 144.491C396.532 144.491 396.856 144.539 397.167 144.623C397.479 144.719 397.755 144.839 397.994 145.007C398.282 145.21 398.426 145.426 398.426 145.642C398.426 145.75 398.39 145.846 398.318 145.93C398.246 146.001 398.162 146.049 398.078 146.049C397.97 146.049 397.827 145.977 397.611 145.834C397.371 145.678 397.143 145.558 396.928 145.474C396.712 145.39 396.448 145.342 396.136 145.342C395.729 145.342 395.417 145.426 395.166 145.606C394.926 145.786 394.806 146.025 394.806 146.325C394.806 146.517 394.854 146.661 394.938 146.781C395.022 146.9 395.178 146.996 395.381 147.092C395.585 147.176 395.897 147.272 396.28 147.356C396.856 147.488 397.311 147.62 397.635 147.776C397.958 147.931 398.186 148.123 398.318 148.339C398.45 148.567 398.522 148.842 398.522 149.19C398.522 149.729 398.294 150.161 397.839 150.497C397.383 150.82 396.784 150.988 396.041 150.988C395.681 150.976 395.309 150.928 394.95 150.832Z" fill="white"/>
<path d="M401.099 150.832C400.739 150.736 400.428 150.604 400.152 150.437C399.996 150.341 399.888 150.233 399.828 150.149C399.769 150.065 399.733 149.945 399.733 149.825C399.733 149.717 399.769 149.621 399.828 149.55C399.888 149.478 399.972 149.442 400.08 149.442C400.188 149.442 400.332 149.502 400.524 149.633C400.775 149.789 401.039 149.909 401.291 149.993C401.543 150.089 401.854 150.125 402.238 150.125C402.693 150.125 403.053 150.041 403.317 149.885C403.568 149.717 403.7 149.49 403.7 149.178C403.7 148.986 403.652 148.842 403.556 148.722C403.46 148.603 403.305 148.507 403.065 148.411C402.837 148.315 402.502 148.231 402.058 148.135C401.303 147.967 400.763 147.752 400.44 147.488C400.116 147.212 399.948 146.841 399.948 146.373C399.948 146.001 400.056 145.678 400.26 145.402C400.464 145.114 400.751 144.899 401.111 144.731C401.471 144.575 401.89 144.491 402.346 144.491C402.681 144.491 403.005 144.539 403.317 144.623C403.628 144.719 403.904 144.839 404.144 145.007C404.431 145.21 404.575 145.426 404.575 145.642C404.575 145.75 404.539 145.846 404.467 145.93C404.395 146.001 404.312 146.049 404.228 146.049C404.12 146.049 403.976 145.977 403.76 145.834C403.52 145.678 403.293 145.558 403.077 145.474C402.861 145.39 402.597 145.342 402.286 145.342C401.878 145.342 401.567 145.426 401.315 145.606C401.075 145.786 400.955 146.025 400.955 146.325C400.955 146.517 401.003 146.661 401.087 146.781C401.171 146.9 401.327 146.996 401.531 147.092C401.734 147.176 402.046 147.272 402.43 147.356C403.005 147.488 403.46 147.62 403.784 147.776C404.108 147.931 404.336 148.123 404.467 148.339C404.599 148.567 404.671 148.842 404.671 149.19C404.671 149.729 404.443 150.161 403.988 150.497C403.532 150.82 402.933 150.988 402.19 150.988C401.83 150.976 401.459 150.928 401.099 150.832Z" fill="white"/>
<path d="M417.557 150.497C417.557 150.628 417.509 150.736 417.413 150.82C417.317 150.904 417.197 150.952 417.065 150.952C416.85 150.952 416.706 150.844 416.622 150.64L415.711 148.567H410.88L409.957 150.64C409.873 150.844 409.718 150.952 409.514 150.952C409.382 150.952 409.262 150.904 409.154 150.82C409.046 150.724 408.998 150.616 408.998 150.497C408.998 150.425 409.01 150.365 409.046 150.293L412.714 142.142C412.762 142.022 412.846 141.938 412.942 141.878C413.05 141.818 413.158 141.782 413.278 141.782C413.409 141.782 413.517 141.818 413.625 141.878C413.733 141.938 413.805 142.034 413.853 142.142L417.521 150.293C417.545 150.353 417.557 150.425 417.557 150.497ZM415.315 147.692L413.278 143.089L411.252 147.692H415.315Z" fill="white"/>
<path d="M424.018 144.659C424.114 144.755 424.15 144.875 424.15 145.031V150.449C424.15 150.592 424.102 150.712 424.018 150.808C423.934 150.904 423.802 150.952 423.634 150.952C423.478 150.952 423.359 150.904 423.275 150.82C423.179 150.724 423.143 150.616 423.143 150.473V149.825C422.951 150.197 422.675 150.485 422.316 150.688C421.956 150.88 421.561 150.988 421.117 150.988C420.374 150.988 419.81 150.784 419.439 150.365C419.067 149.945 418.875 149.334 418.875 148.531V145.043C418.875 144.887 418.923 144.767 419.019 144.671C419.115 144.575 419.247 144.527 419.403 144.527C419.571 144.527 419.691 144.575 419.786 144.671C419.87 144.767 419.918 144.887 419.918 145.043V148.507C419.918 149.058 420.026 149.466 420.254 149.729C420.47 149.993 420.829 150.125 421.309 150.125C421.86 150.125 422.292 149.945 422.627 149.598C422.963 149.238 423.131 148.77 423.131 148.195V145.055C423.131 144.899 423.179 144.779 423.275 144.683C423.371 144.587 423.49 144.539 423.658 144.539C423.802 144.515 423.922 144.563 424.018 144.659Z" fill="white"/>
<path d="M429.412 150.533C429.412 150.676 429.364 150.784 429.256 150.856C429.148 150.928 428.992 150.952 428.777 150.94L428.429 150.916C427.746 150.868 427.242 150.664 426.919 150.305C426.595 149.945 426.427 149.406 426.427 148.675V145.462H425.564C425.42 145.462 425.3 145.426 425.229 145.354C425.145 145.282 425.109 145.186 425.109 145.067C425.109 144.935 425.145 144.839 425.229 144.755C425.312 144.683 425.42 144.635 425.564 144.635H426.427V143.185C426.427 143.029 426.475 142.897 426.571 142.801C426.667 142.717 426.787 142.669 426.955 142.669C427.11 142.669 427.23 142.717 427.326 142.801C427.422 142.897 427.47 143.017 427.47 143.185V144.635H428.897C429.028 144.635 429.136 144.671 429.22 144.755C429.304 144.827 429.34 144.935 429.34 145.067C429.34 145.186 429.304 145.282 429.22 145.354C429.136 145.426 429.028 145.462 428.897 145.462H427.47V148.735C427.47 149.202 427.566 149.55 427.758 149.753C427.95 149.969 428.237 150.077 428.621 150.101L428.968 150.125C429.268 150.149 429.412 150.293 429.412 150.533Z" fill="white"/>
<path d="M431.474 150.58C431.03 150.317 430.683 149.933 430.431 149.442C430.191 148.95 430.071 148.375 430.071 147.728C430.071 147.08 430.191 146.505 430.431 146.013C430.671 145.522 431.018 145.138 431.474 144.875C431.917 144.611 432.445 144.479 433.032 144.479C433.62 144.479 434.147 144.611 434.59 144.875C435.034 145.138 435.394 145.522 435.633 146.013C435.873 146.505 435.993 147.068 435.993 147.728C435.993 148.375 435.873 148.95 435.633 149.442C435.394 149.933 435.046 150.305 434.59 150.58C434.135 150.844 433.62 150.976 433.032 150.976C432.445 150.976 431.917 150.844 431.474 150.58ZM434.447 149.502C434.77 149.094 434.938 148.507 434.938 147.728C434.938 146.972 434.77 146.385 434.435 145.965C434.099 145.546 433.632 145.342 433.02 145.342C432.409 145.342 431.941 145.546 431.606 145.965C431.27 146.385 431.102 146.972 431.102 147.728C431.102 148.495 431.27 149.082 431.594 149.49C431.917 149.897 432.397 150.101 433.008 150.101C433.644 150.113 434.123 149.909 434.447 149.502Z" fill="white"/>
<path d="M446.577 146.96V150.437C446.577 150.604 446.529 150.724 446.433 150.82C446.337 150.916 446.218 150.952 446.062 150.952C445.906 150.952 445.786 150.904 445.678 150.82C445.582 150.724 445.534 150.604 445.534 150.437V146.984C445.534 146.409 445.426 146.001 445.223 145.738C445.019 145.486 444.695 145.354 444.264 145.354C443.748 145.354 443.329 145.534 443.029 145.882C442.729 146.229 442.586 146.709 442.586 147.308V150.437C442.586 150.604 442.538 150.724 442.442 150.82C442.346 150.916 442.214 150.952 442.058 150.952C441.902 150.952 441.782 150.904 441.687 150.82C441.591 150.724 441.543 150.604 441.543 150.437V146.984C441.543 146.409 441.447 146.001 441.231 145.738C441.027 145.486 440.704 145.354 440.26 145.354C439.745 145.354 439.337 145.534 439.037 145.882C438.738 146.229 438.582 146.709 438.582 147.308V150.437C438.582 150.604 438.534 150.724 438.438 150.82C438.342 150.916 438.222 150.952 438.066 150.952C437.911 150.952 437.791 150.904 437.683 150.82C437.587 150.724 437.539 150.604 437.539 150.437V145.031C437.539 144.875 437.587 144.755 437.683 144.659C437.779 144.563 437.911 144.515 438.066 144.515C438.21 144.515 438.33 144.563 438.426 144.647C438.522 144.743 438.57 144.863 438.57 145.007V145.618C438.762 145.246 439.013 144.971 439.349 144.767C439.685 144.575 440.068 144.467 440.5 144.467C441.471 144.467 442.106 144.875 442.406 145.702C442.586 145.33 442.861 145.031 443.221 144.803C443.592 144.575 444.012 144.467 444.479 144.467C445.882 144.491 446.577 145.306 446.577 146.96Z" fill="white"/>
<path d="M453.362 146.948V150.437C453.362 150.592 453.314 150.712 453.23 150.808C453.134 150.904 453.014 150.952 452.87 150.952C452.715 150.952 452.595 150.904 452.499 150.808C452.403 150.712 452.355 150.592 452.355 150.437V149.825C452.187 150.197 451.947 150.473 451.612 150.676C451.276 150.88 450.892 150.976 450.461 150.976C450.053 150.976 449.694 150.892 449.358 150.736C449.023 150.568 448.759 150.353 448.555 150.053C448.363 149.765 448.255 149.442 448.255 149.094C448.255 148.627 448.375 148.255 448.615 148.003C448.855 147.74 449.25 147.56 449.79 147.44C450.341 147.32 451.096 147.272 452.067 147.272H452.343V146.852C452.343 146.337 452.235 145.965 452.031 145.726C451.815 145.486 451.48 145.366 451.012 145.366C450.437 145.366 449.838 145.522 449.238 145.846C449.011 145.989 448.843 146.061 448.747 146.061C448.639 146.061 448.555 146.025 448.495 145.941C448.423 145.87 448.387 145.762 448.387 145.642C448.387 145.522 448.423 145.414 448.495 145.33C448.567 145.234 448.687 145.15 448.843 145.054C449.142 144.887 449.478 144.743 449.862 144.647C450.245 144.551 450.617 144.503 451 144.503C452.583 144.491 453.362 145.306 453.362 146.948ZM451.863 149.633C452.187 149.286 452.355 148.842 452.355 148.291V147.919H452.127C451.372 147.919 450.809 147.955 450.413 148.015C450.017 148.075 449.742 148.183 449.574 148.339C449.406 148.483 449.322 148.71 449.322 148.998C449.322 149.334 449.442 149.609 449.682 149.825C449.922 150.041 450.233 150.149 450.593 150.149C451.108 150.149 451.528 149.981 451.863 149.633Z" fill="white"/>
<path d="M458.6 150.533C458.6 150.676 458.552 150.784 458.444 150.856C458.336 150.928 458.181 150.952 457.965 150.94L457.617 150.916C456.934 150.868 456.43 150.664 456.107 150.305C455.783 149.945 455.615 149.406 455.615 148.675V145.462H454.752C454.608 145.462 454.489 145.426 454.417 145.354C454.333 145.282 454.297 145.186 454.297 145.067C454.297 144.935 454.333 144.839 454.417 144.755C454.501 144.683 454.608 144.635 454.752 144.635H455.615V143.185C455.615 143.029 455.663 142.897 455.759 142.801C455.855 142.717 455.975 142.669 456.143 142.669C456.299 142.669 456.418 142.717 456.514 142.801C456.61 142.897 456.658 143.017 456.658 143.185V144.635H458.085C458.216 144.635 458.324 144.671 458.408 144.755C458.492 144.827 458.528 144.935 458.528 145.067C458.528 145.186 458.492 145.282 458.408 145.354C458.324 145.426 458.216 145.462 458.085 145.462H456.658V148.735C456.658 149.202 456.754 149.55 456.946 149.753C457.138 149.969 457.425 150.077 457.809 150.101L458.157 150.125C458.444 150.149 458.6 150.293 458.6 150.533Z" fill="white"/>
<path d="M459.643 142.993C459.511 142.873 459.451 142.717 459.451 142.513C459.451 142.321 459.511 142.166 459.643 142.046C459.775 141.926 459.943 141.866 460.146 141.866C460.35 141.866 460.518 141.926 460.65 142.046C460.782 142.166 460.842 142.321 460.842 142.513C460.842 142.705 460.782 142.861 460.65 142.993C460.518 143.113 460.35 143.173 460.146 143.173C459.943 143.173 459.775 143.113 459.643 142.993ZM459.775 150.808C459.679 150.712 459.631 150.592 459.631 150.425V145.019C459.631 144.863 459.679 144.731 459.775 144.635C459.871 144.551 460.003 144.503 460.158 144.503C460.314 144.503 460.434 144.551 460.53 144.635C460.626 144.731 460.674 144.851 460.674 145.019V150.425C460.674 150.592 460.626 150.724 460.53 150.808C460.434 150.892 460.314 150.94 460.158 150.94C459.991 150.952 459.871 150.904 459.775 150.808Z" fill="white"/>
<path d="M463.623 150.58C463.179 150.317 462.832 149.933 462.58 149.442C462.34 148.95 462.22 148.375 462.22 147.728C462.22 147.08 462.34 146.505 462.58 146.013C462.82 145.522 463.167 145.138 463.623 144.875C464.066 144.611 464.594 144.479 465.181 144.479C465.768 144.479 466.296 144.611 466.739 144.875C467.183 145.138 467.543 145.522 467.782 146.013C468.022 146.505 468.142 147.068 468.142 147.728C468.142 148.375 468.022 148.95 467.782 149.442C467.543 149.933 467.195 150.305 466.739 150.58C466.284 150.844 465.768 150.976 465.181 150.976C464.594 150.976 464.078 150.844 463.623 150.58ZM466.596 149.502C466.919 149.094 467.087 148.507 467.087 147.728C467.087 146.972 466.919 146.385 466.584 145.965C466.248 145.546 465.78 145.342 465.169 145.342C464.558 145.342 464.09 145.546 463.755 145.965C463.419 146.385 463.251 146.972 463.251 147.728C463.251 148.495 463.419 149.082 463.743 149.49C464.066 149.897 464.546 150.101 465.157 150.101C465.792 150.113 466.272 149.909 466.596 149.502Z" fill="white"/>
<path d="M475.094 146.96V150.437C475.094 150.604 475.046 150.724 474.962 150.82C474.878 150.916 474.747 150.952 474.579 150.952C474.411 150.952 474.291 150.904 474.195 150.82C474.099 150.724 474.051 150.604 474.051 150.437V147.032C474.051 146.457 473.943 146.025 473.716 145.762C473.488 145.498 473.128 145.366 472.637 145.366C472.061 145.366 471.606 145.546 471.27 145.894C470.923 146.241 470.755 146.721 470.755 147.32V150.449C470.755 150.616 470.707 150.736 470.623 150.832C470.539 150.928 470.407 150.964 470.239 150.964C470.072 150.964 469.952 150.916 469.856 150.832C469.76 150.736 469.712 150.616 469.712 150.449V145.042C469.712 144.887 469.76 144.767 469.856 144.671C469.952 144.575 470.084 144.527 470.239 144.527C470.395 144.527 470.515 144.575 470.599 144.671C470.695 144.767 470.731 144.887 470.731 145.03V145.69C470.935 145.306 471.222 145.018 471.594 144.815C471.966 144.611 472.385 144.515 472.853 144.515C474.339 144.491 475.094 145.306 475.094 146.96Z" fill="white"/>
<path d="M487.728 150.545C487.728 150.652 487.68 150.76 487.596 150.844C487.512 150.94 487.405 150.976 487.285 150.976C487.165 150.976 487.057 150.928 486.961 150.832L485.786 149.598C485.403 150.041 484.959 150.377 484.468 150.604C483.976 150.832 483.449 150.952 482.909 150.952C482.346 150.952 481.843 150.856 481.411 150.664C480.98 150.473 480.632 150.197 480.38 149.837C480.129 149.478 480.009 149.07 480.009 148.591C480.009 148.027 480.188 147.524 480.536 147.08C480.884 146.637 481.423 146.205 482.142 145.798C481.771 145.402 481.495 145.055 481.315 144.731C481.135 144.419 481.052 144.072 481.052 143.7C481.052 143.089 481.255 142.597 481.675 142.25C482.094 141.902 482.622 141.722 483.269 141.722C483.88 141.722 484.372 141.89 484.743 142.214C485.115 142.537 485.295 142.981 485.295 143.544C485.295 144 485.151 144.419 484.863 144.779C484.576 145.138 484.132 145.51 483.509 145.906L485.678 148.183C485.966 147.56 486.134 146.817 486.194 145.954C486.206 145.798 486.254 145.678 486.35 145.606C486.446 145.522 486.554 145.486 486.673 145.486C486.805 145.486 486.913 145.534 486.997 145.618C487.081 145.702 487.117 145.834 487.117 145.978C487.045 147.092 486.769 148.039 486.326 148.842L487.632 150.197C487.68 150.341 487.728 150.437 487.728 150.545ZM484.144 149.849C484.528 149.658 484.875 149.382 485.175 148.998L482.694 146.421C482.07 146.793 481.639 147.152 481.387 147.476C481.147 147.8 481.028 148.171 481.028 148.579C481.028 149.058 481.195 149.43 481.543 149.705C481.891 149.981 482.358 150.113 482.933 150.113C483.353 150.125 483.761 150.029 484.144 149.849ZM482.37 142.873C482.142 143.089 482.022 143.376 482.022 143.736C482.022 144 482.094 144.251 482.238 144.491C482.382 144.731 482.61 145.019 482.921 145.342C483.449 144.995 483.82 144.707 484.048 144.455C484.264 144.203 484.372 143.94 484.372 143.64C484.372 143.316 484.276 143.053 484.072 142.861C483.868 142.669 483.605 142.561 483.269 142.561C482.898 142.549 482.598 142.657 482.37 142.873Z" fill="white"/>
<path d="M492.403 150.796C492.307 150.7 492.259 150.569 492.259 150.401V142.31C492.259 142.142 492.307 142.022 492.403 141.914C492.499 141.818 492.631 141.77 492.787 141.77C492.955 141.77 493.074 141.818 493.17 141.914C493.266 142.01 493.314 142.142 493.314 142.31V150.401C493.314 150.557 493.266 150.688 493.17 150.796C493.074 150.892 492.943 150.94 492.787 150.94C492.619 150.952 492.499 150.892 492.403 150.796Z" fill="white"/>
<path d="M500.77 146.96V150.437C500.77 150.604 500.722 150.724 500.638 150.82C500.554 150.916 500.422 150.952 500.255 150.952C500.087 150.952 499.967 150.904 499.871 150.82C499.775 150.724 499.727 150.604 499.727 150.437V147.032C499.727 146.457 499.619 146.025 499.392 145.762C499.164 145.498 498.804 145.366 498.313 145.366C497.737 145.366 497.282 145.546 496.946 145.894C496.599 146.241 496.431 146.721 496.431 147.32V150.449C496.431 150.616 496.383 150.736 496.299 150.832C496.215 150.928 496.083 150.964 495.915 150.964C495.748 150.964 495.628 150.916 495.532 150.832C495.436 150.736 495.388 150.616 495.388 150.449V145.042C495.388 144.887 495.436 144.767 495.532 144.671C495.628 144.575 495.748 144.527 495.915 144.527C496.071 144.527 496.191 144.575 496.275 144.671C496.371 144.767 496.407 144.887 496.407 145.03V145.69C496.611 145.306 496.898 145.018 497.27 144.815C497.641 144.611 498.061 144.515 498.529 144.515C500.027 144.491 500.77 145.306 500.77 146.96Z" fill="white"/>
<path d="M508.058 141.926C508.154 142.022 508.202 142.142 508.202 142.286V150.437C508.202 150.592 508.154 150.712 508.058 150.808C507.962 150.904 507.83 150.952 507.675 150.952C507.507 150.952 507.387 150.904 507.291 150.808C507.207 150.712 507.159 150.592 507.159 150.437V149.741C506.967 150.137 506.692 150.437 506.332 150.652C505.972 150.868 505.541 150.976 505.061 150.976C504.51 150.976 504.031 150.844 503.611 150.568C503.191 150.293 502.868 149.909 502.64 149.418C502.412 148.926 502.292 148.363 502.292 147.704C502.292 147.068 502.412 146.505 502.64 146.013C502.868 145.522 503.191 145.15 503.611 144.887C504.031 144.623 504.51 144.491 505.061 144.491C505.553 144.491 505.972 144.599 506.332 144.815C506.692 145.031 506.967 145.33 507.159 145.726V142.286C507.159 142.13 507.207 142.01 507.291 141.926C507.387 141.842 507.507 141.794 507.675 141.794C507.842 141.782 507.974 141.83 508.058 141.926ZM506.668 149.49C506.991 149.07 507.159 148.483 507.159 147.728C507.159 146.972 506.991 146.385 506.668 145.977C506.344 145.57 505.877 145.366 505.265 145.366C504.654 145.366 504.186 145.57 503.851 145.977C503.515 146.385 503.347 146.96 503.347 147.704C503.347 148.459 503.515 149.058 503.851 149.478C504.186 149.897 504.654 150.113 505.265 150.113C505.877 150.113 506.344 149.909 506.668 149.49Z" fill="white"/>
<path d="M515.25 144.659C515.346 144.755 515.382 144.875 515.382 145.031V150.449C515.382 150.592 515.334 150.712 515.25 150.808C515.166 150.904 515.035 150.952 514.867 150.952C514.711 150.952 514.591 150.904 514.507 150.82C514.411 150.724 514.375 150.616 514.375 150.473V149.825C514.183 150.197 513.908 150.485 513.548 150.688C513.189 150.88 512.793 150.988 512.349 150.988C511.606 150.988 511.043 150.784 510.671 150.365C510.3 149.945 510.108 149.334 510.108 148.531V145.043C510.108 144.887 510.156 144.767 510.252 144.671C510.348 144.575 510.48 144.527 510.635 144.527C510.803 144.527 510.923 144.575 511.019 144.671C511.103 144.767 511.151 144.887 511.151 145.043V148.507C511.151 149.058 511.259 149.466 511.486 149.729C511.714 149.993 512.062 150.125 512.541 150.125C513.093 150.125 513.524 149.945 513.86 149.598C514.195 149.238 514.363 148.77 514.363 148.195V145.055C514.363 144.899 514.411 144.779 514.507 144.683C514.603 144.587 514.735 144.539 514.891 144.539C515.035 144.515 515.154 144.563 515.25 144.659Z" fill="white"/>
<path d="M518.295 150.832C517.935 150.736 517.624 150.604 517.348 150.437C517.192 150.341 517.084 150.233 517.024 150.149C516.964 150.065 516.928 149.945 516.928 149.825C516.928 149.717 516.964 149.621 517.024 149.55C517.084 149.478 517.168 149.442 517.276 149.442C517.384 149.442 517.528 149.502 517.72 149.633C517.971 149.789 518.235 149.909 518.487 149.993C518.738 150.089 519.05 150.125 519.434 150.125C519.889 150.125 520.249 150.041 520.513 149.885C520.764 149.717 520.896 149.49 520.896 149.178C520.896 148.986 520.848 148.842 520.752 148.722C520.656 148.603 520.501 148.507 520.261 148.411C520.033 148.315 519.697 148.231 519.254 148.135C518.499 147.967 517.959 147.752 517.636 147.488C517.312 147.212 517.144 146.841 517.144 146.373C517.144 146.001 517.252 145.678 517.456 145.402C517.66 145.114 517.947 144.899 518.307 144.731C518.667 144.575 519.086 144.491 519.542 144.491C519.877 144.491 520.201 144.539 520.513 144.623C520.824 144.719 521.1 144.839 521.34 145.007C521.627 145.21 521.771 145.426 521.771 145.642C521.771 145.75 521.735 145.846 521.663 145.93C521.591 146.001 521.507 146.049 521.424 146.049C521.316 146.049 521.172 145.977 520.956 145.834C520.716 145.678 520.489 145.558 520.273 145.474C520.057 145.39 519.793 145.342 519.482 145.342C519.074 145.342 518.762 145.426 518.511 145.606C518.271 145.786 518.151 146.025 518.151 146.325C518.151 146.517 518.199 146.661 518.283 146.781C518.367 146.9 518.523 146.996 518.727 147.092C518.93 147.176 519.242 147.272 519.626 147.356C520.201 147.488 520.656 147.62 520.98 147.776C521.304 147.931 521.531 148.123 521.663 148.339C521.795 148.567 521.867 148.842 521.867 149.19C521.867 149.729 521.639 150.161 521.184 150.497C520.728 150.82 520.129 150.988 519.386 150.988C519.026 150.976 518.655 150.928 518.295 150.832Z" fill="white"/>
<path d="M526.734 150.533C526.734 150.676 526.686 150.784 526.578 150.856C526.47 150.928 526.314 150.952 526.099 150.94L525.751 150.916C525.068 150.868 524.564 150.664 524.241 150.305C523.917 149.945 523.749 149.406 523.749 148.675V145.462H522.886C522.742 145.462 522.622 145.426 522.55 145.354C522.467 145.282 522.431 145.186 522.431 145.067C522.431 144.935 522.467 144.839 522.55 144.755C522.634 144.683 522.742 144.635 522.886 144.635H523.749V143.185C523.749 143.029 523.797 142.897 523.893 142.801C523.989 142.717 524.121 142.669 524.277 142.669C524.432 142.669 524.552 142.717 524.648 142.801C524.744 142.897 524.792 143.017 524.792 143.185V144.635H526.218C526.35 144.635 526.458 144.671 526.542 144.755C526.626 144.827 526.662 144.935 526.662 145.067C526.662 145.186 526.626 145.282 526.542 145.354C526.458 145.426 526.35 145.462 526.218 145.462H524.792V148.735C524.792 149.202 524.888 149.55 525.08 149.753C525.271 149.969 525.559 150.077 525.943 150.101L526.29 150.125C526.59 150.149 526.734 150.293 526.734 150.533Z" fill="white"/>
<path d="M531.385 144.947C531.385 145.078 531.349 145.186 531.265 145.27C531.193 145.354 531.061 145.402 530.869 145.414L530.486 145.45C529.91 145.498 529.491 145.702 529.215 146.061C528.939 146.421 528.795 146.829 528.795 147.308V150.425C528.795 150.592 528.747 150.724 528.652 150.808C528.556 150.892 528.436 150.94 528.28 150.94C528.124 150.94 528.004 150.892 527.896 150.808C527.801 150.712 527.753 150.592 527.753 150.425V145.019C527.753 144.863 527.801 144.731 527.908 144.635C528.016 144.551 528.136 144.503 528.28 144.503C528.412 144.503 528.532 144.551 528.628 144.635C528.724 144.731 528.771 144.851 528.771 144.995V145.714C528.951 145.342 529.203 145.054 529.539 144.851C529.862 144.659 530.246 144.539 530.677 144.503L530.857 144.491C531.205 144.491 531.385 144.635 531.385 144.947Z" fill="white"/>
<path d="M532.308 142.993C532.176 142.873 532.116 142.717 532.116 142.513C532.116 142.321 532.176 142.166 532.308 142.046C532.44 141.926 532.607 141.866 532.811 141.866C533.015 141.866 533.183 141.926 533.315 142.046C533.447 142.166 533.506 142.321 533.506 142.513C533.506 142.705 533.447 142.861 533.315 142.993C533.183 143.113 533.015 143.173 532.811 143.173C532.607 143.173 532.44 143.113 532.308 142.993ZM532.428 150.808C532.332 150.712 532.284 150.592 532.284 150.425V145.019C532.284 144.863 532.332 144.731 532.428 144.635C532.524 144.551 532.655 144.503 532.799 144.503C532.955 144.503 533.075 144.551 533.171 144.635C533.267 144.731 533.315 144.851 533.315 145.019V150.425C533.315 150.592 533.267 150.724 533.171 150.808C533.075 150.892 532.955 150.94 532.799 150.94C532.655 150.952 532.524 150.904 532.428 150.808Z" fill="white"/>
<path d="M540.147 146.948V150.437C540.147 150.592 540.099 150.712 540.015 150.808C539.919 150.904 539.799 150.952 539.656 150.952C539.5 150.952 539.38 150.904 539.284 150.808C539.188 150.712 539.14 150.592 539.14 150.437V149.825C538.972 150.197 538.733 150.473 538.397 150.676C538.061 150.88 537.678 150.976 537.246 150.976C536.839 150.976 536.479 150.892 536.143 150.736C535.808 150.568 535.544 150.353 535.34 150.053C535.149 149.765 535.041 149.442 535.041 149.094C535.041 148.627 535.161 148.255 535.4 148.003C535.64 147.74 536.036 147.56 536.575 147.44C537.126 147.32 537.882 147.272 538.852 147.272H539.14V146.852C539.14 146.337 539.032 145.965 538.829 145.726C538.613 145.486 538.277 145.366 537.81 145.366C537.234 145.366 536.635 145.522 536.036 145.846C535.808 145.989 535.64 146.061 535.544 146.061C535.436 146.061 535.352 146.025 535.292 145.941C535.22 145.87 535.184 145.762 535.184 145.642C535.184 145.522 535.22 145.414 535.292 145.33C535.364 145.234 535.484 145.15 535.64 145.054C535.94 144.887 536.275 144.743 536.659 144.647C537.042 144.551 537.414 144.503 537.798 144.503C539.368 144.491 540.147 145.306 540.147 146.948ZM538.649 149.633C538.972 149.286 539.14 148.842 539.14 148.291V147.919H538.912C538.157 147.919 537.594 147.955 537.198 148.015C536.803 148.075 536.527 148.183 536.359 148.339C536.191 148.483 536.107 148.71 536.107 148.998C536.107 149.334 536.227 149.609 536.467 149.825C536.707 150.041 537.018 150.149 537.378 150.149C537.894 150.149 538.313 149.981 538.649 149.633Z" fill="white"/>
<path d="M542.197 150.808C542.101 150.712 542.053 150.593 542.053 150.425V142.286C542.053 142.13 542.101 141.998 542.197 141.902C542.293 141.818 542.425 141.77 542.581 141.77C542.724 141.77 542.844 141.818 542.94 141.902C543.036 141.998 543.084 142.118 543.084 142.286V150.425C543.084 150.593 543.036 150.712 542.94 150.808C542.844 150.904 542.724 150.94 542.581 150.94C542.425 150.952 542.293 150.904 542.197 150.808Z" fill="white"/>
<path d="M548.622 150.796C548.526 150.7 548.478 150.569 548.478 150.401V142.31C548.478 142.142 548.526 142.022 548.622 141.914C548.718 141.818 548.85 141.77 549.005 141.77C549.173 141.77 549.293 141.818 549.389 141.914C549.485 142.01 549.533 142.142 549.533 142.31V150.401C549.533 150.557 549.485 150.688 549.389 150.796C549.293 150.892 549.161 150.94 549.005 150.94C548.85 150.952 548.718 150.892 548.622 150.796Z" fill="white"/>
<path d="M553.381 150.425C552.757 150.053 552.278 149.514 551.942 148.818C551.607 148.123 551.439 147.296 551.439 146.349C551.439 145.414 551.607 144.587 551.942 143.892C552.278 143.197 552.757 142.657 553.381 142.286C554.004 141.914 554.747 141.722 555.598 141.722C556.174 141.722 556.713 141.818 557.216 141.998C557.72 142.178 558.163 142.441 558.547 142.789C558.679 142.921 558.751 143.065 558.751 143.233C558.751 143.352 558.715 143.46 558.643 143.544C558.571 143.628 558.499 143.676 558.403 143.676C558.295 143.676 558.175 143.628 558.032 143.532C557.6 143.185 557.204 142.957 556.845 142.813C556.485 142.681 556.078 142.609 555.622 142.609C554.627 142.609 553.872 142.933 553.333 143.58C552.793 144.227 552.53 145.138 552.53 146.325C552.53 147.524 552.793 148.447 553.333 149.082C553.872 149.729 554.627 150.053 555.622 150.053C556.078 150.053 556.485 149.981 556.845 149.849C557.204 149.717 557.6 149.478 558.032 149.13C558.175 149.034 558.295 148.986 558.403 148.986C558.499 148.986 558.583 149.034 558.643 149.118C558.715 149.202 558.751 149.31 558.751 149.442C558.751 149.61 558.679 149.765 558.547 149.885C558.175 150.233 557.732 150.485 557.216 150.676C556.713 150.856 556.162 150.952 555.598 150.952C554.735 150.988 554.004 150.796 553.381 150.425Z" fill="white"/>
<path d="M562.634 150.796C562.539 150.7 562.491 150.568 562.491 150.401V142.741H559.734C559.578 142.741 559.458 142.705 559.374 142.621C559.29 142.549 559.242 142.429 559.242 142.285C559.242 142.142 559.29 142.034 559.374 141.95C559.458 141.878 559.578 141.83 559.734 141.83H566.302C566.458 141.83 566.578 141.866 566.662 141.95C566.746 142.022 566.794 142.142 566.794 142.285C566.794 142.429 566.746 142.537 566.662 142.621C566.578 142.693 566.458 142.741 566.302 142.741H563.545V150.401C563.545 150.556 563.498 150.688 563.402 150.796C563.306 150.892 563.174 150.94 563.018 150.94C562.862 150.952 562.73 150.892 562.634 150.796Z" fill="white"/>
</svg>
