<svg width="864" height="233" viewBox="0 0 864 233" fill="none" xmlns="http://www.w3.org/2000/svg">
<path d="M864 0H0V233H864V0Z" fill="black"/>
<path d="M424.1 169.4L418.5 159.5L412.8 149.7L424.1 153.7L435.5 149.7L429.8 159.5L424.1 169.4Z" fill="#878787"/>
<path d="M570.4 116.7L560.6 122.3L550.8 128L554.7 116.7L550.8 105.3L560.6 111L570.4 116.7Z" fill="#E42313"/>
<path d="M424.1 64L429.8 73.8L435.5 83.6L424.1 79.7L412.8 83.6L418.5 73.8L424.1 64Z" fill="#878787"/>
<path d="M444.1 116.8C444.1 128.4 435.1 135.3 424.1 135.3C413.1 135.3 404.1 128.4 404.1 116.8C404.1 105.5 413.1 98.1 424.1 98.1C435.1 98.1 444.1 105.4 444.1 116.8ZM416.9 117C416.9 121.4 419.9 124.4 424.1 124.4C428.3 124.4 431.3 121.4 431.3 117C431.3 112.9 428.5 109.5 424.1 109.5C419.7 109.5 416.9 112.9 416.9 117Z" fill="#E42313"/>
<path d="M294 99.6H306.6C318 99.6 326.8 104.6 326.8 117.1C326.8 127.2 319.7 133.7 309.7 133.7H294V99.6ZM306.4 123.5H307.2C311.3 123.5 314.5 121.6 314.5 117.1C314.5 112.3 311.7 110.3 307.2 110.3H306.4V123.5V123.5Z" fill="white"/>
<path d="M329.8 99.6H352.7V108.9H342.3V112.2H351.8V121.1H342.3V124.4H353.1V133.7H329.8V99.6Z" fill="white"/>
<path d="M373.1 99.6H388.1C395.8 99.6 402.3 102.9 402.3 111.4C402.3 116.6 400.3 118.7 395.7 120.3V120.6C396.3 121.1 397.1 121.6 397.8 122.6L405.2 133.7H390.8L385.4 122.8H385.2V133.7H373.1V99.6ZM385.2 114.7H386C388 114.7 390.1 114.4 390.1 111.9C390.1 109.3 388.2 109 386.1 109H385.2V114.7V114.7Z" fill="white"/>
<path d="M447 99.6H470V108.9H459.6V112.2H469.1V121.1H459.6V124.4H470.4V133.7H447V99.6Z" fill="white"/>
<path d="M509.6 99.6L496.4 133.7H485.9L472.7 99.6H485.6L490.1 115.1C490.6 116.8 491 118.4 491 120.2H491.3C491.3 118.5 491.7 116.8 492.2 115.1L496.7 99.6H509.6Z" fill="white"/>
<path d="M512.3 99.6H535.2V108.9H524.8V112.2H534.3V121.1H524.8V124.4H535.6V133.7H512.3V99.6Z" fill="white"/>
</svg>
