<?xml version="1.0" encoding="utf-8"?>
<!-- Generator: Adobe Illustrator 23.0.0, SVG Export Plug-In . SVG Version: 6.00 Build 0)  -->
<svg version="1.1" id="Слой_1" xmlns="http://www.w3.org/2000/svg" xmlns:xlink="http://www.w3.org/1999/xlink" x="0px" y="0px"
	 viewBox="0 0 1082 1385" style="enable-background:new 0 0 1082 1385;" xml:space="preserve">
<style type="text/css">
	.st0{fill:#191928;}
	.st1{fill:#191932;}
</style>
<g>
</g>
<g>
	<g>
		<path class="st0" d="M505.3,1051h-20.4c-2.6,0-4.7-2.1-4.7-4.7v-20.4c0-2.6,2.1-4.7,4.7-4.7h20.4c2.6,0,4.7,2.1,4.7,4.7v20.4
			C510,1048.9,507.9,1051,505.3,1051z M485.2,1046H505v-19.8h-19.8V1046z"/>
	</g>
	<g>
		<g>
			<path class="st0" d="M498,1041.4c-0.6,0-1.3-0.2-1.8-0.7l-5.8-5.8c-1-1-1-2.6,0-3.5c1-1,2.6-1,3.5,0l5.8,5.8c1,1,1,2.6,0,3.5
				C499.3,1041.2,498.6,1041.4,498,1041.4z"/>
		</g>
		<g>
			<path class="st0" d="M492.1,1041.4c-0.6,0-1.3-0.2-1.8-0.7c-1-1-1-2.6,0-3.5l5.8-5.8c1-1,2.6-1,3.5,0c1,1,1,2.6,0,3.5l-5.8,5.8
				C493.4,1041.2,492.8,1041.4,492.1,1041.4z"/>
		</g>
	</g>
	<g>
		<path class="st0" d="M624.5,1157.6H461.4c-4.7,0-8.5-3.7-8.5-8.3V990.9c0-4.6,3.8-8.3,8.5-8.3h48.2c1.4,0,2.5,1.1,2.5,2.5
			s-1.1,2.5-2.5,2.5h-48.2c-1.9,0-3.5,1.5-3.5,3.3v158.3c0,1.8,1.6,3.3,3.5,3.3h163.1c1.9,0,3.5-1.5,3.5-3.3V990.9
			c0-1.8-1.6-3.3-3.5-3.3h-48.2c-1.4,0-2.5-1.1-2.5-2.5s1.1-2.5,2.5-2.5h48.2c4.7,0,8.5,3.7,8.5,8.3v158.3
			C632.9,1153.8,629.1,1157.6,624.5,1157.6z"/>
	</g>
	<g>
		<g>
			<path class="st0" d="M573.1,991.9h-60.6c-2.6,0-4.7-2.1-4.7-4.7v-5.1c0-2.6,2.1-4.7,4.7-4.7h60.6c2.6,0,4.7,2.1,4.7,4.7v5.1
				C577.8,989.8,575.7,991.9,573.1,991.9z M512.9,986.9h59.9v-4.5h-59.9V986.9z"/>
		</g>
		<g>
			<path class="st0" d="M573.1,991.9h-60.6c-2.6,0-4.7-2.1-4.7-4.7v-5.1c0-2.6,2.1-4.7,4.7-4.7h60.6c2.6,0,4.7,2.1,4.7,4.7v5.1
				C577.8,989.8,575.7,991.9,573.1,991.9z M512.9,986.9h59.9v-4.5h-59.9V986.9z"/>
		</g>
	</g>
	<g>
		<path class="st0" d="M505.3,1085.3h-20.4c-2.6,0-4.7-2.1-4.7-4.7v-20.4c0-2.6,2.1-4.7,4.7-4.7h20.4c2.6,0,4.7,2.1,4.7,4.7v20.4
			C510,1083.2,507.9,1085.3,505.3,1085.3z M485.2,1080.3H505v-19.8h-19.8V1080.3z"/>
	</g>
	<g>
		<path class="st0" d="M505.3,1119.6h-20.4c-2.6,0-4.7-2.1-4.7-4.7v-20.4c0-2.6,2.1-4.7,4.7-4.7h20.4c2.6,0,4.7,2.1,4.7,4.7v20.4
			C510,1117.5,507.9,1119.6,505.3,1119.6z M485.2,1114.6H505v-19.8h-19.8V1114.6z"/>
	</g>
	<g>
		<path class="st0" d="M603.1,1038.6h-79.5c-1.4,0-2.5-1.1-2.5-2.5s1.1-2.5,2.5-2.5h79.5c1.4,0,2.5,1.1,2.5,2.5
			S604.4,1038.6,603.1,1038.6z"/>
	</g>
	<g>
		<path class="st0" d="M603.1,1072.9h-79.5c-1.4,0-2.5-1.1-2.5-2.5s1.1-2.5,2.5-2.5h79.5c1.4,0,2.5,1.1,2.5,2.5
			S604.4,1072.9,603.1,1072.9z"/>
	</g>
	<g>
		<path class="st0" d="M603.1,1107.2h-79.5c-1.4,0-2.5-1.1-2.5-2.5s1.1-2.5,2.5-2.5h79.5c1.4,0,2.5,1.1,2.5,2.5
			S604.4,1107.2,603.1,1107.2z"/>
	</g>
	<g>
		<path class="st0" d="M494.1,1110c-0.6,0-1.3-0.2-1.7-0.7l-3.4-3.3c-1-1-1-2.5-0.1-3.5c1-1,2.5-1,3.5-0.1l1.6,1.6l4.1-4.1
			c1-1,2.6-1,3.5,0c1,1,1,2.6,0,3.5l-5.8,5.8C495.4,1109.8,494.7,1110,494.1,1110z"/>
	</g>
</g>
<g>
	<g>
		<g>
			<g>
				<path class="st0" d="M821.5,518.9h-38.9c-4.8,0-8.6-3.8-8.6-8.6V347.4c0-4.8,3.8-8.6,8.6-8.6h38.9c4.8,0,8.6,3.8,8.6,8.6v162.8
					C830,515.1,826.3,518.9,821.5,518.9z M782.6,343.9c-2,0-3.6,1.6-3.6,3.6v162.8c0,2,1.6,3.6,3.6,3.6h38.9c2,0,3.6-1.5,3.6-3.6
					V347.4c0-2-1.5-3.6-3.6-3.6H782.6z"/>
			</g>
		</g>
		<g>
			<path class="st0" d="M801.7,376c-5.7,0-10.4-4.7-10.4-10.4s4.7-10.4,10.4-10.4s10.4,4.7,10.4,10.4S807.4,376,801.7,376z
				 M801.7,360.2c-3,0-5.4,2.4-5.4,5.4s2.4,5.4,5.4,5.4s5.4-2.4,5.4-5.4S804.6,360.2,801.7,360.2z"/>
		</g>
		<g>
			<path class="st0" d="M814.5,503.1H789c-1.4,0-2.5-1.1-2.5-2.5s1.1-2.5,2.5-2.5h25.5c1.4,0,2.5,1.1,2.5,2.5
				S815.9,503.1,814.5,503.1z"/>
		</g>
		<g>
			<path class="st0" d="M814.5,493.2H789c-1.4,0-2.5-1.1-2.5-2.5s1.1-2.5,2.5-2.5h25.5c1.4,0,2.5,1.1,2.5,2.5
				S815.9,493.2,814.5,493.2z"/>
		</g>
	</g>
	<g>
		<g>
			<g>
				<path class="st0" d="M883,518.9h-38.9c-4.8,0-8.6-3.8-8.6-8.6V347.4c0-4.8,3.8-8.6,8.6-8.6H883c4.8,0,8.6,3.8,8.6,8.6v162.8
					C891.5,515.1,887.8,518.9,883,518.9z M844.1,343.9c-2,0-3.6,1.6-3.6,3.6v162.8c0,2,1.6,3.6,3.6,3.6H883c2,0,3.6-1.5,3.6-3.6
					V347.4c0-2-1.6-3.6-3.6-3.6H844.1z"/>
			</g>
		</g>
		<g>
			<path class="st0" d="M863.2,376c-5.7,0-10.4-4.7-10.4-10.4s4.7-10.4,10.4-10.4s10.4,4.7,10.4,10.4S868.9,376,863.2,376z
				 M863.2,360.2c-3,0-5.4,2.4-5.4,5.4s2.4,5.4,5.4,5.4s5.4-2.4,5.4-5.4S866.1,360.2,863.2,360.2z"/>
		</g>
		<g>
			<path class="st0" d="M876.2,503.1h-25.5c-1.4,0-2.5-1.1-2.5-2.5s1.1-2.5,2.5-2.5h25.5c1.4,0,2.5,1.1,2.5,2.5
				S877.5,503.1,876.2,503.1z"/>
		</g>
		<g>
			<path class="st0" d="M876.2,493.2h-25.5c-1.4,0-2.5-1.1-2.5-2.5s1.1-2.5,2.5-2.5h25.5c1.4,0,2.5,1.1,2.5,2.5
				S877.5,493.2,876.2,493.2z"/>
		</g>
	</g>
	<g>
		<g>
			<g>
				<path class="st0" d="M945.4,518.9h-38.9c-4.8,0-8.6-3.8-8.6-8.6V347.4c0-4.8,3.8-8.6,8.6-8.6h38.9c4.8,0,8.6,3.8,8.6,8.6v162.8
					C954,515.1,950.2,518.9,945.4,518.9z M906.5,343.9c-2,0-3.6,1.6-3.6,3.6v162.8c0,2,1.6,3.6,3.6,3.6h38.9c2,0,3.6-1.6,3.6-3.6
					V347.4c0-2-1.6-3.6-3.6-3.6H906.5z"/>
			</g>
		</g>
		<g>
			<path class="st0" d="M925.6,376c-5.7,0-10.4-4.7-10.4-10.4s4.7-10.4,10.4-10.4s10.4,4.7,10.4,10.4S931.4,376,925.6,376z
				 M925.6,360.2c-3,0-5.4,2.4-5.4,5.4s2.4,5.4,5.4,5.4s5.4-2.4,5.4-5.4S928.6,360.2,925.6,360.2z"/>
		</g>
		<g>
			<path class="st0" d="M938.5,503.1H913c-1.4,0-2.5-1.1-2.5-2.5s1.1-2.5,2.5-2.5h25.5c1.4,0,2.5,1.1,2.5,2.5
				S939.9,503.1,938.5,503.1z"/>
		</g>
		<g>
			<path class="st0" d="M938.5,493.2H913c-1.4,0-2.5-1.1-2.5-2.5s1.1-2.5,2.5-2.5h25.5c1.4,0,2.5,1.1,2.5,2.5
				S939.9,493.2,938.5,493.2z"/>
		</g>
	</g>
</g>
<g>
	<g>
		<path class="st0" d="M945.5,836.6H782.5c-4.7,0-8.5-3.8-8.5-8.5V664.9c0-4.7,3.8-8.5,8.5-8.5h163.1c4.7,0,8.5,3.8,8.5,8.5v163.2
			C954,832.8,950.2,836.6,945.5,836.6z M782.5,661.5c-1.9,0-3.5,1.6-3.5,3.5v163.2c0,1.9,1.6,3.5,3.5,3.5h163.1
			c1.9,0,3.5-1.6,3.5-3.5V664.9c0-1.9-1.6-3.5-3.5-3.5H782.5z"/>
	</g>
	<g>
		<g>
			<path class="st0" d="M871.5,803.2h-15c-1.4,0-2.5-1.1-2.5-2.5v-30.8l-46.2-66.2c-0.3-0.4-0.5-0.9-0.5-1.4v-9.7
				c0-1.4,1.1-2.5,2.5-2.5h108.2c1.4,0,2.5,1.1,2.5,2.5v9.7c0,0.5-0.2,1-0.4,1.4L874,769.8v30.8C874,802,872.9,803.2,871.5,803.2z
				 M859,798.2h10V769c0-0.5,0.2-1,0.4-1.4l46.1-66.2v-6.4H812.3v6.4l46.2,66.2c0.3,0.4,0.5,0.9,0.5,1.4V798.2z"/>
		</g>
		<g>
			<path class="st0" d="M918.1,704.7H809.8c-1.4,0-2.5-1.1-2.5-2.5s1.1-2.5,2.5-2.5h108.2c1.4,0,2.5,1.1,2.5,2.5
				S919.4,704.7,918.1,704.7z"/>
		</g>
		<g>
			<path class="st0" d="M871.5,793.4h-15c-1.4,0-2.5-1.1-2.5-2.5s1.1-2.5,2.5-2.5h15c1.4,0,2.5,1.1,2.5,2.5S872.9,793.4,871.5,793.4
				z"/>
		</g>
	</g>
</g>
<g>
	<path class="st0" d="M624.6,836.6H461.4c-4.7,0-8.5-3.8-8.5-8.5V664.9c0-4.7,3.8-8.5,8.5-8.5h60c1.6,0,3.1,0.8,4,2.2l8.4,13.6h90.7
		c4.7,0,8.5,3.8,8.5,8.5V828c0.1,2.2-0.7,4.4-2.3,6C629,835.7,626.9,836.6,624.6,836.6z M461.4,661.5c-1.9,0-3.5,1.6-3.5,3.5v163.2
		c0,1.9,1.6,3.5,3.5,3.5h163.2c0.9,0,1.8-0.4,2.4-1c0.6-0.7,1-1.5,0.9-2.5l0-147.4c0-1.9-1.6-3.5-3.5-3.5h-90.8
		c-1.7,0-3.2-0.9-4.1-2.3l-8.3-13.5H461.4z M533.8,672.4L533.8,672.4C533.8,672.4,533.8,672.4,533.8,672.4z"/>
</g>
<g>
	<path class="st0" d="M542.7,750.9c-12.8,0-23.2-10.4-23.2-23.2c0-12.8,10.4-23.2,23.2-23.2c12.8,0,23.2,10.4,23.2,23.2
		C565.9,740.5,555.5,750.9,542.7,750.9z M542.7,709.6c-10,0-18.2,8.2-18.2,18.2s8.2,18.2,18.2,18.2s18.2-8.2,18.2-18.2
		S552.8,709.6,542.7,709.6z"/>
</g>
<g>
	<path class="st0" d="M576.2,801.6h-66.9c-1.4,0-2.5-1.1-2.5-2.5v-7.9c0-19.8,16.1-35.9,35.9-35.9s35.9,16.1,35.9,35.9v7.9
		C578.7,800.5,577.6,801.6,576.2,801.6z M511.8,796.6h61.9v-5.4c0-17.1-13.9-30.9-30.9-30.9c-17.1,0-30.9,13.9-30.9,30.9V796.6z"/>
</g>
<g>
	<g>
		<path class="st0" d="M301.7,197.4H138.6c-4.7,0-8.5-3.8-8.5-8.5V26c0-4.7,3.8-8.5,8.5-8.5h163c4.7,0,8.5,3.8,8.5,8.5v160.5h0.1
			v2.5C310.1,193.6,306.3,197.4,301.7,197.4z M138.6,22.6c-1.9,0-3.5,1.5-3.5,3.5v163c0,1.9,1.5,3.5,3.5,3.5h163.1
			c1.6,0,2.9-1.1,3.3-2.5V26c0-1.9-1.5-3.5-3.5-3.5H138.6z"/>
	</g>
	<g>
		<g>
			<path class="st0" d="M176,151.3c-1.4,0-2.5-1.1-2.5-2.5V66.1c0-1.4,1.1-2.5,2.5-2.5s2.5,1.1,2.5,2.5v82.6
				C178.5,150.1,177.4,151.3,176,151.3z"/>
		</g>
		<g>
			<path class="st0" d="M264.7,151.3c-1.4,0-2.5-1.1-2.5-2.5V66.1c0-1.4,1.1-2.5,2.5-2.5s2.5,1.1,2.5,2.5v82.6
				C267.2,150.1,266.1,151.3,264.7,151.3z"/>
		</g>
		<g>
			<path class="st0" d="M220.4,151.3c-1.4,0-2.5-1.1-2.5-2.5V66.1c0-1.4,1.1-2.5,2.5-2.5s2.5,1.1,2.5,2.5v82.6
				C222.9,150.1,221.7,151.3,220.4,151.3z"/>
		</g>
		<g>
			<path class="st0" d="M187.1,135.5c-1.4,0-2.5-1.1-2.5-2.5V66.1c0-1.4,1.1-2.5,2.5-2.5s2.5,1.1,2.5,2.5V133
				C189.6,134.3,188.4,135.5,187.1,135.5z"/>
		</g>
		<g>
			<path class="st0" d="M198.2,135.5c-1.4,0-2.5-1.1-2.5-2.5V66.1c0-1.4,1.1-2.5,2.5-2.5s2.5,1.1,2.5,2.5V133
				C200.7,134.3,199.6,135.5,198.2,135.5z"/>
		</g>
		<g>
			<path class="st0" d="M209.3,135.5c-1.4,0-2.5-1.1-2.5-2.5V66.1c0-1.4,1.1-2.5,2.5-2.5s2.5,1.1,2.5,2.5V133
				C211.8,134.3,210.7,135.5,209.3,135.5z"/>
		</g>
		<g>
			<path class="st0" d="M231.4,135.5c-1.4,0-2.5-1.1-2.5-2.5V66.1c0-1.4,1.1-2.5,2.5-2.5s2.5,1.1,2.5,2.5V133
				C233.9,134.3,232.8,135.5,231.4,135.5z"/>
		</g>
		<g>
			<path class="st0" d="M242.6,135.5c-1.4,0-2.5-1.1-2.5-2.5V66.1c0-1.4,1.1-2.5,2.5-2.5s2.5,1.1,2.5,2.5V133
				C245.1,134.3,244,135.5,242.6,135.5z"/>
		</g>
		<g>
			<path class="st0" d="M253.7,135.5c-1.4,0-2.5-1.1-2.5-2.5V66.1c0-1.4,1.1-2.5,2.5-2.5s2.5,1.1,2.5,2.5V133
				C256.2,134.3,255,135.5,253.7,135.5z"/>
		</g>
	</g>
</g>
<g>
	<g>
		<path class="st0" d="M455.4,410.7c-1.4,0-2.5-1.1-2.5-2.5v-60.9c0-4.7,3.8-8.5,8.5-8.5h60.9c1.4,0,2.5,1.1,2.5,2.5
			s-1.1,2.5-2.5,2.5h-60.9c-1.9,0-3.5,1.5-3.5,3.5v60.9C457.9,409.6,456.8,410.7,455.4,410.7z"/>
	</g>
	<g>
		<path class="st0" d="M630.4,410.7c-1.4,0-2.5-1.1-2.5-2.5v-60.9c0-1.9-1.5-3.5-3.5-3.5h-60.9c-1.4,0-2.5-1.1-2.5-2.5
			s1.1-2.5,2.5-2.5h60.9c4.7,0,8.5,3.8,8.5,8.5v60.9C632.9,409.6,631.8,410.7,630.4,410.7z"/>
	</g>
	<g>
		<path class="st0" d="M522.3,518.9h-60.9c-4.7,0-8.5-3.8-8.5-8.5v-60.9c0-1.4,1.1-2.5,2.5-2.5s2.5,1.1,2.5,2.5v60.9
			c0,1.9,1.5,3.5,3.5,3.5h60.9c1.4,0,2.5,1.1,2.5,2.5S523.6,518.9,522.3,518.9z"/>
	</g>
	<g>
		<path class="st0" d="M624.5,518.9h-60.9c-1.4,0-2.5-1.1-2.5-2.5s1.1-2.5,2.5-2.5h60.9c1.9,0,3.5-1.5,3.5-3.5v-60.9
			c0-1.4,1.1-2.5,2.5-2.5s2.5,1.1,2.5,2.5v60.9C632.9,515.1,629.1,518.9,624.5,518.9z"/>
	</g>
	<g>
		<path class="st0" d="M538.1,426.5h-66.8c-1.4,0-2.5-1.1-2.5-2.5v-60.8c0-4.8,3.8-8.6,8.6-8.6h60.8c1.4,0,2.5,1.1,2.5,2.5V424
			C540.6,425.4,539.4,426.5,538.1,426.5z M473.7,421.5h61.8v-61.8h-58.3c-2,0-3.6,1.5-3.6,3.6V421.5z"/>
	</g>
	<g>
		<path class="st0" d="M614.6,426.5h-66.8c-1.4,0-2.5-1.1-2.5-2.5v-66.8c0-1.4,1.1-2.5,2.5-2.5h60.8c4.8,0,8.6,3.8,8.6,8.6V424
			C617.1,425.4,616,426.5,614.6,426.5z M550.3,421.5h61.8v-58.3c0-2-1.6-3.6-3.6-3.6h-58.3V421.5z"/>
	</g>
	<g>
		<path class="st0" d="M608.5,503.1h-60.8c-1.4,0-2.5-1.1-2.5-2.5v-66.8c0-1.4,1.1-2.5,2.5-2.5h66.8c1.4,0,2.5,1.1,2.5,2.5v60.8
			C617.1,499.3,613.4,503.1,608.5,503.1z M550.3,498.1h58.3c2,0,3.6-1.6,3.6-3.6v-58.3h-61.8V498.1z"/>
	</g>
	<g>
		<path class="st0" d="M538.1,503.1h-60.8c-4.8,0-8.6-3.8-8.6-8.6v-60.8c0-1.4,1.1-2.5,2.5-2.5h66.8c1.4,0,2.5,1.1,2.5,2.5v66.8
			C540.6,502,539.4,503.1,538.1,503.1z M473.7,436.2v58.3c0,2,1.6,3.6,3.6,3.6h58.3v-61.8H473.7z"/>
	</g>
</g>
<g>
	<g>
		<path class="st0" d="M301.7,836.6H138.6c-4.7,0-8.5-3.8-8.5-8.5V665.1c0-4.7,3.8-8.5,8.5-8.5h163c4.7,0,8.5,3.8,8.5,8.5v162.3
			c0.1,0.2,0.1,0.5,0.1,0.8C310.1,832.8,306.3,836.6,301.7,836.6z M138.6,661.6c-1.9,0-3.5,1.5-3.5,3.5v163.1c0,1.9,1.5,3.5,3.5,3.5
			h163.1c1.7,0,3.1-1.2,3.4-2.9c0-0.2-0.1-0.4-0.1-0.6V665.1c0-1.9-1.5-3.5-3.5-3.5H138.6z"/>
	</g>
	<g>
		<path class="st0" d="M292.9,679.2c-4.1,0-7.4-3.3-7.4-7.4s3.3-7.4,7.4-7.4c4.1,0,7.4,3.3,7.4,7.4S297,679.2,292.9,679.2z
			 M292.9,669.5c-1.3,0-2.4,1.1-2.4,2.4s1.1,2.4,2.4,2.4c1.3,0,2.4-1.1,2.4-2.4S294.2,669.5,292.9,669.5z"/>
	</g>
	<g>
		<path class="st0" d="M277.2,679.2c-4.1,0-7.4-3.3-7.4-7.4s3.3-7.4,7.4-7.4c4.1,0,7.4,3.3,7.4,7.4S281.3,679.2,277.2,679.2z
			 M277.2,669.5c-1.3,0-2.4,1.1-2.4,2.4s1.1,2.4,2.4,2.4c1.3,0,2.4-1.1,2.4-2.4S278.5,669.5,277.2,669.5z"/>
	</g>
	<g>
		<path class="st0" d="M261.4,679.2c-4.1,0-7.4-3.3-7.4-7.4s3.3-7.4,7.4-7.4c4.1,0,7.4,3.3,7.4,7.4S265.5,679.2,261.4,679.2z
			 M261.4,669.5c-1.3,0-2.4,1.1-2.4,2.4s1.1,2.4,2.4,2.4c1.3,0,2.4-1.1,2.4-2.4S262.7,669.5,261.4,669.5z"/>
	</g>
	<g>
		<path class="st0" d="M161.8,836.2c-1.4,0-2.5-1.1-2.5-2.5v-49.6c0-1.4,1.1-2.5,2.5-2.5s2.5,1.1,2.5,2.5v49.6
			C164.3,835.1,163.2,836.2,161.8,836.2z"/>
	</g>
	<g>
		<path class="st0" d="M191.2,836.2c-1.4,0-2.5-1.1-2.5-2.5v-74.4c0-1.4,1.1-2.5,2.5-2.5s2.5,1.1,2.5,2.5v74.4
			C193.7,835.1,192.6,836.2,191.2,836.2z"/>
	</g>
	<g>
		<path class="st0" d="M220.5,836.2c-1.4,0-2.5-1.1-2.5-2.5v-49.6c0-1.4,1.1-2.5,2.5-2.5c1.4,0,2.5,1.1,2.5,2.5v49.6
			C223,835.1,221.9,836.2,220.5,836.2z"/>
	</g>
	<g>
		<path class="st0" d="M249.3,836.2c-1.4,0-2.5-1.1-2.5-2.5v-74.4c0-1.4,1.1-2.5,2.5-2.5s2.5,1.1,2.5,2.5v74.4
			C251.8,835.1,250.7,836.2,249.3,836.2z"/>
	</g>
	<g>
		<path class="st0" d="M278.5,836.2c-1.4,0-2.5-1.1-2.5-2.5v-99.2c0-1.4,1.1-2.5,2.5-2.5s2.5,1.1,2.5,2.5v99.2
			C281,835.1,279.8,836.2,278.5,836.2z"/>
	</g>
	<g>
		<path class="st0" d="M161.9,761.9c-0.7,0-1.4-0.3-1.9-0.9c-0.9-1-0.8-2.6,0.2-3.5l29.3-25.5c1-0.8,2.4-0.8,3.3,0l26.9,24.1
			l56.9-48.9c1-0.9,2.6-0.8,3.5,0.3c0.9,1,0.8,2.6-0.3,3.5l-58.6,50.3c-1,0.8-2.4,0.8-3.3,0l-26.9-24.1l-27.6,24.1
			C163.1,761.7,162.5,761.9,161.9,761.9z"/>
	</g>
	<g>
		<path class="st0" d="M277.6,718.6c-0.1,0-0.2,0-0.3,0c-1.4-0.2-2.4-1.4-2.2-2.8l0.5-4.7l-4.7,0.5c-1.4,0.1-2.6-0.8-2.8-2.2
			c-0.1-1.4,0.8-2.6,2.2-2.8l7.8-0.9c0.8-0.1,1.5,0.2,2,0.7c0.5,0.5,0.8,1.3,0.7,2l-0.9,7.8C280,717.7,278.9,718.6,277.6,718.6z"/>
	</g>
	<g>
		<path class="st0" d="M307.6,687.1h-175c-1.4,0-2.5-1.1-2.5-2.5s1.1-2.5,2.5-2.5h175c1.4,0,2.5,1.1,2.5,2.5S309,687.1,307.6,687.1z
			"/>
	</g>
</g>
<g>
	<g>
		<path class="st0" d="M945.5,1157.5H782.5c-4.7,0-8.5-3.8-8.5-8.5V985.9c0-4.7,3.8-8.5,8.5-8.5h163c4.7,0,8.5,3.8,8.5,8.5v162.3
			c0.1,0.2,0.1,0.5,0.1,0.8C954,1153.7,950.2,1157.5,945.5,1157.5z M782.5,982.5c-1.9,0-3.5,1.5-3.5,3.5V1149c0,1.9,1.5,3.5,3.5,3.5
			h163.1c1.7,0,3.1-1.2,3.4-2.9c0-0.2-0.1-0.4-0.1-0.6V985.9c0-1.9-1.5-3.5-3.5-3.5H782.5z"/>
	</g>
	<g>
		<path class="st0" d="M918.1,1120.9h-9.7c-1.4,0-2.5-1.1-2.5-2.5s1.1-2.5,2.5-2.5h9.7c1.4,0,2.5,1.1,2.5,2.5
			S919.5,1120.9,918.1,1120.9z"/>
	</g>
	<g>
		<path class="st0" d="M896.2,1120.9h-26.1c-1.4,0-2.5-1.1-2.5-2.5s1.1-2.5,2.5-2.5h26.1c1.4,0,2.5,1.1,2.5,2.5
			S897.6,1120.9,896.2,1120.9z"/>
	</g>
	<g>
		<path class="st0" d="M857.9,1120.9h-26.1c-1.4,0-2.5-1.1-2.5-2.5s1.1-2.5,2.5-2.5h26.1c1.4,0,2.5,1.1,2.5,2.5
			S859.3,1120.9,857.9,1120.9z"/>
	</g>
	<g>
		<path class="st0" d="M819.6,1120.9h-9.7c-1.4,0-2.5-1.1-2.5-2.5s1.1-2.5,2.5-2.5h9.7c1.4,0,2.5,1.1,2.5,2.5
			S821,1120.9,819.6,1120.9z"/>
	</g>
	<g>
		<path class="st0" d="M825.7,1126.9c-4.7,0-8.6-3.8-8.6-8.6s3.8-8.6,8.6-8.6s8.6,3.8,8.6,8.6S830.5,1126.9,825.7,1126.9z
			 M825.7,1114.8c-2,0-3.6,1.6-3.6,3.6s1.6,3.6,3.6,3.6s3.6-1.6,3.6-3.6S827.7,1114.8,825.7,1114.8z"/>
	</g>
	<g>
		<path class="st0" d="M902.3,1126.9c-4.7,0-8.6-3.8-8.6-8.6s3.8-8.6,8.6-8.6s8.6,3.8,8.6,8.6S907,1126.9,902.3,1126.9z
			 M902.3,1114.8c-2,0-3.6,1.6-3.6,3.6s1.6,3.6,3.6,3.6s3.6-1.6,3.6-3.6S904.3,1114.8,902.3,1114.8z"/>
	</g>
	<g>
		<path class="st0" d="M864,1095.5c-0.9,0-1.8-0.5-2.2-1.4l-7.1-14.3H816c-4.8,0-8.6-3.8-8.6-8.6v-54.7c0-4.8,3.8-8.6,8.6-8.6h96
			c4.7,0,8.6,3.8,8.6,8.6v54.7c0,4.8-3.8,8.6-8.6,8.6h-38.7l-7.1,14.3C865.8,1094.9,865,1095.5,864,1095.5z M816,1013
			c-2,0-3.6,1.6-3.6,3.6v54.7c0,2,1.6,3.6,3.6,3.6h40.2c0.9,0,1.8,0.5,2.2,1.4l5.5,11.2l5.5-11.2c0.4-0.9,1.3-1.4,2.2-1.4H912
			c2,0,3.6-1.6,3.6-3.6v-54.7c0-2-1.6-3.6-3.6-3.6H816z"/>
	</g>
	<g>
		<path class="st0" d="M864,1126.9c-4.7,0-8.6-3.8-8.6-8.6s3.8-8.6,8.6-8.6s8.6,3.8,8.6,8.6S868.7,1126.9,864,1126.9z M864,1114.8
			c-2,0-3.6,1.6-3.6,3.6s1.6,3.6,3.6,3.6s3.6-1.6,3.6-3.6S866,1114.8,864,1114.8z"/>
	</g>
</g>
<g>
	<g>
		<path class="st0" d="M215.3,452h-82.6c-1.4,0-2.5-1.1-2.5-2.5V347.4c0-4.8,3.8-8.6,8.6-8.6h76.6c1.4,0,2.5,1.1,2.5,2.5v108.2
			C217.8,450.9,216.6,452,215.3,452z M135.1,447h77.6V343.9h-74.1c-2,0-3.6,1.6-3.6,3.6V447z"/>
	</g>
	<g>
		<path class="st0" d="M301.5,518.9H225c-1.4,0-2.5-1.1-2.5-2.5V408.2c0-1.4,1.1-2.5,2.5-2.5h82.6c1.4,0,2.5,1.1,2.5,2.5v102.1
			C310.1,515.1,306.4,518.9,301.5,518.9z M227.5,513.9h74.1c2,0,3.6-1.6,3.6-3.6v-99.6h-77.6V513.9z"/>
	</g>
	<g>
		<path class="st0" d="M307.6,399.8H225c-1.4,0-2.5-1.1-2.5-2.5v-55.9c0-1.4,1.1-2.5,2.5-2.5h76.6c4.8,0,8.6,3.8,8.6,8.6v49.8
			C310.1,398.7,309,399.8,307.6,399.8z M227.5,394.8h77.6v-47.3c0-2-1.6-3.6-3.6-3.6h-74.1V394.8z"/>
	</g>
	<g>
		<path class="st0" d="M215.3,518.9h-76.6c-4.8,0-8.6-3.8-8.6-8.6v-49.8c0-1.4,1.1-2.5,2.5-2.5h82.6c1.4,0,2.5,1.1,2.5,2.5v55.9
			C217.8,517.8,216.6,518.9,215.3,518.9z M135.1,463v47.3c0,2,1.6,3.6,3.6,3.6h74.1V463H135.1z"/>
	</g>
</g>
<g>
	<g>
		<g>
			<path class="st0" d="M624.5,197.5H461.4c-4.7,0-8.5-3.8-8.5-8.5V26c0-4.7,3.8-8.5,8.5-8.5h163c4.7,0,8.5,3.8,8.5,8.5v162.3
				c0.1,0.2,0.1,0.5,0.1,0.8C632.9,193.7,629.1,197.5,624.5,197.5z M461.4,22.5c-1.9,0-3.5,1.5-3.5,3.5V189c0,1.9,1.5,3.5,3.5,3.5
				h163.1c1.7,0,3.1-1.2,3.4-2.9c0-0.2-0.1-0.4-0.1-0.6V26c0-1.9-1.5-3.5-3.5-3.5H461.4z"/>
		</g>
		<g>
			<path class="st0" d="M630.2,48H455.7c-1.4,0-2.5-1.1-2.5-2.5s1.1-2.5,2.5-2.5h174.5c1.4,0,2.5,1.1,2.5,2.5S631.6,48,630.2,48z"/>
		</g>
	</g>
	<g>
		<path class="st0" d="M500.9,122h-45.5c-1.4,0-2.5-1.1-2.5-2.5s1.1-2.5,2.5-2.5h45.5c1.4,0,2.5,1.1,2.5,2.5S502.3,122,500.9,122z"
			/>
	</g>
	<g>
		<path class="st0" d="M629.7,122h-45c-1.4,0-2.5-1.1-2.5-2.5s1.1-2.5,2.5-2.5h45c1.4,0,2.5,1.1,2.5,2.5S631.1,122,629.7,122z"/>
	</g>
	<g>
		<path class="st0" d="M488.5,34.9h-15.8c-1.4,0-2.5-1.1-2.5-2.5s1.1-2.5,2.5-2.5h15.8c1.4,0,2.5,1.1,2.5,2.5S489.9,34.9,488.5,34.9
			z"/>
	</g>
	<g>
		<path class="st0" d="M612.4,34.9h-15.8c-1.4,0-2.5-1.1-2.5-2.5s1.1-2.5,2.5-2.5h15.8c1.4,0,2.5,1.1,2.5,2.5S613.8,34.9,612.4,34.9
			z"/>
	</g>
	<g>
		<path class="st0" d="M542.9,197.5c-1.4,0-2.5-1.1-2.5-2.5v-32.8c0-1.4,1.1-2.5,2.5-2.5s2.5,1.1,2.5,2.5V195
			C545.4,196.4,544.3,197.5,542.9,197.5z"/>
	</g>
	<g>
		<path class="st0" d="M542.9,82c-1.4,0-2.5-1.1-2.5-2.5V46.3c0-1.4,1.1-2.5,2.5-2.5s2.5,1.1,2.5,2.5v33.3
			C545.4,80.9,544.3,82,542.9,82z"/>
	</g>
	<g>
		<path class="st0" d="M543,164.8c-24.2,0-43.8-19.7-43.8-43.8s19.7-43.8,43.8-43.8s43.8,19.7,43.8,43.8S567.2,164.8,543,164.8z
			 M543,82.2c-21.4,0-38.8,17.4-38.8,38.8s17.4,38.8,38.8,38.8s38.8-17.4,38.8-38.8S564.4,82.2,543,82.2z"/>
	</g>
	<g>
		<path class="st0" d="M543.4,122.2c-0.4,0-0.8-0.1-1.2-0.3l-19.4-10.9c-1.2-0.7-1.6-2.2-1-3.4c0.7-1.2,2.2-1.6,3.4-1l17.8,10
			l18.1-17c1-0.9,2.6-0.9,3.5,0.1c0.9,1,0.9,2.6-0.1,3.5l-19.4,18.2C544.6,121.9,544,122.2,543.4,122.2z"/>
	</g>
</g>
<g>
	<g>
		<path class="st0" d="M864,83c-5.7,0-10.4-4.7-10.4-10.4c0-5.7,4.7-10.4,10.4-10.4s10.4,4.7,10.4,10.4C874.4,78.4,869.7,83,864,83z
			 M864,67.2c-3,0-5.4,2.4-5.4,5.4S861,78,864,78s5.4-2.4,5.4-5.4S867,67.2,864,67.2z"/>
	</g>
	<g>
		<path class="st0" d="M864.1,113c-2.4,0-4.3-1.9-4.3-4.3s1.9-4.3,4.3-4.3s4.3,1.9,4.3,4.3S866.5,113,864.1,113z M864.1,108
			c-0.4,0-0.7,0.3-0.7,0.7c0,0.4,0.3,0.7,0.7,0.7c0.4,0,0.7-0.3,0.7-0.7C864.8,108.4,864.5,108,864.1,108z"/>
	</g>
	<g>
		<path class="st0" d="M945.5,198.7H782.5c-4.7,0-8.5-3.8-8.5-8.5V27.2c0-4.7,3.8-8.5,8.5-8.5h163c4.7,0,8.5,3.8,8.5,8.5v162.3
			c0.1,0.2,0.1,0.5,0.1,0.8C954,194.9,950.2,198.7,945.5,198.7z M782.5,23.7c-1.9,0-3.5,1.5-3.5,3.5v163.1c0,1.9,1.5,3.5,3.5,3.5
			h163.1c1.7,0,3.1-1.2,3.4-2.9c0-0.2-0.1-0.4-0.1-0.6V27.2c0-1.9-1.5-3.5-3.5-3.5H782.5z"/>
	</g>
	<g>
		<path class="st0" d="M864,111.2c-0.6,0-1.3-0.2-1.8-0.7c-1-1-1-2.6,0-3.5L907,62.2c1-1,2.6-1,3.5,0c1,1,1,2.6,0,3.5l-44.7,44.7
			C865.3,111,864.6,111.2,864,111.2z"/>
	</g>
	<g>
		<path class="st0" d="M864.1,129.2c-5.4,0-10.6-2.1-14.4-5.9c-3.9-3.8-6-9-6.1-14.5s2.1-10.6,5.9-14.5s9-6,14.5-6.1
			c5.4,0,10.5,2.1,14.5,5.9c1,1,1,2.5,0.1,3.5c-1,1-2.5,1-3.5,0.1c-3-2.9-6.9-4.5-11-4.5c0,0,0,0-0.1,0c-4.2,0-8,1.6-10.9,4.6
			c-2.9,2.9-4.5,6.8-4.5,11c0,4.2,1.6,8,4.6,10.9c2.9,2.9,6.8,4.5,10.9,4.5c0,0,0.1,0,0.1,0c8.5,0,15.4-7,15.4-15.5
			c0-1.4,1.1-2.5,2.5-2.5l0,0c1.4,0,2.5,1.1,2.5,2.5c0,11.2-9.1,20.4-20.4,20.5C864.2,129.2,864.2,129.2,864.1,129.2z"/>
	</g>
	<g>
		<path class="st0" d="M864,165.3c-31.2,0-56.6-25.4-56.6-56.6s25.4-56.6,56.6-56.6c15.1,0,29.2,5.8,39.8,16.4c1,1,1,2.6,0,3.5
			c-1,1-2.6,1-3.5,0c-9.6-9.6-22.5-14.9-36.3-14.9c-28.4,0-51.6,23.1-51.6,51.6c0,28.4,23.1,51.6,51.6,51.6s51.6-23.1,51.6-51.6
			c0-1.4,1.1-2.5,2.5-2.5s2.5,1.1,2.5,2.5C920.6,139.9,895.2,165.3,864,165.3z"/>
	</g>
	<g>
		<path class="st0" d="M889.5,85.7c-0.6,0-1.3-0.2-1.8-0.7c-4.6-4.6-10.3-7.7-16.4-9c-1.4-0.3-2.2-1.6-1.9-3s1.6-2.2,3-1.9
			c7.1,1.5,13.6,5.1,18.9,10.4c1,1,1,2.6,0,3.5C890.8,85.5,890.2,85.7,889.5,85.7z"/>
	</g>
	<g>
		<path class="st0" d="M863.9,147.3c-21.3,0-38.6-17.3-38.6-38.6c0-18.2,12.4-33.7,30.1-37.7c1.3-0.3,2.7,0.5,3,1.9
			c0.3,1.3-0.5,2.7-1.9,3c-15.5,3.5-26.2,17-26.2,32.8c0,18.5,15.1,33.6,33.6,33.6s33.6-15.1,33.6-33.6c0-1.4,1.1-2.5,2.5-2.5
			s2.5,1.1,2.5,2.5C902.5,130,885.2,147.3,863.9,147.3z"/>
	</g>
</g>
<g>
	<g>
		<path class="st0" d="M301.7,1157.5H138.6c-4.7,0-8.5-3.8-8.5-8.5V985.9c0-4.7,3.8-8.5,8.5-8.5h163c4.7,0,8.5,3.8,8.5,8.5v162.3
			c0.1,0.2,0.1,0.5,0.1,0.8C310.1,1153.7,306.3,1157.5,301.7,1157.5z M138.6,982.5c-1.9,0-3.5,1.5-3.5,3.5V1149
			c0,1.9,1.5,3.5,3.5,3.5h163.1c1.7,0,3.1-1.2,3.4-2.9c0-0.2-0.1-0.4-0.1-0.6V985.9c0-1.9-1.5-3.5-3.5-3.5H138.6z"/>
	</g>
	<g>
		<path class="st0" d="M220.1,1104.3c-20.3,0-36.8-16.5-36.8-36.8s16.5-36.8,36.8-36.8s36.8,16.5,36.8,36.8
			S240.4,1104.3,220.1,1104.3z M220.1,1035.6c-17.5,0-31.8,14.3-31.8,31.8s14.3,31.8,31.8,31.8s31.8-14.3,31.8-31.8
			S237.7,1035.6,220.1,1035.6z"/>
	</g>
	<g>
		<path class="st1" d="M220.7,1050.3c-2.5-0.1-5,0.4-7.1,1.3c-0.6,0.2-0.8,0.9-0.5,1.5c0.6,1,0.8,2.2,0.6,3.4
			c-0.3,2.3-2.2,4.1-4.5,4.5c-1.3,0.2-2.4-0.1-3.4-0.7c-0.5-0.3-1.2-0.1-1.5,0.5c-0.9,2.2-1.4,4.6-1.4,7.2
			c0.3,8.9,7.4,16.2,16.3,16.6c10.2,0.5,18.5-7.8,18-18C236.8,1057.8,229.6,1050.6,220.7,1050.3z"/>
	</g>
</g>
</svg>
